M48
;Layer_Color=9474304
;FILE_FORMAT=4:4
METRIC,LZ
;TYPE=PLATED
T1F00S00C0.4000
T2F00S00C0.5000
T3F00S00C0.7000
T4F00S00C1.0000
T5F00S00C1.0160
T6F00S00C1.0200
T7F00S00C1.1000
T8F00S00C1.2000
T9F00S00C1.4000
T10F00S00C1.5000
T12F00S00C2.1000
T13F00S00C2.5400
T14F00S00C3.0000
;TYPE=NON_PLATED
T15F00S00C3.2000
T16F00S00C5.0000
%
T01
X012165Y011615
X0144Y01159
Y01169
Y01179
Y01189
X0145
Y01179
X0146
Y01189
X0147
Y01179
X0148
Y01189
X0149
Y01179
X015
Y01189
X0151
Y01179
X0152
Y01189
X0153
Y01179
X0154
Y01189
X0155
Y01179
X0156
Y01189
X0158
Y01179
Y01169
Y01159
Y01149
Y01139
Y01129
Y01119
Y01109
X0156
X0155
X0154
X0153
X0152
X0151
X015
X0149
X0148
X0147
X0146
X0145
Y01119
Y01129
Y01139
Y01149
Y01159
Y01169
X0146
X0147
X0148
X0149
X015
X0151
X0152
X0153
X0154
X0155
X0156
Y01159
X0155
X0154
X0153
X0152
X0151
X015
X0149
X0148
X0147
X0146
Y01149
X0147
X0148
X0149
X015
X0151
X0152
X0153
X0154
X0155
X0156
Y01139
Y01129
X0155
Y01139
X0154
Y01129
X0153
Y01139
X0152
Y01129
X0151
Y01139
X015
Y01129
X0149
Y01139
X0148
Y01129
X0147
Y01139
X0146
Y01129
Y01119
X0147
X0148
X0149
X015
X0151
X0152
X0153
X0154
X0155
X0156
X0144
Y01129
Y01139
Y01149
Y01109
X0159
Y01119
X016
X0161
X0162
X0163
X0164
X0165
X0166
X0167
X0168
X0169
X017
Y01109
X0169
X0168
X0167
X0166
X0165
X0164
X0163
X0162
X0161
X016
Y01129
Y01139
X0161
Y01129
X0162
X0163
Y01139
X0162
Y01149
X0163
X0164
Y01139
Y01129
X0165
Y01139
X0166
Y01129
X0167
Y01139
X0168
Y01129
X0169
Y01139
X017
Y01129
Y01149
X0169
X0168
X0167
X0166
X0165
Y01159
X0166
X0167
X0168
X0169
X017
Y01169
X0169
X0168
X0167
X0166
X0165
X0164
Y01159
X0163
X0162
X0161
Y01149
X016
X0159
Y01139
Y01129
Y01159
X016
Y01169
X0161
X0162
X0163
Y01179
X0162
Y01189
X0163
X0164
Y01179
X0165
Y01189
X0166
Y01179
X0167
Y01189
X0168
Y01179
X0169
Y01189
X017
Y01179
X0161
Y01189
X016
Y01179
X0159
Y01189
Y01169
Y01199
X016
X0161
X0162
X0163
X0164
X0165
X0166
X0167
X0168
X0169
X017
Y01209
X0169
X0168
X0167
X0166
X0165
X0164
X0163
X0162
X0161
X016
X0159
X0159Y01329
X016
X0161
X0162
X0163
X0164
X0165
X0166
X0167
X0168
X0169
Y01339
Y01349
Y01359
Y01369
Y01379
Y01389
Y01399
Y01409
Y01419
Y01429
X0168
X0167
X0166
X0165
X0164
X0163
X0162
X0161
X016
X0159
Y01419
X016
X0161
X0162
X0163
X0164
X0165
X0166
X0167
X0168
Y01409
Y01399
X0167
Y01409
X0166
Y01399
X0165
Y01409
X0164
Y01399
X0163
Y01409
X0162
Y01399
X0161
Y01409
X016
Y01399
X0159
Y01409
Y01389
X016
X0161
X0162
X0163
X0164
X0165
X0166
X0167
X0168
Y01379
X0167
X0166
X0165
X0164
X0163
X0162
X0161
X016
X0159
Y01369
X016
X0161
X0162
X0163
X0164
X0165
X0166
X0167
X0168
Y01359
Y01349
X0167
Y01359
X0166
Y01349
X0165
Y01359
X0164
Y01349
X0163
Y01359
X0162
Y01349
X0161
Y01359
X016
Y01349
X0159
Y01359
Y01339
X016
X0161
X0162
X0163
X0164
X0165
X0166
X0167
X0168
X017
Y01349
Y01359
Y01369
Y01379
Y01389
Y01399
Y01409
Y01419
Y01429
Y01329
X017Y01565
Y01575
X0169
X0168
X0167
X0166
X0165
X0164
X0163
X0162
X0161
X016
X0159
Y01585
X016
X0161
X0162
X0163
X0164
X0165
X0166
X0167
X0168
X0169
X017
X0169Y01565
X0168
X0167
X0166
X0165
X0164
X0163
X0162
X0161
X016
X0159
X0158
Y01575
Y01585
X0156
X0155
X0154
X0153
X0152
X0151
X015
X0149
X0148
X0147
X0146
X0145
X0144
Y01575
X0145
Y01565
X0146
X0147
X0148
X0149
X015
X0151
X0152
X0153
X0154
X0155
Y01575
X0154
X0153
X0152
X0151
X015
X0149
X0148
X0147
X0146
X0144Y01565
X0156
Y01575
X0156Y01429
Y01419
Y01409
Y01399
Y01389
Y01379
Y01369
Y01359
Y01349
Y01339
Y01329
X0155
Y01339
X0154
X0153
X0152
X0151
X015
X0149
X0148
X0147
X0146
X0145
X0144
Y01329
X0145
X0146
X0147
X0148
X0149
X015
X0151
X0152
X0153
X0154
Y01349
Y01359
X0155
Y01349
Y01369
X0154
X0153
X0152
Y01359
Y01349
X0153
Y01359
X0151
Y01349
X015
Y01359
X0149
Y01349
X0148
Y01359
X0147
Y01349
X0146
Y01359
X0145
Y01349
X0144
Y01359
Y01369
X0145
X0146
X0147
X0148
X0149
X015
X0151
Y01379
X0152
X0153
X0154
X0155
Y01389
X0154
X0153
X0152
X0151
X015
Y01379
X0149
X0148
X0147
X0146
X0145
X0144
Y01389
X0145
X0146
X0147
X0148
X0149
Y01399
X0148
Y01409
X0149
X015
Y01399
X0151
Y01409
X0152
Y01399
X0153
Y01409
X0154
Y01399
X0155
Y01409
Y01419
X0154
X0153
X0152
X0151
X015
X0149
X0148
X0147
Y01409
Y01399
X0146
Y01409
X0145
Y01399
X0144
Y01409
Y01419
X0145
X0146
Y01429
X0147
X0148
X0149
X015
X0151
X0152
X0153
X0154
X0155
X0158
Y01419
Y01409
Y01399
Y01389
Y01379
Y01369
Y01359
Y01349
Y01339
Y01329
X0158Y01209
Y01199
X0156
Y01209
X0155
X0154
X0153
X0152
X0151
X015
X0149
X0148
X0147
X0146
X0145
X0144
Y01199
X0145
X0146
X0147
X0148
X0149
X015
X0151
X0152
X0153
X0154
X0155
X01265Y01215
X012165Y012105
X0144Y01429
X0145
X0145Y01595
Y01605
Y01615
Y01625
Y01635
Y01645
Y01655
Y01665
X0144
Y01655
Y01645
Y01635
Y01625
Y01615
Y01605
Y01595
X0146
Y01605
Y01615
Y01625
Y01635
Y01645
Y01655
Y01665
X0147
X0148
X0149
X015
X0151
X0152
X0153
X0154
X0155
X0156
Y01655
X0155
X0154
X0153
X0152
X0151
X015
X0149
X0148
X0147
Y01645
Y01635
X0148
Y01645
X0149
Y01635
X015
Y01645
X0151
Y01635
X0152
Y01645
X0153
Y01635
X0154
Y01645
X0155
Y01635
X0156
Y01645
X0158
Y01635
Y01625
Y01615
Y01605
Y01595
X0156
Y01605
Y01615
Y01625
X0155
X0154
X0153
X0152
X0151
X015
X0149
X0148
X0147
Y01615
X0148
X0149
X015
X0151
X0152
X0153
X0154
X0155
Y01605
X0154
X0153
X0152
X0151
X015
X0149
X0148
X0147
Y01595
X0148
X0149
X015
X0151
X0152
X0153
X0154
X0155
X0158Y01655
Y01665
Y01787
Y01797
Y01807
Y01817
Y01827
Y01837
Y01847
Y01857
Y01867
Y01877
Y01887
X0156
X0155
X0154
X0153
X0152
X0151
X015
X0149
X0148
X0147
X0146
X0145
X0144
Y01877
X0145
X0146
X0147
X0148
X0149
X015
X0151
X0152
X0153
X0154
X0155
X0156
Y01867
Y01857
X0155
Y01867
X0154
Y01857
X0153
Y01867
X0152
Y01857
X0151
Y01867
X015
Y01857
X0149
Y01867
X0148
Y01857
X0147
Y01867
X0146
Y01857
X0145
Y01867
X0144
Y01857
Y01847
X0145
X0146
X0147
X0148
X0149
X015
X0151
X0152
X0153
X0154
X0155
X0156
Y01837
X0155
X0154
X0153
X0152
X0151
X015
X0149
X0148
X0147
X0146
X0145
X0144
Y01827
X0145
X0146
X0147
X0148
X0149
X015
X0151
X0152
X0153
X0154
X0155
X0156
Y01817
Y01807
X0155
Y01817
X0154
Y01807
X0153
Y01817
X0152
Y01807
X0151
Y01817
X015
Y01807
X0149
Y01817
X0148
Y01807
X0147
Y01817
X0146
Y01807
X0145
Y01817
X0144
Y01807
Y01797
X0145
Y01787
X0146
X0147
X0148
X0149
X015
X0151
X0152
X0153
X0154
X0155
Y01797
X0154
X0153
X0152
X0151
X015
X0149
X0148
X0147
X0146
X0144Y01787
X0156
Y01797
X01265Y01659
X012165Y016545
Y016055
X0159Y01605
Y01595
X016
X0161
X0162
X0163
X0164
X0165
X0166
X0167
X0168
X0169
X017
Y01605
X0169
X0168
X0167
X0166
X0165
X0164
X0163
X0162
X0161
X016
Y01615
X0161
X0162
X0163
X0164
X0165
X0166
X0167
X0168
X0169
X017
Y01625
X0169
X0168
X0167
X0166
X0165
X0164
X0163
X0162
X0161
X016
X0159
Y01615
Y01635
Y01645
X016
Y01635
X0161
Y01645
X0162
Y01635
X0163
Y01645
X0164
Y01635
X0165
Y01645
X0166
Y01635
X0167
Y01645
X0168
Y01635
X0169
Y01645
X017
Y01635
Y01655
X0169
X0168
X0167
X0166
X0165
X0164
X0163
X0162
X0161
X016
X0159
Y01665
X016
X0161
X0162
X0163
X0164
X0165
X0166
X0167
X0168
X0169
X017
Y01787
Y01797
X0169
X0168
X0167
X0166
X0165
X0164
X0163
X0162
X0161
X016
X0159
Y01807
Y01817
X016
Y01807
X0161
Y01817
X0162
Y01807
X0163
Y01817
X0164
Y01807
X0165
Y01817
X0166
Y01807
X0167
Y01817
X0168
Y01807
X0169
Y01817
X017
Y01807
Y01827
X0169
X0168
X0167
X0166
X0165
X0164
X0163
X0162
X0161
X016
X0159
Y01837
X016
X0161
X0162
X0163
X0164
X0165
X0166
X0167
X0168
X0169
X017
Y01847
X0169
X0168
X0167
X0166
X0165
X0164
X0163
X0162
X0161
X016
X0159
Y01857
Y01867
X016
Y01857
X0161
Y01867
X0162
Y01857
X0163
Y01867
X0164
Y01857
X0165
Y01867
X0166
Y01857
X0167
Y01867
X0168
Y01857
X0169
Y01867
X017
Y01857
Y01877
X0169
X0168
X0167
X0166
X0165
X0164
X0163
X0162
X0161
X016
X0159
Y01887
X016
X0161
X0162
X0163
X0164
X0165
X0166
X0167
X0168
X0169
X017
X0169Y01787
X0168
X0167
X0166
X0165
X0164
X0163
X0162
X0161
X016
X0159
Y02025
Y02035
X016
X0161
X0162
X0163
X0164
X0165
X0166
X0167
X0168
X0169
X017
Y02025
X0169
X0168
X0167
X0166
X0165
X0164
X0163
X0162
X0161
X016
Y02045
Y02055
X0161
Y02045
X0162
X0163
Y02055
X0162
Y02065
X0163
X0164
Y02055
Y02045
X0165
Y02055
X0166
Y02045
X0167
Y02055
X0168
Y02045
X0169
Y02055
X017
Y02045
Y02065
X0169
X0168
X0167
X0166
X0165
Y02075
X0166
X0167
X0168
X0169
X017
Y02085
X0169
X0168
X0167
X0166
X0165
X0164
Y02075
X0163
X0162
X0161
Y02065
X016
X0159
Y02055
Y02045
Y02075
X016
Y02085
X0161
X0162
X0163
Y02095
X0162
Y02105
X0163
X0164
Y02095
X0165
Y02105
X0166
Y02095
X0167
Y02105
X0168
Y02095
X0169
Y02105
X017
Y02095
Y02115
X0169
X0168
X0167
X0166
X0165
X0164
X0163
X0162
X0161
Y02105
Y02095
X016
Y02105
X0159
Y02095
Y02085
Y02115
X016
Y02125
X0161
X0162
X0163
X0164
X0165
X0166
X0167
X0168
X0169
X017
X0159
Y02247
X016
X0161
X0162
X0163
X0164
X0165
X0166
X0167
X0168
X0169
Y02257
Y02267
Y02277
Y02287
Y02297
Y02307
Y02317
Y02327
Y02337
Y02347
X0168
X0167
X0166
X0165
X0164
X0163
X0162
X0161
X016
X0159
Y02337
X016
X0161
X0162
X0163
X0164
X0165
X0166
X0167
X0168
Y02327
Y02317
X0167
Y02327
X0166
Y02317
X0165
Y02327
X0164
Y02317
X0163
Y02327
X0162
Y02317
X0161
Y02327
X016
Y02317
X0159
Y02327
Y02307
X016
X0161
X0162
X0163
X0164
X0165
X0166
X0167
X0168
Y02297
X0167
X0166
X0165
X0164
X0163
X0162
X0161
X016
X0159
Y02287
X016
X0161
X0162
X0163
X0164
X0165
X0166
X0167
X0168
Y02277
Y02267
X0167
Y02277
X0166
Y02267
X0165
Y02277
X0164
Y02267
X0163
Y02277
X0162
Y02267
X0161
Y02277
X016
Y02267
X0159
Y02277
Y02257
X016
X0161
X0162
X0163
X0164
X0165
X0166
X0167
X0168
X017
Y02267
Y02277
Y02287
Y02297
Y02307
Y02317
Y02327
Y02337
Y02347
Y02247
X0158
Y02257
Y02267
Y02277
Y02287
Y02297
Y02307
Y02317
Y02327
Y02337
Y02347
X0156
Y02337
Y02327
Y02317
Y02307
Y02297
Y02287
Y02277
Y02267
Y02257
Y02247
X0155
Y02257
X0154
X0153
X0152
X0151
X015
X0149
X0148
X0147
X0146
X0145
X0144
Y02247
X0145
X0146
X0147
X0148
X0149
X015
X0151
X0152
X0153
X0154
Y02267
Y02277
X0155
Y02267
Y02287
X0154
X0153
X0152
Y02277
Y02267
X0153
Y02277
X0151
Y02267
X015
Y02277
X0149
Y02267
X0148
Y02277
X0147
Y02267
X0146
Y02277
X0145
Y02267
X0144
Y02277
Y02287
X0145
X0146
X0147
X0148
X0149
X015
X0151
Y02297
X0152
X0153
X0154
X0155
Y02307
X0154
X0153
X0152
X0151
X015
Y02297
X0149
X0148
X0147
X0146
X0145
X0144
Y02307
X0145
X0146
X0147
X0148
X0149
Y02317
X0148
Y02327
X0149
X015
Y02317
X0151
Y02327
X0152
Y02317
X0153
Y02327
X0154
Y02317
X0155
Y02327
Y02337
X0154
X0153
X0152
X0151
X015
X0149
X0148
X0147
Y02327
Y02317
X0146
Y02327
X0145
Y02317
X0144
Y02327
Y02337
X0145
X0146
Y02347
X0147
X0148
X0149
X015
X0151
X0152
X0153
X0154
X0155
X0145
X0144
Y02125
X0145
X0146
X0147
X0148
X0149
X015
X0151
X0152
X0153
X0154
X0155
X0156
Y02115
X0155
X0154
X0153
X0152
X0151
X015
X0149
X0148
X0147
X0146
X0145
X0144
Y02105
Y02095
X0145
Y02105
X0146
Y02095
X0147
Y02105
X0148
X0149
Y02095
X0148
Y02085
X0149
X015
Y02095
Y02105
X0151
Y02095
X0152
Y02105
X0153
Y02095
X0154
Y02105
X0155
Y02095
X0156
Y02105
X0158
Y02095
Y02085
Y02075
Y02065
Y02055
Y02045
Y02035
Y02025
X0156
X0155
X0154
X0153
X0152
X0151
X015
X0149
X0148
X0147
X0146
X0145
Y02035
Y02045
Y02055
Y02065
Y02075
Y02085
X0144
Y02075
Y02065
Y02055
Y02045
Y02035
Y02025
X0146Y02035
Y02045
Y02055
Y02065
Y02075
Y02085
X0147
Y02075
X0148
X0149
X015
X0151
Y02085
X0152
X0153
X0154
X0155
X0156
Y02075
X0155
X0154
X0153
X0152
Y02065
X0153
X0154
X0155
X0156
Y02055
Y02045
X0155
Y02055
X0154
Y02045
X0153
Y02055
X0152
Y02045
X0151
Y02055
Y02065
X015
X0149
X0148
X0147
Y02055
Y02045
X0148
Y02055
X0149
Y02045
X015
Y02055
Y02035
X0149
X0148
X0147
X0151
X0152
X0153
X0154
X0155
X0156
X0158Y02115
Y02125
X01265Y02119
X012165Y021145
Y020655
T02
X0358Y00775
X0351
X022845Y006625
X02274Y00649
X02244Y00637
X02243Y00597
X02216Y00571
X02202Y00646
X02185Y0065
X02145Y00635
X02125
X01424Y00914
X022856Y010465
X022983
X023237
X023364
X023491
X023618
X023745
X03405Y01095
X0349
X0353Y0081
X036
X0239Y01425
X023745Y014865
X023618
X023491
X023364
X023237
X0229825Y0148655
X0228555
X022856Y019465
X022983
X023237
X023364
X023491
X023618
X023745
X0239Y01875
X02355Y02325
T03
X0205Y00385
X0359Y00595
X0356
X03505
X0348
X03431Y00594
X034Y00595
X02355Y00455
X02245Y0046
Y0043
X0224Y0049
X0213Y00495
X0214Y00435
X02155Y00405
X0205
Y00425
Y00445
Y0053
Y0055
Y0057
Y0059
Y007
Y0072
Y0074
Y0076
Y0078
X0231Y0075
X01205
Y0073
Y0071
Y0077
Y0051
Y0049
Y0047
Y0045
X0132Y0087
X0134
X0136
X0138
X015
X0152
X0154
X0156
X0154Y01038
Y0105
Y01062
X01511
Y0105
Y01038
X01375Y01114
X01373Y01135
X0129184Y01159
X01651Y01062
Y0105
Y01038
X0168
Y0105
Y01062
X017Y0087
X0172
X0174
X0176
X01915
X01935
X01955
X01975
X0205Y0084
Y0082
Y008
X02304Y00805
Y00823
Y00841
Y00858
Y00875
Y00893
Y0091
Y00929
Y00948
Y00967
Y00985
X02324
Y00967
Y00948
Y00929
Y0091
Y00893
Y00875
Y00858
Y00841
Y00823
Y00805
X0228Y01005
X02405Y00955
Y00885
X02465
X02405Y00805
X0168Y01496
Y01508
Y0152
X01651
Y01508
Y01496
X0154
Y01508
Y0152
X01511
Y01508
Y01496
X0136284Y01541
X0137884Y01585
X012815Y0123
X0129184Y01603
X012815Y01674
X01511Y01956
Y01968
Y0198
X0154
Y01968
Y01956
X01651
Y01968
Y0198
X0168
Y01968
Y01956
X01363Y02001
X01379Y02045
X01292Y02063
X01281675Y02133825
T04
X012125Y00275
X0205Y002725
X033375Y004725
X02435Y0045
Y00405
Y005
X021Y0051
X02075Y00465
Y00435
X0205Y0062
X012075Y005925
X0114Y00405
X0125Y008725
X01635
X020325
X02225Y01035
X025875Y0082
X03325Y00835
X0352Y0091
X0356Y0091
X0359Y0091
X02225Y01485
X02235Y01945
X0224Y02355
T05
X02489Y010625
X02591
X02799
X02901
Y014375
Y015125
X02799
Y014375
X02591
Y015125
X02489
Y014375
Y018875
Y019625
X02591
Y018875
X02799
Y019625
X02901
Y018875
Y023375
X02799
X02591
X02489
T06
X024701Y003125
Y003379
X024955
Y003125
X025209
Y003379
X025463
Y003125
X025717
Y003379
X025971
Y003125
X026225
Y003379
X026479
Y003125
X026733
Y003379
X026987
Y003125
X027241
Y003379
X027495
Y003125
X027749
Y003379
X027751Y003887
X027497
X027243
X026989
X026735
X028005
X028259
X028513
X028767
X029021
X029275
X029529
X029783
X030037
X030291
X030545
X030799
X0312054
X0314594
X0317134
X031559Y003379
X031305
X031051
X030797
X030543
X030289
X030035
X029781
X029527
X029273
X029019
X028765
X028511
X028257
X028003
Y003125
X028257
X028511
X028765
X029019
X029273
X029527
X029781
X030035
X030289
X030543
X030797
X031051
X031305
X031559
X031813
Y003379
X032067
Y003125
X032321
Y003379
X032575
Y003125
X032829
Y003379
X033083
Y003125
X033337
Y003379
X033591
Y003125
X0334914Y003887
X0332374
X0329834
X0327294
X0324754
X0322214
X0319674
Y004141
X0322214
X0324754
X0327294
X0329834
X0332374
X0334914
X0317134
X0314594
X0312054
X030799
X030545
X030291
X030037
X029783
X029529
X029275
X029021
X028767
X028513
X028259
X028005
X027751
X027497
X027243
X026989
X026735
Y008459
Y008713
X026989
Y008459
X027243
Y008713
X027497
Y008459
X027751
Y008713
Y009221
X027497
X027243
X026989
X026735
X026481
X026227
X025973
X025719
X025465
X025211
X024957
X024703
Y009475
X024957
X025211
X025465
X025719
X025973
X026227
X026481
X026735
X026989
X027243
X027497
X027751
X028005
Y009221
X028259
Y009475
X028513
Y009221
X028767
Y009475
X029021
Y009221
X029275
Y009475
X029529
Y009221
X029783
Y009475
X030037
Y009221
X030291
Y009475
X030545
Y009221
X030799
Y009475
X031053
Y009221
X031307
Y009475
X031561
Y009221
Y008713
X031307
X031053
X030799
Y008459
X031053
X031307
X031561
X030291
X030037
X029783
X029529
X029275
X029021
X028767
X028513
X028259
X028005
Y008713
X028259
X028513
X028767
X029021
X029275
X029529
X029783
X030037
X030291
X031815
Y008459
X032069
Y008713
X032323
Y008459
X032577
Y008713
Y009221
X032323
X032069
X031815
Y009475
X032069
X032323
X032577
X032831
Y009221
X033085
Y009475
X033339
Y009221
X033593
Y009475
T07
X0223Y00285
X02255
X0228
X0322Y0143
X034184
X0352
X031184
Y0179
X0322
X034184
X0352
Y0215
X034184
X0322
X031184
T08
X020873Y00295
X021127
X0103Y011625
X011975Y0138
X012725
X0103Y013625
Y014375
X0103Y015625
X0103Y012375
X0103Y016375
Y017625
Y018375
Y019625
X011975Y0184
X012725
Y02295
X011975
X0103Y0224
Y02165
X0103Y020375
T09
X00995Y0066
X010458
Y0087
X00995
X03665Y0119
X037158
Y0139
X03665
Y0159
X037158
Y0179
X03665
Y0199
X037158
Y0219
X03665
T10
X0243Y01135
X02955
Y01338
X0243
Y016
Y01803
X02955
Y016
Y02065
Y02268
X0243
Y02065
T12
X032581Y01303
X033803Y012776
Y012014
X035581Y01303
X033803Y015614
X030803
Y012776
Y012014
Y016376
Y019214
X033803
Y016376
X032581Y01663
X035581
Y02023
X033803Y019976
X032581Y02023
X030803Y019976
T13
X0096793Y00606025
X0102
X0107207
Y00713975
X0102
X0096793
Y00816025
X0102
X0107207
Y00923975
X0102
X0096793
X0363793Y01136025
X0369
X0374207
Y01243975
X0369
X0363793
Y01336025
X0369
X0374207
Y01443975
X0369
X0363793
Y01536025
X0369
X0374207
Y01643975
X0369
X0363793
Y01736025
X0369
X0374207
Y01843975
X0369
X0363793
Y01936025
X0369
X0374207
Y02043975
X0369
X0363793
Y02136025
X0369
X0374207
Y02243975
X0369
X0363793
T14
X0097Y0029
X0374
X0097Y0104
X0137
X0177
X021Y0113
X0374Y0104
X0196Y0137
X0177Y01292
X0177Y01465
X0137
X0137Y01292
X0137Y0175
Y01925
X0177
Y0175
X0196Y0183
X021Y0159
Y0205
X0196Y0229
X0177Y0221
X0137
X0097Y0239
X0137Y02385
X0177
X0374Y0239
T15
X033847Y003887
X028767Y005411
X026354Y004014
Y008586
X033974Y008713
T16
X0203Y0113
Y0137
Y0159
Y0183
Y0205
Y0229
M30
