G04*
G04 #@! TF.GenerationSoftware,Altium Limited,Altium Designer,20.0.13 (296)*
G04*
G04 Layer_Color=16711935*
%FSLAX44Y44*%
%MOMM*%
G71*
G01*
G75*
%ADD62R,1.1032X1.1032*%
%ADD63O,1.9304X2.4892*%
%ADD64C,2.0032*%
%ADD65C,1.7332*%
%ADD66C,3.4032*%
%ADD67R,1.7332X1.7332*%
G04:AMPARAMS|DCode=68|XSize=2.2032mm|YSize=2.2032mm|CornerRadius=0.6016mm|HoleSize=0mm|Usage=FLASHONLY|Rotation=180.000|XOffset=0mm|YOffset=0mm|HoleType=Round|Shape=RoundedRectangle|*
%AMROUNDEDRECTD68*
21,1,2.2032,1.0000,0,0,180.0*
21,1,1.0000,2.2032,0,0,180.0*
1,1,1.2032,-0.5000,0.5000*
1,1,1.2032,0.5000,0.5000*
1,1,1.2032,0.5000,-0.5000*
1,1,1.2032,-0.5000,-0.5000*
%
%ADD68ROUNDEDRECTD68*%
%ADD69C,2.2032*%
G04:AMPARAMS|DCode=70|XSize=2.2032mm|YSize=2.2032mm|CornerRadius=0.6016mm|HoleSize=0mm|Usage=FLASHONLY|Rotation=90.000|XOffset=0mm|YOffset=0mm|HoleType=Round|Shape=RoundedRectangle|*
%AMROUNDEDRECTD70*
21,1,2.2032,1.0000,0,0,90.0*
21,1,1.0000,2.2032,0,0,90.0*
1,1,1.2032,0.5000,0.5000*
1,1,1.2032,0.5000,-0.5000*
1,1,1.2032,-0.5000,-0.5000*
1,1,1.2032,-0.5000,0.5000*
%
%ADD70ROUNDEDRECTD70*%
%ADD71C,3.2032*%
%ADD72C,6.1032*%
%ADD73C,3.7032*%
G04:AMPARAMS|DCode=74|XSize=2.7032mm|YSize=3.2032mm|CornerRadius=0.7266mm|HoleSize=0mm|Usage=FLASHONLY|Rotation=0.000|XOffset=0mm|YOffset=0mm|HoleType=Round|Shape=RoundedRectangle|*
%AMROUNDEDRECTD74*
21,1,2.7032,1.7500,0,0,0.0*
21,1,1.2500,3.2032,0,0,0.0*
1,1,1.4532,0.6250,-0.8750*
1,1,1.4532,-0.6250,-0.8750*
1,1,1.4532,-0.6250,0.8750*
1,1,1.4532,0.6250,0.8750*
%
%ADD74ROUNDEDRECTD74*%
%ADD75R,4.0132X4.0132*%
%ADD76C,6.2032*%
%ADD77C,0.2032*%
%ADD78C,1.9812*%
%ADD79C,1.4032*%
%ADD80C,1.2032*%
%ADD81C,1.0032*%
%ADD82C,1.9032*%
G36*
X1705000Y1227000D02*
X1715000Y1217000D01*
X1715000Y1102000D01*
X1705000Y1092000D01*
X1435000D01*
X1425000Y1102000D01*
X1425000Y1217000D01*
X1435000Y1227000D01*
X1705000Y1227000D01*
D02*
G37*
G36*
X1705000Y1447000D02*
X1715000Y1437000D01*
X1715000Y1322000D01*
X1705000Y1312000D01*
X1435000D01*
X1425000Y1322000D01*
X1425000Y1437000D01*
X1435000Y1447000D01*
X1705000Y1447000D01*
D02*
G37*
G36*
X1705000Y1683000D02*
X1715000Y1673000D01*
X1715000Y1558000D01*
X1705000Y1548000D01*
X1435000D01*
X1425000Y1558000D01*
X1425000Y1673000D01*
X1435000Y1683000D01*
X1705000Y1683000D01*
D02*
G37*
G36*
Y1905000D02*
X1715000Y1895000D01*
X1715000Y1780000D01*
X1705000Y1770000D01*
X1435000D01*
X1425000Y1780000D01*
X1425000Y1895000D01*
X1435000Y1905000D01*
X1705000Y1905000D01*
D02*
G37*
G36*
Y2143000D02*
X1715000Y2133000D01*
X1715000Y2018000D01*
X1705000Y2008000D01*
X1435000D01*
X1425000Y2018000D01*
X1425000Y2133000D01*
X1435000Y2143000D01*
X1705000Y2143000D01*
D02*
G37*
G36*
Y2365000D02*
X1715000Y2355000D01*
X1715000Y2240000D01*
X1705000Y2230000D01*
X1435000D01*
X1425000Y2240000D01*
X1425000Y2355000D01*
X1435000Y2365000D01*
X1705000Y2365000D01*
D02*
G37*
D62*
X2917000Y702200D02*
D03*
X2929700D02*
D03*
X2955100D02*
D03*
X2942400D02*
D03*
X2993200D02*
D03*
X3005900D02*
D03*
X2980500D02*
D03*
X2967800D02*
D03*
X3069400D02*
D03*
X3082100D02*
D03*
X3107500D02*
D03*
X3094800D02*
D03*
X3044000D02*
D03*
X3056700D02*
D03*
X3031300D02*
D03*
X3018600D02*
D03*
X3171000D02*
D03*
X3183700D02*
D03*
X3209100D02*
D03*
X3196400D02*
D03*
X3145600D02*
D03*
X3158300D02*
D03*
X3132900D02*
D03*
X3120200D02*
D03*
X3272600D02*
D03*
X3285300D02*
D03*
X3310700D02*
D03*
X3298000D02*
D03*
X3247200D02*
D03*
X3259900D02*
D03*
X3234500D02*
D03*
X3221800D02*
D03*
X3374200D02*
D03*
X3348800D02*
D03*
X3361500D02*
D03*
X3336100D02*
D03*
X3323400D02*
D03*
Y714900D02*
D03*
X3336100D02*
D03*
X3361500D02*
D03*
X3348800D02*
D03*
X3374200D02*
D03*
X3221800D02*
D03*
X3234500D02*
D03*
X3259900D02*
D03*
X3247200D02*
D03*
X3298000D02*
D03*
X3310700D02*
D03*
X3285300D02*
D03*
X3272600D02*
D03*
X3120200D02*
D03*
X3132900D02*
D03*
X3158300D02*
D03*
X3145600D02*
D03*
X3196400D02*
D03*
X3209100D02*
D03*
X3183700D02*
D03*
X3171000D02*
D03*
X3018600D02*
D03*
X3031300D02*
D03*
X3056700D02*
D03*
X3044000D02*
D03*
X3094800D02*
D03*
X3107500D02*
D03*
X3082100D02*
D03*
X3069400D02*
D03*
X2967800D02*
D03*
X2980500D02*
D03*
X3005900D02*
D03*
X2993200D02*
D03*
X2942400D02*
D03*
X2955100D02*
D03*
X2929700D02*
D03*
X2917000D02*
D03*
Y740300D02*
D03*
X2929700D02*
D03*
X2955100D02*
D03*
X2942400D02*
D03*
X2993200D02*
D03*
X3005900D02*
D03*
X2980500D02*
D03*
X2967800D02*
D03*
X3069400D02*
D03*
X3082100D02*
D03*
X3107500D02*
D03*
X3094800D02*
D03*
X3044000D02*
D03*
X3056700D02*
D03*
X3031300D02*
D03*
X3018600D02*
D03*
X3171000D02*
D03*
X3183700D02*
D03*
X3209100D02*
D03*
X3196400D02*
D03*
X3145600D02*
D03*
X3158300D02*
D03*
X3132900D02*
D03*
X3120200D02*
D03*
X3272600D02*
D03*
X3285300D02*
D03*
X3310700D02*
D03*
X3298000D02*
D03*
X3247200D02*
D03*
X3259900D02*
D03*
X3234500D02*
D03*
X3221800D02*
D03*
X3374200D02*
D03*
X3348800D02*
D03*
X3361500D02*
D03*
X3336100D02*
D03*
X3323400D02*
D03*
Y727600D02*
D03*
X3336100D02*
D03*
X3361500D02*
D03*
X3348800D02*
D03*
X3374200D02*
D03*
X3221800D02*
D03*
X3234500D02*
D03*
X3259900D02*
D03*
X3247200D02*
D03*
X3298000D02*
D03*
X3310700D02*
D03*
X3285300D02*
D03*
X3272600D02*
D03*
X3120200D02*
D03*
X3132900D02*
D03*
X3158300D02*
D03*
X3145600D02*
D03*
X3196400D02*
D03*
X3209100D02*
D03*
X3183700D02*
D03*
X3171000D02*
D03*
X3018600D02*
D03*
X3031300D02*
D03*
X3056700D02*
D03*
X3044000D02*
D03*
X3094800D02*
D03*
X3107500D02*
D03*
X3082100D02*
D03*
X3069400D02*
D03*
X2967800D02*
D03*
X2980500D02*
D03*
X3005900D02*
D03*
X2993200D02*
D03*
X2942400D02*
D03*
X2955100D02*
D03*
X2929700D02*
D03*
X2917000D02*
D03*
Y778400D02*
D03*
X2929700D02*
D03*
X2955100D02*
D03*
X2942400D02*
D03*
X2993200D02*
D03*
X3005900D02*
D03*
X2980500D02*
D03*
X2967800D02*
D03*
X3069400D02*
D03*
X3082100D02*
D03*
X3107500D02*
D03*
X3094800D02*
D03*
X3044000D02*
D03*
X3056700D02*
D03*
X3031300D02*
D03*
X3018600D02*
D03*
X3171000D02*
D03*
X3183700D02*
D03*
X3209100D02*
D03*
X3196400D02*
D03*
X3145600D02*
D03*
X3158300D02*
D03*
X3132900D02*
D03*
X3120200D02*
D03*
X3272600D02*
D03*
X3285300D02*
D03*
X3310700D02*
D03*
X3298000D02*
D03*
X3247200D02*
D03*
X3259900D02*
D03*
X3234500D02*
D03*
X3221800D02*
D03*
X3374200D02*
D03*
X3348800D02*
D03*
X3361500D02*
D03*
X3336100D02*
D03*
X3323400D02*
D03*
Y791100D02*
D03*
X3336100D02*
D03*
X3361500D02*
D03*
X3348800D02*
D03*
X3374200D02*
D03*
X3221800D02*
D03*
X3234500D02*
D03*
X3259900D02*
D03*
X3247200D02*
D03*
X3298000D02*
D03*
X3310700D02*
D03*
X3285300D02*
D03*
X3272600D02*
D03*
X3120200D02*
D03*
X3132900D02*
D03*
X3158300D02*
D03*
X3145600D02*
D03*
X3196400D02*
D03*
X3209100D02*
D03*
X3183700D02*
D03*
X3171000D02*
D03*
X3018600D02*
D03*
X3031300D02*
D03*
X3056700D02*
D03*
X3044000D02*
D03*
X3094800D02*
D03*
X3107500D02*
D03*
X3082100D02*
D03*
X3069400D02*
D03*
X2967800D02*
D03*
X2980500D02*
D03*
X3005900D02*
D03*
X2993200D02*
D03*
X2942400D02*
D03*
X2955100D02*
D03*
X2929700D02*
D03*
X2917000D02*
D03*
Y765700D02*
D03*
X2929700D02*
D03*
X2955100D02*
D03*
X2942400D02*
D03*
X2993200D02*
D03*
X3005900D02*
D03*
X2980500D02*
D03*
X2967800D02*
D03*
X3069400D02*
D03*
X3082100D02*
D03*
X3107500D02*
D03*
X3094800D02*
D03*
X3044000D02*
D03*
X3056700D02*
D03*
X3031300D02*
D03*
X3018600D02*
D03*
X3171000D02*
D03*
X3183700D02*
D03*
X3209100D02*
D03*
X3196400D02*
D03*
X3145600D02*
D03*
X3158300D02*
D03*
X3132900D02*
D03*
X3120200D02*
D03*
X3272600D02*
D03*
X3285300D02*
D03*
X3310700D02*
D03*
X3298000D02*
D03*
X3247200D02*
D03*
X3259900D02*
D03*
X3234500D02*
D03*
X3221800D02*
D03*
X3374200D02*
D03*
X3348800D02*
D03*
X3361500D02*
D03*
X3336100D02*
D03*
X3323400D02*
D03*
Y753000D02*
D03*
X3336100D02*
D03*
X3361500D02*
D03*
X3348800D02*
D03*
X3374200D02*
D03*
X3221800D02*
D03*
X3234500D02*
D03*
X3259900D02*
D03*
X3247200D02*
D03*
X3298000D02*
D03*
X3310700D02*
D03*
X3285300D02*
D03*
X3272600D02*
D03*
X3120200D02*
D03*
X3132900D02*
D03*
X3158300D02*
D03*
X3145600D02*
D03*
X3196400D02*
D03*
X3209100D02*
D03*
X3183700D02*
D03*
X3171000D02*
D03*
X3018600D02*
D03*
X3031300D02*
D03*
X3056700D02*
D03*
X3044000D02*
D03*
X3094800D02*
D03*
X3107500D02*
D03*
X3082100D02*
D03*
X3069400D02*
D03*
X2967800D02*
D03*
X2980500D02*
D03*
X3005900D02*
D03*
X2993200D02*
D03*
X2942400D02*
D03*
X2955100D02*
D03*
X2929700D02*
D03*
X2917000D02*
D03*
X3323400Y803800D02*
D03*
X3336100D02*
D03*
X3361500D02*
D03*
X3348800D02*
D03*
X3374200D02*
D03*
X3221800D02*
D03*
X3234500D02*
D03*
X3259900D02*
D03*
X3247200D02*
D03*
X3298000D02*
D03*
X3310700D02*
D03*
X3285300D02*
D03*
X3272600D02*
D03*
X3120200D02*
D03*
X3132900D02*
D03*
X3158300D02*
D03*
X3145600D02*
D03*
X3196400D02*
D03*
X3209100D02*
D03*
X3183700D02*
D03*
X3171000D02*
D03*
X3018600D02*
D03*
X3031300D02*
D03*
X3056700D02*
D03*
X3044000D02*
D03*
X3094800D02*
D03*
X3107500D02*
D03*
X3082100D02*
D03*
X3069400D02*
D03*
X2967800D02*
D03*
X2980500D02*
D03*
X3005900D02*
D03*
X2993200D02*
D03*
X2942400D02*
D03*
X2955100D02*
D03*
X2929700D02*
D03*
X2917000D02*
D03*
Y600600D02*
D03*
X2929700D02*
D03*
X2955100D02*
D03*
X2942400D02*
D03*
X2993200D02*
D03*
X3005900D02*
D03*
X2980500D02*
D03*
X2967800D02*
D03*
X3069400D02*
D03*
X3082100D02*
D03*
X3107500D02*
D03*
X3094800D02*
D03*
X3044000D02*
D03*
X3056700D02*
D03*
X3031300D02*
D03*
X3018600D02*
D03*
X3171000D02*
D03*
X3183700D02*
D03*
X3209100D02*
D03*
X3196400D02*
D03*
X3145600D02*
D03*
X3158300D02*
D03*
X3132900D02*
D03*
X3120200D02*
D03*
X3272600D02*
D03*
X3285300D02*
D03*
X3310700D02*
D03*
X3298000D02*
D03*
X3247200D02*
D03*
X3259900D02*
D03*
X3234500D02*
D03*
X3221800D02*
D03*
X3374200D02*
D03*
X3348800D02*
D03*
X3361500D02*
D03*
X3336100D02*
D03*
X3323400D02*
D03*
Y613300D02*
D03*
X3336100D02*
D03*
X3361500D02*
D03*
X3348800D02*
D03*
X3374200D02*
D03*
X3221800D02*
D03*
X3234500D02*
D03*
X3259900D02*
D03*
X3247200D02*
D03*
X3298000D02*
D03*
X3310700D02*
D03*
X3285300D02*
D03*
X3272600D02*
D03*
X3120200D02*
D03*
X3132900D02*
D03*
X3158300D02*
D03*
X3145600D02*
D03*
X3196400D02*
D03*
X3209100D02*
D03*
X3183700D02*
D03*
X3171000D02*
D03*
X3018600D02*
D03*
X3031300D02*
D03*
X3056700D02*
D03*
X3044000D02*
D03*
X3094800D02*
D03*
X3107500D02*
D03*
X3082100D02*
D03*
X3069400D02*
D03*
X2967800D02*
D03*
X2980500D02*
D03*
X3005900D02*
D03*
X2993200D02*
D03*
X2942400D02*
D03*
X2955100D02*
D03*
X2929700D02*
D03*
X2917000D02*
D03*
Y638700D02*
D03*
X2929700D02*
D03*
X2955100D02*
D03*
X2942400D02*
D03*
X2993200D02*
D03*
X3005900D02*
D03*
X2980500D02*
D03*
X2967800D02*
D03*
X3069400D02*
D03*
X3082100D02*
D03*
X3107500D02*
D03*
X3094800D02*
D03*
X3044000D02*
D03*
X3056700D02*
D03*
X3031300D02*
D03*
X3018600D02*
D03*
X3171000D02*
D03*
X3183700D02*
D03*
X3209100D02*
D03*
X3196400D02*
D03*
X3145600D02*
D03*
X3158300D02*
D03*
X3132900D02*
D03*
X3120200D02*
D03*
X3272600D02*
D03*
X3285300D02*
D03*
X3310700D02*
D03*
X3298000D02*
D03*
X3247200D02*
D03*
X3259900D02*
D03*
X3234500D02*
D03*
X3221800D02*
D03*
X3374200D02*
D03*
X3348800D02*
D03*
X3361500D02*
D03*
X3336100D02*
D03*
X3323400D02*
D03*
Y626000D02*
D03*
X3336100D02*
D03*
X3361500D02*
D03*
X3348800D02*
D03*
X3374200D02*
D03*
X3221800D02*
D03*
X3234500D02*
D03*
X3259900D02*
D03*
X3247200D02*
D03*
X3298000D02*
D03*
X3310700D02*
D03*
X3285300D02*
D03*
X3272600D02*
D03*
X3120200D02*
D03*
X3132900D02*
D03*
X3158300D02*
D03*
X3145600D02*
D03*
X3196400D02*
D03*
X3209100D02*
D03*
X3183700D02*
D03*
X3171000D02*
D03*
X3018600D02*
D03*
X3031300D02*
D03*
X3056700D02*
D03*
X3044000D02*
D03*
X3094800D02*
D03*
X3107500D02*
D03*
X3082100D02*
D03*
X3069400D02*
D03*
X2967800D02*
D03*
X2980500D02*
D03*
X3005900D02*
D03*
X2993200D02*
D03*
X2942400D02*
D03*
X2955100D02*
D03*
X2929700D02*
D03*
X2917000D02*
D03*
Y676800D02*
D03*
X2929700D02*
D03*
X2955100D02*
D03*
X2942400D02*
D03*
X2993200D02*
D03*
X3005900D02*
D03*
X2980500D02*
D03*
X2967800D02*
D03*
X3069400D02*
D03*
X3082100D02*
D03*
X3107500D02*
D03*
X3094800D02*
D03*
X3044000D02*
D03*
X3056700D02*
D03*
X3031300D02*
D03*
X3018600D02*
D03*
X3171000D02*
D03*
X3183700D02*
D03*
X3209100D02*
D03*
X3196400D02*
D03*
X3145600D02*
D03*
X3158300D02*
D03*
X3132900D02*
D03*
X3120200D02*
D03*
X3272600D02*
D03*
X3285300D02*
D03*
X3310700D02*
D03*
X3298000D02*
D03*
X3247200D02*
D03*
X3259900D02*
D03*
X3234500D02*
D03*
X3221800D02*
D03*
X3374200D02*
D03*
X3348800D02*
D03*
X3361500D02*
D03*
X3336100D02*
D03*
X3323400D02*
D03*
Y689500D02*
D03*
X3336100D02*
D03*
X3361500D02*
D03*
X3348800D02*
D03*
X3374200D02*
D03*
X3221800D02*
D03*
X3234500D02*
D03*
X3259900D02*
D03*
X3247200D02*
D03*
X3298000D02*
D03*
X3310700D02*
D03*
X3285300D02*
D03*
X3272600D02*
D03*
X3120200D02*
D03*
X3132900D02*
D03*
X3158300D02*
D03*
X3145600D02*
D03*
X3196400D02*
D03*
X3209100D02*
D03*
X3183700D02*
D03*
X3171000D02*
D03*
X3018600D02*
D03*
X3031300D02*
D03*
X3056700D02*
D03*
X3044000D02*
D03*
X3094800D02*
D03*
X3107500D02*
D03*
X3082100D02*
D03*
X3069400D02*
D03*
X2967800D02*
D03*
X2980500D02*
D03*
X3005900D02*
D03*
X2993200D02*
D03*
X2942400D02*
D03*
X2955100D02*
D03*
X2929700D02*
D03*
X2917000D02*
D03*
Y664100D02*
D03*
X2929700D02*
D03*
X2955100D02*
D03*
X2942400D02*
D03*
X2993200D02*
D03*
X3005900D02*
D03*
X2980500D02*
D03*
X2967800D02*
D03*
X3069400D02*
D03*
X3082100D02*
D03*
X3107500D02*
D03*
X3094800D02*
D03*
X3044000D02*
D03*
X3056700D02*
D03*
X3031300D02*
D03*
X3018600D02*
D03*
X3171000D02*
D03*
X3183700D02*
D03*
X3209100D02*
D03*
X3196400D02*
D03*
X3145600D02*
D03*
X3158300D02*
D03*
X3132900D02*
D03*
X3120200D02*
D03*
X3272600D02*
D03*
X3285300D02*
D03*
X3310700D02*
D03*
X3298000D02*
D03*
X3247200D02*
D03*
X3259900D02*
D03*
X3234500D02*
D03*
X3221800D02*
D03*
X3374200D02*
D03*
X3348800D02*
D03*
X3361500D02*
D03*
X3336100D02*
D03*
X3323400D02*
D03*
Y651400D02*
D03*
X3336100D02*
D03*
X3361500D02*
D03*
X3348800D02*
D03*
X3374200D02*
D03*
X3221800D02*
D03*
X3234500D02*
D03*
X3259900D02*
D03*
X3247200D02*
D03*
X3298000D02*
D03*
X3310700D02*
D03*
X3285300D02*
D03*
X3272600D02*
D03*
X3120200D02*
D03*
X3132900D02*
D03*
X3158300D02*
D03*
X3145600D02*
D03*
X3196400D02*
D03*
X3209100D02*
D03*
X3183700D02*
D03*
X3171000D02*
D03*
X3018600D02*
D03*
X3031300D02*
D03*
X3056700D02*
D03*
X3044000D02*
D03*
X3094800D02*
D03*
X3107500D02*
D03*
X3082100D02*
D03*
X3069400D02*
D03*
X2967800D02*
D03*
X2980500D02*
D03*
X3005900D02*
D03*
X2993200D02*
D03*
X2942400D02*
D03*
X2955100D02*
D03*
X2929700D02*
D03*
X2917000D02*
D03*
Y549800D02*
D03*
X2929700D02*
D03*
X2955100D02*
D03*
X2942400D02*
D03*
X2993200D02*
D03*
X3005900D02*
D03*
X2980500D02*
D03*
X2967800D02*
D03*
X3069400D02*
D03*
X3082100D02*
D03*
X3107500D02*
D03*
X3094800D02*
D03*
X3044000D02*
D03*
X3056700D02*
D03*
X3031300D02*
D03*
X3018600D02*
D03*
X3171000D02*
D03*
X3183700D02*
D03*
X3209100D02*
D03*
X3196400D02*
D03*
X3145600D02*
D03*
X3158300D02*
D03*
X3132900D02*
D03*
X3120200D02*
D03*
X3272600D02*
D03*
X3285300D02*
D03*
X3310700D02*
D03*
X3298000D02*
D03*
X3247200D02*
D03*
X3259900D02*
D03*
X3234500D02*
D03*
X3221800D02*
D03*
X3374200D02*
D03*
X3348800D02*
D03*
X3361500D02*
D03*
X3336100D02*
D03*
X3323400D02*
D03*
Y562500D02*
D03*
X3336100D02*
D03*
X3361500D02*
D03*
X3348800D02*
D03*
X3374200D02*
D03*
X3221800D02*
D03*
X3234500D02*
D03*
X3259900D02*
D03*
X3247200D02*
D03*
X3298000D02*
D03*
X3310700D02*
D03*
X3285300D02*
D03*
X3272600D02*
D03*
X3120200D02*
D03*
X3132900D02*
D03*
X3158300D02*
D03*
X3145600D02*
D03*
X3196400D02*
D03*
X3209100D02*
D03*
X3183700D02*
D03*
X3171000D02*
D03*
X3018600D02*
D03*
X3031300D02*
D03*
X3056700D02*
D03*
X3044000D02*
D03*
X3094800D02*
D03*
X3107500D02*
D03*
X3082100D02*
D03*
X3069400D02*
D03*
X2967800D02*
D03*
X2980500D02*
D03*
X3005900D02*
D03*
X2993200D02*
D03*
X2942400D02*
D03*
X2955100D02*
D03*
X2929700D02*
D03*
X2917000D02*
D03*
Y587900D02*
D03*
X2929700D02*
D03*
X2955100D02*
D03*
X2942400D02*
D03*
X2993200D02*
D03*
X3005900D02*
D03*
X2980500D02*
D03*
X2967800D02*
D03*
X3069400D02*
D03*
X3082100D02*
D03*
X3107500D02*
D03*
X3094800D02*
D03*
X3044000D02*
D03*
X3056700D02*
D03*
X3031300D02*
D03*
X3018600D02*
D03*
X3171000D02*
D03*
X3183700D02*
D03*
X3209100D02*
D03*
X3196400D02*
D03*
X3145600D02*
D03*
X3158300D02*
D03*
X3132900D02*
D03*
X3120200D02*
D03*
X3272600D02*
D03*
X3285300D02*
D03*
X3310700D02*
D03*
X3298000D02*
D03*
X3247200D02*
D03*
X3259900D02*
D03*
X3234500D02*
D03*
X3221800D02*
D03*
X3374200D02*
D03*
X3348800D02*
D03*
X3361500D02*
D03*
X3336100D02*
D03*
X3323400D02*
D03*
Y575200D02*
D03*
X3336100D02*
D03*
X3361500D02*
D03*
X3348800D02*
D03*
X3374200D02*
D03*
X3221800D02*
D03*
X3234500D02*
D03*
X3259900D02*
D03*
X3247200D02*
D03*
X3298000D02*
D03*
X3310700D02*
D03*
X3285300D02*
D03*
X3272600D02*
D03*
X3120200D02*
D03*
X3132900D02*
D03*
X3158300D02*
D03*
X3145600D02*
D03*
X3196400D02*
D03*
X3209100D02*
D03*
X3183700D02*
D03*
X3171000D02*
D03*
X3018600D02*
D03*
X3031300D02*
D03*
X3056700D02*
D03*
X3044000D02*
D03*
X3094800D02*
D03*
X3107500D02*
D03*
X3082100D02*
D03*
X3069400D02*
D03*
X2967800D02*
D03*
X2980500D02*
D03*
X3005900D02*
D03*
X2993200D02*
D03*
X2942400D02*
D03*
X2955100D02*
D03*
X2929700D02*
D03*
X2917000D02*
D03*
Y524400D02*
D03*
X2929700D02*
D03*
X2955100D02*
D03*
X2942400D02*
D03*
X2993200D02*
D03*
X3005900D02*
D03*
X2980500D02*
D03*
X2967800D02*
D03*
X3069400D02*
D03*
X3082100D02*
D03*
X3107500D02*
D03*
X3094800D02*
D03*
X3044000D02*
D03*
X3056700D02*
D03*
X3031300D02*
D03*
X3018600D02*
D03*
X3171000D02*
D03*
X3183700D02*
D03*
X3209100D02*
D03*
X3196400D02*
D03*
X3145600D02*
D03*
X3158300D02*
D03*
X3132900D02*
D03*
X3120200D02*
D03*
X3272600D02*
D03*
X3285300D02*
D03*
X3310700D02*
D03*
X3298000D02*
D03*
X3247200D02*
D03*
X3259900D02*
D03*
X3234500D02*
D03*
X3221800D02*
D03*
X3374200D02*
D03*
X3348800D02*
D03*
X3361500D02*
D03*
X3336100D02*
D03*
X3323400D02*
D03*
Y537100D02*
D03*
X3336100D02*
D03*
X3361500D02*
D03*
X3348800D02*
D03*
X3374200D02*
D03*
X3221800D02*
D03*
X3234500D02*
D03*
X3259900D02*
D03*
X3247200D02*
D03*
X3298000D02*
D03*
X3310700D02*
D03*
X3285300D02*
D03*
X3272600D02*
D03*
X3120200D02*
D03*
X3132900D02*
D03*
X3158300D02*
D03*
X3145600D02*
D03*
X3196400D02*
D03*
X3209100D02*
D03*
X3183700D02*
D03*
X3171000D02*
D03*
X3018600D02*
D03*
X3031300D02*
D03*
X3056700D02*
D03*
X3044000D02*
D03*
X3094800D02*
D03*
X3107500D02*
D03*
X3082100D02*
D03*
X3069400D02*
D03*
X2967800D02*
D03*
X2980500D02*
D03*
X3005900D02*
D03*
X2993200D02*
D03*
X2942400D02*
D03*
X2955100D02*
D03*
X2929700D02*
D03*
X2917000D02*
D03*
Y511700D02*
D03*
X2929700D02*
D03*
X2955100D02*
D03*
X2942400D02*
D03*
X2993200D02*
D03*
X3005900D02*
D03*
X2980500D02*
D03*
X2967800D02*
D03*
X3069400D02*
D03*
X3082100D02*
D03*
X3107500D02*
D03*
X3094800D02*
D03*
X3044000D02*
D03*
X3056700D02*
D03*
X3031300D02*
D03*
X3018600D02*
D03*
X3171000D02*
D03*
X3183700D02*
D03*
X3209100D02*
D03*
X3196400D02*
D03*
X3145600D02*
D03*
X3158300D02*
D03*
X3132900D02*
D03*
X3120200D02*
D03*
X3272600D02*
D03*
X3285300D02*
D03*
X3310700D02*
D03*
X3298000D02*
D03*
X3247200D02*
D03*
X3259900D02*
D03*
X3234500D02*
D03*
X3221800D02*
D03*
X3374200D02*
D03*
X3348800D02*
D03*
X3361500D02*
D03*
X3336100D02*
D03*
X3323400D02*
D03*
Y499000D02*
D03*
X3336100D02*
D03*
X3361500D02*
D03*
X3348800D02*
D03*
X3374200D02*
D03*
X3221800D02*
D03*
X3234500D02*
D03*
X3259900D02*
D03*
X3247200D02*
D03*
X3298000D02*
D03*
X3310700D02*
D03*
X3285300D02*
D03*
X3272600D02*
D03*
X3120200D02*
D03*
X3132900D02*
D03*
X3158300D02*
D03*
X3145600D02*
D03*
X3196400D02*
D03*
X3209100D02*
D03*
X3183700D02*
D03*
X3171000D02*
D03*
X3018600D02*
D03*
X3031300D02*
D03*
X3056700D02*
D03*
X3044000D02*
D03*
X3094800D02*
D03*
X3107500D02*
D03*
X3082100D02*
D03*
X3069400D02*
D03*
X2967800D02*
D03*
X2980500D02*
D03*
X3005900D02*
D03*
X2993200D02*
D03*
X2942400D02*
D03*
X2955100D02*
D03*
X2929700D02*
D03*
X2917000D02*
D03*
X1231900Y266700D02*
D03*
X1244600D02*
D03*
X1270000D02*
D03*
X1257300D02*
D03*
X1308100D02*
D03*
X1320800D02*
D03*
X1295400D02*
D03*
X1282700D02*
D03*
X1384300D02*
D03*
X1397000D02*
D03*
X1422400D02*
D03*
X1409700D02*
D03*
X1358900D02*
D03*
X1371600D02*
D03*
X1346200D02*
D03*
X1333500D02*
D03*
X1485900D02*
D03*
X1498600D02*
D03*
X1524000D02*
D03*
X1511300D02*
D03*
X1460500D02*
D03*
X1473200D02*
D03*
X1447800D02*
D03*
X1435100D02*
D03*
X1587500D02*
D03*
X1600200D02*
D03*
X1625600D02*
D03*
X1612900D02*
D03*
X1562100D02*
D03*
X1574800D02*
D03*
X1549400D02*
D03*
X1536700D02*
D03*
X1943100D02*
D03*
X1955800D02*
D03*
X1981200D02*
D03*
X1968500D02*
D03*
X2019300D02*
D03*
X2032000D02*
D03*
X2006600D02*
D03*
X1993900D02*
D03*
X1841500D02*
D03*
X1854200D02*
D03*
X1879600D02*
D03*
X1866900D02*
D03*
X1917700D02*
D03*
X1930400D02*
D03*
X1905000D02*
D03*
X1892300D02*
D03*
X1739900D02*
D03*
X1752600D02*
D03*
X1778000D02*
D03*
X1765300D02*
D03*
X1816100D02*
D03*
X1828800D02*
D03*
X1803400D02*
D03*
X1790700D02*
D03*
X1689100D02*
D03*
X1701800D02*
D03*
X1727200D02*
D03*
X1714500D02*
D03*
X1663700D02*
D03*
X1676400D02*
D03*
X1651000D02*
D03*
X1638300D02*
D03*
Y279400D02*
D03*
X1651000D02*
D03*
X1676400D02*
D03*
X1663700D02*
D03*
X1714500D02*
D03*
X1727200D02*
D03*
X1701800D02*
D03*
X1689100D02*
D03*
X1790700D02*
D03*
X1803400D02*
D03*
X1828800D02*
D03*
X1816100D02*
D03*
X1765300D02*
D03*
X1778000D02*
D03*
X1752600D02*
D03*
X1739900D02*
D03*
X1892300D02*
D03*
X1905000D02*
D03*
X1930400D02*
D03*
X1917700D02*
D03*
X1866900D02*
D03*
X1879600D02*
D03*
X1854200D02*
D03*
X1841500D02*
D03*
X1993900D02*
D03*
X2006600D02*
D03*
X2032000D02*
D03*
X2019300D02*
D03*
X1968500D02*
D03*
X1981200D02*
D03*
X1955800D02*
D03*
X1943100D02*
D03*
X1536700D02*
D03*
X1549400D02*
D03*
X1574800D02*
D03*
X1562100D02*
D03*
X1612900D02*
D03*
X1625600D02*
D03*
X1600200D02*
D03*
X1587500D02*
D03*
X1435100D02*
D03*
X1447800D02*
D03*
X1473200D02*
D03*
X1460500D02*
D03*
X1511300D02*
D03*
X1524000D02*
D03*
X1498600D02*
D03*
X1485900D02*
D03*
X1333500D02*
D03*
X1346200D02*
D03*
X1371600D02*
D03*
X1358900D02*
D03*
X1409700D02*
D03*
X1422400D02*
D03*
X1397000D02*
D03*
X1384300D02*
D03*
X1282700D02*
D03*
X1295400D02*
D03*
X1320800D02*
D03*
X1308100D02*
D03*
X1257300D02*
D03*
X1270000D02*
D03*
X1244600D02*
D03*
X1231900D02*
D03*
Y304800D02*
D03*
X1244600D02*
D03*
X1270000D02*
D03*
X1257300D02*
D03*
X1308100D02*
D03*
X1320800D02*
D03*
X1295400D02*
D03*
X1282700D02*
D03*
X1384300D02*
D03*
X1397000D02*
D03*
X1422400D02*
D03*
X1409700D02*
D03*
X1358900D02*
D03*
X1371600D02*
D03*
X1346200D02*
D03*
X1333500D02*
D03*
X1485900D02*
D03*
X1498600D02*
D03*
X1524000D02*
D03*
X1511300D02*
D03*
X1460500D02*
D03*
X1473200D02*
D03*
X1447800D02*
D03*
X1435100D02*
D03*
X1587500D02*
D03*
X1600200D02*
D03*
X1625600D02*
D03*
X1612900D02*
D03*
X1562100D02*
D03*
X1574800D02*
D03*
X1549400D02*
D03*
X1536700D02*
D03*
X1943100D02*
D03*
X1955800D02*
D03*
X1981200D02*
D03*
X1968500D02*
D03*
X2019300D02*
D03*
X2032000D02*
D03*
X2006600D02*
D03*
X1993900D02*
D03*
X1841500D02*
D03*
X1854200D02*
D03*
X1879600D02*
D03*
X1866900D02*
D03*
X1917700D02*
D03*
X1930400D02*
D03*
X1905000D02*
D03*
X1892300D02*
D03*
X1739900D02*
D03*
X1752600D02*
D03*
X1778000D02*
D03*
X1765300D02*
D03*
X1816100D02*
D03*
X1828800D02*
D03*
X1803400D02*
D03*
X1790700D02*
D03*
X1689100D02*
D03*
X1701800D02*
D03*
X1727200D02*
D03*
X1714500D02*
D03*
X1663700D02*
D03*
X1676400D02*
D03*
X1651000D02*
D03*
X1638300D02*
D03*
Y292100D02*
D03*
X1651000D02*
D03*
X1676400D02*
D03*
X1663700D02*
D03*
X1714500D02*
D03*
X1727200D02*
D03*
X1701800D02*
D03*
X1689100D02*
D03*
X1790700D02*
D03*
X1803400D02*
D03*
X1828800D02*
D03*
X1816100D02*
D03*
X1765300D02*
D03*
X1778000D02*
D03*
X1752600D02*
D03*
X1739900D02*
D03*
X1892300D02*
D03*
X1905000D02*
D03*
X1930400D02*
D03*
X1917700D02*
D03*
X1866900D02*
D03*
X1879600D02*
D03*
X1854200D02*
D03*
X1841500D02*
D03*
X1993900D02*
D03*
X2006600D02*
D03*
X2032000D02*
D03*
X2019300D02*
D03*
X1968500D02*
D03*
X1981200D02*
D03*
X1955800D02*
D03*
X1943100D02*
D03*
X1536700D02*
D03*
X1549400D02*
D03*
X1574800D02*
D03*
X1562100D02*
D03*
X1612900D02*
D03*
X1625600D02*
D03*
X1600200D02*
D03*
X1587500D02*
D03*
X1435100D02*
D03*
X1447800D02*
D03*
X1473200D02*
D03*
X1460500D02*
D03*
X1511300D02*
D03*
X1524000D02*
D03*
X1498600D02*
D03*
X1485900D02*
D03*
X1333500D02*
D03*
X1346200D02*
D03*
X1371600D02*
D03*
X1358900D02*
D03*
X1409700D02*
D03*
X1422400D02*
D03*
X1397000D02*
D03*
X1384300D02*
D03*
X1282700D02*
D03*
X1295400D02*
D03*
X1320800D02*
D03*
X1308100D02*
D03*
X1257300D02*
D03*
X1270000D02*
D03*
X1244600D02*
D03*
X1231900D02*
D03*
Y342900D02*
D03*
X1244600D02*
D03*
X1270000D02*
D03*
X1257300D02*
D03*
X1308100D02*
D03*
X1320800D02*
D03*
X1295400D02*
D03*
X1282700D02*
D03*
X1384300D02*
D03*
X1397000D02*
D03*
X1422400D02*
D03*
X1409700D02*
D03*
X1358900D02*
D03*
X1371600D02*
D03*
X1346200D02*
D03*
X1333500D02*
D03*
X1485900D02*
D03*
X1498600D02*
D03*
X1524000D02*
D03*
X1511300D02*
D03*
X1460500D02*
D03*
X1473200D02*
D03*
X1447800D02*
D03*
X1435100D02*
D03*
X1587500D02*
D03*
X1600200D02*
D03*
X1625600D02*
D03*
X1612900D02*
D03*
X1562100D02*
D03*
X1574800D02*
D03*
X1549400D02*
D03*
X1536700D02*
D03*
X1943100D02*
D03*
X1955800D02*
D03*
X1981200D02*
D03*
X1968500D02*
D03*
X2019300D02*
D03*
X2032000D02*
D03*
X2006600D02*
D03*
X1993900D02*
D03*
X1841500D02*
D03*
X1854200D02*
D03*
X1879600D02*
D03*
X1866900D02*
D03*
X1917700D02*
D03*
X1930400D02*
D03*
X1905000D02*
D03*
X1892300D02*
D03*
X1739900D02*
D03*
X1752600D02*
D03*
X1778000D02*
D03*
X1765300D02*
D03*
X1816100D02*
D03*
X1828800D02*
D03*
X1803400D02*
D03*
X1790700D02*
D03*
X1689100D02*
D03*
X1701800D02*
D03*
X1727200D02*
D03*
X1714500D02*
D03*
X1663700D02*
D03*
X1676400D02*
D03*
X1651000D02*
D03*
X1638300D02*
D03*
Y355600D02*
D03*
X1651000D02*
D03*
X1676400D02*
D03*
X1663700D02*
D03*
X1714500D02*
D03*
X1727200D02*
D03*
X1701800D02*
D03*
X1689100D02*
D03*
X1790700D02*
D03*
X1803400D02*
D03*
X1828800D02*
D03*
X1816100D02*
D03*
X1765300D02*
D03*
X1778000D02*
D03*
X1752600D02*
D03*
X1739900D02*
D03*
X1892300D02*
D03*
X1905000D02*
D03*
X1930400D02*
D03*
X1917700D02*
D03*
X1866900D02*
D03*
X1879600D02*
D03*
X1854200D02*
D03*
X1841500D02*
D03*
X1993900D02*
D03*
X2006600D02*
D03*
X2032000D02*
D03*
X2019300D02*
D03*
X1968500D02*
D03*
X1981200D02*
D03*
X1955800D02*
D03*
X1943100D02*
D03*
X1536700D02*
D03*
X1549400D02*
D03*
X1574800D02*
D03*
X1562100D02*
D03*
X1612900D02*
D03*
X1625600D02*
D03*
X1600200D02*
D03*
X1587500D02*
D03*
X1435100D02*
D03*
X1447800D02*
D03*
X1473200D02*
D03*
X1460500D02*
D03*
X1511300D02*
D03*
X1524000D02*
D03*
X1498600D02*
D03*
X1485900D02*
D03*
X1333500D02*
D03*
X1346200D02*
D03*
X1371600D02*
D03*
X1358900D02*
D03*
X1409700D02*
D03*
X1422400D02*
D03*
X1397000D02*
D03*
X1384300D02*
D03*
X1282700D02*
D03*
X1295400D02*
D03*
X1320800D02*
D03*
X1308100D02*
D03*
X1257300D02*
D03*
X1270000D02*
D03*
X1244600D02*
D03*
X1231900D02*
D03*
Y330200D02*
D03*
X1244600D02*
D03*
X1270000D02*
D03*
X1257300D02*
D03*
X1308100D02*
D03*
X1320800D02*
D03*
X1295400D02*
D03*
X1282700D02*
D03*
X1384300D02*
D03*
X1397000D02*
D03*
X1422400D02*
D03*
X1409700D02*
D03*
X1358900D02*
D03*
X1371600D02*
D03*
X1346200D02*
D03*
X1333500D02*
D03*
X1485900D02*
D03*
X1498600D02*
D03*
X1524000D02*
D03*
X1511300D02*
D03*
X1460500D02*
D03*
X1473200D02*
D03*
X1447800D02*
D03*
X1435100D02*
D03*
X1587500D02*
D03*
X1600200D02*
D03*
X1625600D02*
D03*
X1612900D02*
D03*
X1562100D02*
D03*
X1574800D02*
D03*
X1549400D02*
D03*
X1536700D02*
D03*
X1943100D02*
D03*
X1955800D02*
D03*
X1981200D02*
D03*
X1968500D02*
D03*
X2019300D02*
D03*
X2032000D02*
D03*
X2006600D02*
D03*
X1993900D02*
D03*
X1841500D02*
D03*
X1854200D02*
D03*
X1879600D02*
D03*
X1866900D02*
D03*
X1917700D02*
D03*
X1930400D02*
D03*
X1905000D02*
D03*
X1892300D02*
D03*
X1739900D02*
D03*
X1752600D02*
D03*
X1778000D02*
D03*
X1765300D02*
D03*
X1816100D02*
D03*
X1828800D02*
D03*
X1803400D02*
D03*
X1790700D02*
D03*
X1689100D02*
D03*
X1701800D02*
D03*
X1727200D02*
D03*
X1714500D02*
D03*
X1663700D02*
D03*
X1676400D02*
D03*
X1651000D02*
D03*
X1638300D02*
D03*
Y317500D02*
D03*
X1651000D02*
D03*
X1676400D02*
D03*
X1663700D02*
D03*
X1714500D02*
D03*
X1727200D02*
D03*
X1701800D02*
D03*
X1689100D02*
D03*
X1790700D02*
D03*
X1803400D02*
D03*
X1828800D02*
D03*
X1816100D02*
D03*
X1765300D02*
D03*
X1778000D02*
D03*
X1752600D02*
D03*
X1739900D02*
D03*
X1892300D02*
D03*
X1905000D02*
D03*
X1930400D02*
D03*
X1917700D02*
D03*
X1866900D02*
D03*
X1879600D02*
D03*
X1854200D02*
D03*
X1841500D02*
D03*
X1993900D02*
D03*
X2006600D02*
D03*
X2032000D02*
D03*
X2019300D02*
D03*
X1968500D02*
D03*
X1981200D02*
D03*
X1955800D02*
D03*
X1943100D02*
D03*
X1536700D02*
D03*
X1549400D02*
D03*
X1574800D02*
D03*
X1562100D02*
D03*
X1612900D02*
D03*
X1625600D02*
D03*
X1600200D02*
D03*
X1587500D02*
D03*
X1435100D02*
D03*
X1447800D02*
D03*
X1473200D02*
D03*
X1460500D02*
D03*
X1511300D02*
D03*
X1524000D02*
D03*
X1498600D02*
D03*
X1485900D02*
D03*
X1333500D02*
D03*
X1346200D02*
D03*
X1371600D02*
D03*
X1358900D02*
D03*
X1409700D02*
D03*
X1422400D02*
D03*
X1397000D02*
D03*
X1384300D02*
D03*
X1282700D02*
D03*
X1295400D02*
D03*
X1320800D02*
D03*
X1308100D02*
D03*
X1257300D02*
D03*
X1270000D02*
D03*
X1244600D02*
D03*
X1231900D02*
D03*
Y419100D02*
D03*
X1244600D02*
D03*
X1270000D02*
D03*
X1257300D02*
D03*
X1308100D02*
D03*
X1320800D02*
D03*
X1295400D02*
D03*
X1282700D02*
D03*
X1384300D02*
D03*
X1397000D02*
D03*
X1422400D02*
D03*
X1409700D02*
D03*
X1358900D02*
D03*
X1371600D02*
D03*
X1346200D02*
D03*
X1333500D02*
D03*
X1485900D02*
D03*
X1498600D02*
D03*
X1524000D02*
D03*
X1511300D02*
D03*
X1460500D02*
D03*
X1473200D02*
D03*
X1447800D02*
D03*
X1435100D02*
D03*
X1587500D02*
D03*
X1600200D02*
D03*
X1625600D02*
D03*
X1612900D02*
D03*
X1562100D02*
D03*
X1574800D02*
D03*
X1549400D02*
D03*
X1536700D02*
D03*
X1943100D02*
D03*
X1955800D02*
D03*
X1981200D02*
D03*
X1968500D02*
D03*
X2019300D02*
D03*
X2032000D02*
D03*
X2006600D02*
D03*
X1993900D02*
D03*
X1841500D02*
D03*
X1854200D02*
D03*
X1879600D02*
D03*
X1866900D02*
D03*
X1917700D02*
D03*
X1930400D02*
D03*
X1905000D02*
D03*
X1892300D02*
D03*
X1739900D02*
D03*
X1752600D02*
D03*
X1778000D02*
D03*
X1765300D02*
D03*
X1816100D02*
D03*
X1828800D02*
D03*
X1803400D02*
D03*
X1790700D02*
D03*
X1689100D02*
D03*
X1701800D02*
D03*
X1727200D02*
D03*
X1714500D02*
D03*
X1663700D02*
D03*
X1676400D02*
D03*
X1651000D02*
D03*
X1638300D02*
D03*
Y431800D02*
D03*
X1651000D02*
D03*
X1676400D02*
D03*
X1663700D02*
D03*
X1714500D02*
D03*
X1727200D02*
D03*
X1701800D02*
D03*
X1689100D02*
D03*
X1790700D02*
D03*
X1803400D02*
D03*
X1828800D02*
D03*
X1816100D02*
D03*
X1765300D02*
D03*
X1778000D02*
D03*
X1752600D02*
D03*
X1739900D02*
D03*
X1892300D02*
D03*
X1905000D02*
D03*
X1930400D02*
D03*
X1917700D02*
D03*
X1866900D02*
D03*
X1879600D02*
D03*
X1854200D02*
D03*
X1841500D02*
D03*
X1993900D02*
D03*
X2006600D02*
D03*
X2032000D02*
D03*
X2019300D02*
D03*
X1968500D02*
D03*
X1981200D02*
D03*
X1955800D02*
D03*
X1943100D02*
D03*
X1536700D02*
D03*
X1549400D02*
D03*
X1574800D02*
D03*
X1562100D02*
D03*
X1612900D02*
D03*
X1625600D02*
D03*
X1600200D02*
D03*
X1587500D02*
D03*
X1435100D02*
D03*
X1447800D02*
D03*
X1473200D02*
D03*
X1460500D02*
D03*
X1511300D02*
D03*
X1524000D02*
D03*
X1498600D02*
D03*
X1485900D02*
D03*
X1333500D02*
D03*
X1346200D02*
D03*
X1371600D02*
D03*
X1358900D02*
D03*
X1409700D02*
D03*
X1422400D02*
D03*
X1397000D02*
D03*
X1384300D02*
D03*
X1282700D02*
D03*
X1295400D02*
D03*
X1320800D02*
D03*
X1308100D02*
D03*
X1257300D02*
D03*
X1270000D02*
D03*
X1244600D02*
D03*
X1231900D02*
D03*
Y457200D02*
D03*
X1244600D02*
D03*
X1270000D02*
D03*
X1257300D02*
D03*
X1308100D02*
D03*
X1320800D02*
D03*
X1295400D02*
D03*
X1282700D02*
D03*
X1384300D02*
D03*
X1397000D02*
D03*
X1422400D02*
D03*
X1409700D02*
D03*
X1358900D02*
D03*
X1371600D02*
D03*
X1346200D02*
D03*
X1333500D02*
D03*
X1485900D02*
D03*
X1498600D02*
D03*
X1524000D02*
D03*
X1511300D02*
D03*
X1460500D02*
D03*
X1473200D02*
D03*
X1447800D02*
D03*
X1435100D02*
D03*
X1587500D02*
D03*
X1600200D02*
D03*
X1625600D02*
D03*
X1612900D02*
D03*
X1562100D02*
D03*
X1574800D02*
D03*
X1549400D02*
D03*
X1536700D02*
D03*
X1943100D02*
D03*
X1955800D02*
D03*
X1981200D02*
D03*
X1968500D02*
D03*
X2019300D02*
D03*
X2032000D02*
D03*
X2006600D02*
D03*
X1993900D02*
D03*
X1841500D02*
D03*
X1854200D02*
D03*
X1879600D02*
D03*
X1866900D02*
D03*
X1917700D02*
D03*
X1930400D02*
D03*
X1905000D02*
D03*
X1892300D02*
D03*
X1739900D02*
D03*
X1752600D02*
D03*
X1778000D02*
D03*
X1765300D02*
D03*
X1816100D02*
D03*
X1828800D02*
D03*
X1803400D02*
D03*
X1790700D02*
D03*
X1689100D02*
D03*
X1701800D02*
D03*
X1727200D02*
D03*
X1714500D02*
D03*
X1663700D02*
D03*
X1676400D02*
D03*
X1651000D02*
D03*
X1638300D02*
D03*
Y444500D02*
D03*
X1651000D02*
D03*
X1676400D02*
D03*
X1663700D02*
D03*
X1714500D02*
D03*
X1727200D02*
D03*
X1701800D02*
D03*
X1689100D02*
D03*
X1790700D02*
D03*
X1803400D02*
D03*
X1828800D02*
D03*
X1816100D02*
D03*
X1765300D02*
D03*
X1778000D02*
D03*
X1752600D02*
D03*
X1739900D02*
D03*
X1892300D02*
D03*
X1905000D02*
D03*
X1930400D02*
D03*
X1917700D02*
D03*
X1866900D02*
D03*
X1879600D02*
D03*
X1854200D02*
D03*
X1841500D02*
D03*
X1993900D02*
D03*
X2006600D02*
D03*
X2032000D02*
D03*
X2019300D02*
D03*
X1968500D02*
D03*
X1981200D02*
D03*
X1955800D02*
D03*
X1943100D02*
D03*
X1536700D02*
D03*
X1549400D02*
D03*
X1574800D02*
D03*
X1562100D02*
D03*
X1612900D02*
D03*
X1625600D02*
D03*
X1600200D02*
D03*
X1587500D02*
D03*
X1435100D02*
D03*
X1447800D02*
D03*
X1473200D02*
D03*
X1460500D02*
D03*
X1511300D02*
D03*
X1524000D02*
D03*
X1498600D02*
D03*
X1485900D02*
D03*
X1333500D02*
D03*
X1346200D02*
D03*
X1371600D02*
D03*
X1358900D02*
D03*
X1409700D02*
D03*
X1422400D02*
D03*
X1397000D02*
D03*
X1384300D02*
D03*
X1282700D02*
D03*
X1295400D02*
D03*
X1320800D02*
D03*
X1308100D02*
D03*
X1257300D02*
D03*
X1270000D02*
D03*
X1244600D02*
D03*
X1231900D02*
D03*
Y393700D02*
D03*
X1244600D02*
D03*
X1270000D02*
D03*
X1257300D02*
D03*
X1308100D02*
D03*
X1320800D02*
D03*
X1295400D02*
D03*
X1282700D02*
D03*
X1384300D02*
D03*
X1397000D02*
D03*
X1422400D02*
D03*
X1409700D02*
D03*
X1358900D02*
D03*
X1371600D02*
D03*
X1346200D02*
D03*
X1333500D02*
D03*
X1485900D02*
D03*
X1498600D02*
D03*
X1524000D02*
D03*
X1511300D02*
D03*
X1460500D02*
D03*
X1473200D02*
D03*
X1447800D02*
D03*
X1435100D02*
D03*
X1587500D02*
D03*
X1600200D02*
D03*
X1625600D02*
D03*
X1612900D02*
D03*
X1562100D02*
D03*
X1574800D02*
D03*
X1549400D02*
D03*
X1536700D02*
D03*
X1943100D02*
D03*
X1955800D02*
D03*
X1981200D02*
D03*
X1968500D02*
D03*
X2019300D02*
D03*
X2032000D02*
D03*
X2006600D02*
D03*
X1993900D02*
D03*
X1841500D02*
D03*
X1854200D02*
D03*
X1879600D02*
D03*
X1866900D02*
D03*
X1917700D02*
D03*
X1930400D02*
D03*
X1905000D02*
D03*
X1892300D02*
D03*
X1739900D02*
D03*
X1752600D02*
D03*
X1778000D02*
D03*
X1765300D02*
D03*
X1816100D02*
D03*
X1828800D02*
D03*
X1803400D02*
D03*
X1790700D02*
D03*
X1689100D02*
D03*
X1701800D02*
D03*
X1727200D02*
D03*
X1714500D02*
D03*
X1663700D02*
D03*
X1676400D02*
D03*
X1651000D02*
D03*
X1638300D02*
D03*
Y406400D02*
D03*
X1651000D02*
D03*
X1676400D02*
D03*
X1663700D02*
D03*
X1714500D02*
D03*
X1727200D02*
D03*
X1701800D02*
D03*
X1689100D02*
D03*
X1790700D02*
D03*
X1803400D02*
D03*
X1828800D02*
D03*
X1816100D02*
D03*
X1765300D02*
D03*
X1778000D02*
D03*
X1752600D02*
D03*
X1739900D02*
D03*
X1892300D02*
D03*
X1905000D02*
D03*
X1930400D02*
D03*
X1917700D02*
D03*
X1866900D02*
D03*
X1879600D02*
D03*
X1854200D02*
D03*
X1841500D02*
D03*
X1993900D02*
D03*
X2006600D02*
D03*
X2032000D02*
D03*
X2019300D02*
D03*
X1968500D02*
D03*
X1981200D02*
D03*
X1955800D02*
D03*
X1943100D02*
D03*
X1536700D02*
D03*
X1549400D02*
D03*
X1574800D02*
D03*
X1562100D02*
D03*
X1612900D02*
D03*
X1625600D02*
D03*
X1600200D02*
D03*
X1587500D02*
D03*
X1435100D02*
D03*
X1447800D02*
D03*
X1473200D02*
D03*
X1460500D02*
D03*
X1511300D02*
D03*
X1524000D02*
D03*
X1498600D02*
D03*
X1485900D02*
D03*
X1333500D02*
D03*
X1346200D02*
D03*
X1371600D02*
D03*
X1358900D02*
D03*
X1409700D02*
D03*
X1422400D02*
D03*
X1397000D02*
D03*
X1384300D02*
D03*
X1282700D02*
D03*
X1295400D02*
D03*
X1320800D02*
D03*
X1308100D02*
D03*
X1257300D02*
D03*
X1270000D02*
D03*
X1244600D02*
D03*
X1231900D02*
D03*
Y381000D02*
D03*
X1244600D02*
D03*
X1270000D02*
D03*
X1257300D02*
D03*
X1308100D02*
D03*
X1320800D02*
D03*
X1295400D02*
D03*
X1282700D02*
D03*
X1384300D02*
D03*
X1397000D02*
D03*
X1422400D02*
D03*
X1409700D02*
D03*
X1358900D02*
D03*
X1371600D02*
D03*
X1346200D02*
D03*
X1333500D02*
D03*
X1485900D02*
D03*
X1498600D02*
D03*
X1524000D02*
D03*
X1511300D02*
D03*
X1460500D02*
D03*
X1473200D02*
D03*
X1447800D02*
D03*
X1435100D02*
D03*
X1587500D02*
D03*
X1600200D02*
D03*
X1625600D02*
D03*
X1612900D02*
D03*
X1562100D02*
D03*
X1574800D02*
D03*
X1549400D02*
D03*
X1536700D02*
D03*
X1943100D02*
D03*
X1955800D02*
D03*
X1981200D02*
D03*
X1968500D02*
D03*
X2019300D02*
D03*
X2032000D02*
D03*
X2006600D02*
D03*
X1993900D02*
D03*
X1841500D02*
D03*
X1854200D02*
D03*
X1879600D02*
D03*
X1866900D02*
D03*
X1917700D02*
D03*
X1930400D02*
D03*
X1905000D02*
D03*
X1892300D02*
D03*
X1739900D02*
D03*
X1752600D02*
D03*
X1778000D02*
D03*
X1765300D02*
D03*
X1816100D02*
D03*
X1828800D02*
D03*
X1803400D02*
D03*
X1790700D02*
D03*
X1689100D02*
D03*
X1701800D02*
D03*
X1727200D02*
D03*
X1714500D02*
D03*
X1663700D02*
D03*
X1676400D02*
D03*
X1651000D02*
D03*
X1638300D02*
D03*
Y368300D02*
D03*
X1651000D02*
D03*
X1676400D02*
D03*
X1663700D02*
D03*
X1714500D02*
D03*
X1727200D02*
D03*
X1701800D02*
D03*
X1689100D02*
D03*
X1790700D02*
D03*
X1803400D02*
D03*
X1828800D02*
D03*
X1816100D02*
D03*
X1765300D02*
D03*
X1778000D02*
D03*
X1752600D02*
D03*
X1739900D02*
D03*
X1892300D02*
D03*
X1905000D02*
D03*
X1930400D02*
D03*
X1917700D02*
D03*
X1866900D02*
D03*
X1879600D02*
D03*
X1854200D02*
D03*
X1841500D02*
D03*
X1993900D02*
D03*
X2006600D02*
D03*
X2032000D02*
D03*
X2019300D02*
D03*
X1968500D02*
D03*
X1981200D02*
D03*
X1955800D02*
D03*
X1943100D02*
D03*
X1536700D02*
D03*
X1549400D02*
D03*
X1574800D02*
D03*
X1562100D02*
D03*
X1612900D02*
D03*
X1625600D02*
D03*
X1600200D02*
D03*
X1587500D02*
D03*
X1435100D02*
D03*
X1447800D02*
D03*
X1473200D02*
D03*
X1460500D02*
D03*
X1511300D02*
D03*
X1524000D02*
D03*
X1498600D02*
D03*
X1485900D02*
D03*
X1333500D02*
D03*
X1346200D02*
D03*
X1371600D02*
D03*
X1358900D02*
D03*
X1409700D02*
D03*
X1422400D02*
D03*
X1397000D02*
D03*
X1384300D02*
D03*
X1282700D02*
D03*
X1295400D02*
D03*
X1320800D02*
D03*
X1308100D02*
D03*
X1257300D02*
D03*
X1270000D02*
D03*
X1244600D02*
D03*
X1231900D02*
D03*
Y571500D02*
D03*
X1244600D02*
D03*
X1270000D02*
D03*
X1257300D02*
D03*
X1308100D02*
D03*
X1320800D02*
D03*
X1295400D02*
D03*
X1282700D02*
D03*
X1384300D02*
D03*
X1397000D02*
D03*
X1422400D02*
D03*
X1409700D02*
D03*
X1358900D02*
D03*
X1371600D02*
D03*
X1346200D02*
D03*
X1333500D02*
D03*
X1485900D02*
D03*
X1498600D02*
D03*
X1524000D02*
D03*
X1511300D02*
D03*
X1460500D02*
D03*
X1473200D02*
D03*
X1447800D02*
D03*
X1435100D02*
D03*
X1587500D02*
D03*
X1600200D02*
D03*
X1625600D02*
D03*
X1612900D02*
D03*
X1562100D02*
D03*
X1574800D02*
D03*
X1549400D02*
D03*
X1536700D02*
D03*
X1943100D02*
D03*
X1955800D02*
D03*
X1981200D02*
D03*
X1968500D02*
D03*
X2019300D02*
D03*
X2032000D02*
D03*
X2006600D02*
D03*
X1993900D02*
D03*
X1841500D02*
D03*
X1854200D02*
D03*
X1879600D02*
D03*
X1866900D02*
D03*
X1917700D02*
D03*
X1930400D02*
D03*
X1905000D02*
D03*
X1892300D02*
D03*
X1739900D02*
D03*
X1752600D02*
D03*
X1778000D02*
D03*
X1765300D02*
D03*
X1816100D02*
D03*
X1828800D02*
D03*
X1803400D02*
D03*
X1790700D02*
D03*
X1689100D02*
D03*
X1701800D02*
D03*
X1727200D02*
D03*
X1714500D02*
D03*
X1663700D02*
D03*
X1676400D02*
D03*
X1651000D02*
D03*
X1638300D02*
D03*
Y584200D02*
D03*
X1651000D02*
D03*
X1676400D02*
D03*
X1663700D02*
D03*
X1714500D02*
D03*
X1727200D02*
D03*
X1701800D02*
D03*
X1689100D02*
D03*
X1790700D02*
D03*
X1803400D02*
D03*
X1828800D02*
D03*
X1816100D02*
D03*
X1765300D02*
D03*
X1778000D02*
D03*
X1752600D02*
D03*
X1739900D02*
D03*
X1892300D02*
D03*
X1905000D02*
D03*
X1930400D02*
D03*
X1917700D02*
D03*
X1866900D02*
D03*
X1879600D02*
D03*
X1854200D02*
D03*
X1841500D02*
D03*
X1993900D02*
D03*
X2006600D02*
D03*
X2032000D02*
D03*
X2019300D02*
D03*
X1968500D02*
D03*
X1981200D02*
D03*
X1955800D02*
D03*
X1943100D02*
D03*
X1536700D02*
D03*
X1549400D02*
D03*
X1574800D02*
D03*
X1562100D02*
D03*
X1612900D02*
D03*
X1625600D02*
D03*
X1600200D02*
D03*
X1587500D02*
D03*
X1435100D02*
D03*
X1447800D02*
D03*
X1473200D02*
D03*
X1460500D02*
D03*
X1511300D02*
D03*
X1524000D02*
D03*
X1498600D02*
D03*
X1485900D02*
D03*
X1333500D02*
D03*
X1346200D02*
D03*
X1371600D02*
D03*
X1358900D02*
D03*
X1409700D02*
D03*
X1422400D02*
D03*
X1397000D02*
D03*
X1384300D02*
D03*
X1282700D02*
D03*
X1295400D02*
D03*
X1320800D02*
D03*
X1308100D02*
D03*
X1257300D02*
D03*
X1270000D02*
D03*
X1244600D02*
D03*
X1231900D02*
D03*
Y609600D02*
D03*
X1244600D02*
D03*
X1270000D02*
D03*
X1257300D02*
D03*
X1308100D02*
D03*
X1320800D02*
D03*
X1295400D02*
D03*
X1282700D02*
D03*
X1384300D02*
D03*
X1397000D02*
D03*
X1422400D02*
D03*
X1409700D02*
D03*
X1358900D02*
D03*
X1371600D02*
D03*
X1346200D02*
D03*
X1333500D02*
D03*
X1485900D02*
D03*
X1498600D02*
D03*
X1524000D02*
D03*
X1511300D02*
D03*
X1460500D02*
D03*
X1473200D02*
D03*
X1447800D02*
D03*
X1435100D02*
D03*
X1587500D02*
D03*
X1600200D02*
D03*
X1625600D02*
D03*
X1612900D02*
D03*
X1562100D02*
D03*
X1574800D02*
D03*
X1549400D02*
D03*
X1536700D02*
D03*
X1943100D02*
D03*
X1955800D02*
D03*
X1981200D02*
D03*
X1968500D02*
D03*
X2019300D02*
D03*
X2032000D02*
D03*
X2006600D02*
D03*
X1993900D02*
D03*
X1841500D02*
D03*
X1854200D02*
D03*
X1879600D02*
D03*
X1866900D02*
D03*
X1917700D02*
D03*
X1930400D02*
D03*
X1905000D02*
D03*
X1892300D02*
D03*
X1739900D02*
D03*
X1752600D02*
D03*
X1778000D02*
D03*
X1765300D02*
D03*
X1816100D02*
D03*
X1828800D02*
D03*
X1803400D02*
D03*
X1790700D02*
D03*
X1689100D02*
D03*
X1701800D02*
D03*
X1727200D02*
D03*
X1714500D02*
D03*
X1663700D02*
D03*
X1676400D02*
D03*
X1651000D02*
D03*
X1638300D02*
D03*
Y596900D02*
D03*
X1651000D02*
D03*
X1676400D02*
D03*
X1663700D02*
D03*
X1714500D02*
D03*
X1727200D02*
D03*
X1701800D02*
D03*
X1689100D02*
D03*
X1790700D02*
D03*
X1803400D02*
D03*
X1828800D02*
D03*
X1816100D02*
D03*
X1765300D02*
D03*
X1778000D02*
D03*
X1752600D02*
D03*
X1739900D02*
D03*
X1892300D02*
D03*
X1905000D02*
D03*
X1930400D02*
D03*
X1917700D02*
D03*
X1866900D02*
D03*
X1879600D02*
D03*
X1854200D02*
D03*
X1841500D02*
D03*
X1993900D02*
D03*
X2006600D02*
D03*
X2032000D02*
D03*
X2019300D02*
D03*
X1968500D02*
D03*
X1981200D02*
D03*
X1955800D02*
D03*
X1943100D02*
D03*
X1536700D02*
D03*
X1549400D02*
D03*
X1574800D02*
D03*
X1562100D02*
D03*
X1612900D02*
D03*
X1625600D02*
D03*
X1600200D02*
D03*
X1587500D02*
D03*
X1435100D02*
D03*
X1447800D02*
D03*
X1473200D02*
D03*
X1460500D02*
D03*
X1511300D02*
D03*
X1524000D02*
D03*
X1498600D02*
D03*
X1485900D02*
D03*
X1333500D02*
D03*
X1346200D02*
D03*
X1371600D02*
D03*
X1358900D02*
D03*
X1409700D02*
D03*
X1422400D02*
D03*
X1397000D02*
D03*
X1384300D02*
D03*
X1282700D02*
D03*
X1295400D02*
D03*
X1320800D02*
D03*
X1308100D02*
D03*
X1257300D02*
D03*
X1270000D02*
D03*
X1244600D02*
D03*
X1231900D02*
D03*
Y647700D02*
D03*
X1244600D02*
D03*
X1270000D02*
D03*
X1257300D02*
D03*
X1308100D02*
D03*
X1320800D02*
D03*
X1295400D02*
D03*
X1282700D02*
D03*
X1384300D02*
D03*
X1397000D02*
D03*
X1422400D02*
D03*
X1409700D02*
D03*
X1358900D02*
D03*
X1371600D02*
D03*
X1346200D02*
D03*
X1333500D02*
D03*
X1485900D02*
D03*
X1498600D02*
D03*
X1524000D02*
D03*
X1511300D02*
D03*
X1460500D02*
D03*
X1473200D02*
D03*
X1447800D02*
D03*
X1435100D02*
D03*
X1587500D02*
D03*
X1600200D02*
D03*
X1625600D02*
D03*
X1612900D02*
D03*
X1562100D02*
D03*
X1574800D02*
D03*
X1549400D02*
D03*
X1536700D02*
D03*
X1943100D02*
D03*
X1955800D02*
D03*
X1981200D02*
D03*
X1968500D02*
D03*
X2019300D02*
D03*
X2032000D02*
D03*
X2006600D02*
D03*
X1993900D02*
D03*
X1841500D02*
D03*
X1854200D02*
D03*
X1879600D02*
D03*
X1866900D02*
D03*
X1917700D02*
D03*
X1930400D02*
D03*
X1905000D02*
D03*
X1892300D02*
D03*
X1739900D02*
D03*
X1752600D02*
D03*
X1778000D02*
D03*
X1765300D02*
D03*
X1816100D02*
D03*
X1828800D02*
D03*
X1803400D02*
D03*
X1790700D02*
D03*
X1689100D02*
D03*
X1701800D02*
D03*
X1727200D02*
D03*
X1714500D02*
D03*
X1663700D02*
D03*
X1676400D02*
D03*
X1651000D02*
D03*
X1638300D02*
D03*
Y660400D02*
D03*
X1651000D02*
D03*
X1676400D02*
D03*
X1663700D02*
D03*
X1714500D02*
D03*
X1727200D02*
D03*
X1701800D02*
D03*
X1689100D02*
D03*
X1790700D02*
D03*
X1803400D02*
D03*
X1828800D02*
D03*
X1816100D02*
D03*
X1765300D02*
D03*
X1778000D02*
D03*
X1752600D02*
D03*
X1739900D02*
D03*
X1892300D02*
D03*
X1905000D02*
D03*
X1930400D02*
D03*
X1917700D02*
D03*
X1866900D02*
D03*
X1879600D02*
D03*
X1854200D02*
D03*
X1841500D02*
D03*
X1993900D02*
D03*
X2006600D02*
D03*
X2032000D02*
D03*
X2019300D02*
D03*
X1968500D02*
D03*
X1981200D02*
D03*
X1955800D02*
D03*
X1943100D02*
D03*
X1536700D02*
D03*
X1549400D02*
D03*
X1574800D02*
D03*
X1562100D02*
D03*
X1612900D02*
D03*
X1625600D02*
D03*
X1600200D02*
D03*
X1587500D02*
D03*
X1435100D02*
D03*
X1447800D02*
D03*
X1473200D02*
D03*
X1460500D02*
D03*
X1511300D02*
D03*
X1524000D02*
D03*
X1498600D02*
D03*
X1485900D02*
D03*
X1333500D02*
D03*
X1346200D02*
D03*
X1371600D02*
D03*
X1358900D02*
D03*
X1409700D02*
D03*
X1422400D02*
D03*
X1397000D02*
D03*
X1384300D02*
D03*
X1282700D02*
D03*
X1295400D02*
D03*
X1320800D02*
D03*
X1308100D02*
D03*
X1257300D02*
D03*
X1270000D02*
D03*
X1244600D02*
D03*
X1231900D02*
D03*
Y635000D02*
D03*
X1244600D02*
D03*
X1270000D02*
D03*
X1257300D02*
D03*
X1308100D02*
D03*
X1320800D02*
D03*
X1295400D02*
D03*
X1282700D02*
D03*
X1384300D02*
D03*
X1397000D02*
D03*
X1422400D02*
D03*
X1409700D02*
D03*
X1358900D02*
D03*
X1371600D02*
D03*
X1346200D02*
D03*
X1333500D02*
D03*
X1485900D02*
D03*
X1498600D02*
D03*
X1524000D02*
D03*
X1511300D02*
D03*
X1460500D02*
D03*
X1473200D02*
D03*
X1447800D02*
D03*
X1435100D02*
D03*
X1587500D02*
D03*
X1600200D02*
D03*
X1625600D02*
D03*
X1612900D02*
D03*
X1562100D02*
D03*
X1574800D02*
D03*
X1549400D02*
D03*
X1536700D02*
D03*
X1943100D02*
D03*
X1955800D02*
D03*
X1981200D02*
D03*
X1968500D02*
D03*
X2019300D02*
D03*
X2032000D02*
D03*
X2006600D02*
D03*
X1993900D02*
D03*
X1841500D02*
D03*
X1854200D02*
D03*
X1879600D02*
D03*
X1866900D02*
D03*
X1917700D02*
D03*
X1930400D02*
D03*
X1905000D02*
D03*
X1892300D02*
D03*
X1739900D02*
D03*
X1752600D02*
D03*
X1778000D02*
D03*
X1765300D02*
D03*
X1816100D02*
D03*
X1828800D02*
D03*
X1803400D02*
D03*
X1790700D02*
D03*
X1689100D02*
D03*
X1701800D02*
D03*
X1727200D02*
D03*
X1714500D02*
D03*
X1663700D02*
D03*
X1676400D02*
D03*
X1651000D02*
D03*
X1638300D02*
D03*
Y622300D02*
D03*
X1651000D02*
D03*
X1676400D02*
D03*
X1663700D02*
D03*
X1714500D02*
D03*
X1727200D02*
D03*
X1701800D02*
D03*
X1689100D02*
D03*
X1790700D02*
D03*
X1803400D02*
D03*
X1828800D02*
D03*
X1816100D02*
D03*
X1765300D02*
D03*
X1778000D02*
D03*
X1752600D02*
D03*
X1739900D02*
D03*
X1892300D02*
D03*
X1905000D02*
D03*
X1930400D02*
D03*
X1917700D02*
D03*
X1866900D02*
D03*
X1879600D02*
D03*
X1854200D02*
D03*
X1841500D02*
D03*
X1993900D02*
D03*
X2006600D02*
D03*
X2032000D02*
D03*
X2019300D02*
D03*
X1968500D02*
D03*
X1981200D02*
D03*
X1955800D02*
D03*
X1943100D02*
D03*
X1536700D02*
D03*
X1549400D02*
D03*
X1574800D02*
D03*
X1562100D02*
D03*
X1612900D02*
D03*
X1625600D02*
D03*
X1600200D02*
D03*
X1587500D02*
D03*
X1435100D02*
D03*
X1447800D02*
D03*
X1473200D02*
D03*
X1460500D02*
D03*
X1511300D02*
D03*
X1524000D02*
D03*
X1498600D02*
D03*
X1485900D02*
D03*
X1333500D02*
D03*
X1346200D02*
D03*
X1371600D02*
D03*
X1358900D02*
D03*
X1409700D02*
D03*
X1422400D02*
D03*
X1397000D02*
D03*
X1384300D02*
D03*
X1282700D02*
D03*
X1295400D02*
D03*
X1320800D02*
D03*
X1308100D02*
D03*
X1257300D02*
D03*
X1270000D02*
D03*
X1244600D02*
D03*
X1231900D02*
D03*
Y520700D02*
D03*
X1244600D02*
D03*
X1270000D02*
D03*
X1257300D02*
D03*
X1308100D02*
D03*
X1320800D02*
D03*
X1295400D02*
D03*
X1282700D02*
D03*
X1384300D02*
D03*
X1397000D02*
D03*
X1422400D02*
D03*
X1409700D02*
D03*
X1358900D02*
D03*
X1371600D02*
D03*
X1346200D02*
D03*
X1333500D02*
D03*
X1485900D02*
D03*
X1498600D02*
D03*
X1524000D02*
D03*
X1511300D02*
D03*
X1460500D02*
D03*
X1473200D02*
D03*
X1447800D02*
D03*
X1435100D02*
D03*
X1587500D02*
D03*
X1600200D02*
D03*
X1625600D02*
D03*
X1612900D02*
D03*
X1562100D02*
D03*
X1574800D02*
D03*
X1549400D02*
D03*
X1536700D02*
D03*
X1943100D02*
D03*
X1955800D02*
D03*
X1981200D02*
D03*
X1968500D02*
D03*
X2019300D02*
D03*
X2032000D02*
D03*
X2006600D02*
D03*
X1993900D02*
D03*
X1841500D02*
D03*
X1854200D02*
D03*
X1879600D02*
D03*
X1866900D02*
D03*
X1917700D02*
D03*
X1930400D02*
D03*
X1905000D02*
D03*
X1892300D02*
D03*
X1739900D02*
D03*
X1752600D02*
D03*
X1778000D02*
D03*
X1765300D02*
D03*
X1816100D02*
D03*
X1828800D02*
D03*
X1803400D02*
D03*
X1790700D02*
D03*
X1689100D02*
D03*
X1701800D02*
D03*
X1727200D02*
D03*
X1714500D02*
D03*
X1663700D02*
D03*
X1676400D02*
D03*
X1651000D02*
D03*
X1638300D02*
D03*
Y533400D02*
D03*
X1651000D02*
D03*
X1676400D02*
D03*
X1663700D02*
D03*
X1714500D02*
D03*
X1727200D02*
D03*
X1701800D02*
D03*
X1689100D02*
D03*
X1790700D02*
D03*
X1803400D02*
D03*
X1828800D02*
D03*
X1816100D02*
D03*
X1765300D02*
D03*
X1778000D02*
D03*
X1752600D02*
D03*
X1739900D02*
D03*
X1892300D02*
D03*
X1905000D02*
D03*
X1930400D02*
D03*
X1917700D02*
D03*
X1866900D02*
D03*
X1879600D02*
D03*
X1854200D02*
D03*
X1841500D02*
D03*
X1993900D02*
D03*
X2006600D02*
D03*
X2032000D02*
D03*
X2019300D02*
D03*
X1968500D02*
D03*
X1981200D02*
D03*
X1955800D02*
D03*
X1943100D02*
D03*
X1536700D02*
D03*
X1549400D02*
D03*
X1574800D02*
D03*
X1562100D02*
D03*
X1612900D02*
D03*
X1625600D02*
D03*
X1600200D02*
D03*
X1587500D02*
D03*
X1435100D02*
D03*
X1447800D02*
D03*
X1473200D02*
D03*
X1460500D02*
D03*
X1511300D02*
D03*
X1524000D02*
D03*
X1498600D02*
D03*
X1485900D02*
D03*
X1333500D02*
D03*
X1346200D02*
D03*
X1371600D02*
D03*
X1358900D02*
D03*
X1409700D02*
D03*
X1422400D02*
D03*
X1397000D02*
D03*
X1384300D02*
D03*
X1282700D02*
D03*
X1295400D02*
D03*
X1320800D02*
D03*
X1308100D02*
D03*
X1257300D02*
D03*
X1270000D02*
D03*
X1244600D02*
D03*
X1231900D02*
D03*
Y558800D02*
D03*
X1244600D02*
D03*
X1270000D02*
D03*
X1257300D02*
D03*
X1308100D02*
D03*
X1320800D02*
D03*
X1295400D02*
D03*
X1282700D02*
D03*
X1384300D02*
D03*
X1397000D02*
D03*
X1422400D02*
D03*
X1409700D02*
D03*
X1358900D02*
D03*
X1371600D02*
D03*
X1346200D02*
D03*
X1333500D02*
D03*
X1485900D02*
D03*
X1498600D02*
D03*
X1524000D02*
D03*
X1511300D02*
D03*
X1460500D02*
D03*
X1473200D02*
D03*
X1447800D02*
D03*
X1435100D02*
D03*
X1587500D02*
D03*
X1600200D02*
D03*
X1625600D02*
D03*
X1612900D02*
D03*
X1562100D02*
D03*
X1574800D02*
D03*
X1549400D02*
D03*
X1536700D02*
D03*
X1943100D02*
D03*
X1955800D02*
D03*
X1981200D02*
D03*
X1968500D02*
D03*
X2019300D02*
D03*
X2032000D02*
D03*
X2006600D02*
D03*
X1993900D02*
D03*
X1841500D02*
D03*
X1854200D02*
D03*
X1879600D02*
D03*
X1866900D02*
D03*
X1917700D02*
D03*
X1930400D02*
D03*
X1905000D02*
D03*
X1892300D02*
D03*
X1739900D02*
D03*
X1752600D02*
D03*
X1778000D02*
D03*
X1765300D02*
D03*
X1816100D02*
D03*
X1828800D02*
D03*
X1803400D02*
D03*
X1790700D02*
D03*
X1689100D02*
D03*
X1701800D02*
D03*
X1727200D02*
D03*
X1714500D02*
D03*
X1663700D02*
D03*
X1676400D02*
D03*
X1651000D02*
D03*
X1638300D02*
D03*
Y546100D02*
D03*
X1651000D02*
D03*
X1676400D02*
D03*
X1663700D02*
D03*
X1714500D02*
D03*
X1727200D02*
D03*
X1701800D02*
D03*
X1689100D02*
D03*
X1790700D02*
D03*
X1803400D02*
D03*
X1828800D02*
D03*
X1816100D02*
D03*
X1765300D02*
D03*
X1778000D02*
D03*
X1752600D02*
D03*
X1739900D02*
D03*
X1892300D02*
D03*
X1905000D02*
D03*
X1930400D02*
D03*
X1917700D02*
D03*
X1866900D02*
D03*
X1879600D02*
D03*
X1854200D02*
D03*
X1841500D02*
D03*
X1993900D02*
D03*
X2006600D02*
D03*
X2032000D02*
D03*
X2019300D02*
D03*
X1968500D02*
D03*
X1981200D02*
D03*
X1955800D02*
D03*
X1943100D02*
D03*
X1536700D02*
D03*
X1549400D02*
D03*
X1574800D02*
D03*
X1562100D02*
D03*
X1612900D02*
D03*
X1625600D02*
D03*
X1600200D02*
D03*
X1587500D02*
D03*
X1435100D02*
D03*
X1447800D02*
D03*
X1473200D02*
D03*
X1460500D02*
D03*
X1511300D02*
D03*
X1524000D02*
D03*
X1498600D02*
D03*
X1485900D02*
D03*
X1333500D02*
D03*
X1346200D02*
D03*
X1371600D02*
D03*
X1358900D02*
D03*
X1409700D02*
D03*
X1422400D02*
D03*
X1397000D02*
D03*
X1384300D02*
D03*
X1282700D02*
D03*
X1295400D02*
D03*
X1320800D02*
D03*
X1308100D02*
D03*
X1257300D02*
D03*
X1270000D02*
D03*
X1244600D02*
D03*
X1231900D02*
D03*
Y495300D02*
D03*
X1244600D02*
D03*
X1270000D02*
D03*
X1257300D02*
D03*
X1308100D02*
D03*
X1320800D02*
D03*
X1295400D02*
D03*
X1282700D02*
D03*
X1384300D02*
D03*
X1397000D02*
D03*
X1422400D02*
D03*
X1409700D02*
D03*
X1358900D02*
D03*
X1371600D02*
D03*
X1346200D02*
D03*
X1333500D02*
D03*
X1485900D02*
D03*
X1498600D02*
D03*
X1524000D02*
D03*
X1511300D02*
D03*
X1460500D02*
D03*
X1473200D02*
D03*
X1447800D02*
D03*
X1435100D02*
D03*
X1587500D02*
D03*
X1600200D02*
D03*
X1625600D02*
D03*
X1612900D02*
D03*
X1562100D02*
D03*
X1574800D02*
D03*
X1549400D02*
D03*
X1536700D02*
D03*
X1943100D02*
D03*
X1955800D02*
D03*
X1981200D02*
D03*
X1968500D02*
D03*
X2019300D02*
D03*
X2032000D02*
D03*
X2006600D02*
D03*
X1993900D02*
D03*
X1841500D02*
D03*
X1854200D02*
D03*
X1879600D02*
D03*
X1866900D02*
D03*
X1917700D02*
D03*
X1930400D02*
D03*
X1905000D02*
D03*
X1892300D02*
D03*
X1739900D02*
D03*
X1752600D02*
D03*
X1778000D02*
D03*
X1765300D02*
D03*
X1816100D02*
D03*
X1828800D02*
D03*
X1803400D02*
D03*
X1790700D02*
D03*
X1689100D02*
D03*
X1701800D02*
D03*
X1727200D02*
D03*
X1714500D02*
D03*
X1663700D02*
D03*
X1676400D02*
D03*
X1651000D02*
D03*
X1638300D02*
D03*
Y508000D02*
D03*
X1651000D02*
D03*
X1676400D02*
D03*
X1663700D02*
D03*
X1714500D02*
D03*
X1727200D02*
D03*
X1701800D02*
D03*
X1689100D02*
D03*
X1790700D02*
D03*
X1803400D02*
D03*
X1828800D02*
D03*
X1816100D02*
D03*
X1765300D02*
D03*
X1778000D02*
D03*
X1752600D02*
D03*
X1739900D02*
D03*
X1892300D02*
D03*
X1905000D02*
D03*
X1930400D02*
D03*
X1917700D02*
D03*
X1866900D02*
D03*
X1879600D02*
D03*
X1854200D02*
D03*
X1841500D02*
D03*
X1993900D02*
D03*
X2006600D02*
D03*
X2032000D02*
D03*
X2019300D02*
D03*
X1968500D02*
D03*
X1981200D02*
D03*
X1955800D02*
D03*
X1943100D02*
D03*
X1536700D02*
D03*
X1549400D02*
D03*
X1574800D02*
D03*
X1562100D02*
D03*
X1612900D02*
D03*
X1625600D02*
D03*
X1600200D02*
D03*
X1587500D02*
D03*
X1435100D02*
D03*
X1447800D02*
D03*
X1473200D02*
D03*
X1460500D02*
D03*
X1511300D02*
D03*
X1524000D02*
D03*
X1498600D02*
D03*
X1485900D02*
D03*
X1333500D02*
D03*
X1346200D02*
D03*
X1371600D02*
D03*
X1358900D02*
D03*
X1409700D02*
D03*
X1422400D02*
D03*
X1397000D02*
D03*
X1384300D02*
D03*
X1282700D02*
D03*
X1295400D02*
D03*
X1320800D02*
D03*
X1308100D02*
D03*
X1257300D02*
D03*
X1270000D02*
D03*
X1244600D02*
D03*
X1231900D02*
D03*
Y482600D02*
D03*
X1244600D02*
D03*
X1270000D02*
D03*
X1257300D02*
D03*
X1308100D02*
D03*
X1320800D02*
D03*
X1295400D02*
D03*
X1282700D02*
D03*
X1384300D02*
D03*
X1397000D02*
D03*
X1422400D02*
D03*
X1409700D02*
D03*
X1358900D02*
D03*
X1371600D02*
D03*
X1346200D02*
D03*
X1333500D02*
D03*
X1485900D02*
D03*
X1498600D02*
D03*
X1524000D02*
D03*
X1511300D02*
D03*
X1460500D02*
D03*
X1473200D02*
D03*
X1447800D02*
D03*
X1435100D02*
D03*
X1587500D02*
D03*
X1600200D02*
D03*
X1625600D02*
D03*
X1612900D02*
D03*
X1562100D02*
D03*
X1574800D02*
D03*
X1549400D02*
D03*
X1536700D02*
D03*
X1943100D02*
D03*
X1955800D02*
D03*
X1981200D02*
D03*
X1968500D02*
D03*
X2019300D02*
D03*
X2032000D02*
D03*
X2006600D02*
D03*
X1993900D02*
D03*
X1841500D02*
D03*
X1854200D02*
D03*
X1879600D02*
D03*
X1866900D02*
D03*
X1917700D02*
D03*
X1930400D02*
D03*
X1905000D02*
D03*
X1892300D02*
D03*
X1739900D02*
D03*
X1752600D02*
D03*
X1778000D02*
D03*
X1765300D02*
D03*
X1816100D02*
D03*
X1828800D02*
D03*
X1803400D02*
D03*
X1790700D02*
D03*
X1689100D02*
D03*
X1701800D02*
D03*
X1727200D02*
D03*
X1714500D02*
D03*
X1663700D02*
D03*
X1676400D02*
D03*
X1651000D02*
D03*
X1638300D02*
D03*
Y469900D02*
D03*
X1651000D02*
D03*
X1676400D02*
D03*
X1663700D02*
D03*
X1714500D02*
D03*
X1727200D02*
D03*
X1701800D02*
D03*
X1689100D02*
D03*
X1790700D02*
D03*
X1803400D02*
D03*
X1828800D02*
D03*
X1816100D02*
D03*
X1765300D02*
D03*
X1778000D02*
D03*
X1752600D02*
D03*
X1739900D02*
D03*
X1892300D02*
D03*
X1905000D02*
D03*
X1930400D02*
D03*
X1917700D02*
D03*
X1866900D02*
D03*
X1879600D02*
D03*
X1854200D02*
D03*
X1841500D02*
D03*
X1993900D02*
D03*
X2006600D02*
D03*
X2032000D02*
D03*
X2019300D02*
D03*
X1968500D02*
D03*
X1981200D02*
D03*
X1955800D02*
D03*
X1943100D02*
D03*
X1536700D02*
D03*
X1549400D02*
D03*
X1574800D02*
D03*
X1562100D02*
D03*
X1612900D02*
D03*
X1625600D02*
D03*
X1600200D02*
D03*
X1587500D02*
D03*
X1435100D02*
D03*
X1447800D02*
D03*
X1473200D02*
D03*
X1460500D02*
D03*
X1511300D02*
D03*
X1524000D02*
D03*
X1498600D02*
D03*
X1485900D02*
D03*
X1333500D02*
D03*
X1346200D02*
D03*
X1371600D02*
D03*
X1358900D02*
D03*
X1409700D02*
D03*
X1422400D02*
D03*
X1397000D02*
D03*
X1384300D02*
D03*
X1282700D02*
D03*
X1295400D02*
D03*
X1320800D02*
D03*
X1308100D02*
D03*
X1257300D02*
D03*
X1270000D02*
D03*
X1244600D02*
D03*
X1231900D02*
D03*
X1638300Y673100D02*
D03*
X1651000D02*
D03*
X1676400D02*
D03*
X1663700D02*
D03*
X1714500D02*
D03*
X1727200D02*
D03*
X1701800D02*
D03*
X1689100D02*
D03*
X1790700D02*
D03*
X1803400D02*
D03*
X1828800D02*
D03*
X1816100D02*
D03*
X1765300D02*
D03*
X1778000D02*
D03*
X1752600D02*
D03*
X1739900D02*
D03*
X1892300D02*
D03*
X1905000D02*
D03*
X1930400D02*
D03*
X1917700D02*
D03*
X1866900D02*
D03*
X1879600D02*
D03*
X1854200D02*
D03*
X1841500D02*
D03*
X1993900D02*
D03*
X2006600D02*
D03*
X2032000D02*
D03*
X2019300D02*
D03*
X1968500D02*
D03*
X1981200D02*
D03*
X1955800D02*
D03*
X1943100D02*
D03*
X1536700D02*
D03*
X1549400D02*
D03*
X1574800D02*
D03*
X1562100D02*
D03*
X1612900D02*
D03*
X1625600D02*
D03*
X1600200D02*
D03*
X1587500D02*
D03*
X1435100D02*
D03*
X1447800D02*
D03*
X1473200D02*
D03*
X1460500D02*
D03*
X1511300D02*
D03*
X1524000D02*
D03*
X1498600D02*
D03*
X1485900D02*
D03*
X1333500D02*
D03*
X1346200D02*
D03*
X1371600D02*
D03*
X1358900D02*
D03*
X1409700D02*
D03*
X1422400D02*
D03*
X1397000D02*
D03*
X1384300D02*
D03*
X1282700D02*
D03*
X1295400D02*
D03*
X1320800D02*
D03*
X1308100D02*
D03*
X1257300D02*
D03*
X1270000D02*
D03*
X1244600D02*
D03*
X1231900D02*
D03*
Y698500D02*
D03*
X1244600D02*
D03*
X1270000D02*
D03*
X1257300D02*
D03*
X1308100D02*
D03*
X1320800D02*
D03*
X1295400D02*
D03*
X1282700D02*
D03*
X1384300D02*
D03*
X1397000D02*
D03*
X1422400D02*
D03*
X1409700D02*
D03*
X1358900D02*
D03*
X1371600D02*
D03*
X1346200D02*
D03*
X1333500D02*
D03*
X1485900D02*
D03*
X1498600D02*
D03*
X1524000D02*
D03*
X1511300D02*
D03*
X1460500D02*
D03*
X1473200D02*
D03*
X1447800D02*
D03*
X1435100D02*
D03*
X1587500D02*
D03*
X1600200D02*
D03*
X1625600D02*
D03*
X1612900D02*
D03*
X1562100D02*
D03*
X1574800D02*
D03*
X1549400D02*
D03*
X1536700D02*
D03*
X1943100D02*
D03*
X1955800D02*
D03*
X1981200D02*
D03*
X1968500D02*
D03*
X2019300D02*
D03*
X2032000D02*
D03*
X2006600D02*
D03*
X1993900D02*
D03*
X1841500D02*
D03*
X1854200D02*
D03*
X1879600D02*
D03*
X1866900D02*
D03*
X1917700D02*
D03*
X1930400D02*
D03*
X1905000D02*
D03*
X1892300D02*
D03*
X1739900D02*
D03*
X1752600D02*
D03*
X1778000D02*
D03*
X1765300D02*
D03*
X1816100D02*
D03*
X1828800D02*
D03*
X1803400D02*
D03*
X1790700D02*
D03*
X1689100D02*
D03*
X1701800D02*
D03*
X1727200D02*
D03*
X1714500D02*
D03*
X1663700D02*
D03*
X1676400D02*
D03*
X1651000D02*
D03*
X1638300D02*
D03*
Y685800D02*
D03*
X1651000D02*
D03*
X1676400D02*
D03*
X1663700D02*
D03*
X1714500D02*
D03*
X1727200D02*
D03*
X1701800D02*
D03*
X1689100D02*
D03*
X1790700D02*
D03*
X1803400D02*
D03*
X1828800D02*
D03*
X1816100D02*
D03*
X1765300D02*
D03*
X1778000D02*
D03*
X1752600D02*
D03*
X1739900D02*
D03*
X1892300D02*
D03*
X1905000D02*
D03*
X1930400D02*
D03*
X1917700D02*
D03*
X1866900D02*
D03*
X1879600D02*
D03*
X1854200D02*
D03*
X1841500D02*
D03*
X1993900D02*
D03*
X2006600D02*
D03*
X2032000D02*
D03*
X2019300D02*
D03*
X1968500D02*
D03*
X1981200D02*
D03*
X1955800D02*
D03*
X1943100D02*
D03*
X1536700D02*
D03*
X1549400D02*
D03*
X1574800D02*
D03*
X1562100D02*
D03*
X1612900D02*
D03*
X1625600D02*
D03*
X1600200D02*
D03*
X1587500D02*
D03*
X1435100D02*
D03*
X1447800D02*
D03*
X1473200D02*
D03*
X1460500D02*
D03*
X1511300D02*
D03*
X1524000D02*
D03*
X1498600D02*
D03*
X1485900D02*
D03*
X1333500D02*
D03*
X1346200D02*
D03*
X1371600D02*
D03*
X1358900D02*
D03*
X1409700D02*
D03*
X1422400D02*
D03*
X1397000D02*
D03*
X1384300D02*
D03*
X1282700D02*
D03*
X1295400D02*
D03*
X1320800D02*
D03*
X1308100D02*
D03*
X1257300D02*
D03*
X1270000D02*
D03*
X1244600D02*
D03*
X1231900D02*
D03*
Y736600D02*
D03*
X1244600D02*
D03*
X1270000D02*
D03*
X1257300D02*
D03*
X1308100D02*
D03*
X1320800D02*
D03*
X1295400D02*
D03*
X1282700D02*
D03*
X1384300D02*
D03*
X1397000D02*
D03*
X1422400D02*
D03*
X1409700D02*
D03*
X1358900D02*
D03*
X1371600D02*
D03*
X1346200D02*
D03*
X1333500D02*
D03*
X1485900D02*
D03*
X1498600D02*
D03*
X1524000D02*
D03*
X1511300D02*
D03*
X1460500D02*
D03*
X1473200D02*
D03*
X1447800D02*
D03*
X1435100D02*
D03*
X1587500D02*
D03*
X1600200D02*
D03*
X1625600D02*
D03*
X1612900D02*
D03*
X1562100D02*
D03*
X1574800D02*
D03*
X1549400D02*
D03*
X1536700D02*
D03*
X1943100D02*
D03*
X1955800D02*
D03*
X1981200D02*
D03*
X1968500D02*
D03*
X2019300D02*
D03*
X2032000D02*
D03*
X2006600D02*
D03*
X1993900D02*
D03*
X1841500D02*
D03*
X1854200D02*
D03*
X1879600D02*
D03*
X1866900D02*
D03*
X1917700D02*
D03*
X1930400D02*
D03*
X1905000D02*
D03*
X1892300D02*
D03*
X1739900D02*
D03*
X1752600D02*
D03*
X1778000D02*
D03*
X1765300D02*
D03*
X1816100D02*
D03*
X1828800D02*
D03*
X1803400D02*
D03*
X1790700D02*
D03*
X1689100D02*
D03*
X1701800D02*
D03*
X1727200D02*
D03*
X1714500D02*
D03*
X1663700D02*
D03*
X1676400D02*
D03*
X1651000D02*
D03*
X1638300D02*
D03*
Y749300D02*
D03*
X1651000D02*
D03*
X1676400D02*
D03*
X1663700D02*
D03*
X1714500D02*
D03*
X1727200D02*
D03*
X1701800D02*
D03*
X1689100D02*
D03*
X1790700D02*
D03*
X1803400D02*
D03*
X1828800D02*
D03*
X1816100D02*
D03*
X1765300D02*
D03*
X1778000D02*
D03*
X1752600D02*
D03*
X1739900D02*
D03*
X1892300D02*
D03*
X1905000D02*
D03*
X1930400D02*
D03*
X1917700D02*
D03*
X1866900D02*
D03*
X1879600D02*
D03*
X1854200D02*
D03*
X1841500D02*
D03*
X1993900D02*
D03*
X2006600D02*
D03*
X2032000D02*
D03*
X2019300D02*
D03*
X1968500D02*
D03*
X1981200D02*
D03*
X1955800D02*
D03*
X1943100D02*
D03*
X1536700D02*
D03*
X1549400D02*
D03*
X1574800D02*
D03*
X1562100D02*
D03*
X1612900D02*
D03*
X1625600D02*
D03*
X1600200D02*
D03*
X1587500D02*
D03*
X1435100D02*
D03*
X1447800D02*
D03*
X1473200D02*
D03*
X1460500D02*
D03*
X1511300D02*
D03*
X1524000D02*
D03*
X1498600D02*
D03*
X1485900D02*
D03*
X1333500D02*
D03*
X1346200D02*
D03*
X1371600D02*
D03*
X1358900D02*
D03*
X1409700D02*
D03*
X1422400D02*
D03*
X1397000D02*
D03*
X1384300D02*
D03*
X1282700D02*
D03*
X1295400D02*
D03*
X1320800D02*
D03*
X1308100D02*
D03*
X1257300D02*
D03*
X1270000D02*
D03*
X1244600D02*
D03*
X1231900D02*
D03*
Y723900D02*
D03*
X1244600D02*
D03*
X1270000D02*
D03*
X1257300D02*
D03*
X1308100D02*
D03*
X1320800D02*
D03*
X1295400D02*
D03*
X1282700D02*
D03*
X1384300D02*
D03*
X1397000D02*
D03*
X1422400D02*
D03*
X1409700D02*
D03*
X1358900D02*
D03*
X1371600D02*
D03*
X1346200D02*
D03*
X1333500D02*
D03*
X1485900D02*
D03*
X1498600D02*
D03*
X1524000D02*
D03*
X1511300D02*
D03*
X1460500D02*
D03*
X1473200D02*
D03*
X1447800D02*
D03*
X1435100D02*
D03*
X1587500D02*
D03*
X1600200D02*
D03*
X1625600D02*
D03*
X1612900D02*
D03*
X1562100D02*
D03*
X1574800D02*
D03*
X1549400D02*
D03*
X1536700D02*
D03*
X1943100D02*
D03*
X1955800D02*
D03*
X1981200D02*
D03*
X1968500D02*
D03*
X2019300D02*
D03*
X2032000D02*
D03*
X2006600D02*
D03*
X1993900D02*
D03*
X1841500D02*
D03*
X1854200D02*
D03*
X1879600D02*
D03*
X1866900D02*
D03*
X1917700D02*
D03*
X1930400D02*
D03*
X1905000D02*
D03*
X1892300D02*
D03*
X1739900D02*
D03*
X1752600D02*
D03*
X1778000D02*
D03*
X1765300D02*
D03*
X1816100D02*
D03*
X1828800D02*
D03*
X1803400D02*
D03*
X1790700D02*
D03*
X1689100D02*
D03*
X1701800D02*
D03*
X1727200D02*
D03*
X1714500D02*
D03*
X1663700D02*
D03*
X1676400D02*
D03*
X1651000D02*
D03*
X1638300D02*
D03*
Y711200D02*
D03*
X1651000D02*
D03*
X1676400D02*
D03*
X1663700D02*
D03*
X1714500D02*
D03*
X1727200D02*
D03*
X1701800D02*
D03*
X1689100D02*
D03*
X1790700D02*
D03*
X1803400D02*
D03*
X1828800D02*
D03*
X1816100D02*
D03*
X1765300D02*
D03*
X1778000D02*
D03*
X1752600D02*
D03*
X1739900D02*
D03*
X1892300D02*
D03*
X1905000D02*
D03*
X1930400D02*
D03*
X1917700D02*
D03*
X1866900D02*
D03*
X1879600D02*
D03*
X1854200D02*
D03*
X1841500D02*
D03*
X1993900D02*
D03*
X2006600D02*
D03*
X2032000D02*
D03*
X2019300D02*
D03*
X1968500D02*
D03*
X1981200D02*
D03*
X1955800D02*
D03*
X1943100D02*
D03*
X1536700D02*
D03*
X1549400D02*
D03*
X1574800D02*
D03*
X1562100D02*
D03*
X1612900D02*
D03*
X1625600D02*
D03*
X1600200D02*
D03*
X1587500D02*
D03*
X1435100D02*
D03*
X1447800D02*
D03*
X1473200D02*
D03*
X1460500D02*
D03*
X1511300D02*
D03*
X1524000D02*
D03*
X1498600D02*
D03*
X1485900D02*
D03*
X1333500D02*
D03*
X1346200D02*
D03*
X1371600D02*
D03*
X1358900D02*
D03*
X1409700D02*
D03*
X1422400D02*
D03*
X1397000D02*
D03*
X1384300D02*
D03*
X1282700D02*
D03*
X1295400D02*
D03*
X1320800D02*
D03*
X1308100D02*
D03*
X1257300D02*
D03*
X1270000D02*
D03*
X1244600D02*
D03*
X1231900D02*
D03*
Y812800D02*
D03*
X1244600D02*
D03*
X1270000D02*
D03*
X1257300D02*
D03*
X1308100D02*
D03*
X1320800D02*
D03*
X1295400D02*
D03*
X1282700D02*
D03*
X1384300D02*
D03*
X1397000D02*
D03*
X1422400D02*
D03*
X1409700D02*
D03*
X1358900D02*
D03*
X1371600D02*
D03*
X1346200D02*
D03*
X1333500D02*
D03*
X1485900D02*
D03*
X1498600D02*
D03*
X1524000D02*
D03*
X1511300D02*
D03*
X1460500D02*
D03*
X1473200D02*
D03*
X1447800D02*
D03*
X1435100D02*
D03*
X1587500D02*
D03*
X1600200D02*
D03*
X1625600D02*
D03*
X1612900D02*
D03*
X1562100D02*
D03*
X1574800D02*
D03*
X1549400D02*
D03*
X1536700D02*
D03*
X1943100D02*
D03*
X1955800D02*
D03*
X1981200D02*
D03*
X1968500D02*
D03*
X2019300D02*
D03*
X2032000D02*
D03*
X2006600D02*
D03*
X1993900D02*
D03*
X1841500D02*
D03*
X1854200D02*
D03*
X1879600D02*
D03*
X1866900D02*
D03*
X1917700D02*
D03*
X1930400D02*
D03*
X1905000D02*
D03*
X1892300D02*
D03*
X1739900D02*
D03*
X1752600D02*
D03*
X1778000D02*
D03*
X1765300D02*
D03*
X1816100D02*
D03*
X1828800D02*
D03*
X1803400D02*
D03*
X1790700D02*
D03*
X1689100D02*
D03*
X1701800D02*
D03*
X1727200D02*
D03*
X1714500D02*
D03*
X1663700D02*
D03*
X1676400D02*
D03*
X1651000D02*
D03*
X1638300D02*
D03*
Y825500D02*
D03*
X1651000D02*
D03*
X1676400D02*
D03*
X1663700D02*
D03*
X1714500D02*
D03*
X1727200D02*
D03*
X1701800D02*
D03*
X1689100D02*
D03*
X1790700D02*
D03*
X1803400D02*
D03*
X1828800D02*
D03*
X1816100D02*
D03*
X1765300D02*
D03*
X1778000D02*
D03*
X1752600D02*
D03*
X1739900D02*
D03*
X1892300D02*
D03*
X1905000D02*
D03*
X1930400D02*
D03*
X1917700D02*
D03*
X1866900D02*
D03*
X1879600D02*
D03*
X1854200D02*
D03*
X1841500D02*
D03*
X1993900D02*
D03*
X2006600D02*
D03*
X2032000D02*
D03*
X2019300D02*
D03*
X1968500D02*
D03*
X1981200D02*
D03*
X1955800D02*
D03*
X1943100D02*
D03*
X1536700D02*
D03*
X1549400D02*
D03*
X1574800D02*
D03*
X1562100D02*
D03*
X1612900D02*
D03*
X1625600D02*
D03*
X1600200D02*
D03*
X1587500D02*
D03*
X1435100D02*
D03*
X1447800D02*
D03*
X1473200D02*
D03*
X1460500D02*
D03*
X1511300D02*
D03*
X1524000D02*
D03*
X1498600D02*
D03*
X1485900D02*
D03*
X1333500D02*
D03*
X1346200D02*
D03*
X1371600D02*
D03*
X1358900D02*
D03*
X1409700D02*
D03*
X1422400D02*
D03*
X1397000D02*
D03*
X1384300D02*
D03*
X1282700D02*
D03*
X1295400D02*
D03*
X1320800D02*
D03*
X1308100D02*
D03*
X1257300D02*
D03*
X1270000D02*
D03*
X1244600D02*
D03*
X1231900D02*
D03*
Y850900D02*
D03*
X1244600D02*
D03*
X1270000D02*
D03*
X1257300D02*
D03*
X1308100D02*
D03*
X1320800D02*
D03*
X1295400D02*
D03*
X1282700D02*
D03*
X1384300D02*
D03*
X1397000D02*
D03*
X1422400D02*
D03*
X1409700D02*
D03*
X1358900D02*
D03*
X1371600D02*
D03*
X1346200D02*
D03*
X1333500D02*
D03*
X1485900D02*
D03*
X1498600D02*
D03*
X1524000D02*
D03*
X1511300D02*
D03*
X1460500D02*
D03*
X1473200D02*
D03*
X1447800D02*
D03*
X1435100D02*
D03*
X1587500D02*
D03*
X1600200D02*
D03*
X1625600D02*
D03*
X1612900D02*
D03*
X1562100D02*
D03*
X1574800D02*
D03*
X1549400D02*
D03*
X1536700D02*
D03*
X1943100D02*
D03*
X1955800D02*
D03*
X1981200D02*
D03*
X1968500D02*
D03*
X2019300D02*
D03*
X2032000D02*
D03*
X2006600D02*
D03*
X1993900D02*
D03*
X1841500D02*
D03*
X1854200D02*
D03*
X1879600D02*
D03*
X1866900D02*
D03*
X1917700D02*
D03*
X1930400D02*
D03*
X1905000D02*
D03*
X1892300D02*
D03*
X1739900D02*
D03*
X1752600D02*
D03*
X1778000D02*
D03*
X1765300D02*
D03*
X1816100D02*
D03*
X1828800D02*
D03*
X1803400D02*
D03*
X1790700D02*
D03*
X1689100D02*
D03*
X1701800D02*
D03*
X1727200D02*
D03*
X1714500D02*
D03*
X1663700D02*
D03*
X1676400D02*
D03*
X1651000D02*
D03*
X1638300D02*
D03*
Y838200D02*
D03*
X1651000D02*
D03*
X1676400D02*
D03*
X1663700D02*
D03*
X1714500D02*
D03*
X1727200D02*
D03*
X1701800D02*
D03*
X1689100D02*
D03*
X1790700D02*
D03*
X1803400D02*
D03*
X1828800D02*
D03*
X1816100D02*
D03*
X1765300D02*
D03*
X1778000D02*
D03*
X1752600D02*
D03*
X1739900D02*
D03*
X1892300D02*
D03*
X1905000D02*
D03*
X1930400D02*
D03*
X1917700D02*
D03*
X1866900D02*
D03*
X1879600D02*
D03*
X1854200D02*
D03*
X1841500D02*
D03*
X1993900D02*
D03*
X2006600D02*
D03*
X2032000D02*
D03*
X2019300D02*
D03*
X1968500D02*
D03*
X1981200D02*
D03*
X1955800D02*
D03*
X1943100D02*
D03*
X1536700D02*
D03*
X1549400D02*
D03*
X1574800D02*
D03*
X1562100D02*
D03*
X1612900D02*
D03*
X1625600D02*
D03*
X1600200D02*
D03*
X1587500D02*
D03*
X1435100D02*
D03*
X1447800D02*
D03*
X1473200D02*
D03*
X1460500D02*
D03*
X1511300D02*
D03*
X1524000D02*
D03*
X1498600D02*
D03*
X1485900D02*
D03*
X1333500D02*
D03*
X1346200D02*
D03*
X1371600D02*
D03*
X1358900D02*
D03*
X1409700D02*
D03*
X1422400D02*
D03*
X1397000D02*
D03*
X1384300D02*
D03*
X1282700D02*
D03*
X1295400D02*
D03*
X1320800D02*
D03*
X1308100D02*
D03*
X1257300D02*
D03*
X1270000D02*
D03*
X1244600D02*
D03*
X1231900D02*
D03*
Y787400D02*
D03*
X1244600D02*
D03*
X1270000D02*
D03*
X1257300D02*
D03*
X1308100D02*
D03*
X1320800D02*
D03*
X1295400D02*
D03*
X1282700D02*
D03*
X1384300D02*
D03*
X1397000D02*
D03*
X1422400D02*
D03*
X1409700D02*
D03*
X1358900D02*
D03*
X1371600D02*
D03*
X1346200D02*
D03*
X1333500D02*
D03*
X1485900D02*
D03*
X1498600D02*
D03*
X1524000D02*
D03*
X1511300D02*
D03*
X1460500D02*
D03*
X1473200D02*
D03*
X1447800D02*
D03*
X1435100D02*
D03*
X1587500D02*
D03*
X1600200D02*
D03*
X1625600D02*
D03*
X1612900D02*
D03*
X1562100D02*
D03*
X1574800D02*
D03*
X1549400D02*
D03*
X1536700D02*
D03*
X1943100D02*
D03*
X1955800D02*
D03*
X1981200D02*
D03*
X1968500D02*
D03*
X2019300D02*
D03*
X2032000D02*
D03*
X2006600D02*
D03*
X1993900D02*
D03*
X1841500D02*
D03*
X1854200D02*
D03*
X1879600D02*
D03*
X1866900D02*
D03*
X1917700D02*
D03*
X1930400D02*
D03*
X1905000D02*
D03*
X1892300D02*
D03*
X1739900D02*
D03*
X1752600D02*
D03*
X1778000D02*
D03*
X1765300D02*
D03*
X1816100D02*
D03*
X1828800D02*
D03*
X1803400D02*
D03*
X1790700D02*
D03*
X1689100D02*
D03*
X1701800D02*
D03*
X1727200D02*
D03*
X1714500D02*
D03*
X1663700D02*
D03*
X1676400D02*
D03*
X1651000D02*
D03*
X1638300D02*
D03*
Y800100D02*
D03*
X1651000D02*
D03*
X1676400D02*
D03*
X1663700D02*
D03*
X1714500D02*
D03*
X1727200D02*
D03*
X1701800D02*
D03*
X1689100D02*
D03*
X1790700D02*
D03*
X1803400D02*
D03*
X1828800D02*
D03*
X1816100D02*
D03*
X1765300D02*
D03*
X1778000D02*
D03*
X1752600D02*
D03*
X1739900D02*
D03*
X1892300D02*
D03*
X1905000D02*
D03*
X1930400D02*
D03*
X1917700D02*
D03*
X1866900D02*
D03*
X1879600D02*
D03*
X1854200D02*
D03*
X1841500D02*
D03*
X1993900D02*
D03*
X2006600D02*
D03*
X2032000D02*
D03*
X2019300D02*
D03*
X1968500D02*
D03*
X1981200D02*
D03*
X1955800D02*
D03*
X1943100D02*
D03*
X1536700D02*
D03*
X1549400D02*
D03*
X1574800D02*
D03*
X1562100D02*
D03*
X1612900D02*
D03*
X1625600D02*
D03*
X1600200D02*
D03*
X1587500D02*
D03*
X1435100D02*
D03*
X1447800D02*
D03*
X1473200D02*
D03*
X1460500D02*
D03*
X1511300D02*
D03*
X1524000D02*
D03*
X1498600D02*
D03*
X1485900D02*
D03*
X1333500D02*
D03*
X1346200D02*
D03*
X1371600D02*
D03*
X1358900D02*
D03*
X1409700D02*
D03*
X1422400D02*
D03*
X1397000D02*
D03*
X1384300D02*
D03*
X1282700D02*
D03*
X1295400D02*
D03*
X1320800D02*
D03*
X1308100D02*
D03*
X1257300D02*
D03*
X1270000D02*
D03*
X1244600D02*
D03*
X1231900D02*
D03*
Y774700D02*
D03*
X1244600D02*
D03*
X1270000D02*
D03*
X1257300D02*
D03*
X1308100D02*
D03*
X1320800D02*
D03*
X1295400D02*
D03*
X1282700D02*
D03*
X1384300D02*
D03*
X1397000D02*
D03*
X1422400D02*
D03*
X1409700D02*
D03*
X1358900D02*
D03*
X1371600D02*
D03*
X1346200D02*
D03*
X1333500D02*
D03*
X1485900D02*
D03*
X1498600D02*
D03*
X1524000D02*
D03*
X1511300D02*
D03*
X1460500D02*
D03*
X1473200D02*
D03*
X1447800D02*
D03*
X1435100D02*
D03*
X1587500D02*
D03*
X1600200D02*
D03*
X1625600D02*
D03*
X1612900D02*
D03*
X1562100D02*
D03*
X1574800D02*
D03*
X1549400D02*
D03*
X1536700D02*
D03*
X1943100D02*
D03*
X1955800D02*
D03*
X1981200D02*
D03*
X1968500D02*
D03*
X2019300D02*
D03*
X2032000D02*
D03*
X2006600D02*
D03*
X1993900D02*
D03*
X1841500D02*
D03*
X1854200D02*
D03*
X1879600D02*
D03*
X1866900D02*
D03*
X1917700D02*
D03*
X1930400D02*
D03*
X1905000D02*
D03*
X1892300D02*
D03*
X1739900D02*
D03*
X1752600D02*
D03*
X1778000D02*
D03*
X1765300D02*
D03*
X1816100D02*
D03*
X1828800D02*
D03*
X1803400D02*
D03*
X1790700D02*
D03*
X1689100D02*
D03*
X1701800D02*
D03*
X1727200D02*
D03*
X1714500D02*
D03*
X1663700D02*
D03*
X1676400D02*
D03*
X1651000D02*
D03*
X1638300D02*
D03*
Y762000D02*
D03*
X1651000D02*
D03*
X1676400D02*
D03*
X1663700D02*
D03*
X1714500D02*
D03*
X1727200D02*
D03*
X1701800D02*
D03*
X1689100D02*
D03*
X1790700D02*
D03*
X1803400D02*
D03*
X1828800D02*
D03*
X1816100D02*
D03*
X1765300D02*
D03*
X1778000D02*
D03*
X1752600D02*
D03*
X1739900D02*
D03*
X1892300D02*
D03*
X1905000D02*
D03*
X1930400D02*
D03*
X1917700D02*
D03*
X1866900D02*
D03*
X1879600D02*
D03*
X1854200D02*
D03*
X1841500D02*
D03*
X1993900D02*
D03*
X2006600D02*
D03*
X2032000D02*
D03*
X2019300D02*
D03*
X1968500D02*
D03*
X1981200D02*
D03*
X1955800D02*
D03*
X1943100D02*
D03*
X1536700D02*
D03*
X1549400D02*
D03*
X1574800D02*
D03*
X1562100D02*
D03*
X1612900D02*
D03*
X1625600D02*
D03*
X1600200D02*
D03*
X1587500D02*
D03*
X1435100D02*
D03*
X1447800D02*
D03*
X1473200D02*
D03*
X1460500D02*
D03*
X1511300D02*
D03*
X1524000D02*
D03*
X1498600D02*
D03*
X1485900D02*
D03*
X1333500D02*
D03*
X1346200D02*
D03*
X1371600D02*
D03*
X1358900D02*
D03*
X1409700D02*
D03*
X1422400D02*
D03*
X1397000D02*
D03*
X1384300D02*
D03*
X1282700D02*
D03*
X1295400D02*
D03*
X1320800D02*
D03*
X1308100D02*
D03*
X1257300D02*
D03*
X1270000D02*
D03*
X1244600D02*
D03*
X1231900D02*
D03*
D63*
X2087300Y295000D02*
D03*
X2112700D02*
D03*
D64*
X2587500Y820000D02*
D03*
X3325000Y835000D02*
D03*
X3337500Y472500D02*
D03*
X2050000Y620000D02*
D03*
X1207500Y592500D02*
D03*
X2032500Y872500D02*
D03*
X1635000D02*
D03*
X1250000D02*
D03*
X1212500Y275000D02*
D03*
X2050000Y272500D02*
D03*
X2435000Y500000D02*
D03*
Y450000D02*
D03*
Y405000D02*
D03*
X2075000Y435000D02*
D03*
Y465000D02*
D03*
X2100000Y510000D02*
D03*
X1140000Y405000D02*
D03*
X2240000Y2355000D02*
D03*
X2225000Y1035000D02*
D03*
X2235000Y1945000D02*
D03*
X2225000Y1485000D02*
D03*
D65*
X2470100Y312500D02*
D03*
Y337900D02*
D03*
X2495500Y312500D02*
D03*
Y337900D02*
D03*
X2520900Y312500D02*
D03*
Y337900D02*
D03*
X2546300Y312500D02*
D03*
Y337900D02*
D03*
X2571700Y312500D02*
D03*
Y337900D02*
D03*
X2597100Y312500D02*
D03*
Y337900D02*
D03*
X2622500Y312500D02*
D03*
Y337900D02*
D03*
X2647900Y312500D02*
D03*
Y337900D02*
D03*
X2673300Y312500D02*
D03*
Y337900D02*
D03*
X2698700Y312500D02*
D03*
Y337900D02*
D03*
X2724100Y312500D02*
D03*
Y337900D02*
D03*
X2749500Y312500D02*
D03*
Y337900D02*
D03*
X2774900Y312500D02*
D03*
Y337900D02*
D03*
X2800300Y312500D02*
D03*
Y337900D02*
D03*
X2825700Y312500D02*
D03*
Y337900D02*
D03*
X2851100Y312500D02*
D03*
Y337900D02*
D03*
X2876500Y312500D02*
D03*
Y337900D02*
D03*
X2901900Y312500D02*
D03*
Y337900D02*
D03*
X2927300Y312500D02*
D03*
Y337900D02*
D03*
X2952700Y312500D02*
D03*
Y337900D02*
D03*
X2978100Y312500D02*
D03*
Y337900D02*
D03*
X3003500Y312500D02*
D03*
Y337900D02*
D03*
X3028900Y312500D02*
D03*
Y337900D02*
D03*
X3054300Y312500D02*
D03*
Y337900D02*
D03*
X3079700Y312500D02*
D03*
Y337900D02*
D03*
X3105100Y312500D02*
D03*
Y337900D02*
D03*
X3130500Y312500D02*
D03*
Y337900D02*
D03*
X3155900Y312500D02*
D03*
Y337900D02*
D03*
X3181300Y312500D02*
D03*
Y337900D02*
D03*
X3206700Y312500D02*
D03*
Y337900D02*
D03*
X3232100Y312500D02*
D03*
Y337900D02*
D03*
X3257500Y312500D02*
D03*
Y337900D02*
D03*
X3282900Y312500D02*
D03*
Y337900D02*
D03*
X3308300Y312500D02*
D03*
Y337900D02*
D03*
X3333700Y312500D02*
D03*
Y337900D02*
D03*
X2673500Y388700D02*
D03*
Y414100D02*
D03*
Y845900D02*
D03*
Y871300D02*
D03*
X3120540Y388700D02*
D03*
Y414100D02*
D03*
X3145940Y388700D02*
D03*
Y414100D02*
D03*
X3171340Y388700D02*
D03*
Y414100D02*
D03*
X3196740Y388700D02*
D03*
Y414100D02*
D03*
X3222140Y388700D02*
D03*
Y414100D02*
D03*
X3247540Y388700D02*
D03*
Y414100D02*
D03*
X3272940Y388700D02*
D03*
Y414100D02*
D03*
X3298340Y388700D02*
D03*
Y414100D02*
D03*
X3323740Y388700D02*
D03*
Y414100D02*
D03*
X2470300Y922100D02*
D03*
Y947500D02*
D03*
X2698900Y388700D02*
D03*
Y414100D02*
D03*
X2724300Y388700D02*
D03*
Y414100D02*
D03*
X2749700Y388700D02*
D03*
Y414100D02*
D03*
X2775100Y388700D02*
D03*
Y414100D02*
D03*
X2800500Y388700D02*
D03*
Y414100D02*
D03*
X2825900Y388700D02*
D03*
Y414100D02*
D03*
X2851300Y388700D02*
D03*
Y414100D02*
D03*
X2876700Y388700D02*
D03*
Y414100D02*
D03*
X2902100Y388700D02*
D03*
Y414100D02*
D03*
X2927500Y388700D02*
D03*
Y414100D02*
D03*
X2952900Y388700D02*
D03*
Y414100D02*
D03*
X2978300Y388700D02*
D03*
Y414100D02*
D03*
X3003700Y388700D02*
D03*
Y414100D02*
D03*
X3029100Y388700D02*
D03*
Y414100D02*
D03*
X3054500Y388700D02*
D03*
Y414100D02*
D03*
X3079900Y388700D02*
D03*
X3349140D02*
D03*
X2698900Y845900D02*
D03*
Y871300D02*
D03*
X2724300Y845900D02*
D03*
Y871300D02*
D03*
X2749700Y845900D02*
D03*
Y871300D02*
D03*
X2775100Y845900D02*
D03*
Y871300D02*
D03*
X2800500Y845900D02*
D03*
Y871300D02*
D03*
X2825900Y845900D02*
D03*
Y871300D02*
D03*
X2851300Y845900D02*
D03*
Y871300D02*
D03*
X2876700Y845900D02*
D03*
Y871300D02*
D03*
X2902100Y845900D02*
D03*
Y871300D02*
D03*
X2927500Y845900D02*
D03*
Y871300D02*
D03*
X2952900Y845900D02*
D03*
Y871300D02*
D03*
X2978300Y845900D02*
D03*
Y871300D02*
D03*
X3003700Y845900D02*
D03*
Y871300D02*
D03*
X3029100Y845900D02*
D03*
X3079900D02*
D03*
Y871300D02*
D03*
X3105300Y845900D02*
D03*
Y871300D02*
D03*
X3130700Y845900D02*
D03*
Y871300D02*
D03*
X3156100Y845900D02*
D03*
Y871300D02*
D03*
X3181500Y845900D02*
D03*
Y871300D02*
D03*
X3206900Y845900D02*
D03*
Y871300D02*
D03*
X3232300Y845900D02*
D03*
Y871300D02*
D03*
X3257700Y845900D02*
D03*
X3359100Y312500D02*
D03*
X2495700Y922100D02*
D03*
Y947500D02*
D03*
X2521100Y922100D02*
D03*
Y947500D02*
D03*
X2546500Y922100D02*
D03*
Y947500D02*
D03*
X2571900Y922100D02*
D03*
Y947500D02*
D03*
X2597300Y922100D02*
D03*
Y947500D02*
D03*
X2622700Y922100D02*
D03*
Y947500D02*
D03*
X2648100Y922100D02*
D03*
Y947500D02*
D03*
X2673500Y922100D02*
D03*
Y947500D02*
D03*
X2698900Y922100D02*
D03*
Y947500D02*
D03*
X2724300Y922100D02*
D03*
Y947500D02*
D03*
X2749700Y922100D02*
D03*
Y947500D02*
D03*
X2775100Y922100D02*
D03*
Y947500D02*
D03*
X2800500Y922100D02*
D03*
Y947500D02*
D03*
X2825900Y922100D02*
D03*
Y947500D02*
D03*
X2851300Y922100D02*
D03*
Y947500D02*
D03*
X2876700Y922100D02*
D03*
Y947500D02*
D03*
X2902100Y922100D02*
D03*
Y947500D02*
D03*
X2927500Y922100D02*
D03*
Y947500D02*
D03*
X2952900Y922100D02*
D03*
Y947500D02*
D03*
X2978300Y922100D02*
D03*
Y947500D02*
D03*
X3003700Y922100D02*
D03*
Y947500D02*
D03*
X3029100Y922100D02*
D03*
Y947500D02*
D03*
X3054500Y922100D02*
D03*
Y947500D02*
D03*
X3079900Y922100D02*
D03*
Y947500D02*
D03*
X3105300Y922100D02*
D03*
Y947500D02*
D03*
X3130700Y922100D02*
D03*
Y947500D02*
D03*
X3156100Y922100D02*
D03*
Y947500D02*
D03*
X3181500Y922100D02*
D03*
Y947500D02*
D03*
X3206900Y922100D02*
D03*
Y947500D02*
D03*
X3232300Y922100D02*
D03*
Y947500D02*
D03*
X3257700Y922100D02*
D03*
Y947500D02*
D03*
X3283100Y922100D02*
D03*
Y947500D02*
D03*
X3308500Y922100D02*
D03*
Y947500D02*
D03*
X3333900Y922100D02*
D03*
Y947500D02*
D03*
X3359300Y922100D02*
D03*
D66*
X3397400Y871300D02*
D03*
X2876700Y541100D02*
D03*
X3384700Y388700D02*
D03*
X2635400Y401400D02*
D03*
Y858600D02*
D03*
D67*
X3079900Y414100D02*
D03*
X3349140D02*
D03*
X3029100Y871300D02*
D03*
X3257700D02*
D03*
X3359100Y337900D02*
D03*
X3359300Y947500D02*
D03*
D68*
X1272500Y1840000D02*
D03*
Y1380000D02*
D03*
Y2295000D02*
D03*
D69*
X1197500Y1840000D02*
D03*
Y1380000D02*
D03*
X1030000Y1237500D02*
D03*
Y1437500D02*
D03*
X1030000Y1637500D02*
D03*
Y1837500D02*
D03*
Y2037500D02*
D03*
X1030000Y2240000D02*
D03*
X1197500Y2295000D02*
D03*
X3418400Y2150000D02*
D03*
X3520000D02*
D03*
X2230000Y285000D02*
D03*
X2280000D02*
D03*
X2255000D02*
D03*
X3418400Y1430000D02*
D03*
X3520000D02*
D03*
X3418400Y1790000D02*
D03*
X3520000D02*
D03*
X3118400Y1430000D02*
D03*
X3220000D02*
D03*
X3118400Y1790000D02*
D03*
X3220000D02*
D03*
X3118400Y2150000D02*
D03*
X3220000D02*
D03*
D70*
X1030000Y1162500D02*
D03*
Y1362500D02*
D03*
X1030000Y1562500D02*
D03*
Y1762500D02*
D03*
Y1962500D02*
D03*
X1030000Y2165000D02*
D03*
D71*
X3715800Y2190000D02*
D03*
X3665000D02*
D03*
X3715800Y1990000D02*
D03*
X3665000D02*
D03*
X3715800Y1790000D02*
D03*
X3665000D02*
D03*
X3715800Y1590000D02*
D03*
X3665000D02*
D03*
X3715800Y1390000D02*
D03*
X3665000D02*
D03*
X3715800Y1190000D02*
D03*
X3665000D02*
D03*
X995000Y660000D02*
D03*
X1045800D02*
D03*
X995000Y870000D02*
D03*
X1045800D02*
D03*
X2430000Y1135000D02*
D03*
Y1338000D02*
D03*
X2955000D02*
D03*
Y1135000D02*
D03*
X2430000Y1600000D02*
D03*
Y1803000D02*
D03*
X2955000D02*
D03*
Y1600000D02*
D03*
Y2065000D02*
D03*
Y2268000D02*
D03*
X2430000D02*
D03*
Y2065000D02*
D03*
D72*
X1770000Y2385000D02*
D03*
X1370000D02*
D03*
X970000Y1040000D02*
D03*
Y2390000D02*
D03*
X3740000D02*
D03*
Y1040000D02*
D03*
Y290000D02*
D03*
X970000D02*
D03*
X1370000Y1292000D02*
D03*
X1770000D02*
D03*
X1370000Y2210000D02*
D03*
Y1925000D02*
D03*
X1770000D02*
D03*
X1370000Y1040000D02*
D03*
X1770000D02*
D03*
X1770000Y2210000D02*
D03*
Y1750000D02*
D03*
Y1465000D02*
D03*
X1370000D02*
D03*
Y1750000D02*
D03*
D73*
X3380300Y1921400D02*
D03*
Y1997600D02*
D03*
X3558100Y2023000D02*
D03*
X3380300Y1201400D02*
D03*
Y1277600D02*
D03*
X3558100Y1303000D02*
D03*
X3380300Y1561400D02*
D03*
Y1637600D02*
D03*
X3558100Y1663000D02*
D03*
X3080300Y1201400D02*
D03*
Y1277600D02*
D03*
X3258100Y1303000D02*
D03*
X3080300Y1561400D02*
D03*
Y1637600D02*
D03*
X3258100Y1663000D02*
D03*
X3080300Y1921400D02*
D03*
Y1997600D02*
D03*
X3258100Y2023000D02*
D03*
D74*
X2205000Y318000D02*
D03*
X2305000D02*
D03*
D75*
X967930Y923975D02*
D03*
X1020000D02*
D03*
X1072070D02*
D03*
Y816025D02*
D03*
X1020000D02*
D03*
X967930D02*
D03*
X3742070Y2136025D02*
D03*
X3690000D02*
D03*
X3637930D02*
D03*
Y2243975D02*
D03*
X3690000D02*
D03*
X3742070D02*
D03*
X3637930Y1843975D02*
D03*
X3690000D02*
D03*
X3742070D02*
D03*
Y1736025D02*
D03*
X3690000D02*
D03*
X3637930D02*
D03*
X3742070Y1336025D02*
D03*
X3690000D02*
D03*
X3637930D02*
D03*
Y1443975D02*
D03*
X3690000D02*
D03*
X3742070D02*
D03*
X967930Y713975D02*
D03*
X1020000D02*
D03*
X1072070D02*
D03*
Y606025D02*
D03*
X1020000D02*
D03*
X967930D02*
D03*
X3637930Y2043975D02*
D03*
X3690000D02*
D03*
X3742070D02*
D03*
Y1936025D02*
D03*
X3690000D02*
D03*
X3637930D02*
D03*
Y1643975D02*
D03*
X3690000D02*
D03*
X3742070D02*
D03*
Y1536025D02*
D03*
X3690000D02*
D03*
X3637930D02*
D03*
X3742070Y1136025D02*
D03*
X3690000D02*
D03*
X3637930D02*
D03*
Y1243975D02*
D03*
X3690000D02*
D03*
X3742070D02*
D03*
D76*
X1960000Y2290000D02*
D03*
X2100000Y2050000D02*
D03*
X1960000Y1830000D02*
D03*
X2100000Y1590000D02*
D03*
X1960000Y1370000D02*
D03*
X2100000Y1130000D02*
D03*
D77*
X2030000Y2050000D02*
D03*
Y2290000D02*
D03*
Y1590000D02*
D03*
Y1830000D02*
D03*
Y1130000D02*
D03*
Y1370000D02*
D03*
D78*
X2901000Y1437500D02*
D03*
Y1062500D02*
D03*
X2799000Y1437500D02*
D03*
Y1062500D02*
D03*
X2591000Y1437500D02*
D03*
Y1062500D02*
D03*
X2489000Y1437500D02*
D03*
Y1062500D02*
D03*
X2901000Y1887500D02*
D03*
Y1512500D02*
D03*
X2799000Y1887500D02*
D03*
Y1512500D02*
D03*
X2591000Y1887500D02*
D03*
Y1512500D02*
D03*
X2489000Y1887500D02*
D03*
Y1512500D02*
D03*
X2901000Y2337500D02*
D03*
Y1962500D02*
D03*
X2799000Y2337500D02*
D03*
Y1962500D02*
D03*
X2591000Y2337500D02*
D03*
Y1962500D02*
D03*
X2489000Y2337500D02*
D03*
Y1962500D02*
D03*
D79*
X1375000Y1114000D02*
D03*
X1291840Y1603000D02*
D03*
X1362840Y1541000D02*
D03*
X1378840Y1585000D02*
D03*
X1291840Y1159000D02*
D03*
X1373000Y1135000D02*
D03*
X1379000Y2045000D02*
D03*
X1363000Y2001000D02*
D03*
X2304000Y948000D02*
D03*
Y985000D02*
D03*
Y967000D02*
D03*
X2324000Y985000D02*
D03*
X2304000Y929000D02*
D03*
Y910000D02*
D03*
Y893000D02*
D03*
Y875000D02*
D03*
Y858000D02*
D03*
Y841000D02*
D03*
Y823000D02*
D03*
Y805000D02*
D03*
X2050000Y385000D02*
D03*
Y405000D02*
D03*
Y425000D02*
D03*
Y445000D02*
D03*
Y530000D02*
D03*
Y550000D02*
D03*
Y570000D02*
D03*
Y590000D02*
D03*
Y700000D02*
D03*
Y720000D02*
D03*
Y740000D02*
D03*
Y760000D02*
D03*
Y780000D02*
D03*
Y800000D02*
D03*
Y820000D02*
D03*
Y840000D02*
D03*
X1915000Y870000D02*
D03*
X1935000D02*
D03*
X1955000D02*
D03*
X1975000D02*
D03*
X1700000D02*
D03*
X1720000D02*
D03*
X1740000D02*
D03*
X1760000D02*
D03*
X1500000D02*
D03*
X1520000D02*
D03*
X1540000D02*
D03*
X1560000D02*
D03*
X1320000D02*
D03*
X1340000D02*
D03*
X1360000D02*
D03*
X1380000D02*
D03*
X1205000Y510000D02*
D03*
Y490000D02*
D03*
Y470000D02*
D03*
Y450000D02*
D03*
Y710000D02*
D03*
Y730000D02*
D03*
Y750000D02*
D03*
Y770000D02*
D03*
X2355000Y455000D02*
D03*
X2140000Y435000D02*
D03*
X3590000Y595000D02*
D03*
X3431000Y594000D02*
D03*
X3400000Y595000D02*
D03*
X3480000D02*
D03*
X3560000D02*
D03*
X3505000D02*
D03*
X2310000Y750000D02*
D03*
X2465000Y885000D02*
D03*
X2280000Y1005000D02*
D03*
X2405000Y885000D02*
D03*
Y955000D02*
D03*
Y805000D02*
D03*
X2324000D02*
D03*
Y823000D02*
D03*
Y841000D02*
D03*
Y858000D02*
D03*
Y875000D02*
D03*
Y893000D02*
D03*
Y910000D02*
D03*
Y929000D02*
D03*
Y948000D02*
D03*
Y967000D02*
D03*
X2240000Y490000D02*
D03*
X2130000Y495000D02*
D03*
X2155000Y405000D02*
D03*
X2245000Y460000D02*
D03*
Y430000D02*
D03*
X1281675Y2133825D02*
D03*
X1281500Y1230000D02*
D03*
X1292000Y2063000D02*
D03*
X1281500Y1674000D02*
D03*
D80*
X2361800Y1046500D02*
D03*
X2323700D02*
D03*
X2336400D02*
D03*
X2185000Y650000D02*
D03*
X3580000Y775000D02*
D03*
X3510000D02*
D03*
X2145000Y635000D02*
D03*
X2125000D02*
D03*
X2243000Y597000D02*
D03*
X2202000Y646000D02*
D03*
X2284500Y662500D02*
D03*
X2274000Y649000D02*
D03*
X1424000Y914000D02*
D03*
X2216000Y571000D02*
D03*
X2244000Y637000D02*
D03*
X2349100Y1046500D02*
D03*
X2285600D02*
D03*
X2298300D02*
D03*
X2374500D02*
D03*
X2285550Y1486550D02*
D03*
X2298250D02*
D03*
X3530000Y810000D02*
D03*
X3600000D02*
D03*
X2355000Y2325000D02*
D03*
X2390000Y1425000D02*
D03*
Y1875000D02*
D03*
X2374500Y1486500D02*
D03*
X2361800D02*
D03*
X2349100D02*
D03*
X2336400D02*
D03*
X2323700D02*
D03*
X2374500Y1946500D02*
D03*
X2361800D02*
D03*
X2349100D02*
D03*
X2336400D02*
D03*
X2323700D02*
D03*
X2298300D02*
D03*
X2285600D02*
D03*
X3490000Y1095000D02*
D03*
X3405000D02*
D03*
D81*
X1265000Y1215000D02*
D03*
X1216500Y2065500D02*
D03*
Y1210500D02*
D03*
Y1161500D02*
D03*
X1216500Y1605500D02*
D03*
Y1654500D02*
D03*
X1216500Y2114500D02*
D03*
X1690000Y1119000D02*
D03*
X1680000D02*
D03*
X1670000D02*
D03*
X1660000D02*
D03*
X1650000D02*
D03*
X1640000D02*
D03*
X1620000D02*
D03*
X1630000D02*
D03*
X1610000D02*
D03*
X1600000D02*
D03*
X1590000D02*
D03*
X1690000Y1129000D02*
D03*
X1680000D02*
D03*
X1670000D02*
D03*
X1660000D02*
D03*
X1650000D02*
D03*
X1640000D02*
D03*
X1620000D02*
D03*
X1630000D02*
D03*
X1610000D02*
D03*
X1600000D02*
D03*
X1590000D02*
D03*
X1690000Y1139000D02*
D03*
X1680000D02*
D03*
X1670000D02*
D03*
X1660000D02*
D03*
X1650000D02*
D03*
X1640000D02*
D03*
X1620000D02*
D03*
X1630000D02*
D03*
X1610000D02*
D03*
X1600000D02*
D03*
X1590000D02*
D03*
X1690000Y1149000D02*
D03*
X1680000D02*
D03*
X1670000D02*
D03*
X1660000D02*
D03*
X1650000D02*
D03*
X1640000D02*
D03*
X1620000D02*
D03*
X1630000D02*
D03*
X1610000D02*
D03*
X1600000D02*
D03*
X1590000D02*
D03*
X1690000Y1159000D02*
D03*
X1680000D02*
D03*
X1670000D02*
D03*
X1660000D02*
D03*
X1650000D02*
D03*
X1640000D02*
D03*
X1620000D02*
D03*
X1630000D02*
D03*
X1610000D02*
D03*
X1600000D02*
D03*
X1590000D02*
D03*
X1690000Y1169000D02*
D03*
X1680000D02*
D03*
X1670000D02*
D03*
X1660000D02*
D03*
X1650000D02*
D03*
X1640000D02*
D03*
X1620000D02*
D03*
X1630000D02*
D03*
X1610000D02*
D03*
X1600000D02*
D03*
X1590000D02*
D03*
X1690000Y1179000D02*
D03*
X1680000D02*
D03*
X1670000D02*
D03*
X1660000D02*
D03*
X1650000D02*
D03*
X1640000D02*
D03*
X1620000D02*
D03*
X1630000D02*
D03*
X1610000D02*
D03*
X1600000D02*
D03*
X1590000D02*
D03*
X1690000Y1189000D02*
D03*
X1680000D02*
D03*
X1670000D02*
D03*
X1660000D02*
D03*
X1650000D02*
D03*
X1640000D02*
D03*
X1620000D02*
D03*
X1630000D02*
D03*
X1610000D02*
D03*
X1600000D02*
D03*
X1590000D02*
D03*
X1690000Y1199000D02*
D03*
X1680000D02*
D03*
X1670000D02*
D03*
X1660000D02*
D03*
X1650000D02*
D03*
X1640000D02*
D03*
X1620000D02*
D03*
X1630000D02*
D03*
X1610000D02*
D03*
X1600000D02*
D03*
X1590000D02*
D03*
X1660000Y1109000D02*
D03*
X1640000D02*
D03*
X1650000D02*
D03*
X1670000D02*
D03*
X1610000D02*
D03*
X1600000D02*
D03*
X1620000D02*
D03*
X1690000D02*
D03*
X1630000D02*
D03*
X1680000D02*
D03*
X1590000D02*
D03*
X1450000D02*
D03*
X1540000D02*
D03*
X1490000D02*
D03*
X1550000D02*
D03*
X1480000D02*
D03*
X1460000D02*
D03*
X1470000D02*
D03*
X1530000D02*
D03*
X1510000D02*
D03*
X1500000D02*
D03*
X1520000D02*
D03*
X1450000Y1199000D02*
D03*
X1460000D02*
D03*
X1470000D02*
D03*
X1490000D02*
D03*
X1480000D02*
D03*
X1500000D02*
D03*
X1510000D02*
D03*
X1520000D02*
D03*
X1530000D02*
D03*
X1540000D02*
D03*
X1550000D02*
D03*
X1450000Y1189000D02*
D03*
X1460000D02*
D03*
X1470000D02*
D03*
X1490000D02*
D03*
X1480000D02*
D03*
X1500000D02*
D03*
X1510000D02*
D03*
X1520000D02*
D03*
X1530000D02*
D03*
X1540000D02*
D03*
X1550000D02*
D03*
X1450000Y1179000D02*
D03*
X1460000D02*
D03*
X1470000D02*
D03*
X1490000D02*
D03*
X1480000D02*
D03*
X1500000D02*
D03*
X1510000D02*
D03*
X1520000D02*
D03*
X1530000D02*
D03*
X1540000D02*
D03*
X1550000D02*
D03*
X1450000Y1169000D02*
D03*
X1460000D02*
D03*
X1470000D02*
D03*
X1490000D02*
D03*
X1480000D02*
D03*
X1500000D02*
D03*
X1510000D02*
D03*
X1520000D02*
D03*
X1530000D02*
D03*
X1540000D02*
D03*
X1550000D02*
D03*
X1450000Y1159000D02*
D03*
X1460000D02*
D03*
X1470000D02*
D03*
X1490000D02*
D03*
X1480000D02*
D03*
X1500000D02*
D03*
X1510000D02*
D03*
X1520000D02*
D03*
X1530000D02*
D03*
X1540000D02*
D03*
X1550000D02*
D03*
X1450000Y1149000D02*
D03*
X1460000D02*
D03*
X1470000D02*
D03*
X1490000D02*
D03*
X1480000D02*
D03*
X1500000D02*
D03*
X1510000D02*
D03*
X1520000D02*
D03*
X1530000D02*
D03*
X1540000D02*
D03*
X1550000D02*
D03*
X1450000Y1139000D02*
D03*
X1460000D02*
D03*
X1470000D02*
D03*
X1490000D02*
D03*
X1480000D02*
D03*
X1500000D02*
D03*
X1510000D02*
D03*
X1520000D02*
D03*
X1530000D02*
D03*
X1540000D02*
D03*
X1550000D02*
D03*
X1450000Y1129000D02*
D03*
X1460000D02*
D03*
X1470000D02*
D03*
X1490000D02*
D03*
X1480000D02*
D03*
X1500000D02*
D03*
X1510000D02*
D03*
X1520000D02*
D03*
X1530000D02*
D03*
X1540000D02*
D03*
X1550000D02*
D03*
X1450000Y1119000D02*
D03*
X1460000D02*
D03*
X1470000D02*
D03*
X1490000D02*
D03*
X1480000D02*
D03*
X1500000D02*
D03*
X1510000D02*
D03*
X1520000D02*
D03*
X1530000D02*
D03*
X1540000D02*
D03*
X1550000D02*
D03*
X1690000Y1575000D02*
D03*
X1680000D02*
D03*
X1670000D02*
D03*
X1660000D02*
D03*
X1650000D02*
D03*
X1640000D02*
D03*
X1620000D02*
D03*
X1630000D02*
D03*
X1610000D02*
D03*
X1600000D02*
D03*
X1590000D02*
D03*
X1690000Y1585000D02*
D03*
X1680000D02*
D03*
X1670000D02*
D03*
X1660000D02*
D03*
X1650000D02*
D03*
X1640000D02*
D03*
X1620000D02*
D03*
X1630000D02*
D03*
X1610000D02*
D03*
X1600000D02*
D03*
X1590000D02*
D03*
X1690000Y1595000D02*
D03*
X1680000D02*
D03*
X1670000D02*
D03*
X1660000D02*
D03*
X1650000D02*
D03*
X1640000D02*
D03*
X1620000D02*
D03*
X1630000D02*
D03*
X1610000D02*
D03*
X1600000D02*
D03*
X1590000D02*
D03*
X1690000Y1605000D02*
D03*
X1680000D02*
D03*
X1670000D02*
D03*
X1660000D02*
D03*
X1650000D02*
D03*
X1640000D02*
D03*
X1620000D02*
D03*
X1630000D02*
D03*
X1610000D02*
D03*
X1600000D02*
D03*
X1590000D02*
D03*
X1690000Y1615000D02*
D03*
X1680000D02*
D03*
X1670000D02*
D03*
X1660000D02*
D03*
X1650000D02*
D03*
X1640000D02*
D03*
X1620000D02*
D03*
X1630000D02*
D03*
X1610000D02*
D03*
X1600000D02*
D03*
X1590000D02*
D03*
X1690000Y1625000D02*
D03*
X1680000D02*
D03*
X1670000D02*
D03*
X1660000D02*
D03*
X1650000D02*
D03*
X1640000D02*
D03*
X1620000D02*
D03*
X1630000D02*
D03*
X1610000D02*
D03*
X1600000D02*
D03*
X1590000D02*
D03*
X1690000Y1635000D02*
D03*
X1680000D02*
D03*
X1670000D02*
D03*
X1660000D02*
D03*
X1650000D02*
D03*
X1640000D02*
D03*
X1620000D02*
D03*
X1630000D02*
D03*
X1610000D02*
D03*
X1600000D02*
D03*
X1590000D02*
D03*
X1690000Y1645000D02*
D03*
X1680000D02*
D03*
X1670000D02*
D03*
X1660000D02*
D03*
X1650000D02*
D03*
X1640000D02*
D03*
X1620000D02*
D03*
X1630000D02*
D03*
X1610000D02*
D03*
X1600000D02*
D03*
X1590000D02*
D03*
X1690000Y1655000D02*
D03*
X1680000D02*
D03*
X1670000D02*
D03*
X1660000D02*
D03*
X1650000D02*
D03*
X1640000D02*
D03*
X1620000D02*
D03*
X1630000D02*
D03*
X1610000D02*
D03*
X1600000D02*
D03*
X1590000D02*
D03*
X1660000Y1565000D02*
D03*
X1640000D02*
D03*
X1650000D02*
D03*
X1670000D02*
D03*
X1610000D02*
D03*
X1600000D02*
D03*
X1620000D02*
D03*
X1690000D02*
D03*
X1630000D02*
D03*
X1680000D02*
D03*
X1590000D02*
D03*
X1450000D02*
D03*
X1540000D02*
D03*
X1490000D02*
D03*
X1550000D02*
D03*
X1480000D02*
D03*
X1460000D02*
D03*
X1470000D02*
D03*
X1530000D02*
D03*
X1510000D02*
D03*
X1500000D02*
D03*
X1520000D02*
D03*
X1450000Y1655000D02*
D03*
X1460000D02*
D03*
X1470000D02*
D03*
X1490000D02*
D03*
X1480000D02*
D03*
X1500000D02*
D03*
X1510000D02*
D03*
X1520000D02*
D03*
X1530000D02*
D03*
X1540000D02*
D03*
X1550000D02*
D03*
X1450000Y1645000D02*
D03*
X1460000D02*
D03*
X1470000D02*
D03*
X1490000D02*
D03*
X1480000D02*
D03*
X1500000D02*
D03*
X1510000D02*
D03*
X1520000D02*
D03*
X1530000D02*
D03*
X1540000D02*
D03*
X1550000D02*
D03*
X1450000Y1635000D02*
D03*
X1460000D02*
D03*
X1470000D02*
D03*
X1490000D02*
D03*
X1480000D02*
D03*
X1500000D02*
D03*
X1510000D02*
D03*
X1520000D02*
D03*
X1530000D02*
D03*
X1540000D02*
D03*
X1550000D02*
D03*
X1450000Y1625000D02*
D03*
X1460000D02*
D03*
X1470000D02*
D03*
X1490000D02*
D03*
X1480000D02*
D03*
X1500000D02*
D03*
X1510000D02*
D03*
X1520000D02*
D03*
X1530000D02*
D03*
X1540000D02*
D03*
X1550000D02*
D03*
X1450000Y1615000D02*
D03*
X1460000D02*
D03*
X1470000D02*
D03*
X1490000D02*
D03*
X1480000D02*
D03*
X1500000D02*
D03*
X1510000D02*
D03*
X1520000D02*
D03*
X1530000D02*
D03*
X1540000D02*
D03*
X1550000D02*
D03*
X1450000Y1605000D02*
D03*
X1460000D02*
D03*
X1470000D02*
D03*
X1490000D02*
D03*
X1480000D02*
D03*
X1500000D02*
D03*
X1510000D02*
D03*
X1520000D02*
D03*
X1530000D02*
D03*
X1540000D02*
D03*
X1550000D02*
D03*
X1450000Y1595000D02*
D03*
X1460000D02*
D03*
X1470000D02*
D03*
X1490000D02*
D03*
X1480000D02*
D03*
X1500000D02*
D03*
X1510000D02*
D03*
X1520000D02*
D03*
X1530000D02*
D03*
X1540000D02*
D03*
X1550000D02*
D03*
X1450000Y1585000D02*
D03*
X1460000D02*
D03*
X1470000D02*
D03*
X1490000D02*
D03*
X1480000D02*
D03*
X1500000D02*
D03*
X1510000D02*
D03*
X1520000D02*
D03*
X1530000D02*
D03*
X1540000D02*
D03*
X1550000D02*
D03*
X1450000Y1575000D02*
D03*
X1460000D02*
D03*
X1470000D02*
D03*
X1490000D02*
D03*
X1480000D02*
D03*
X1500000D02*
D03*
X1510000D02*
D03*
X1520000D02*
D03*
X1530000D02*
D03*
X1540000D02*
D03*
X1550000D02*
D03*
X1690000Y2035000D02*
D03*
X1680000D02*
D03*
X1670000D02*
D03*
X1660000D02*
D03*
X1650000D02*
D03*
X1640000D02*
D03*
X1620000D02*
D03*
X1630000D02*
D03*
X1610000D02*
D03*
X1600000D02*
D03*
X1590000D02*
D03*
X1690000Y2045000D02*
D03*
X1680000D02*
D03*
X1670000D02*
D03*
X1660000D02*
D03*
X1650000D02*
D03*
X1640000D02*
D03*
X1620000D02*
D03*
X1630000D02*
D03*
X1610000D02*
D03*
X1600000D02*
D03*
X1590000D02*
D03*
X1690000Y2055000D02*
D03*
X1680000D02*
D03*
X1670000D02*
D03*
X1660000D02*
D03*
X1650000D02*
D03*
X1640000D02*
D03*
X1620000D02*
D03*
X1630000D02*
D03*
X1610000D02*
D03*
X1600000D02*
D03*
X1590000D02*
D03*
X1690000Y2065000D02*
D03*
X1680000D02*
D03*
X1670000D02*
D03*
X1660000D02*
D03*
X1650000D02*
D03*
X1640000D02*
D03*
X1620000D02*
D03*
X1630000D02*
D03*
X1610000D02*
D03*
X1600000D02*
D03*
X1590000D02*
D03*
X1690000Y2075000D02*
D03*
X1680000D02*
D03*
X1670000D02*
D03*
X1660000D02*
D03*
X1650000D02*
D03*
X1640000D02*
D03*
X1620000D02*
D03*
X1630000D02*
D03*
X1610000D02*
D03*
X1600000D02*
D03*
X1590000D02*
D03*
X1690000Y2085000D02*
D03*
X1680000D02*
D03*
X1670000D02*
D03*
X1660000D02*
D03*
X1650000D02*
D03*
X1640000D02*
D03*
X1620000D02*
D03*
X1630000D02*
D03*
X1610000D02*
D03*
X1600000D02*
D03*
X1590000D02*
D03*
X1690000Y2095000D02*
D03*
X1680000D02*
D03*
X1670000D02*
D03*
X1660000D02*
D03*
X1650000D02*
D03*
X1640000D02*
D03*
X1620000D02*
D03*
X1630000D02*
D03*
X1610000D02*
D03*
X1600000D02*
D03*
X1590000D02*
D03*
X1690000Y2105000D02*
D03*
X1680000D02*
D03*
X1670000D02*
D03*
X1660000D02*
D03*
X1650000D02*
D03*
X1640000D02*
D03*
X1620000D02*
D03*
X1630000D02*
D03*
X1610000D02*
D03*
X1600000D02*
D03*
X1590000D02*
D03*
X1690000Y2115000D02*
D03*
X1680000D02*
D03*
X1670000D02*
D03*
X1660000D02*
D03*
X1650000D02*
D03*
X1640000D02*
D03*
X1620000D02*
D03*
X1630000D02*
D03*
X1610000D02*
D03*
X1600000D02*
D03*
X1590000D02*
D03*
X1660000Y2025000D02*
D03*
X1640000D02*
D03*
X1650000D02*
D03*
X1670000D02*
D03*
X1610000D02*
D03*
X1600000D02*
D03*
X1620000D02*
D03*
X1690000D02*
D03*
X1630000D02*
D03*
X1680000D02*
D03*
X1590000D02*
D03*
X1450000D02*
D03*
X1540000D02*
D03*
X1490000D02*
D03*
X1550000D02*
D03*
X1480000D02*
D03*
X1460000D02*
D03*
X1470000D02*
D03*
X1530000D02*
D03*
X1510000D02*
D03*
X1500000D02*
D03*
X1520000D02*
D03*
X1450000Y2115000D02*
D03*
X1460000D02*
D03*
X1470000D02*
D03*
X1490000D02*
D03*
X1480000D02*
D03*
X1500000D02*
D03*
X1510000D02*
D03*
X1520000D02*
D03*
X1530000D02*
D03*
X1540000D02*
D03*
X1550000D02*
D03*
X1450000Y2105000D02*
D03*
X1460000D02*
D03*
X1470000D02*
D03*
X1490000D02*
D03*
X1480000D02*
D03*
X1500000D02*
D03*
X1510000D02*
D03*
X1520000D02*
D03*
X1530000D02*
D03*
X1540000D02*
D03*
X1550000D02*
D03*
X1450000Y2095000D02*
D03*
X1460000D02*
D03*
X1470000D02*
D03*
X1490000D02*
D03*
X1480000D02*
D03*
X1500000D02*
D03*
X1510000D02*
D03*
X1520000D02*
D03*
X1530000D02*
D03*
X1540000D02*
D03*
X1550000D02*
D03*
X1450000Y2085000D02*
D03*
X1460000D02*
D03*
X1470000D02*
D03*
X1490000D02*
D03*
X1480000D02*
D03*
X1500000D02*
D03*
X1510000D02*
D03*
X1520000D02*
D03*
X1530000D02*
D03*
X1540000D02*
D03*
X1550000D02*
D03*
X1450000Y2075000D02*
D03*
X1460000D02*
D03*
X1470000D02*
D03*
X1490000D02*
D03*
X1480000D02*
D03*
X1500000D02*
D03*
X1510000D02*
D03*
X1520000D02*
D03*
X1530000D02*
D03*
X1540000D02*
D03*
X1550000D02*
D03*
X1450000Y2065000D02*
D03*
X1460000D02*
D03*
X1470000D02*
D03*
X1490000D02*
D03*
X1480000D02*
D03*
X1500000D02*
D03*
X1510000D02*
D03*
X1520000D02*
D03*
X1530000D02*
D03*
X1540000D02*
D03*
X1550000D02*
D03*
X1450000Y2055000D02*
D03*
X1460000D02*
D03*
X1470000D02*
D03*
X1490000D02*
D03*
X1480000D02*
D03*
X1500000D02*
D03*
X1510000D02*
D03*
X1520000D02*
D03*
X1530000D02*
D03*
X1540000D02*
D03*
X1550000D02*
D03*
X1450000Y2045000D02*
D03*
X1460000D02*
D03*
X1470000D02*
D03*
X1490000D02*
D03*
X1480000D02*
D03*
X1500000D02*
D03*
X1510000D02*
D03*
X1520000D02*
D03*
X1530000D02*
D03*
X1540000D02*
D03*
X1550000D02*
D03*
X1450000Y2035000D02*
D03*
X1460000D02*
D03*
X1470000D02*
D03*
X1490000D02*
D03*
X1480000D02*
D03*
X1500000D02*
D03*
X1510000D02*
D03*
X1520000D02*
D03*
X1530000D02*
D03*
X1540000D02*
D03*
X1550000D02*
D03*
X1265000Y2119000D02*
D03*
X1550000Y1339000D02*
D03*
X1540000D02*
D03*
X1530000D02*
D03*
X1520000D02*
D03*
X1510000D02*
D03*
X1500000D02*
D03*
X1480000D02*
D03*
X1490000D02*
D03*
X1470000D02*
D03*
X1460000D02*
D03*
X1450000D02*
D03*
X1550000Y1349000D02*
D03*
X1540000D02*
D03*
X1530000D02*
D03*
X1520000D02*
D03*
X1510000D02*
D03*
X1500000D02*
D03*
X1480000D02*
D03*
X1490000D02*
D03*
X1470000D02*
D03*
X1460000D02*
D03*
X1450000D02*
D03*
X1550000Y1359000D02*
D03*
X1540000D02*
D03*
X1530000D02*
D03*
X1520000D02*
D03*
X1510000D02*
D03*
X1500000D02*
D03*
X1480000D02*
D03*
X1490000D02*
D03*
X1470000D02*
D03*
X1460000D02*
D03*
X1450000D02*
D03*
X1550000Y1369000D02*
D03*
X1540000D02*
D03*
X1530000D02*
D03*
X1520000D02*
D03*
X1510000D02*
D03*
X1500000D02*
D03*
X1480000D02*
D03*
X1490000D02*
D03*
X1470000D02*
D03*
X1460000D02*
D03*
X1450000D02*
D03*
X1550000Y1379000D02*
D03*
X1540000D02*
D03*
X1530000D02*
D03*
X1520000D02*
D03*
X1510000D02*
D03*
X1500000D02*
D03*
X1480000D02*
D03*
X1490000D02*
D03*
X1470000D02*
D03*
X1460000D02*
D03*
X1450000D02*
D03*
X1550000Y1389000D02*
D03*
X1540000D02*
D03*
X1530000D02*
D03*
X1520000D02*
D03*
X1510000D02*
D03*
X1500000D02*
D03*
X1480000D02*
D03*
X1490000D02*
D03*
X1470000D02*
D03*
X1460000D02*
D03*
X1450000D02*
D03*
X1550000Y1399000D02*
D03*
X1540000D02*
D03*
X1530000D02*
D03*
X1520000D02*
D03*
X1510000D02*
D03*
X1500000D02*
D03*
X1480000D02*
D03*
X1490000D02*
D03*
X1470000D02*
D03*
X1460000D02*
D03*
X1450000D02*
D03*
X1550000Y1409000D02*
D03*
X1540000D02*
D03*
X1530000D02*
D03*
X1520000D02*
D03*
X1510000D02*
D03*
X1500000D02*
D03*
X1480000D02*
D03*
X1490000D02*
D03*
X1470000D02*
D03*
X1460000D02*
D03*
X1450000D02*
D03*
X1550000Y1419000D02*
D03*
X1540000D02*
D03*
X1530000D02*
D03*
X1520000D02*
D03*
X1510000D02*
D03*
X1500000D02*
D03*
X1480000D02*
D03*
X1490000D02*
D03*
X1470000D02*
D03*
X1460000D02*
D03*
X1450000D02*
D03*
X1520000Y1329000D02*
D03*
X1500000D02*
D03*
X1510000D02*
D03*
X1530000D02*
D03*
X1470000D02*
D03*
X1460000D02*
D03*
X1480000D02*
D03*
X1550000D02*
D03*
X1490000D02*
D03*
X1540000D02*
D03*
X1450000D02*
D03*
X1590000D02*
D03*
X1680000D02*
D03*
X1630000D02*
D03*
X1690000D02*
D03*
X1620000D02*
D03*
X1600000D02*
D03*
X1610000D02*
D03*
X1670000D02*
D03*
X1650000D02*
D03*
X1640000D02*
D03*
X1660000D02*
D03*
X1590000Y1419000D02*
D03*
X1600000D02*
D03*
X1610000D02*
D03*
X1630000D02*
D03*
X1620000D02*
D03*
X1640000D02*
D03*
X1650000D02*
D03*
X1660000D02*
D03*
X1670000D02*
D03*
X1680000D02*
D03*
X1690000D02*
D03*
X1590000Y1409000D02*
D03*
X1600000D02*
D03*
X1610000D02*
D03*
X1630000D02*
D03*
X1620000D02*
D03*
X1640000D02*
D03*
X1650000D02*
D03*
X1660000D02*
D03*
X1670000D02*
D03*
X1680000D02*
D03*
X1690000D02*
D03*
X1590000Y1399000D02*
D03*
X1600000D02*
D03*
X1610000D02*
D03*
X1630000D02*
D03*
X1620000D02*
D03*
X1640000D02*
D03*
X1650000D02*
D03*
X1660000D02*
D03*
X1670000D02*
D03*
X1680000D02*
D03*
X1690000D02*
D03*
X1590000Y1389000D02*
D03*
X1600000D02*
D03*
X1610000D02*
D03*
X1630000D02*
D03*
X1620000D02*
D03*
X1640000D02*
D03*
X1650000D02*
D03*
X1660000D02*
D03*
X1670000D02*
D03*
X1680000D02*
D03*
X1690000D02*
D03*
X1590000Y1379000D02*
D03*
X1600000D02*
D03*
X1610000D02*
D03*
X1630000D02*
D03*
X1620000D02*
D03*
X1640000D02*
D03*
X1650000D02*
D03*
X1660000D02*
D03*
X1670000D02*
D03*
X1680000D02*
D03*
X1690000D02*
D03*
X1590000Y1369000D02*
D03*
X1600000D02*
D03*
X1610000D02*
D03*
X1630000D02*
D03*
X1620000D02*
D03*
X1640000D02*
D03*
X1650000D02*
D03*
X1660000D02*
D03*
X1670000D02*
D03*
X1680000D02*
D03*
X1690000D02*
D03*
X1590000Y1359000D02*
D03*
X1600000D02*
D03*
X1610000D02*
D03*
X1630000D02*
D03*
X1620000D02*
D03*
X1640000D02*
D03*
X1650000D02*
D03*
X1660000D02*
D03*
X1670000D02*
D03*
X1680000D02*
D03*
X1690000D02*
D03*
X1590000Y1349000D02*
D03*
X1600000D02*
D03*
X1610000D02*
D03*
X1630000D02*
D03*
X1620000D02*
D03*
X1640000D02*
D03*
X1650000D02*
D03*
X1660000D02*
D03*
X1670000D02*
D03*
X1680000D02*
D03*
X1690000D02*
D03*
X1590000Y1339000D02*
D03*
X1600000D02*
D03*
X1610000D02*
D03*
X1630000D02*
D03*
X1620000D02*
D03*
X1640000D02*
D03*
X1650000D02*
D03*
X1660000D02*
D03*
X1670000D02*
D03*
X1680000D02*
D03*
X1690000D02*
D03*
X1550000Y2257000D02*
D03*
X1540000D02*
D03*
X1530000D02*
D03*
X1520000D02*
D03*
X1510000D02*
D03*
X1500000D02*
D03*
X1480000D02*
D03*
X1490000D02*
D03*
X1470000D02*
D03*
X1460000D02*
D03*
X1450000D02*
D03*
X1550000Y2267000D02*
D03*
X1540000D02*
D03*
X1530000D02*
D03*
X1520000D02*
D03*
X1510000D02*
D03*
X1500000D02*
D03*
X1480000D02*
D03*
X1490000D02*
D03*
X1470000D02*
D03*
X1460000D02*
D03*
X1450000D02*
D03*
X1550000Y2277000D02*
D03*
X1540000D02*
D03*
X1530000D02*
D03*
X1520000D02*
D03*
X1510000D02*
D03*
X1500000D02*
D03*
X1480000D02*
D03*
X1490000D02*
D03*
X1470000D02*
D03*
X1460000D02*
D03*
X1450000D02*
D03*
X1550000Y2287000D02*
D03*
X1540000D02*
D03*
X1530000D02*
D03*
X1520000D02*
D03*
X1510000D02*
D03*
X1500000D02*
D03*
X1480000D02*
D03*
X1490000D02*
D03*
X1470000D02*
D03*
X1460000D02*
D03*
X1450000D02*
D03*
X1550000Y2297000D02*
D03*
X1540000D02*
D03*
X1530000D02*
D03*
X1520000D02*
D03*
X1510000D02*
D03*
X1500000D02*
D03*
X1480000D02*
D03*
X1490000D02*
D03*
X1470000D02*
D03*
X1460000D02*
D03*
X1450000D02*
D03*
X1550000Y2307000D02*
D03*
X1540000D02*
D03*
X1530000D02*
D03*
X1520000D02*
D03*
X1510000D02*
D03*
X1500000D02*
D03*
X1480000D02*
D03*
X1490000D02*
D03*
X1470000D02*
D03*
X1460000D02*
D03*
X1450000D02*
D03*
X1550000Y2317000D02*
D03*
X1540000D02*
D03*
X1530000D02*
D03*
X1520000D02*
D03*
X1510000D02*
D03*
X1500000D02*
D03*
X1480000D02*
D03*
X1490000D02*
D03*
X1470000D02*
D03*
X1460000D02*
D03*
X1450000D02*
D03*
X1550000Y2327000D02*
D03*
X1540000D02*
D03*
X1530000D02*
D03*
X1520000D02*
D03*
X1510000D02*
D03*
X1500000D02*
D03*
X1480000D02*
D03*
X1490000D02*
D03*
X1470000D02*
D03*
X1460000D02*
D03*
X1450000D02*
D03*
X1550000Y2337000D02*
D03*
X1540000D02*
D03*
X1530000D02*
D03*
X1520000D02*
D03*
X1510000D02*
D03*
X1500000D02*
D03*
X1480000D02*
D03*
X1490000D02*
D03*
X1470000D02*
D03*
X1460000D02*
D03*
X1450000D02*
D03*
X1520000Y2247000D02*
D03*
X1500000D02*
D03*
X1510000D02*
D03*
X1530000D02*
D03*
X1470000D02*
D03*
X1460000D02*
D03*
X1480000D02*
D03*
X1550000D02*
D03*
X1490000D02*
D03*
X1540000D02*
D03*
X1450000D02*
D03*
X1590000D02*
D03*
X1680000D02*
D03*
X1630000D02*
D03*
X1690000D02*
D03*
X1620000D02*
D03*
X1600000D02*
D03*
X1610000D02*
D03*
X1670000D02*
D03*
X1650000D02*
D03*
X1640000D02*
D03*
X1660000D02*
D03*
X1590000Y2337000D02*
D03*
X1600000D02*
D03*
X1610000D02*
D03*
X1630000D02*
D03*
X1620000D02*
D03*
X1640000D02*
D03*
X1650000D02*
D03*
X1660000D02*
D03*
X1670000D02*
D03*
X1680000D02*
D03*
X1690000D02*
D03*
X1590000Y2327000D02*
D03*
X1600000D02*
D03*
X1610000D02*
D03*
X1630000D02*
D03*
X1620000D02*
D03*
X1640000D02*
D03*
X1650000D02*
D03*
X1660000D02*
D03*
X1670000D02*
D03*
X1680000D02*
D03*
X1690000D02*
D03*
X1590000Y2317000D02*
D03*
X1600000D02*
D03*
X1610000D02*
D03*
X1630000D02*
D03*
X1620000D02*
D03*
X1640000D02*
D03*
X1650000D02*
D03*
X1660000D02*
D03*
X1670000D02*
D03*
X1680000D02*
D03*
X1690000D02*
D03*
X1590000Y2307000D02*
D03*
X1600000D02*
D03*
X1610000D02*
D03*
X1630000D02*
D03*
X1620000D02*
D03*
X1640000D02*
D03*
X1650000D02*
D03*
X1660000D02*
D03*
X1670000D02*
D03*
X1680000D02*
D03*
X1690000D02*
D03*
X1590000Y2297000D02*
D03*
X1600000D02*
D03*
X1610000D02*
D03*
X1630000D02*
D03*
X1620000D02*
D03*
X1640000D02*
D03*
X1650000D02*
D03*
X1660000D02*
D03*
X1670000D02*
D03*
X1680000D02*
D03*
X1690000D02*
D03*
X1590000Y2287000D02*
D03*
X1600000D02*
D03*
X1610000D02*
D03*
X1630000D02*
D03*
X1620000D02*
D03*
X1640000D02*
D03*
X1650000D02*
D03*
X1660000D02*
D03*
X1670000D02*
D03*
X1680000D02*
D03*
X1690000D02*
D03*
X1590000Y2277000D02*
D03*
X1600000D02*
D03*
X1610000D02*
D03*
X1630000D02*
D03*
X1620000D02*
D03*
X1640000D02*
D03*
X1650000D02*
D03*
X1660000D02*
D03*
X1670000D02*
D03*
X1680000D02*
D03*
X1690000D02*
D03*
X1590000Y2267000D02*
D03*
X1600000D02*
D03*
X1610000D02*
D03*
X1630000D02*
D03*
X1620000D02*
D03*
X1640000D02*
D03*
X1650000D02*
D03*
X1660000D02*
D03*
X1670000D02*
D03*
X1680000D02*
D03*
X1690000D02*
D03*
X1590000Y2257000D02*
D03*
X1600000D02*
D03*
X1610000D02*
D03*
X1630000D02*
D03*
X1620000D02*
D03*
X1640000D02*
D03*
X1650000D02*
D03*
X1660000D02*
D03*
X1670000D02*
D03*
X1680000D02*
D03*
X1690000D02*
D03*
Y1797000D02*
D03*
X1680000D02*
D03*
X1670000D02*
D03*
X1660000D02*
D03*
X1650000D02*
D03*
X1640000D02*
D03*
X1620000D02*
D03*
X1630000D02*
D03*
X1610000D02*
D03*
X1600000D02*
D03*
X1590000D02*
D03*
X1690000Y1807000D02*
D03*
X1680000D02*
D03*
X1670000D02*
D03*
X1660000D02*
D03*
X1650000D02*
D03*
X1640000D02*
D03*
X1620000D02*
D03*
X1630000D02*
D03*
X1610000D02*
D03*
X1600000D02*
D03*
X1590000D02*
D03*
X1690000Y1817000D02*
D03*
X1680000D02*
D03*
X1670000D02*
D03*
X1660000D02*
D03*
X1650000D02*
D03*
X1640000D02*
D03*
X1620000D02*
D03*
X1630000D02*
D03*
X1610000D02*
D03*
X1600000D02*
D03*
X1590000D02*
D03*
X1690000Y1827000D02*
D03*
X1680000D02*
D03*
X1670000D02*
D03*
X1660000D02*
D03*
X1650000D02*
D03*
X1640000D02*
D03*
X1620000D02*
D03*
X1630000D02*
D03*
X1610000D02*
D03*
X1600000D02*
D03*
X1590000D02*
D03*
X1690000Y1837000D02*
D03*
X1680000D02*
D03*
X1670000D02*
D03*
X1660000D02*
D03*
X1650000D02*
D03*
X1640000D02*
D03*
X1620000D02*
D03*
X1630000D02*
D03*
X1610000D02*
D03*
X1600000D02*
D03*
X1590000D02*
D03*
X1690000Y1847000D02*
D03*
X1680000D02*
D03*
X1670000D02*
D03*
X1660000D02*
D03*
X1650000D02*
D03*
X1640000D02*
D03*
X1620000D02*
D03*
X1630000D02*
D03*
X1610000D02*
D03*
X1600000D02*
D03*
X1590000D02*
D03*
X1690000Y1857000D02*
D03*
X1680000D02*
D03*
X1670000D02*
D03*
X1660000D02*
D03*
X1650000D02*
D03*
X1640000D02*
D03*
X1620000D02*
D03*
X1630000D02*
D03*
X1610000D02*
D03*
X1600000D02*
D03*
X1590000D02*
D03*
X1690000Y1867000D02*
D03*
X1680000D02*
D03*
X1670000D02*
D03*
X1660000D02*
D03*
X1650000D02*
D03*
X1640000D02*
D03*
X1620000D02*
D03*
X1630000D02*
D03*
X1610000D02*
D03*
X1600000D02*
D03*
X1590000D02*
D03*
X1690000Y1877000D02*
D03*
X1680000D02*
D03*
X1670000D02*
D03*
X1660000D02*
D03*
X1650000D02*
D03*
X1640000D02*
D03*
X1620000D02*
D03*
X1630000D02*
D03*
X1610000D02*
D03*
X1600000D02*
D03*
X1590000D02*
D03*
X1660000Y1787000D02*
D03*
X1640000D02*
D03*
X1650000D02*
D03*
X1670000D02*
D03*
X1610000D02*
D03*
X1600000D02*
D03*
X1620000D02*
D03*
X1690000D02*
D03*
X1630000D02*
D03*
X1680000D02*
D03*
X1590000D02*
D03*
X1450000D02*
D03*
X1540000D02*
D03*
X1490000D02*
D03*
X1550000D02*
D03*
X1480000D02*
D03*
X1460000D02*
D03*
X1470000D02*
D03*
X1530000D02*
D03*
X1510000D02*
D03*
X1500000D02*
D03*
X1520000D02*
D03*
X1450000Y1877000D02*
D03*
X1460000D02*
D03*
X1470000D02*
D03*
X1490000D02*
D03*
X1480000D02*
D03*
X1500000D02*
D03*
X1510000D02*
D03*
X1520000D02*
D03*
X1530000D02*
D03*
X1540000D02*
D03*
X1550000D02*
D03*
X1450000Y1867000D02*
D03*
X1460000D02*
D03*
X1470000D02*
D03*
X1490000D02*
D03*
X1480000D02*
D03*
X1500000D02*
D03*
X1510000D02*
D03*
X1520000D02*
D03*
X1530000D02*
D03*
X1540000D02*
D03*
X1550000D02*
D03*
X1450000Y1857000D02*
D03*
X1460000D02*
D03*
X1470000D02*
D03*
X1490000D02*
D03*
X1480000D02*
D03*
X1500000D02*
D03*
X1510000D02*
D03*
X1520000D02*
D03*
X1530000D02*
D03*
X1540000D02*
D03*
X1550000D02*
D03*
X1450000Y1847000D02*
D03*
X1460000D02*
D03*
X1470000D02*
D03*
X1490000D02*
D03*
X1480000D02*
D03*
X1500000D02*
D03*
X1510000D02*
D03*
X1520000D02*
D03*
X1530000D02*
D03*
X1540000D02*
D03*
X1550000D02*
D03*
X1450000Y1837000D02*
D03*
X1460000D02*
D03*
X1470000D02*
D03*
X1490000D02*
D03*
X1480000D02*
D03*
X1500000D02*
D03*
X1510000D02*
D03*
X1520000D02*
D03*
X1530000D02*
D03*
X1540000D02*
D03*
X1550000D02*
D03*
X1450000Y1827000D02*
D03*
X1460000D02*
D03*
X1470000D02*
D03*
X1490000D02*
D03*
X1480000D02*
D03*
X1500000D02*
D03*
X1510000D02*
D03*
X1520000D02*
D03*
X1530000D02*
D03*
X1540000D02*
D03*
X1550000D02*
D03*
X1450000Y1817000D02*
D03*
X1460000D02*
D03*
X1470000D02*
D03*
X1490000D02*
D03*
X1480000D02*
D03*
X1500000D02*
D03*
X1510000D02*
D03*
X1520000D02*
D03*
X1530000D02*
D03*
X1540000D02*
D03*
X1550000D02*
D03*
X1450000Y1807000D02*
D03*
X1460000D02*
D03*
X1470000D02*
D03*
X1490000D02*
D03*
X1480000D02*
D03*
X1500000D02*
D03*
X1510000D02*
D03*
X1520000D02*
D03*
X1530000D02*
D03*
X1540000D02*
D03*
X1550000D02*
D03*
X1450000Y1797000D02*
D03*
X1460000D02*
D03*
X1470000D02*
D03*
X1490000D02*
D03*
X1480000D02*
D03*
X1500000D02*
D03*
X1510000D02*
D03*
X1520000D02*
D03*
X1530000D02*
D03*
X1540000D02*
D03*
X1550000D02*
D03*
X1265000Y1659000D02*
D03*
D82*
X3560000Y910000D02*
D03*
X3590000Y910000D02*
D03*
X3520000D02*
D03*
M02*
