G04*
G04 #@! TF.GenerationSoftware,Altium Limited,Altium Designer,20.0.13 (296)*
G04*
G04 Layer_Color=8388736*
%FSLAX44Y44*%
%MOMM*%
G71*
G01*
G75*
%ADD42R,1.2032X1.0032*%
G04:AMPARAMS|DCode=43|XSize=1.6032mm|YSize=3.5032mm|CornerRadius=0.3466mm|HoleSize=0mm|Usage=FLASHONLY|Rotation=180.000|XOffset=0mm|YOffset=0mm|HoleType=Round|Shape=RoundedRectangle|*
%AMROUNDEDRECTD43*
21,1,1.6032,2.8100,0,0,180.0*
21,1,0.9100,3.5032,0,0,180.0*
1,1,0.6932,-0.4550,1.4050*
1,1,0.6932,0.4550,1.4050*
1,1,0.6932,0.4550,-1.4050*
1,1,0.6932,-0.4550,-1.4050*
%
%ADD43ROUNDEDRECTD43*%
G04:AMPARAMS|DCode=44|XSize=10.7032mm|YSize=9.8032mm|CornerRadius=0.5816mm|HoleSize=0mm|Usage=FLASHONLY|Rotation=180.000|XOffset=0mm|YOffset=0mm|HoleType=Round|Shape=RoundedRectangle|*
%AMROUNDEDRECTD44*
21,1,10.7032,8.6400,0,0,180.0*
21,1,9.5400,9.8032,0,0,180.0*
1,1,1.1632,-4.7700,4.3200*
1,1,1.1632,4.7700,4.3200*
1,1,1.1632,4.7700,-4.3200*
1,1,1.1632,-4.7700,-4.3200*
%
%ADD44ROUNDEDRECTD44*%
G04:AMPARAMS|DCode=45|XSize=1.2032mm|YSize=2.6032mm|CornerRadius=0.3516mm|HoleSize=0mm|Usage=FLASHONLY|Rotation=180.000|XOffset=0mm|YOffset=0mm|HoleType=Round|Shape=RoundedRectangle|*
%AMROUNDEDRECTD45*
21,1,1.2032,1.9000,0,0,180.0*
21,1,0.5000,2.6032,0,0,180.0*
1,1,0.7032,-0.2500,0.9500*
1,1,0.7032,0.2500,0.9500*
1,1,0.7032,0.2500,-0.9500*
1,1,0.7032,-0.2500,-0.9500*
%
%ADD45ROUNDEDRECTD45*%
G04:AMPARAMS|DCode=46|XSize=3.5032mm|YSize=2.6032mm|CornerRadius=0.4016mm|HoleSize=0mm|Usage=FLASHONLY|Rotation=180.000|XOffset=0mm|YOffset=0mm|HoleType=Round|Shape=RoundedRectangle|*
%AMROUNDEDRECTD46*
21,1,3.5032,1.8000,0,0,180.0*
21,1,2.7000,2.6032,0,0,180.0*
1,1,0.8032,-1.3500,0.9000*
1,1,0.8032,1.3500,0.9000*
1,1,0.8032,1.3500,-0.9000*
1,1,0.8032,-1.3500,-0.9000*
%
%ADD46ROUNDEDRECTD46*%
%ADD47R,1.2032X1.2032*%
%ADD48R,1.2032X1.1032*%
G04:AMPARAMS|DCode=49|XSize=5.7032mm|YSize=5.9032mm|CornerRadius=0.9266mm|HoleSize=0mm|Usage=FLASHONLY|Rotation=180.000|XOffset=0mm|YOffset=0mm|HoleType=Round|Shape=RoundedRectangle|*
%AMROUNDEDRECTD49*
21,1,5.7032,4.0500,0,0,180.0*
21,1,3.8500,5.9032,0,0,180.0*
1,1,1.8532,-1.9250,2.0250*
1,1,1.8532,1.9250,2.0250*
1,1,1.8532,1.9250,-2.0250*
1,1,1.8532,-1.9250,-2.0250*
%
%ADD49ROUNDEDRECTD49*%
G04:AMPARAMS|DCode=50|XSize=1.5032mm|YSize=1.9032mm|CornerRadius=0.4266mm|HoleSize=0mm|Usage=FLASHONLY|Rotation=180.000|XOffset=0mm|YOffset=0mm|HoleType=Round|Shape=RoundedRectangle|*
%AMROUNDEDRECTD50*
21,1,1.5032,1.0500,0,0,180.0*
21,1,0.6500,1.9032,0,0,180.0*
1,1,0.8532,-0.3250,0.5250*
1,1,0.8532,0.3250,0.5250*
1,1,0.8532,0.3250,-0.5250*
1,1,0.8532,-0.3250,-0.5250*
%
%ADD50ROUNDEDRECTD50*%
G04:AMPARAMS|DCode=51|XSize=1.1032mm|YSize=0.9032mm|CornerRadius=0.2766mm|HoleSize=0mm|Usage=FLASHONLY|Rotation=90.000|XOffset=0mm|YOffset=0mm|HoleType=Round|Shape=RoundedRectangle|*
%AMROUNDEDRECTD51*
21,1,1.1032,0.3500,0,0,90.0*
21,1,0.5500,0.9032,0,0,90.0*
1,1,0.5532,0.1750,0.2750*
1,1,0.5532,0.1750,-0.2750*
1,1,0.5532,-0.1750,-0.2750*
1,1,0.5532,-0.1750,0.2750*
%
%ADD51ROUNDEDRECTD51*%
G04:AMPARAMS|DCode=52|XSize=1.1032mm|YSize=1.0032mm|CornerRadius=0.3016mm|HoleSize=0mm|Usage=FLASHONLY|Rotation=90.000|XOffset=0mm|YOffset=0mm|HoleType=Round|Shape=RoundedRectangle|*
%AMROUNDEDRECTD52*
21,1,1.1032,0.4000,0,0,90.0*
21,1,0.5000,1.0032,0,0,90.0*
1,1,0.6032,0.2000,0.2500*
1,1,0.6032,0.2000,-0.2500*
1,1,0.6032,-0.2000,-0.2500*
1,1,0.6032,-0.2000,0.2500*
%
%ADD52ROUNDEDRECTD52*%
%ADD53O,2.4032X0.8032*%
%ADD54R,1.2032X1.2032*%
G04:AMPARAMS|DCode=55|XSize=0.8032mm|YSize=1.7032mm|CornerRadius=0.2516mm|HoleSize=0mm|Usage=FLASHONLY|Rotation=180.000|XOffset=0mm|YOffset=0mm|HoleType=Round|Shape=RoundedRectangle|*
%AMROUNDEDRECTD55*
21,1,0.8032,1.2000,0,0,180.0*
21,1,0.3000,1.7032,0,0,180.0*
1,1,0.5032,-0.1500,0.6000*
1,1,0.5032,0.1500,0.6000*
1,1,0.5032,0.1500,-0.6000*
1,1,0.5032,-0.1500,-0.6000*
%
%ADD55ROUNDEDRECTD55*%
%ADD56R,1.1032X1.2032*%
%ADD57O,0.8032X2.0532*%
G04:AMPARAMS|DCode=58|XSize=2.0032mm|YSize=1.9032mm|CornerRadius=0.3141mm|HoleSize=0mm|Usage=FLASHONLY|Rotation=180.000|XOffset=0mm|YOffset=0mm|HoleType=Round|Shape=RoundedRectangle|*
%AMROUNDEDRECTD58*
21,1,2.0032,1.2750,0,0,180.0*
21,1,1.3750,1.9032,0,0,180.0*
1,1,0.6282,-0.6875,0.6375*
1,1,0.6282,0.6875,0.6375*
1,1,0.6282,0.6875,-0.6375*
1,1,0.6282,-0.6875,-0.6375*
%
%ADD58ROUNDEDRECTD58*%
%ADD59R,2.0032X1.5032*%
G04:AMPARAMS|DCode=60|XSize=1.1032mm|YSize=0.9032mm|CornerRadius=0.2766mm|HoleSize=0mm|Usage=FLASHONLY|Rotation=0.000|XOffset=0mm|YOffset=0mm|HoleType=Round|Shape=RoundedRectangle|*
%AMROUNDEDRECTD60*
21,1,1.1032,0.3500,0,0,0.0*
21,1,0.5500,0.9032,0,0,0.0*
1,1,0.5532,0.2750,-0.1750*
1,1,0.5532,-0.2750,-0.1750*
1,1,0.5532,-0.2750,0.1750*
1,1,0.5532,0.2750,0.1750*
%
%ADD60ROUNDEDRECTD60*%
G04:AMPARAMS|DCode=61|XSize=1.1032mm|YSize=1.0032mm|CornerRadius=0.3016mm|HoleSize=0mm|Usage=FLASHONLY|Rotation=0.000|XOffset=0mm|YOffset=0mm|HoleType=Round|Shape=RoundedRectangle|*
%AMROUNDEDRECTD61*
21,1,1.1032,0.4000,0,0,0.0*
21,1,0.5000,1.0032,0,0,0.0*
1,1,0.6032,0.2500,-0.2000*
1,1,0.6032,-0.2500,-0.2000*
1,1,0.6032,-0.2500,0.2000*
1,1,0.6032,0.2500,0.2000*
%
%ADD61ROUNDEDRECTD61*%
%ADD62R,1.1032X1.1032*%
%ADD63O,1.9304X2.4892*%
%ADD64C,2.0032*%
%ADD65C,1.7332*%
%ADD66C,3.4032*%
%ADD67R,1.7332X1.7332*%
G04:AMPARAMS|DCode=68|XSize=2.2032mm|YSize=2.2032mm|CornerRadius=0.6016mm|HoleSize=0mm|Usage=FLASHONLY|Rotation=180.000|XOffset=0mm|YOffset=0mm|HoleType=Round|Shape=RoundedRectangle|*
%AMROUNDEDRECTD68*
21,1,2.2032,1.0000,0,0,180.0*
21,1,1.0000,2.2032,0,0,180.0*
1,1,1.2032,-0.5000,0.5000*
1,1,1.2032,0.5000,0.5000*
1,1,1.2032,0.5000,-0.5000*
1,1,1.2032,-0.5000,-0.5000*
%
%ADD68ROUNDEDRECTD68*%
%ADD69C,2.2032*%
G04:AMPARAMS|DCode=70|XSize=2.2032mm|YSize=2.2032mm|CornerRadius=0.6016mm|HoleSize=0mm|Usage=FLASHONLY|Rotation=90.000|XOffset=0mm|YOffset=0mm|HoleType=Round|Shape=RoundedRectangle|*
%AMROUNDEDRECTD70*
21,1,2.2032,1.0000,0,0,90.0*
21,1,1.0000,2.2032,0,0,90.0*
1,1,1.2032,0.5000,0.5000*
1,1,1.2032,0.5000,-0.5000*
1,1,1.2032,-0.5000,-0.5000*
1,1,1.2032,-0.5000,0.5000*
%
%ADD70ROUNDEDRECTD70*%
%ADD71C,3.2032*%
%ADD72C,6.1032*%
%ADD73C,3.7032*%
G04:AMPARAMS|DCode=74|XSize=2.7032mm|YSize=3.2032mm|CornerRadius=0.7266mm|HoleSize=0mm|Usage=FLASHONLY|Rotation=0.000|XOffset=0mm|YOffset=0mm|HoleType=Round|Shape=RoundedRectangle|*
%AMROUNDEDRECTD74*
21,1,2.7032,1.7500,0,0,0.0*
21,1,1.2500,3.2032,0,0,0.0*
1,1,1.4532,0.6250,-0.8750*
1,1,1.4532,-0.6250,-0.8750*
1,1,1.4532,-0.6250,0.8750*
1,1,1.4532,0.6250,0.8750*
%
%ADD74ROUNDEDRECTD74*%
%ADD75R,4.0132X4.0132*%
%ADD76C,6.2032*%
%ADD77C,0.2032*%
%ADD78C,1.9812*%
%ADD79C,1.4032*%
%ADD80C,1.2032*%
%ADD81C,1.0032*%
%ADD82C,1.9032*%
D42*
X1385000Y1184000D02*
D03*
Y1168000D02*
D03*
Y1628000D02*
D03*
Y1612000D02*
D03*
Y2088000D02*
D03*
Y2072000D02*
D03*
D43*
X1525400Y2189500D02*
D03*
X1474600D02*
D03*
X1614600Y2189500D02*
D03*
X1665400D02*
D03*
X1525400Y1729500D02*
D03*
X1474600D02*
D03*
X1614600D02*
D03*
X1665400D02*
D03*
X1525400Y1269500D02*
D03*
X1474600D02*
D03*
X1614600D02*
D03*
X1665400D02*
D03*
X1525400Y1967500D02*
D03*
X1474600D02*
D03*
X1614600D02*
D03*
X1665400D02*
D03*
X1525400Y1507500D02*
D03*
X1474600D02*
D03*
X1614600D02*
D03*
X1665400D02*
D03*
X1525400Y1049500D02*
D03*
X1474600D02*
D03*
X1614600D02*
D03*
X1665400D02*
D03*
D44*
X1500000Y2292000D02*
D03*
X1640000Y2292000D02*
D03*
X1500000Y1832000D02*
D03*
X1640000D02*
D03*
X1500000Y1372000D02*
D03*
X1640000D02*
D03*
X1500000Y2070000D02*
D03*
X1640000D02*
D03*
X1500000Y1610000D02*
D03*
X1640000D02*
D03*
X1500000Y1152000D02*
D03*
X1640000D02*
D03*
D45*
X2262000Y461000D02*
D03*
X2285000D02*
D03*
X2308000D02*
D03*
D46*
X2285000Y519000D02*
D03*
D47*
X2187000Y597000D02*
D03*
Y581000D02*
D03*
X2125000Y473000D02*
D03*
Y457000D02*
D03*
X2301000Y787000D02*
D03*
Y771000D02*
D03*
X2375000Y1028000D02*
D03*
Y1012000D02*
D03*
X2350000Y1028000D02*
D03*
Y1012000D02*
D03*
X2325000Y1012000D02*
D03*
Y1028000D02*
D03*
X2300000Y1028000D02*
D03*
Y1012000D02*
D03*
X2350000Y1468000D02*
D03*
Y1452000D02*
D03*
X2325000Y1452000D02*
D03*
Y1468000D02*
D03*
X2300000Y1468000D02*
D03*
Y1452000D02*
D03*
X2350000Y1928000D02*
D03*
Y1912000D02*
D03*
X2325000Y1912000D02*
D03*
Y1928000D02*
D03*
X2300000Y1928000D02*
D03*
Y1912000D02*
D03*
X1359840Y1127000D02*
D03*
Y1111000D02*
D03*
Y1571000D02*
D03*
Y1555000D02*
D03*
X1360000Y2031000D02*
D03*
Y2015000D02*
D03*
D48*
X2167000Y580500D02*
D03*
Y597500D02*
D03*
X2147000Y580500D02*
D03*
Y597500D02*
D03*
X2122000Y580500D02*
D03*
Y597500D02*
D03*
X2187000Y620500D02*
D03*
Y637500D02*
D03*
X2167000Y637500D02*
D03*
Y620500D02*
D03*
X2217000Y662500D02*
D03*
Y645500D02*
D03*
X2297000Y617500D02*
D03*
Y600500D02*
D03*
Y582500D02*
D03*
Y565500D02*
D03*
X2324000Y787500D02*
D03*
Y770500D02*
D03*
X1295000Y1212500D02*
D03*
Y1229500D02*
D03*
X1339840Y1127500D02*
D03*
Y1110500D02*
D03*
X1300840Y1110500D02*
D03*
Y1127500D02*
D03*
X1410000Y1184500D02*
D03*
Y1167500D02*
D03*
Y1229500D02*
D03*
Y1212500D02*
D03*
X1450000Y1033500D02*
D03*
Y1050500D02*
D03*
X1580000Y1033500D02*
D03*
Y1050500D02*
D03*
X1580000Y1280000D02*
D03*
Y1263000D02*
D03*
Y1491500D02*
D03*
Y1508500D02*
D03*
X1440000Y1491500D02*
D03*
Y1508500D02*
D03*
X1410000Y1673500D02*
D03*
Y1656500D02*
D03*
X1410000Y1628500D02*
D03*
Y1611500D02*
D03*
X1339840Y1571500D02*
D03*
Y1554500D02*
D03*
X1300840Y1554500D02*
D03*
Y1571500D02*
D03*
X1295000Y1656500D02*
D03*
Y1673500D02*
D03*
X1580000Y1738000D02*
D03*
Y1721000D02*
D03*
X1580000Y2181000D02*
D03*
Y2198000D02*
D03*
X1580000Y1951500D02*
D03*
Y1968500D02*
D03*
X1440000Y1951500D02*
D03*
Y1968500D02*
D03*
X1410000Y2088500D02*
D03*
Y2071500D02*
D03*
X1410000Y2133500D02*
D03*
Y2116500D02*
D03*
X1301000Y2014500D02*
D03*
Y2031500D02*
D03*
X1340000Y2031500D02*
D03*
Y2014500D02*
D03*
X1295000Y2116500D02*
D03*
Y2133500D02*
D03*
D49*
X2180000Y508000D02*
D03*
D50*
X2157150Y434000D02*
D03*
X2202850D02*
D03*
D51*
X2148500Y619000D02*
D03*
X3518500Y880000D02*
D03*
X3588500D02*
D03*
D52*
X2125500Y619000D02*
D03*
X3541500Y880000D02*
D03*
X3611500D02*
D03*
D53*
X2216556Y622920D02*
D03*
Y610220D02*
D03*
Y597520D02*
D03*
Y584820D02*
D03*
X2264556Y622920D02*
D03*
Y610220D02*
D03*
Y597520D02*
D03*
Y584820D02*
D03*
X1311160Y2089050D02*
D03*
Y2076350D02*
D03*
Y2063650D02*
D03*
Y2050950D02*
D03*
X1359160Y2089050D02*
D03*
Y2076350D02*
D03*
Y2063650D02*
D03*
Y2050950D02*
D03*
X1311000Y1185050D02*
D03*
Y1172350D02*
D03*
Y1159650D02*
D03*
Y1146950D02*
D03*
X1359000Y1185050D02*
D03*
Y1172350D02*
D03*
Y1159650D02*
D03*
Y1146950D02*
D03*
X1311000Y1629050D02*
D03*
Y1616350D02*
D03*
Y1603650D02*
D03*
Y1590950D02*
D03*
X1359000Y1629050D02*
D03*
Y1616350D02*
D03*
Y1603650D02*
D03*
Y1590950D02*
D03*
D54*
X2260000Y649000D02*
D03*
X2244000D02*
D03*
X3562000Y620000D02*
D03*
X3578000D02*
D03*
X3482000D02*
D03*
X3498000D02*
D03*
X3402000D02*
D03*
X3418000D02*
D03*
X2278000Y430000D02*
D03*
X2262000D02*
D03*
X2278000Y405000D02*
D03*
X2262000D02*
D03*
X2188000Y405000D02*
D03*
X2172000D02*
D03*
X2422000Y965000D02*
D03*
X2438000D02*
D03*
X2422000Y895000D02*
D03*
X2438000D02*
D03*
X2422000Y815000D02*
D03*
X2438000D02*
D03*
D55*
X3590000Y849500D02*
D03*
X3599500Y830500D02*
D03*
X3580500D02*
D03*
X3520000Y849500D02*
D03*
X3529500Y830500D02*
D03*
X3510500D02*
D03*
X1255500Y1181500D02*
D03*
X1274500D02*
D03*
X1265000Y1200500D02*
D03*
X1255500Y1625500D02*
D03*
X1274500D02*
D03*
X1265000Y1644500D02*
D03*
X1255500Y2085500D02*
D03*
X1274500D02*
D03*
X1265000Y2104500D02*
D03*
D56*
X3581500Y790000D02*
D03*
X3598500D02*
D03*
X3511500D02*
D03*
X3528500D02*
D03*
X3544500Y1096000D02*
D03*
X3561500D02*
D03*
X3561500Y1076000D02*
D03*
X3544500D02*
D03*
X3544500Y1056000D02*
D03*
X3561500D02*
D03*
X3561500Y1036000D02*
D03*
X3544500D02*
D03*
X3544500Y1016000D02*
D03*
X3561500D02*
D03*
X3561500Y996000D02*
D03*
X3544500D02*
D03*
X3456500Y1095000D02*
D03*
X3473500D02*
D03*
X3473500Y1075000D02*
D03*
X3456500D02*
D03*
X3456500Y1055000D02*
D03*
X3473500D02*
D03*
X3473500Y1035000D02*
D03*
X3456500D02*
D03*
X3456500Y1015000D02*
D03*
X3473500D02*
D03*
X3473500Y995000D02*
D03*
X3456500D02*
D03*
X3388500D02*
D03*
X3371500D02*
D03*
X3371500Y1015000D02*
D03*
X3388500D02*
D03*
X3388500Y1035000D02*
D03*
X3371500D02*
D03*
X3371500Y1055000D02*
D03*
X3388500D02*
D03*
X3388500Y1075000D02*
D03*
X3371500D02*
D03*
X3371500Y1095000D02*
D03*
X3388500D02*
D03*
X3561500Y645000D02*
D03*
X3578500D02*
D03*
X3481500D02*
D03*
X3498500D02*
D03*
X3401500D02*
D03*
X3418500D02*
D03*
X2338500Y1395000D02*
D03*
X2321500D02*
D03*
X2321500Y1375000D02*
D03*
X2338500D02*
D03*
X2338500Y1355000D02*
D03*
X2321500D02*
D03*
X2321500Y1335000D02*
D03*
X2338500D02*
D03*
X2338500Y1315000D02*
D03*
X2321500D02*
D03*
X2321500Y1295000D02*
D03*
X2338500D02*
D03*
X2338500Y1855000D02*
D03*
X2321500D02*
D03*
X2321500Y1835000D02*
D03*
X2338500D02*
D03*
X2338500Y1815000D02*
D03*
X2321500D02*
D03*
X2321500Y1795000D02*
D03*
X2338500D02*
D03*
X2338500Y1775000D02*
D03*
X2321500D02*
D03*
X2321500Y1755000D02*
D03*
X2338500D02*
D03*
Y2305000D02*
D03*
X2321500D02*
D03*
X2321500Y2325000D02*
D03*
X2338500D02*
D03*
X2321500Y2285000D02*
D03*
X2338500D02*
D03*
X2338500Y2265000D02*
D03*
X2321500D02*
D03*
X2321500Y2245000D02*
D03*
X2338500D02*
D03*
X2338500Y2225000D02*
D03*
X2321500D02*
D03*
X1233500Y1196000D02*
D03*
X1216500D02*
D03*
X1233500Y1176000D02*
D03*
X1216500D02*
D03*
X1434500Y1261000D02*
D03*
X1451500D02*
D03*
X1233500Y1620000D02*
D03*
X1216500D02*
D03*
X1233500Y1640000D02*
D03*
X1216500D02*
D03*
X1434500Y1719000D02*
D03*
X1451500D02*
D03*
X1434500Y2179000D02*
D03*
X1451500D02*
D03*
X1233500Y2080000D02*
D03*
X1216500D02*
D03*
X1233500Y2100000D02*
D03*
X1216500D02*
D03*
X3561500Y670000D02*
D03*
X3544500D02*
D03*
X3473500D02*
D03*
X3456500D02*
D03*
X3401500D02*
D03*
X3384500D02*
D03*
X2421500Y945000D02*
D03*
X2438500D02*
D03*
X2421500Y875000D02*
D03*
X2438500D02*
D03*
X2421500Y795000D02*
D03*
X2438500D02*
D03*
X1248500Y960000D02*
D03*
X1231500D02*
D03*
X1283500D02*
D03*
X1266500D02*
D03*
X1318500D02*
D03*
X1301500D02*
D03*
X1352000D02*
D03*
X1335000D02*
D03*
X1388500D02*
D03*
X1371500D02*
D03*
X1423500D02*
D03*
X1406500D02*
D03*
D57*
X2285550Y1062750D02*
D03*
X2298250D02*
D03*
X2310950D02*
D03*
X2323650D02*
D03*
X2336350D02*
D03*
X2349050D02*
D03*
X2361750D02*
D03*
X2374450D02*
D03*
X2285550Y1157250D02*
D03*
X2298250D02*
D03*
X2310950D02*
D03*
X2323650D02*
D03*
X2336350D02*
D03*
X2349050D02*
D03*
X2361750D02*
D03*
X2374450D02*
D03*
X2285550Y1962750D02*
D03*
X2298250D02*
D03*
X2310950D02*
D03*
X2323650D02*
D03*
X2336350D02*
D03*
X2349050D02*
D03*
X2361750D02*
D03*
X2374450D02*
D03*
X2285550Y2057250D02*
D03*
X2298250D02*
D03*
X2310950D02*
D03*
X2323650D02*
D03*
X2336350D02*
D03*
X2349050D02*
D03*
X2361750D02*
D03*
X2374450D02*
D03*
X2285550Y1502750D02*
D03*
X2298250D02*
D03*
X2310950D02*
D03*
X2323650D02*
D03*
X2336350D02*
D03*
X2349050D02*
D03*
X2361750D02*
D03*
X2374450D02*
D03*
X2285550Y1597250D02*
D03*
X2298250D02*
D03*
X2310950D02*
D03*
X2323650D02*
D03*
X2336350D02*
D03*
X2349050D02*
D03*
X2361750D02*
D03*
X2374450D02*
D03*
D58*
X1325061Y1221000D02*
D03*
X1364939D02*
D03*
X1325061Y1665000D02*
D03*
X1364939D02*
D03*
X1324721Y2125000D02*
D03*
X1364599D02*
D03*
D59*
X1393000Y1141500D02*
D03*
Y1112500D02*
D03*
X1382340Y1571000D02*
D03*
Y1542000D02*
D03*
X1383000Y2030500D02*
D03*
Y2001500D02*
D03*
D60*
X1318840Y1107500D02*
D03*
X1390000Y1231500D02*
D03*
X1390000Y1676500D02*
D03*
X1318840Y1551500D02*
D03*
X1390000Y2136500D02*
D03*
X1319000Y2011500D02*
D03*
D61*
X1318840Y1130500D02*
D03*
X1390000Y1208500D02*
D03*
X1390000Y1653500D02*
D03*
X1318840Y1574500D02*
D03*
X1390000Y2113500D02*
D03*
X1319000Y2034500D02*
D03*
D62*
X1231900Y762000D02*
D03*
X1244600D02*
D03*
X1270000D02*
D03*
X1257300D02*
D03*
X1308100D02*
D03*
X1320800D02*
D03*
X1295400D02*
D03*
X1282700D02*
D03*
X1384300D02*
D03*
X1397000D02*
D03*
X1422400D02*
D03*
X1409700D02*
D03*
X1358900D02*
D03*
X1371600D02*
D03*
X1346200D02*
D03*
X1333500D02*
D03*
X1485900D02*
D03*
X1498600D02*
D03*
X1524000D02*
D03*
X1511300D02*
D03*
X1460500D02*
D03*
X1473200D02*
D03*
X1447800D02*
D03*
X1435100D02*
D03*
X1587500D02*
D03*
X1600200D02*
D03*
X1625600D02*
D03*
X1612900D02*
D03*
X1562100D02*
D03*
X1574800D02*
D03*
X1549400D02*
D03*
X1536700D02*
D03*
X1943100D02*
D03*
X1955800D02*
D03*
X1981200D02*
D03*
X1968500D02*
D03*
X2019300D02*
D03*
X2032000D02*
D03*
X2006600D02*
D03*
X1993900D02*
D03*
X1841500D02*
D03*
X1854200D02*
D03*
X1879600D02*
D03*
X1866900D02*
D03*
X1917700D02*
D03*
X1930400D02*
D03*
X1905000D02*
D03*
X1892300D02*
D03*
X1739900D02*
D03*
X1752600D02*
D03*
X1778000D02*
D03*
X1765300D02*
D03*
X1816100D02*
D03*
X1828800D02*
D03*
X1803400D02*
D03*
X1790700D02*
D03*
X1689100D02*
D03*
X1701800D02*
D03*
X1727200D02*
D03*
X1714500D02*
D03*
X1663700D02*
D03*
X1676400D02*
D03*
X1651000D02*
D03*
X1638300D02*
D03*
Y774700D02*
D03*
X1651000D02*
D03*
X1676400D02*
D03*
X1663700D02*
D03*
X1714500D02*
D03*
X1727200D02*
D03*
X1701800D02*
D03*
X1689100D02*
D03*
X1790700D02*
D03*
X1803400D02*
D03*
X1828800D02*
D03*
X1816100D02*
D03*
X1765300D02*
D03*
X1778000D02*
D03*
X1752600D02*
D03*
X1739900D02*
D03*
X1892300D02*
D03*
X1905000D02*
D03*
X1930400D02*
D03*
X1917700D02*
D03*
X1866900D02*
D03*
X1879600D02*
D03*
X1854200D02*
D03*
X1841500D02*
D03*
X1993900D02*
D03*
X2006600D02*
D03*
X2032000D02*
D03*
X2019300D02*
D03*
X1968500D02*
D03*
X1981200D02*
D03*
X1955800D02*
D03*
X1943100D02*
D03*
X1536700D02*
D03*
X1549400D02*
D03*
X1574800D02*
D03*
X1562100D02*
D03*
X1612900D02*
D03*
X1625600D02*
D03*
X1600200D02*
D03*
X1587500D02*
D03*
X1435100D02*
D03*
X1447800D02*
D03*
X1473200D02*
D03*
X1460500D02*
D03*
X1511300D02*
D03*
X1524000D02*
D03*
X1498600D02*
D03*
X1485900D02*
D03*
X1333500D02*
D03*
X1346200D02*
D03*
X1371600D02*
D03*
X1358900D02*
D03*
X1409700D02*
D03*
X1422400D02*
D03*
X1397000D02*
D03*
X1384300D02*
D03*
X1282700D02*
D03*
X1295400D02*
D03*
X1320800D02*
D03*
X1308100D02*
D03*
X1257300D02*
D03*
X1270000D02*
D03*
X1244600D02*
D03*
X1231900D02*
D03*
Y800100D02*
D03*
X1244600D02*
D03*
X1270000D02*
D03*
X1257300D02*
D03*
X1308100D02*
D03*
X1320800D02*
D03*
X1295400D02*
D03*
X1282700D02*
D03*
X1384300D02*
D03*
X1397000D02*
D03*
X1422400D02*
D03*
X1409700D02*
D03*
X1358900D02*
D03*
X1371600D02*
D03*
X1346200D02*
D03*
X1333500D02*
D03*
X1485900D02*
D03*
X1498600D02*
D03*
X1524000D02*
D03*
X1511300D02*
D03*
X1460500D02*
D03*
X1473200D02*
D03*
X1447800D02*
D03*
X1435100D02*
D03*
X1587500D02*
D03*
X1600200D02*
D03*
X1625600D02*
D03*
X1612900D02*
D03*
X1562100D02*
D03*
X1574800D02*
D03*
X1549400D02*
D03*
X1536700D02*
D03*
X1943100D02*
D03*
X1955800D02*
D03*
X1981200D02*
D03*
X1968500D02*
D03*
X2019300D02*
D03*
X2032000D02*
D03*
X2006600D02*
D03*
X1993900D02*
D03*
X1841500D02*
D03*
X1854200D02*
D03*
X1879600D02*
D03*
X1866900D02*
D03*
X1917700D02*
D03*
X1930400D02*
D03*
X1905000D02*
D03*
X1892300D02*
D03*
X1739900D02*
D03*
X1752600D02*
D03*
X1778000D02*
D03*
X1765300D02*
D03*
X1816100D02*
D03*
X1828800D02*
D03*
X1803400D02*
D03*
X1790700D02*
D03*
X1689100D02*
D03*
X1701800D02*
D03*
X1727200D02*
D03*
X1714500D02*
D03*
X1663700D02*
D03*
X1676400D02*
D03*
X1651000D02*
D03*
X1638300D02*
D03*
Y787400D02*
D03*
X1651000D02*
D03*
X1676400D02*
D03*
X1663700D02*
D03*
X1714500D02*
D03*
X1727200D02*
D03*
X1701800D02*
D03*
X1689100D02*
D03*
X1790700D02*
D03*
X1803400D02*
D03*
X1828800D02*
D03*
X1816100D02*
D03*
X1765300D02*
D03*
X1778000D02*
D03*
X1752600D02*
D03*
X1739900D02*
D03*
X1892300D02*
D03*
X1905000D02*
D03*
X1930400D02*
D03*
X1917700D02*
D03*
X1866900D02*
D03*
X1879600D02*
D03*
X1854200D02*
D03*
X1841500D02*
D03*
X1993900D02*
D03*
X2006600D02*
D03*
X2032000D02*
D03*
X2019300D02*
D03*
X1968500D02*
D03*
X1981200D02*
D03*
X1955800D02*
D03*
X1943100D02*
D03*
X1536700D02*
D03*
X1549400D02*
D03*
X1574800D02*
D03*
X1562100D02*
D03*
X1612900D02*
D03*
X1625600D02*
D03*
X1600200D02*
D03*
X1587500D02*
D03*
X1435100D02*
D03*
X1447800D02*
D03*
X1473200D02*
D03*
X1460500D02*
D03*
X1511300D02*
D03*
X1524000D02*
D03*
X1498600D02*
D03*
X1485900D02*
D03*
X1333500D02*
D03*
X1346200D02*
D03*
X1371600D02*
D03*
X1358900D02*
D03*
X1409700D02*
D03*
X1422400D02*
D03*
X1397000D02*
D03*
X1384300D02*
D03*
X1282700D02*
D03*
X1295400D02*
D03*
X1320800D02*
D03*
X1308100D02*
D03*
X1257300D02*
D03*
X1270000D02*
D03*
X1244600D02*
D03*
X1231900D02*
D03*
Y838200D02*
D03*
X1244600D02*
D03*
X1270000D02*
D03*
X1257300D02*
D03*
X1308100D02*
D03*
X1320800D02*
D03*
X1295400D02*
D03*
X1282700D02*
D03*
X1384300D02*
D03*
X1397000D02*
D03*
X1422400D02*
D03*
X1409700D02*
D03*
X1358900D02*
D03*
X1371600D02*
D03*
X1346200D02*
D03*
X1333500D02*
D03*
X1485900D02*
D03*
X1498600D02*
D03*
X1524000D02*
D03*
X1511300D02*
D03*
X1460500D02*
D03*
X1473200D02*
D03*
X1447800D02*
D03*
X1435100D02*
D03*
X1587500D02*
D03*
X1600200D02*
D03*
X1625600D02*
D03*
X1612900D02*
D03*
X1562100D02*
D03*
X1574800D02*
D03*
X1549400D02*
D03*
X1536700D02*
D03*
X1943100D02*
D03*
X1955800D02*
D03*
X1981200D02*
D03*
X1968500D02*
D03*
X2019300D02*
D03*
X2032000D02*
D03*
X2006600D02*
D03*
X1993900D02*
D03*
X1841500D02*
D03*
X1854200D02*
D03*
X1879600D02*
D03*
X1866900D02*
D03*
X1917700D02*
D03*
X1930400D02*
D03*
X1905000D02*
D03*
X1892300D02*
D03*
X1739900D02*
D03*
X1752600D02*
D03*
X1778000D02*
D03*
X1765300D02*
D03*
X1816100D02*
D03*
X1828800D02*
D03*
X1803400D02*
D03*
X1790700D02*
D03*
X1689100D02*
D03*
X1701800D02*
D03*
X1727200D02*
D03*
X1714500D02*
D03*
X1663700D02*
D03*
X1676400D02*
D03*
X1651000D02*
D03*
X1638300D02*
D03*
Y850900D02*
D03*
X1651000D02*
D03*
X1676400D02*
D03*
X1663700D02*
D03*
X1714500D02*
D03*
X1727200D02*
D03*
X1701800D02*
D03*
X1689100D02*
D03*
X1790700D02*
D03*
X1803400D02*
D03*
X1828800D02*
D03*
X1816100D02*
D03*
X1765300D02*
D03*
X1778000D02*
D03*
X1752600D02*
D03*
X1739900D02*
D03*
X1892300D02*
D03*
X1905000D02*
D03*
X1930400D02*
D03*
X1917700D02*
D03*
X1866900D02*
D03*
X1879600D02*
D03*
X1854200D02*
D03*
X1841500D02*
D03*
X1993900D02*
D03*
X2006600D02*
D03*
X2032000D02*
D03*
X2019300D02*
D03*
X1968500D02*
D03*
X1981200D02*
D03*
X1955800D02*
D03*
X1943100D02*
D03*
X1536700D02*
D03*
X1549400D02*
D03*
X1574800D02*
D03*
X1562100D02*
D03*
X1612900D02*
D03*
X1625600D02*
D03*
X1600200D02*
D03*
X1587500D02*
D03*
X1435100D02*
D03*
X1447800D02*
D03*
X1473200D02*
D03*
X1460500D02*
D03*
X1511300D02*
D03*
X1524000D02*
D03*
X1498600D02*
D03*
X1485900D02*
D03*
X1333500D02*
D03*
X1346200D02*
D03*
X1371600D02*
D03*
X1358900D02*
D03*
X1409700D02*
D03*
X1422400D02*
D03*
X1397000D02*
D03*
X1384300D02*
D03*
X1282700D02*
D03*
X1295400D02*
D03*
X1320800D02*
D03*
X1308100D02*
D03*
X1257300D02*
D03*
X1270000D02*
D03*
X1244600D02*
D03*
X1231900D02*
D03*
Y825500D02*
D03*
X1244600D02*
D03*
X1270000D02*
D03*
X1257300D02*
D03*
X1308100D02*
D03*
X1320800D02*
D03*
X1295400D02*
D03*
X1282700D02*
D03*
X1384300D02*
D03*
X1397000D02*
D03*
X1422400D02*
D03*
X1409700D02*
D03*
X1358900D02*
D03*
X1371600D02*
D03*
X1346200D02*
D03*
X1333500D02*
D03*
X1485900D02*
D03*
X1498600D02*
D03*
X1524000D02*
D03*
X1511300D02*
D03*
X1460500D02*
D03*
X1473200D02*
D03*
X1447800D02*
D03*
X1435100D02*
D03*
X1587500D02*
D03*
X1600200D02*
D03*
X1625600D02*
D03*
X1612900D02*
D03*
X1562100D02*
D03*
X1574800D02*
D03*
X1549400D02*
D03*
X1536700D02*
D03*
X1943100D02*
D03*
X1955800D02*
D03*
X1981200D02*
D03*
X1968500D02*
D03*
X2019300D02*
D03*
X2032000D02*
D03*
X2006600D02*
D03*
X1993900D02*
D03*
X1841500D02*
D03*
X1854200D02*
D03*
X1879600D02*
D03*
X1866900D02*
D03*
X1917700D02*
D03*
X1930400D02*
D03*
X1905000D02*
D03*
X1892300D02*
D03*
X1739900D02*
D03*
X1752600D02*
D03*
X1778000D02*
D03*
X1765300D02*
D03*
X1816100D02*
D03*
X1828800D02*
D03*
X1803400D02*
D03*
X1790700D02*
D03*
X1689100D02*
D03*
X1701800D02*
D03*
X1727200D02*
D03*
X1714500D02*
D03*
X1663700D02*
D03*
X1676400D02*
D03*
X1651000D02*
D03*
X1638300D02*
D03*
Y812800D02*
D03*
X1651000D02*
D03*
X1676400D02*
D03*
X1663700D02*
D03*
X1714500D02*
D03*
X1727200D02*
D03*
X1701800D02*
D03*
X1689100D02*
D03*
X1790700D02*
D03*
X1803400D02*
D03*
X1828800D02*
D03*
X1816100D02*
D03*
X1765300D02*
D03*
X1778000D02*
D03*
X1752600D02*
D03*
X1739900D02*
D03*
X1892300D02*
D03*
X1905000D02*
D03*
X1930400D02*
D03*
X1917700D02*
D03*
X1866900D02*
D03*
X1879600D02*
D03*
X1854200D02*
D03*
X1841500D02*
D03*
X1993900D02*
D03*
X2006600D02*
D03*
X2032000D02*
D03*
X2019300D02*
D03*
X1968500D02*
D03*
X1981200D02*
D03*
X1955800D02*
D03*
X1943100D02*
D03*
X1536700D02*
D03*
X1549400D02*
D03*
X1574800D02*
D03*
X1562100D02*
D03*
X1612900D02*
D03*
X1625600D02*
D03*
X1600200D02*
D03*
X1587500D02*
D03*
X1435100D02*
D03*
X1447800D02*
D03*
X1473200D02*
D03*
X1460500D02*
D03*
X1511300D02*
D03*
X1524000D02*
D03*
X1498600D02*
D03*
X1485900D02*
D03*
X1333500D02*
D03*
X1346200D02*
D03*
X1371600D02*
D03*
X1358900D02*
D03*
X1409700D02*
D03*
X1422400D02*
D03*
X1397000D02*
D03*
X1384300D02*
D03*
X1282700D02*
D03*
X1295400D02*
D03*
X1320800D02*
D03*
X1308100D02*
D03*
X1257300D02*
D03*
X1270000D02*
D03*
X1244600D02*
D03*
X1231900D02*
D03*
Y711200D02*
D03*
X1244600D02*
D03*
X1270000D02*
D03*
X1257300D02*
D03*
X1308100D02*
D03*
X1320800D02*
D03*
X1295400D02*
D03*
X1282700D02*
D03*
X1384300D02*
D03*
X1397000D02*
D03*
X1422400D02*
D03*
X1409700D02*
D03*
X1358900D02*
D03*
X1371600D02*
D03*
X1346200D02*
D03*
X1333500D02*
D03*
X1485900D02*
D03*
X1498600D02*
D03*
X1524000D02*
D03*
X1511300D02*
D03*
X1460500D02*
D03*
X1473200D02*
D03*
X1447800D02*
D03*
X1435100D02*
D03*
X1587500D02*
D03*
X1600200D02*
D03*
X1625600D02*
D03*
X1612900D02*
D03*
X1562100D02*
D03*
X1574800D02*
D03*
X1549400D02*
D03*
X1536700D02*
D03*
X1943100D02*
D03*
X1955800D02*
D03*
X1981200D02*
D03*
X1968500D02*
D03*
X2019300D02*
D03*
X2032000D02*
D03*
X2006600D02*
D03*
X1993900D02*
D03*
X1841500D02*
D03*
X1854200D02*
D03*
X1879600D02*
D03*
X1866900D02*
D03*
X1917700D02*
D03*
X1930400D02*
D03*
X1905000D02*
D03*
X1892300D02*
D03*
X1739900D02*
D03*
X1752600D02*
D03*
X1778000D02*
D03*
X1765300D02*
D03*
X1816100D02*
D03*
X1828800D02*
D03*
X1803400D02*
D03*
X1790700D02*
D03*
X1689100D02*
D03*
X1701800D02*
D03*
X1727200D02*
D03*
X1714500D02*
D03*
X1663700D02*
D03*
X1676400D02*
D03*
X1651000D02*
D03*
X1638300D02*
D03*
Y723900D02*
D03*
X1651000D02*
D03*
X1676400D02*
D03*
X1663700D02*
D03*
X1714500D02*
D03*
X1727200D02*
D03*
X1701800D02*
D03*
X1689100D02*
D03*
X1790700D02*
D03*
X1803400D02*
D03*
X1828800D02*
D03*
X1816100D02*
D03*
X1765300D02*
D03*
X1778000D02*
D03*
X1752600D02*
D03*
X1739900D02*
D03*
X1892300D02*
D03*
X1905000D02*
D03*
X1930400D02*
D03*
X1917700D02*
D03*
X1866900D02*
D03*
X1879600D02*
D03*
X1854200D02*
D03*
X1841500D02*
D03*
X1993900D02*
D03*
X2006600D02*
D03*
X2032000D02*
D03*
X2019300D02*
D03*
X1968500D02*
D03*
X1981200D02*
D03*
X1955800D02*
D03*
X1943100D02*
D03*
X1536700D02*
D03*
X1549400D02*
D03*
X1574800D02*
D03*
X1562100D02*
D03*
X1612900D02*
D03*
X1625600D02*
D03*
X1600200D02*
D03*
X1587500D02*
D03*
X1435100D02*
D03*
X1447800D02*
D03*
X1473200D02*
D03*
X1460500D02*
D03*
X1511300D02*
D03*
X1524000D02*
D03*
X1498600D02*
D03*
X1485900D02*
D03*
X1333500D02*
D03*
X1346200D02*
D03*
X1371600D02*
D03*
X1358900D02*
D03*
X1409700D02*
D03*
X1422400D02*
D03*
X1397000D02*
D03*
X1384300D02*
D03*
X1282700D02*
D03*
X1295400D02*
D03*
X1320800D02*
D03*
X1308100D02*
D03*
X1257300D02*
D03*
X1270000D02*
D03*
X1244600D02*
D03*
X1231900D02*
D03*
Y749300D02*
D03*
X1244600D02*
D03*
X1270000D02*
D03*
X1257300D02*
D03*
X1308100D02*
D03*
X1320800D02*
D03*
X1295400D02*
D03*
X1282700D02*
D03*
X1384300D02*
D03*
X1397000D02*
D03*
X1422400D02*
D03*
X1409700D02*
D03*
X1358900D02*
D03*
X1371600D02*
D03*
X1346200D02*
D03*
X1333500D02*
D03*
X1485900D02*
D03*
X1498600D02*
D03*
X1524000D02*
D03*
X1511300D02*
D03*
X1460500D02*
D03*
X1473200D02*
D03*
X1447800D02*
D03*
X1435100D02*
D03*
X1587500D02*
D03*
X1600200D02*
D03*
X1625600D02*
D03*
X1612900D02*
D03*
X1562100D02*
D03*
X1574800D02*
D03*
X1549400D02*
D03*
X1536700D02*
D03*
X1943100D02*
D03*
X1955800D02*
D03*
X1981200D02*
D03*
X1968500D02*
D03*
X2019300D02*
D03*
X2032000D02*
D03*
X2006600D02*
D03*
X1993900D02*
D03*
X1841500D02*
D03*
X1854200D02*
D03*
X1879600D02*
D03*
X1866900D02*
D03*
X1917700D02*
D03*
X1930400D02*
D03*
X1905000D02*
D03*
X1892300D02*
D03*
X1739900D02*
D03*
X1752600D02*
D03*
X1778000D02*
D03*
X1765300D02*
D03*
X1816100D02*
D03*
X1828800D02*
D03*
X1803400D02*
D03*
X1790700D02*
D03*
X1689100D02*
D03*
X1701800D02*
D03*
X1727200D02*
D03*
X1714500D02*
D03*
X1663700D02*
D03*
X1676400D02*
D03*
X1651000D02*
D03*
X1638300D02*
D03*
Y736600D02*
D03*
X1651000D02*
D03*
X1676400D02*
D03*
X1663700D02*
D03*
X1714500D02*
D03*
X1727200D02*
D03*
X1701800D02*
D03*
X1689100D02*
D03*
X1790700D02*
D03*
X1803400D02*
D03*
X1828800D02*
D03*
X1816100D02*
D03*
X1765300D02*
D03*
X1778000D02*
D03*
X1752600D02*
D03*
X1739900D02*
D03*
X1892300D02*
D03*
X1905000D02*
D03*
X1930400D02*
D03*
X1917700D02*
D03*
X1866900D02*
D03*
X1879600D02*
D03*
X1854200D02*
D03*
X1841500D02*
D03*
X1993900D02*
D03*
X2006600D02*
D03*
X2032000D02*
D03*
X2019300D02*
D03*
X1968500D02*
D03*
X1981200D02*
D03*
X1955800D02*
D03*
X1943100D02*
D03*
X1536700D02*
D03*
X1549400D02*
D03*
X1574800D02*
D03*
X1562100D02*
D03*
X1612900D02*
D03*
X1625600D02*
D03*
X1600200D02*
D03*
X1587500D02*
D03*
X1435100D02*
D03*
X1447800D02*
D03*
X1473200D02*
D03*
X1460500D02*
D03*
X1511300D02*
D03*
X1524000D02*
D03*
X1498600D02*
D03*
X1485900D02*
D03*
X1333500D02*
D03*
X1346200D02*
D03*
X1371600D02*
D03*
X1358900D02*
D03*
X1409700D02*
D03*
X1422400D02*
D03*
X1397000D02*
D03*
X1384300D02*
D03*
X1282700D02*
D03*
X1295400D02*
D03*
X1320800D02*
D03*
X1308100D02*
D03*
X1257300D02*
D03*
X1270000D02*
D03*
X1244600D02*
D03*
X1231900D02*
D03*
Y685800D02*
D03*
X1244600D02*
D03*
X1270000D02*
D03*
X1257300D02*
D03*
X1308100D02*
D03*
X1320800D02*
D03*
X1295400D02*
D03*
X1282700D02*
D03*
X1384300D02*
D03*
X1397000D02*
D03*
X1422400D02*
D03*
X1409700D02*
D03*
X1358900D02*
D03*
X1371600D02*
D03*
X1346200D02*
D03*
X1333500D02*
D03*
X1485900D02*
D03*
X1498600D02*
D03*
X1524000D02*
D03*
X1511300D02*
D03*
X1460500D02*
D03*
X1473200D02*
D03*
X1447800D02*
D03*
X1435100D02*
D03*
X1587500D02*
D03*
X1600200D02*
D03*
X1625600D02*
D03*
X1612900D02*
D03*
X1562100D02*
D03*
X1574800D02*
D03*
X1549400D02*
D03*
X1536700D02*
D03*
X1943100D02*
D03*
X1955800D02*
D03*
X1981200D02*
D03*
X1968500D02*
D03*
X2019300D02*
D03*
X2032000D02*
D03*
X2006600D02*
D03*
X1993900D02*
D03*
X1841500D02*
D03*
X1854200D02*
D03*
X1879600D02*
D03*
X1866900D02*
D03*
X1917700D02*
D03*
X1930400D02*
D03*
X1905000D02*
D03*
X1892300D02*
D03*
X1739900D02*
D03*
X1752600D02*
D03*
X1778000D02*
D03*
X1765300D02*
D03*
X1816100D02*
D03*
X1828800D02*
D03*
X1803400D02*
D03*
X1790700D02*
D03*
X1689100D02*
D03*
X1701800D02*
D03*
X1727200D02*
D03*
X1714500D02*
D03*
X1663700D02*
D03*
X1676400D02*
D03*
X1651000D02*
D03*
X1638300D02*
D03*
Y698500D02*
D03*
X1651000D02*
D03*
X1676400D02*
D03*
X1663700D02*
D03*
X1714500D02*
D03*
X1727200D02*
D03*
X1701800D02*
D03*
X1689100D02*
D03*
X1790700D02*
D03*
X1803400D02*
D03*
X1828800D02*
D03*
X1816100D02*
D03*
X1765300D02*
D03*
X1778000D02*
D03*
X1752600D02*
D03*
X1739900D02*
D03*
X1892300D02*
D03*
X1905000D02*
D03*
X1930400D02*
D03*
X1917700D02*
D03*
X1866900D02*
D03*
X1879600D02*
D03*
X1854200D02*
D03*
X1841500D02*
D03*
X1993900D02*
D03*
X2006600D02*
D03*
X2032000D02*
D03*
X2019300D02*
D03*
X1968500D02*
D03*
X1981200D02*
D03*
X1955800D02*
D03*
X1943100D02*
D03*
X1536700D02*
D03*
X1549400D02*
D03*
X1574800D02*
D03*
X1562100D02*
D03*
X1612900D02*
D03*
X1625600D02*
D03*
X1600200D02*
D03*
X1587500D02*
D03*
X1435100D02*
D03*
X1447800D02*
D03*
X1473200D02*
D03*
X1460500D02*
D03*
X1511300D02*
D03*
X1524000D02*
D03*
X1498600D02*
D03*
X1485900D02*
D03*
X1333500D02*
D03*
X1346200D02*
D03*
X1371600D02*
D03*
X1358900D02*
D03*
X1409700D02*
D03*
X1422400D02*
D03*
X1397000D02*
D03*
X1384300D02*
D03*
X1282700D02*
D03*
X1295400D02*
D03*
X1320800D02*
D03*
X1308100D02*
D03*
X1257300D02*
D03*
X1270000D02*
D03*
X1244600D02*
D03*
X1231900D02*
D03*
Y673100D02*
D03*
X1244600D02*
D03*
X1270000D02*
D03*
X1257300D02*
D03*
X1308100D02*
D03*
X1320800D02*
D03*
X1295400D02*
D03*
X1282700D02*
D03*
X1384300D02*
D03*
X1397000D02*
D03*
X1422400D02*
D03*
X1409700D02*
D03*
X1358900D02*
D03*
X1371600D02*
D03*
X1346200D02*
D03*
X1333500D02*
D03*
X1485900D02*
D03*
X1498600D02*
D03*
X1524000D02*
D03*
X1511300D02*
D03*
X1460500D02*
D03*
X1473200D02*
D03*
X1447800D02*
D03*
X1435100D02*
D03*
X1587500D02*
D03*
X1600200D02*
D03*
X1625600D02*
D03*
X1612900D02*
D03*
X1562100D02*
D03*
X1574800D02*
D03*
X1549400D02*
D03*
X1536700D02*
D03*
X1943100D02*
D03*
X1955800D02*
D03*
X1981200D02*
D03*
X1968500D02*
D03*
X2019300D02*
D03*
X2032000D02*
D03*
X2006600D02*
D03*
X1993900D02*
D03*
X1841500D02*
D03*
X1854200D02*
D03*
X1879600D02*
D03*
X1866900D02*
D03*
X1917700D02*
D03*
X1930400D02*
D03*
X1905000D02*
D03*
X1892300D02*
D03*
X1739900D02*
D03*
X1752600D02*
D03*
X1778000D02*
D03*
X1765300D02*
D03*
X1816100D02*
D03*
X1828800D02*
D03*
X1803400D02*
D03*
X1790700D02*
D03*
X1689100D02*
D03*
X1701800D02*
D03*
X1727200D02*
D03*
X1714500D02*
D03*
X1663700D02*
D03*
X1676400D02*
D03*
X1651000D02*
D03*
X1638300D02*
D03*
X1231900Y469900D02*
D03*
X1244600D02*
D03*
X1270000D02*
D03*
X1257300D02*
D03*
X1308100D02*
D03*
X1320800D02*
D03*
X1295400D02*
D03*
X1282700D02*
D03*
X1384300D02*
D03*
X1397000D02*
D03*
X1422400D02*
D03*
X1409700D02*
D03*
X1358900D02*
D03*
X1371600D02*
D03*
X1346200D02*
D03*
X1333500D02*
D03*
X1485900D02*
D03*
X1498600D02*
D03*
X1524000D02*
D03*
X1511300D02*
D03*
X1460500D02*
D03*
X1473200D02*
D03*
X1447800D02*
D03*
X1435100D02*
D03*
X1587500D02*
D03*
X1600200D02*
D03*
X1625600D02*
D03*
X1612900D02*
D03*
X1562100D02*
D03*
X1574800D02*
D03*
X1549400D02*
D03*
X1536700D02*
D03*
X1943100D02*
D03*
X1955800D02*
D03*
X1981200D02*
D03*
X1968500D02*
D03*
X2019300D02*
D03*
X2032000D02*
D03*
X2006600D02*
D03*
X1993900D02*
D03*
X1841500D02*
D03*
X1854200D02*
D03*
X1879600D02*
D03*
X1866900D02*
D03*
X1917700D02*
D03*
X1930400D02*
D03*
X1905000D02*
D03*
X1892300D02*
D03*
X1739900D02*
D03*
X1752600D02*
D03*
X1778000D02*
D03*
X1765300D02*
D03*
X1816100D02*
D03*
X1828800D02*
D03*
X1803400D02*
D03*
X1790700D02*
D03*
X1689100D02*
D03*
X1701800D02*
D03*
X1727200D02*
D03*
X1714500D02*
D03*
X1663700D02*
D03*
X1676400D02*
D03*
X1651000D02*
D03*
X1638300D02*
D03*
Y482600D02*
D03*
X1651000D02*
D03*
X1676400D02*
D03*
X1663700D02*
D03*
X1714500D02*
D03*
X1727200D02*
D03*
X1701800D02*
D03*
X1689100D02*
D03*
X1790700D02*
D03*
X1803400D02*
D03*
X1828800D02*
D03*
X1816100D02*
D03*
X1765300D02*
D03*
X1778000D02*
D03*
X1752600D02*
D03*
X1739900D02*
D03*
X1892300D02*
D03*
X1905000D02*
D03*
X1930400D02*
D03*
X1917700D02*
D03*
X1866900D02*
D03*
X1879600D02*
D03*
X1854200D02*
D03*
X1841500D02*
D03*
X1993900D02*
D03*
X2006600D02*
D03*
X2032000D02*
D03*
X2019300D02*
D03*
X1968500D02*
D03*
X1981200D02*
D03*
X1955800D02*
D03*
X1943100D02*
D03*
X1536700D02*
D03*
X1549400D02*
D03*
X1574800D02*
D03*
X1562100D02*
D03*
X1612900D02*
D03*
X1625600D02*
D03*
X1600200D02*
D03*
X1587500D02*
D03*
X1435100D02*
D03*
X1447800D02*
D03*
X1473200D02*
D03*
X1460500D02*
D03*
X1511300D02*
D03*
X1524000D02*
D03*
X1498600D02*
D03*
X1485900D02*
D03*
X1333500D02*
D03*
X1346200D02*
D03*
X1371600D02*
D03*
X1358900D02*
D03*
X1409700D02*
D03*
X1422400D02*
D03*
X1397000D02*
D03*
X1384300D02*
D03*
X1282700D02*
D03*
X1295400D02*
D03*
X1320800D02*
D03*
X1308100D02*
D03*
X1257300D02*
D03*
X1270000D02*
D03*
X1244600D02*
D03*
X1231900D02*
D03*
Y508000D02*
D03*
X1244600D02*
D03*
X1270000D02*
D03*
X1257300D02*
D03*
X1308100D02*
D03*
X1320800D02*
D03*
X1295400D02*
D03*
X1282700D02*
D03*
X1384300D02*
D03*
X1397000D02*
D03*
X1422400D02*
D03*
X1409700D02*
D03*
X1358900D02*
D03*
X1371600D02*
D03*
X1346200D02*
D03*
X1333500D02*
D03*
X1485900D02*
D03*
X1498600D02*
D03*
X1524000D02*
D03*
X1511300D02*
D03*
X1460500D02*
D03*
X1473200D02*
D03*
X1447800D02*
D03*
X1435100D02*
D03*
X1587500D02*
D03*
X1600200D02*
D03*
X1625600D02*
D03*
X1612900D02*
D03*
X1562100D02*
D03*
X1574800D02*
D03*
X1549400D02*
D03*
X1536700D02*
D03*
X1943100D02*
D03*
X1955800D02*
D03*
X1981200D02*
D03*
X1968500D02*
D03*
X2019300D02*
D03*
X2032000D02*
D03*
X2006600D02*
D03*
X1993900D02*
D03*
X1841500D02*
D03*
X1854200D02*
D03*
X1879600D02*
D03*
X1866900D02*
D03*
X1917700D02*
D03*
X1930400D02*
D03*
X1905000D02*
D03*
X1892300D02*
D03*
X1739900D02*
D03*
X1752600D02*
D03*
X1778000D02*
D03*
X1765300D02*
D03*
X1816100D02*
D03*
X1828800D02*
D03*
X1803400D02*
D03*
X1790700D02*
D03*
X1689100D02*
D03*
X1701800D02*
D03*
X1727200D02*
D03*
X1714500D02*
D03*
X1663700D02*
D03*
X1676400D02*
D03*
X1651000D02*
D03*
X1638300D02*
D03*
Y495300D02*
D03*
X1651000D02*
D03*
X1676400D02*
D03*
X1663700D02*
D03*
X1714500D02*
D03*
X1727200D02*
D03*
X1701800D02*
D03*
X1689100D02*
D03*
X1790700D02*
D03*
X1803400D02*
D03*
X1828800D02*
D03*
X1816100D02*
D03*
X1765300D02*
D03*
X1778000D02*
D03*
X1752600D02*
D03*
X1739900D02*
D03*
X1892300D02*
D03*
X1905000D02*
D03*
X1930400D02*
D03*
X1917700D02*
D03*
X1866900D02*
D03*
X1879600D02*
D03*
X1854200D02*
D03*
X1841500D02*
D03*
X1993900D02*
D03*
X2006600D02*
D03*
X2032000D02*
D03*
X2019300D02*
D03*
X1968500D02*
D03*
X1981200D02*
D03*
X1955800D02*
D03*
X1943100D02*
D03*
X1536700D02*
D03*
X1549400D02*
D03*
X1574800D02*
D03*
X1562100D02*
D03*
X1612900D02*
D03*
X1625600D02*
D03*
X1600200D02*
D03*
X1587500D02*
D03*
X1435100D02*
D03*
X1447800D02*
D03*
X1473200D02*
D03*
X1460500D02*
D03*
X1511300D02*
D03*
X1524000D02*
D03*
X1498600D02*
D03*
X1485900D02*
D03*
X1333500D02*
D03*
X1346200D02*
D03*
X1371600D02*
D03*
X1358900D02*
D03*
X1409700D02*
D03*
X1422400D02*
D03*
X1397000D02*
D03*
X1384300D02*
D03*
X1282700D02*
D03*
X1295400D02*
D03*
X1320800D02*
D03*
X1308100D02*
D03*
X1257300D02*
D03*
X1270000D02*
D03*
X1244600D02*
D03*
X1231900D02*
D03*
Y546100D02*
D03*
X1244600D02*
D03*
X1270000D02*
D03*
X1257300D02*
D03*
X1308100D02*
D03*
X1320800D02*
D03*
X1295400D02*
D03*
X1282700D02*
D03*
X1384300D02*
D03*
X1397000D02*
D03*
X1422400D02*
D03*
X1409700D02*
D03*
X1358900D02*
D03*
X1371600D02*
D03*
X1346200D02*
D03*
X1333500D02*
D03*
X1485900D02*
D03*
X1498600D02*
D03*
X1524000D02*
D03*
X1511300D02*
D03*
X1460500D02*
D03*
X1473200D02*
D03*
X1447800D02*
D03*
X1435100D02*
D03*
X1587500D02*
D03*
X1600200D02*
D03*
X1625600D02*
D03*
X1612900D02*
D03*
X1562100D02*
D03*
X1574800D02*
D03*
X1549400D02*
D03*
X1536700D02*
D03*
X1943100D02*
D03*
X1955800D02*
D03*
X1981200D02*
D03*
X1968500D02*
D03*
X2019300D02*
D03*
X2032000D02*
D03*
X2006600D02*
D03*
X1993900D02*
D03*
X1841500D02*
D03*
X1854200D02*
D03*
X1879600D02*
D03*
X1866900D02*
D03*
X1917700D02*
D03*
X1930400D02*
D03*
X1905000D02*
D03*
X1892300D02*
D03*
X1739900D02*
D03*
X1752600D02*
D03*
X1778000D02*
D03*
X1765300D02*
D03*
X1816100D02*
D03*
X1828800D02*
D03*
X1803400D02*
D03*
X1790700D02*
D03*
X1689100D02*
D03*
X1701800D02*
D03*
X1727200D02*
D03*
X1714500D02*
D03*
X1663700D02*
D03*
X1676400D02*
D03*
X1651000D02*
D03*
X1638300D02*
D03*
Y558800D02*
D03*
X1651000D02*
D03*
X1676400D02*
D03*
X1663700D02*
D03*
X1714500D02*
D03*
X1727200D02*
D03*
X1701800D02*
D03*
X1689100D02*
D03*
X1790700D02*
D03*
X1803400D02*
D03*
X1828800D02*
D03*
X1816100D02*
D03*
X1765300D02*
D03*
X1778000D02*
D03*
X1752600D02*
D03*
X1739900D02*
D03*
X1892300D02*
D03*
X1905000D02*
D03*
X1930400D02*
D03*
X1917700D02*
D03*
X1866900D02*
D03*
X1879600D02*
D03*
X1854200D02*
D03*
X1841500D02*
D03*
X1993900D02*
D03*
X2006600D02*
D03*
X2032000D02*
D03*
X2019300D02*
D03*
X1968500D02*
D03*
X1981200D02*
D03*
X1955800D02*
D03*
X1943100D02*
D03*
X1536700D02*
D03*
X1549400D02*
D03*
X1574800D02*
D03*
X1562100D02*
D03*
X1612900D02*
D03*
X1625600D02*
D03*
X1600200D02*
D03*
X1587500D02*
D03*
X1435100D02*
D03*
X1447800D02*
D03*
X1473200D02*
D03*
X1460500D02*
D03*
X1511300D02*
D03*
X1524000D02*
D03*
X1498600D02*
D03*
X1485900D02*
D03*
X1333500D02*
D03*
X1346200D02*
D03*
X1371600D02*
D03*
X1358900D02*
D03*
X1409700D02*
D03*
X1422400D02*
D03*
X1397000D02*
D03*
X1384300D02*
D03*
X1282700D02*
D03*
X1295400D02*
D03*
X1320800D02*
D03*
X1308100D02*
D03*
X1257300D02*
D03*
X1270000D02*
D03*
X1244600D02*
D03*
X1231900D02*
D03*
Y533400D02*
D03*
X1244600D02*
D03*
X1270000D02*
D03*
X1257300D02*
D03*
X1308100D02*
D03*
X1320800D02*
D03*
X1295400D02*
D03*
X1282700D02*
D03*
X1384300D02*
D03*
X1397000D02*
D03*
X1422400D02*
D03*
X1409700D02*
D03*
X1358900D02*
D03*
X1371600D02*
D03*
X1346200D02*
D03*
X1333500D02*
D03*
X1485900D02*
D03*
X1498600D02*
D03*
X1524000D02*
D03*
X1511300D02*
D03*
X1460500D02*
D03*
X1473200D02*
D03*
X1447800D02*
D03*
X1435100D02*
D03*
X1587500D02*
D03*
X1600200D02*
D03*
X1625600D02*
D03*
X1612900D02*
D03*
X1562100D02*
D03*
X1574800D02*
D03*
X1549400D02*
D03*
X1536700D02*
D03*
X1943100D02*
D03*
X1955800D02*
D03*
X1981200D02*
D03*
X1968500D02*
D03*
X2019300D02*
D03*
X2032000D02*
D03*
X2006600D02*
D03*
X1993900D02*
D03*
X1841500D02*
D03*
X1854200D02*
D03*
X1879600D02*
D03*
X1866900D02*
D03*
X1917700D02*
D03*
X1930400D02*
D03*
X1905000D02*
D03*
X1892300D02*
D03*
X1739900D02*
D03*
X1752600D02*
D03*
X1778000D02*
D03*
X1765300D02*
D03*
X1816100D02*
D03*
X1828800D02*
D03*
X1803400D02*
D03*
X1790700D02*
D03*
X1689100D02*
D03*
X1701800D02*
D03*
X1727200D02*
D03*
X1714500D02*
D03*
X1663700D02*
D03*
X1676400D02*
D03*
X1651000D02*
D03*
X1638300D02*
D03*
Y520700D02*
D03*
X1651000D02*
D03*
X1676400D02*
D03*
X1663700D02*
D03*
X1714500D02*
D03*
X1727200D02*
D03*
X1701800D02*
D03*
X1689100D02*
D03*
X1790700D02*
D03*
X1803400D02*
D03*
X1828800D02*
D03*
X1816100D02*
D03*
X1765300D02*
D03*
X1778000D02*
D03*
X1752600D02*
D03*
X1739900D02*
D03*
X1892300D02*
D03*
X1905000D02*
D03*
X1930400D02*
D03*
X1917700D02*
D03*
X1866900D02*
D03*
X1879600D02*
D03*
X1854200D02*
D03*
X1841500D02*
D03*
X1993900D02*
D03*
X2006600D02*
D03*
X2032000D02*
D03*
X2019300D02*
D03*
X1968500D02*
D03*
X1981200D02*
D03*
X1955800D02*
D03*
X1943100D02*
D03*
X1536700D02*
D03*
X1549400D02*
D03*
X1574800D02*
D03*
X1562100D02*
D03*
X1612900D02*
D03*
X1625600D02*
D03*
X1600200D02*
D03*
X1587500D02*
D03*
X1435100D02*
D03*
X1447800D02*
D03*
X1473200D02*
D03*
X1460500D02*
D03*
X1511300D02*
D03*
X1524000D02*
D03*
X1498600D02*
D03*
X1485900D02*
D03*
X1333500D02*
D03*
X1346200D02*
D03*
X1371600D02*
D03*
X1358900D02*
D03*
X1409700D02*
D03*
X1422400D02*
D03*
X1397000D02*
D03*
X1384300D02*
D03*
X1282700D02*
D03*
X1295400D02*
D03*
X1320800D02*
D03*
X1308100D02*
D03*
X1257300D02*
D03*
X1270000D02*
D03*
X1244600D02*
D03*
X1231900D02*
D03*
Y622300D02*
D03*
X1244600D02*
D03*
X1270000D02*
D03*
X1257300D02*
D03*
X1308100D02*
D03*
X1320800D02*
D03*
X1295400D02*
D03*
X1282700D02*
D03*
X1384300D02*
D03*
X1397000D02*
D03*
X1422400D02*
D03*
X1409700D02*
D03*
X1358900D02*
D03*
X1371600D02*
D03*
X1346200D02*
D03*
X1333500D02*
D03*
X1485900D02*
D03*
X1498600D02*
D03*
X1524000D02*
D03*
X1511300D02*
D03*
X1460500D02*
D03*
X1473200D02*
D03*
X1447800D02*
D03*
X1435100D02*
D03*
X1587500D02*
D03*
X1600200D02*
D03*
X1625600D02*
D03*
X1612900D02*
D03*
X1562100D02*
D03*
X1574800D02*
D03*
X1549400D02*
D03*
X1536700D02*
D03*
X1943100D02*
D03*
X1955800D02*
D03*
X1981200D02*
D03*
X1968500D02*
D03*
X2019300D02*
D03*
X2032000D02*
D03*
X2006600D02*
D03*
X1993900D02*
D03*
X1841500D02*
D03*
X1854200D02*
D03*
X1879600D02*
D03*
X1866900D02*
D03*
X1917700D02*
D03*
X1930400D02*
D03*
X1905000D02*
D03*
X1892300D02*
D03*
X1739900D02*
D03*
X1752600D02*
D03*
X1778000D02*
D03*
X1765300D02*
D03*
X1816100D02*
D03*
X1828800D02*
D03*
X1803400D02*
D03*
X1790700D02*
D03*
X1689100D02*
D03*
X1701800D02*
D03*
X1727200D02*
D03*
X1714500D02*
D03*
X1663700D02*
D03*
X1676400D02*
D03*
X1651000D02*
D03*
X1638300D02*
D03*
Y635000D02*
D03*
X1651000D02*
D03*
X1676400D02*
D03*
X1663700D02*
D03*
X1714500D02*
D03*
X1727200D02*
D03*
X1701800D02*
D03*
X1689100D02*
D03*
X1790700D02*
D03*
X1803400D02*
D03*
X1828800D02*
D03*
X1816100D02*
D03*
X1765300D02*
D03*
X1778000D02*
D03*
X1752600D02*
D03*
X1739900D02*
D03*
X1892300D02*
D03*
X1905000D02*
D03*
X1930400D02*
D03*
X1917700D02*
D03*
X1866900D02*
D03*
X1879600D02*
D03*
X1854200D02*
D03*
X1841500D02*
D03*
X1993900D02*
D03*
X2006600D02*
D03*
X2032000D02*
D03*
X2019300D02*
D03*
X1968500D02*
D03*
X1981200D02*
D03*
X1955800D02*
D03*
X1943100D02*
D03*
X1536700D02*
D03*
X1549400D02*
D03*
X1574800D02*
D03*
X1562100D02*
D03*
X1612900D02*
D03*
X1625600D02*
D03*
X1600200D02*
D03*
X1587500D02*
D03*
X1435100D02*
D03*
X1447800D02*
D03*
X1473200D02*
D03*
X1460500D02*
D03*
X1511300D02*
D03*
X1524000D02*
D03*
X1498600D02*
D03*
X1485900D02*
D03*
X1333500D02*
D03*
X1346200D02*
D03*
X1371600D02*
D03*
X1358900D02*
D03*
X1409700D02*
D03*
X1422400D02*
D03*
X1397000D02*
D03*
X1384300D02*
D03*
X1282700D02*
D03*
X1295400D02*
D03*
X1320800D02*
D03*
X1308100D02*
D03*
X1257300D02*
D03*
X1270000D02*
D03*
X1244600D02*
D03*
X1231900D02*
D03*
Y660400D02*
D03*
X1244600D02*
D03*
X1270000D02*
D03*
X1257300D02*
D03*
X1308100D02*
D03*
X1320800D02*
D03*
X1295400D02*
D03*
X1282700D02*
D03*
X1384300D02*
D03*
X1397000D02*
D03*
X1422400D02*
D03*
X1409700D02*
D03*
X1358900D02*
D03*
X1371600D02*
D03*
X1346200D02*
D03*
X1333500D02*
D03*
X1485900D02*
D03*
X1498600D02*
D03*
X1524000D02*
D03*
X1511300D02*
D03*
X1460500D02*
D03*
X1473200D02*
D03*
X1447800D02*
D03*
X1435100D02*
D03*
X1587500D02*
D03*
X1600200D02*
D03*
X1625600D02*
D03*
X1612900D02*
D03*
X1562100D02*
D03*
X1574800D02*
D03*
X1549400D02*
D03*
X1536700D02*
D03*
X1943100D02*
D03*
X1955800D02*
D03*
X1981200D02*
D03*
X1968500D02*
D03*
X2019300D02*
D03*
X2032000D02*
D03*
X2006600D02*
D03*
X1993900D02*
D03*
X1841500D02*
D03*
X1854200D02*
D03*
X1879600D02*
D03*
X1866900D02*
D03*
X1917700D02*
D03*
X1930400D02*
D03*
X1905000D02*
D03*
X1892300D02*
D03*
X1739900D02*
D03*
X1752600D02*
D03*
X1778000D02*
D03*
X1765300D02*
D03*
X1816100D02*
D03*
X1828800D02*
D03*
X1803400D02*
D03*
X1790700D02*
D03*
X1689100D02*
D03*
X1701800D02*
D03*
X1727200D02*
D03*
X1714500D02*
D03*
X1663700D02*
D03*
X1676400D02*
D03*
X1651000D02*
D03*
X1638300D02*
D03*
Y647700D02*
D03*
X1651000D02*
D03*
X1676400D02*
D03*
X1663700D02*
D03*
X1714500D02*
D03*
X1727200D02*
D03*
X1701800D02*
D03*
X1689100D02*
D03*
X1790700D02*
D03*
X1803400D02*
D03*
X1828800D02*
D03*
X1816100D02*
D03*
X1765300D02*
D03*
X1778000D02*
D03*
X1752600D02*
D03*
X1739900D02*
D03*
X1892300D02*
D03*
X1905000D02*
D03*
X1930400D02*
D03*
X1917700D02*
D03*
X1866900D02*
D03*
X1879600D02*
D03*
X1854200D02*
D03*
X1841500D02*
D03*
X1993900D02*
D03*
X2006600D02*
D03*
X2032000D02*
D03*
X2019300D02*
D03*
X1968500D02*
D03*
X1981200D02*
D03*
X1955800D02*
D03*
X1943100D02*
D03*
X1536700D02*
D03*
X1549400D02*
D03*
X1574800D02*
D03*
X1562100D02*
D03*
X1612900D02*
D03*
X1625600D02*
D03*
X1600200D02*
D03*
X1587500D02*
D03*
X1435100D02*
D03*
X1447800D02*
D03*
X1473200D02*
D03*
X1460500D02*
D03*
X1511300D02*
D03*
X1524000D02*
D03*
X1498600D02*
D03*
X1485900D02*
D03*
X1333500D02*
D03*
X1346200D02*
D03*
X1371600D02*
D03*
X1358900D02*
D03*
X1409700D02*
D03*
X1422400D02*
D03*
X1397000D02*
D03*
X1384300D02*
D03*
X1282700D02*
D03*
X1295400D02*
D03*
X1320800D02*
D03*
X1308100D02*
D03*
X1257300D02*
D03*
X1270000D02*
D03*
X1244600D02*
D03*
X1231900D02*
D03*
Y596900D02*
D03*
X1244600D02*
D03*
X1270000D02*
D03*
X1257300D02*
D03*
X1308100D02*
D03*
X1320800D02*
D03*
X1295400D02*
D03*
X1282700D02*
D03*
X1384300D02*
D03*
X1397000D02*
D03*
X1422400D02*
D03*
X1409700D02*
D03*
X1358900D02*
D03*
X1371600D02*
D03*
X1346200D02*
D03*
X1333500D02*
D03*
X1485900D02*
D03*
X1498600D02*
D03*
X1524000D02*
D03*
X1511300D02*
D03*
X1460500D02*
D03*
X1473200D02*
D03*
X1447800D02*
D03*
X1435100D02*
D03*
X1587500D02*
D03*
X1600200D02*
D03*
X1625600D02*
D03*
X1612900D02*
D03*
X1562100D02*
D03*
X1574800D02*
D03*
X1549400D02*
D03*
X1536700D02*
D03*
X1943100D02*
D03*
X1955800D02*
D03*
X1981200D02*
D03*
X1968500D02*
D03*
X2019300D02*
D03*
X2032000D02*
D03*
X2006600D02*
D03*
X1993900D02*
D03*
X1841500D02*
D03*
X1854200D02*
D03*
X1879600D02*
D03*
X1866900D02*
D03*
X1917700D02*
D03*
X1930400D02*
D03*
X1905000D02*
D03*
X1892300D02*
D03*
X1739900D02*
D03*
X1752600D02*
D03*
X1778000D02*
D03*
X1765300D02*
D03*
X1816100D02*
D03*
X1828800D02*
D03*
X1803400D02*
D03*
X1790700D02*
D03*
X1689100D02*
D03*
X1701800D02*
D03*
X1727200D02*
D03*
X1714500D02*
D03*
X1663700D02*
D03*
X1676400D02*
D03*
X1651000D02*
D03*
X1638300D02*
D03*
Y609600D02*
D03*
X1651000D02*
D03*
X1676400D02*
D03*
X1663700D02*
D03*
X1714500D02*
D03*
X1727200D02*
D03*
X1701800D02*
D03*
X1689100D02*
D03*
X1790700D02*
D03*
X1803400D02*
D03*
X1828800D02*
D03*
X1816100D02*
D03*
X1765300D02*
D03*
X1778000D02*
D03*
X1752600D02*
D03*
X1739900D02*
D03*
X1892300D02*
D03*
X1905000D02*
D03*
X1930400D02*
D03*
X1917700D02*
D03*
X1866900D02*
D03*
X1879600D02*
D03*
X1854200D02*
D03*
X1841500D02*
D03*
X1993900D02*
D03*
X2006600D02*
D03*
X2032000D02*
D03*
X2019300D02*
D03*
X1968500D02*
D03*
X1981200D02*
D03*
X1955800D02*
D03*
X1943100D02*
D03*
X1536700D02*
D03*
X1549400D02*
D03*
X1574800D02*
D03*
X1562100D02*
D03*
X1612900D02*
D03*
X1625600D02*
D03*
X1600200D02*
D03*
X1587500D02*
D03*
X1435100D02*
D03*
X1447800D02*
D03*
X1473200D02*
D03*
X1460500D02*
D03*
X1511300D02*
D03*
X1524000D02*
D03*
X1498600D02*
D03*
X1485900D02*
D03*
X1333500D02*
D03*
X1346200D02*
D03*
X1371600D02*
D03*
X1358900D02*
D03*
X1409700D02*
D03*
X1422400D02*
D03*
X1397000D02*
D03*
X1384300D02*
D03*
X1282700D02*
D03*
X1295400D02*
D03*
X1320800D02*
D03*
X1308100D02*
D03*
X1257300D02*
D03*
X1270000D02*
D03*
X1244600D02*
D03*
X1231900D02*
D03*
Y584200D02*
D03*
X1244600D02*
D03*
X1270000D02*
D03*
X1257300D02*
D03*
X1308100D02*
D03*
X1320800D02*
D03*
X1295400D02*
D03*
X1282700D02*
D03*
X1384300D02*
D03*
X1397000D02*
D03*
X1422400D02*
D03*
X1409700D02*
D03*
X1358900D02*
D03*
X1371600D02*
D03*
X1346200D02*
D03*
X1333500D02*
D03*
X1485900D02*
D03*
X1498600D02*
D03*
X1524000D02*
D03*
X1511300D02*
D03*
X1460500D02*
D03*
X1473200D02*
D03*
X1447800D02*
D03*
X1435100D02*
D03*
X1587500D02*
D03*
X1600200D02*
D03*
X1625600D02*
D03*
X1612900D02*
D03*
X1562100D02*
D03*
X1574800D02*
D03*
X1549400D02*
D03*
X1536700D02*
D03*
X1943100D02*
D03*
X1955800D02*
D03*
X1981200D02*
D03*
X1968500D02*
D03*
X2019300D02*
D03*
X2032000D02*
D03*
X2006600D02*
D03*
X1993900D02*
D03*
X1841500D02*
D03*
X1854200D02*
D03*
X1879600D02*
D03*
X1866900D02*
D03*
X1917700D02*
D03*
X1930400D02*
D03*
X1905000D02*
D03*
X1892300D02*
D03*
X1739900D02*
D03*
X1752600D02*
D03*
X1778000D02*
D03*
X1765300D02*
D03*
X1816100D02*
D03*
X1828800D02*
D03*
X1803400D02*
D03*
X1790700D02*
D03*
X1689100D02*
D03*
X1701800D02*
D03*
X1727200D02*
D03*
X1714500D02*
D03*
X1663700D02*
D03*
X1676400D02*
D03*
X1651000D02*
D03*
X1638300D02*
D03*
Y571500D02*
D03*
X1651000D02*
D03*
X1676400D02*
D03*
X1663700D02*
D03*
X1714500D02*
D03*
X1727200D02*
D03*
X1701800D02*
D03*
X1689100D02*
D03*
X1790700D02*
D03*
X1803400D02*
D03*
X1828800D02*
D03*
X1816100D02*
D03*
X1765300D02*
D03*
X1778000D02*
D03*
X1752600D02*
D03*
X1739900D02*
D03*
X1892300D02*
D03*
X1905000D02*
D03*
X1930400D02*
D03*
X1917700D02*
D03*
X1866900D02*
D03*
X1879600D02*
D03*
X1854200D02*
D03*
X1841500D02*
D03*
X1993900D02*
D03*
X2006600D02*
D03*
X2032000D02*
D03*
X2019300D02*
D03*
X1968500D02*
D03*
X1981200D02*
D03*
X1955800D02*
D03*
X1943100D02*
D03*
X1536700D02*
D03*
X1549400D02*
D03*
X1574800D02*
D03*
X1562100D02*
D03*
X1612900D02*
D03*
X1625600D02*
D03*
X1600200D02*
D03*
X1587500D02*
D03*
X1435100D02*
D03*
X1447800D02*
D03*
X1473200D02*
D03*
X1460500D02*
D03*
X1511300D02*
D03*
X1524000D02*
D03*
X1498600D02*
D03*
X1485900D02*
D03*
X1333500D02*
D03*
X1346200D02*
D03*
X1371600D02*
D03*
X1358900D02*
D03*
X1409700D02*
D03*
X1422400D02*
D03*
X1397000D02*
D03*
X1384300D02*
D03*
X1282700D02*
D03*
X1295400D02*
D03*
X1320800D02*
D03*
X1308100D02*
D03*
X1257300D02*
D03*
X1270000D02*
D03*
X1244600D02*
D03*
X1231900D02*
D03*
Y368300D02*
D03*
X1244600D02*
D03*
X1270000D02*
D03*
X1257300D02*
D03*
X1308100D02*
D03*
X1320800D02*
D03*
X1295400D02*
D03*
X1282700D02*
D03*
X1384300D02*
D03*
X1397000D02*
D03*
X1422400D02*
D03*
X1409700D02*
D03*
X1358900D02*
D03*
X1371600D02*
D03*
X1346200D02*
D03*
X1333500D02*
D03*
X1485900D02*
D03*
X1498600D02*
D03*
X1524000D02*
D03*
X1511300D02*
D03*
X1460500D02*
D03*
X1473200D02*
D03*
X1447800D02*
D03*
X1435100D02*
D03*
X1587500D02*
D03*
X1600200D02*
D03*
X1625600D02*
D03*
X1612900D02*
D03*
X1562100D02*
D03*
X1574800D02*
D03*
X1549400D02*
D03*
X1536700D02*
D03*
X1943100D02*
D03*
X1955800D02*
D03*
X1981200D02*
D03*
X1968500D02*
D03*
X2019300D02*
D03*
X2032000D02*
D03*
X2006600D02*
D03*
X1993900D02*
D03*
X1841500D02*
D03*
X1854200D02*
D03*
X1879600D02*
D03*
X1866900D02*
D03*
X1917700D02*
D03*
X1930400D02*
D03*
X1905000D02*
D03*
X1892300D02*
D03*
X1739900D02*
D03*
X1752600D02*
D03*
X1778000D02*
D03*
X1765300D02*
D03*
X1816100D02*
D03*
X1828800D02*
D03*
X1803400D02*
D03*
X1790700D02*
D03*
X1689100D02*
D03*
X1701800D02*
D03*
X1727200D02*
D03*
X1714500D02*
D03*
X1663700D02*
D03*
X1676400D02*
D03*
X1651000D02*
D03*
X1638300D02*
D03*
Y381000D02*
D03*
X1651000D02*
D03*
X1676400D02*
D03*
X1663700D02*
D03*
X1714500D02*
D03*
X1727200D02*
D03*
X1701800D02*
D03*
X1689100D02*
D03*
X1790700D02*
D03*
X1803400D02*
D03*
X1828800D02*
D03*
X1816100D02*
D03*
X1765300D02*
D03*
X1778000D02*
D03*
X1752600D02*
D03*
X1739900D02*
D03*
X1892300D02*
D03*
X1905000D02*
D03*
X1930400D02*
D03*
X1917700D02*
D03*
X1866900D02*
D03*
X1879600D02*
D03*
X1854200D02*
D03*
X1841500D02*
D03*
X1993900D02*
D03*
X2006600D02*
D03*
X2032000D02*
D03*
X2019300D02*
D03*
X1968500D02*
D03*
X1981200D02*
D03*
X1955800D02*
D03*
X1943100D02*
D03*
X1536700D02*
D03*
X1549400D02*
D03*
X1574800D02*
D03*
X1562100D02*
D03*
X1612900D02*
D03*
X1625600D02*
D03*
X1600200D02*
D03*
X1587500D02*
D03*
X1435100D02*
D03*
X1447800D02*
D03*
X1473200D02*
D03*
X1460500D02*
D03*
X1511300D02*
D03*
X1524000D02*
D03*
X1498600D02*
D03*
X1485900D02*
D03*
X1333500D02*
D03*
X1346200D02*
D03*
X1371600D02*
D03*
X1358900D02*
D03*
X1409700D02*
D03*
X1422400D02*
D03*
X1397000D02*
D03*
X1384300D02*
D03*
X1282700D02*
D03*
X1295400D02*
D03*
X1320800D02*
D03*
X1308100D02*
D03*
X1257300D02*
D03*
X1270000D02*
D03*
X1244600D02*
D03*
X1231900D02*
D03*
Y406400D02*
D03*
X1244600D02*
D03*
X1270000D02*
D03*
X1257300D02*
D03*
X1308100D02*
D03*
X1320800D02*
D03*
X1295400D02*
D03*
X1282700D02*
D03*
X1384300D02*
D03*
X1397000D02*
D03*
X1422400D02*
D03*
X1409700D02*
D03*
X1358900D02*
D03*
X1371600D02*
D03*
X1346200D02*
D03*
X1333500D02*
D03*
X1485900D02*
D03*
X1498600D02*
D03*
X1524000D02*
D03*
X1511300D02*
D03*
X1460500D02*
D03*
X1473200D02*
D03*
X1447800D02*
D03*
X1435100D02*
D03*
X1587500D02*
D03*
X1600200D02*
D03*
X1625600D02*
D03*
X1612900D02*
D03*
X1562100D02*
D03*
X1574800D02*
D03*
X1549400D02*
D03*
X1536700D02*
D03*
X1943100D02*
D03*
X1955800D02*
D03*
X1981200D02*
D03*
X1968500D02*
D03*
X2019300D02*
D03*
X2032000D02*
D03*
X2006600D02*
D03*
X1993900D02*
D03*
X1841500D02*
D03*
X1854200D02*
D03*
X1879600D02*
D03*
X1866900D02*
D03*
X1917700D02*
D03*
X1930400D02*
D03*
X1905000D02*
D03*
X1892300D02*
D03*
X1739900D02*
D03*
X1752600D02*
D03*
X1778000D02*
D03*
X1765300D02*
D03*
X1816100D02*
D03*
X1828800D02*
D03*
X1803400D02*
D03*
X1790700D02*
D03*
X1689100D02*
D03*
X1701800D02*
D03*
X1727200D02*
D03*
X1714500D02*
D03*
X1663700D02*
D03*
X1676400D02*
D03*
X1651000D02*
D03*
X1638300D02*
D03*
Y393700D02*
D03*
X1651000D02*
D03*
X1676400D02*
D03*
X1663700D02*
D03*
X1714500D02*
D03*
X1727200D02*
D03*
X1701800D02*
D03*
X1689100D02*
D03*
X1790700D02*
D03*
X1803400D02*
D03*
X1828800D02*
D03*
X1816100D02*
D03*
X1765300D02*
D03*
X1778000D02*
D03*
X1752600D02*
D03*
X1739900D02*
D03*
X1892300D02*
D03*
X1905000D02*
D03*
X1930400D02*
D03*
X1917700D02*
D03*
X1866900D02*
D03*
X1879600D02*
D03*
X1854200D02*
D03*
X1841500D02*
D03*
X1993900D02*
D03*
X2006600D02*
D03*
X2032000D02*
D03*
X2019300D02*
D03*
X1968500D02*
D03*
X1981200D02*
D03*
X1955800D02*
D03*
X1943100D02*
D03*
X1536700D02*
D03*
X1549400D02*
D03*
X1574800D02*
D03*
X1562100D02*
D03*
X1612900D02*
D03*
X1625600D02*
D03*
X1600200D02*
D03*
X1587500D02*
D03*
X1435100D02*
D03*
X1447800D02*
D03*
X1473200D02*
D03*
X1460500D02*
D03*
X1511300D02*
D03*
X1524000D02*
D03*
X1498600D02*
D03*
X1485900D02*
D03*
X1333500D02*
D03*
X1346200D02*
D03*
X1371600D02*
D03*
X1358900D02*
D03*
X1409700D02*
D03*
X1422400D02*
D03*
X1397000D02*
D03*
X1384300D02*
D03*
X1282700D02*
D03*
X1295400D02*
D03*
X1320800D02*
D03*
X1308100D02*
D03*
X1257300D02*
D03*
X1270000D02*
D03*
X1244600D02*
D03*
X1231900D02*
D03*
Y444500D02*
D03*
X1244600D02*
D03*
X1270000D02*
D03*
X1257300D02*
D03*
X1308100D02*
D03*
X1320800D02*
D03*
X1295400D02*
D03*
X1282700D02*
D03*
X1384300D02*
D03*
X1397000D02*
D03*
X1422400D02*
D03*
X1409700D02*
D03*
X1358900D02*
D03*
X1371600D02*
D03*
X1346200D02*
D03*
X1333500D02*
D03*
X1485900D02*
D03*
X1498600D02*
D03*
X1524000D02*
D03*
X1511300D02*
D03*
X1460500D02*
D03*
X1473200D02*
D03*
X1447800D02*
D03*
X1435100D02*
D03*
X1587500D02*
D03*
X1600200D02*
D03*
X1625600D02*
D03*
X1612900D02*
D03*
X1562100D02*
D03*
X1574800D02*
D03*
X1549400D02*
D03*
X1536700D02*
D03*
X1943100D02*
D03*
X1955800D02*
D03*
X1981200D02*
D03*
X1968500D02*
D03*
X2019300D02*
D03*
X2032000D02*
D03*
X2006600D02*
D03*
X1993900D02*
D03*
X1841500D02*
D03*
X1854200D02*
D03*
X1879600D02*
D03*
X1866900D02*
D03*
X1917700D02*
D03*
X1930400D02*
D03*
X1905000D02*
D03*
X1892300D02*
D03*
X1739900D02*
D03*
X1752600D02*
D03*
X1778000D02*
D03*
X1765300D02*
D03*
X1816100D02*
D03*
X1828800D02*
D03*
X1803400D02*
D03*
X1790700D02*
D03*
X1689100D02*
D03*
X1701800D02*
D03*
X1727200D02*
D03*
X1714500D02*
D03*
X1663700D02*
D03*
X1676400D02*
D03*
X1651000D02*
D03*
X1638300D02*
D03*
Y457200D02*
D03*
X1651000D02*
D03*
X1676400D02*
D03*
X1663700D02*
D03*
X1714500D02*
D03*
X1727200D02*
D03*
X1701800D02*
D03*
X1689100D02*
D03*
X1790700D02*
D03*
X1803400D02*
D03*
X1828800D02*
D03*
X1816100D02*
D03*
X1765300D02*
D03*
X1778000D02*
D03*
X1752600D02*
D03*
X1739900D02*
D03*
X1892300D02*
D03*
X1905000D02*
D03*
X1930400D02*
D03*
X1917700D02*
D03*
X1866900D02*
D03*
X1879600D02*
D03*
X1854200D02*
D03*
X1841500D02*
D03*
X1993900D02*
D03*
X2006600D02*
D03*
X2032000D02*
D03*
X2019300D02*
D03*
X1968500D02*
D03*
X1981200D02*
D03*
X1955800D02*
D03*
X1943100D02*
D03*
X1536700D02*
D03*
X1549400D02*
D03*
X1574800D02*
D03*
X1562100D02*
D03*
X1612900D02*
D03*
X1625600D02*
D03*
X1600200D02*
D03*
X1587500D02*
D03*
X1435100D02*
D03*
X1447800D02*
D03*
X1473200D02*
D03*
X1460500D02*
D03*
X1511300D02*
D03*
X1524000D02*
D03*
X1498600D02*
D03*
X1485900D02*
D03*
X1333500D02*
D03*
X1346200D02*
D03*
X1371600D02*
D03*
X1358900D02*
D03*
X1409700D02*
D03*
X1422400D02*
D03*
X1397000D02*
D03*
X1384300D02*
D03*
X1282700D02*
D03*
X1295400D02*
D03*
X1320800D02*
D03*
X1308100D02*
D03*
X1257300D02*
D03*
X1270000D02*
D03*
X1244600D02*
D03*
X1231900D02*
D03*
Y431800D02*
D03*
X1244600D02*
D03*
X1270000D02*
D03*
X1257300D02*
D03*
X1308100D02*
D03*
X1320800D02*
D03*
X1295400D02*
D03*
X1282700D02*
D03*
X1384300D02*
D03*
X1397000D02*
D03*
X1422400D02*
D03*
X1409700D02*
D03*
X1358900D02*
D03*
X1371600D02*
D03*
X1346200D02*
D03*
X1333500D02*
D03*
X1485900D02*
D03*
X1498600D02*
D03*
X1524000D02*
D03*
X1511300D02*
D03*
X1460500D02*
D03*
X1473200D02*
D03*
X1447800D02*
D03*
X1435100D02*
D03*
X1587500D02*
D03*
X1600200D02*
D03*
X1625600D02*
D03*
X1612900D02*
D03*
X1562100D02*
D03*
X1574800D02*
D03*
X1549400D02*
D03*
X1536700D02*
D03*
X1943100D02*
D03*
X1955800D02*
D03*
X1981200D02*
D03*
X1968500D02*
D03*
X2019300D02*
D03*
X2032000D02*
D03*
X2006600D02*
D03*
X1993900D02*
D03*
X1841500D02*
D03*
X1854200D02*
D03*
X1879600D02*
D03*
X1866900D02*
D03*
X1917700D02*
D03*
X1930400D02*
D03*
X1905000D02*
D03*
X1892300D02*
D03*
X1739900D02*
D03*
X1752600D02*
D03*
X1778000D02*
D03*
X1765300D02*
D03*
X1816100D02*
D03*
X1828800D02*
D03*
X1803400D02*
D03*
X1790700D02*
D03*
X1689100D02*
D03*
X1701800D02*
D03*
X1727200D02*
D03*
X1714500D02*
D03*
X1663700D02*
D03*
X1676400D02*
D03*
X1651000D02*
D03*
X1638300D02*
D03*
Y419100D02*
D03*
X1651000D02*
D03*
X1676400D02*
D03*
X1663700D02*
D03*
X1714500D02*
D03*
X1727200D02*
D03*
X1701800D02*
D03*
X1689100D02*
D03*
X1790700D02*
D03*
X1803400D02*
D03*
X1828800D02*
D03*
X1816100D02*
D03*
X1765300D02*
D03*
X1778000D02*
D03*
X1752600D02*
D03*
X1739900D02*
D03*
X1892300D02*
D03*
X1905000D02*
D03*
X1930400D02*
D03*
X1917700D02*
D03*
X1866900D02*
D03*
X1879600D02*
D03*
X1854200D02*
D03*
X1841500D02*
D03*
X1993900D02*
D03*
X2006600D02*
D03*
X2032000D02*
D03*
X2019300D02*
D03*
X1968500D02*
D03*
X1981200D02*
D03*
X1955800D02*
D03*
X1943100D02*
D03*
X1536700D02*
D03*
X1549400D02*
D03*
X1574800D02*
D03*
X1562100D02*
D03*
X1612900D02*
D03*
X1625600D02*
D03*
X1600200D02*
D03*
X1587500D02*
D03*
X1435100D02*
D03*
X1447800D02*
D03*
X1473200D02*
D03*
X1460500D02*
D03*
X1511300D02*
D03*
X1524000D02*
D03*
X1498600D02*
D03*
X1485900D02*
D03*
X1333500D02*
D03*
X1346200D02*
D03*
X1371600D02*
D03*
X1358900D02*
D03*
X1409700D02*
D03*
X1422400D02*
D03*
X1397000D02*
D03*
X1384300D02*
D03*
X1282700D02*
D03*
X1295400D02*
D03*
X1320800D02*
D03*
X1308100D02*
D03*
X1257300D02*
D03*
X1270000D02*
D03*
X1244600D02*
D03*
X1231900D02*
D03*
Y317500D02*
D03*
X1244600D02*
D03*
X1270000D02*
D03*
X1257300D02*
D03*
X1308100D02*
D03*
X1320800D02*
D03*
X1295400D02*
D03*
X1282700D02*
D03*
X1384300D02*
D03*
X1397000D02*
D03*
X1422400D02*
D03*
X1409700D02*
D03*
X1358900D02*
D03*
X1371600D02*
D03*
X1346200D02*
D03*
X1333500D02*
D03*
X1485900D02*
D03*
X1498600D02*
D03*
X1524000D02*
D03*
X1511300D02*
D03*
X1460500D02*
D03*
X1473200D02*
D03*
X1447800D02*
D03*
X1435100D02*
D03*
X1587500D02*
D03*
X1600200D02*
D03*
X1625600D02*
D03*
X1612900D02*
D03*
X1562100D02*
D03*
X1574800D02*
D03*
X1549400D02*
D03*
X1536700D02*
D03*
X1943100D02*
D03*
X1955800D02*
D03*
X1981200D02*
D03*
X1968500D02*
D03*
X2019300D02*
D03*
X2032000D02*
D03*
X2006600D02*
D03*
X1993900D02*
D03*
X1841500D02*
D03*
X1854200D02*
D03*
X1879600D02*
D03*
X1866900D02*
D03*
X1917700D02*
D03*
X1930400D02*
D03*
X1905000D02*
D03*
X1892300D02*
D03*
X1739900D02*
D03*
X1752600D02*
D03*
X1778000D02*
D03*
X1765300D02*
D03*
X1816100D02*
D03*
X1828800D02*
D03*
X1803400D02*
D03*
X1790700D02*
D03*
X1689100D02*
D03*
X1701800D02*
D03*
X1727200D02*
D03*
X1714500D02*
D03*
X1663700D02*
D03*
X1676400D02*
D03*
X1651000D02*
D03*
X1638300D02*
D03*
Y330200D02*
D03*
X1651000D02*
D03*
X1676400D02*
D03*
X1663700D02*
D03*
X1714500D02*
D03*
X1727200D02*
D03*
X1701800D02*
D03*
X1689100D02*
D03*
X1790700D02*
D03*
X1803400D02*
D03*
X1828800D02*
D03*
X1816100D02*
D03*
X1765300D02*
D03*
X1778000D02*
D03*
X1752600D02*
D03*
X1739900D02*
D03*
X1892300D02*
D03*
X1905000D02*
D03*
X1930400D02*
D03*
X1917700D02*
D03*
X1866900D02*
D03*
X1879600D02*
D03*
X1854200D02*
D03*
X1841500D02*
D03*
X1993900D02*
D03*
X2006600D02*
D03*
X2032000D02*
D03*
X2019300D02*
D03*
X1968500D02*
D03*
X1981200D02*
D03*
X1955800D02*
D03*
X1943100D02*
D03*
X1536700D02*
D03*
X1549400D02*
D03*
X1574800D02*
D03*
X1562100D02*
D03*
X1612900D02*
D03*
X1625600D02*
D03*
X1600200D02*
D03*
X1587500D02*
D03*
X1435100D02*
D03*
X1447800D02*
D03*
X1473200D02*
D03*
X1460500D02*
D03*
X1511300D02*
D03*
X1524000D02*
D03*
X1498600D02*
D03*
X1485900D02*
D03*
X1333500D02*
D03*
X1346200D02*
D03*
X1371600D02*
D03*
X1358900D02*
D03*
X1409700D02*
D03*
X1422400D02*
D03*
X1397000D02*
D03*
X1384300D02*
D03*
X1282700D02*
D03*
X1295400D02*
D03*
X1320800D02*
D03*
X1308100D02*
D03*
X1257300D02*
D03*
X1270000D02*
D03*
X1244600D02*
D03*
X1231900D02*
D03*
Y355600D02*
D03*
X1244600D02*
D03*
X1270000D02*
D03*
X1257300D02*
D03*
X1308100D02*
D03*
X1320800D02*
D03*
X1295400D02*
D03*
X1282700D02*
D03*
X1384300D02*
D03*
X1397000D02*
D03*
X1422400D02*
D03*
X1409700D02*
D03*
X1358900D02*
D03*
X1371600D02*
D03*
X1346200D02*
D03*
X1333500D02*
D03*
X1485900D02*
D03*
X1498600D02*
D03*
X1524000D02*
D03*
X1511300D02*
D03*
X1460500D02*
D03*
X1473200D02*
D03*
X1447800D02*
D03*
X1435100D02*
D03*
X1587500D02*
D03*
X1600200D02*
D03*
X1625600D02*
D03*
X1612900D02*
D03*
X1562100D02*
D03*
X1574800D02*
D03*
X1549400D02*
D03*
X1536700D02*
D03*
X1943100D02*
D03*
X1955800D02*
D03*
X1981200D02*
D03*
X1968500D02*
D03*
X2019300D02*
D03*
X2032000D02*
D03*
X2006600D02*
D03*
X1993900D02*
D03*
X1841500D02*
D03*
X1854200D02*
D03*
X1879600D02*
D03*
X1866900D02*
D03*
X1917700D02*
D03*
X1930400D02*
D03*
X1905000D02*
D03*
X1892300D02*
D03*
X1739900D02*
D03*
X1752600D02*
D03*
X1778000D02*
D03*
X1765300D02*
D03*
X1816100D02*
D03*
X1828800D02*
D03*
X1803400D02*
D03*
X1790700D02*
D03*
X1689100D02*
D03*
X1701800D02*
D03*
X1727200D02*
D03*
X1714500D02*
D03*
X1663700D02*
D03*
X1676400D02*
D03*
X1651000D02*
D03*
X1638300D02*
D03*
Y342900D02*
D03*
X1651000D02*
D03*
X1676400D02*
D03*
X1663700D02*
D03*
X1714500D02*
D03*
X1727200D02*
D03*
X1701800D02*
D03*
X1689100D02*
D03*
X1790700D02*
D03*
X1803400D02*
D03*
X1828800D02*
D03*
X1816100D02*
D03*
X1765300D02*
D03*
X1778000D02*
D03*
X1752600D02*
D03*
X1739900D02*
D03*
X1892300D02*
D03*
X1905000D02*
D03*
X1930400D02*
D03*
X1917700D02*
D03*
X1866900D02*
D03*
X1879600D02*
D03*
X1854200D02*
D03*
X1841500D02*
D03*
X1993900D02*
D03*
X2006600D02*
D03*
X2032000D02*
D03*
X2019300D02*
D03*
X1968500D02*
D03*
X1981200D02*
D03*
X1955800D02*
D03*
X1943100D02*
D03*
X1536700D02*
D03*
X1549400D02*
D03*
X1574800D02*
D03*
X1562100D02*
D03*
X1612900D02*
D03*
X1625600D02*
D03*
X1600200D02*
D03*
X1587500D02*
D03*
X1435100D02*
D03*
X1447800D02*
D03*
X1473200D02*
D03*
X1460500D02*
D03*
X1511300D02*
D03*
X1524000D02*
D03*
X1498600D02*
D03*
X1485900D02*
D03*
X1333500D02*
D03*
X1346200D02*
D03*
X1371600D02*
D03*
X1358900D02*
D03*
X1409700D02*
D03*
X1422400D02*
D03*
X1397000D02*
D03*
X1384300D02*
D03*
X1282700D02*
D03*
X1295400D02*
D03*
X1320800D02*
D03*
X1308100D02*
D03*
X1257300D02*
D03*
X1270000D02*
D03*
X1244600D02*
D03*
X1231900D02*
D03*
Y292100D02*
D03*
X1244600D02*
D03*
X1270000D02*
D03*
X1257300D02*
D03*
X1308100D02*
D03*
X1320800D02*
D03*
X1295400D02*
D03*
X1282700D02*
D03*
X1384300D02*
D03*
X1397000D02*
D03*
X1422400D02*
D03*
X1409700D02*
D03*
X1358900D02*
D03*
X1371600D02*
D03*
X1346200D02*
D03*
X1333500D02*
D03*
X1485900D02*
D03*
X1498600D02*
D03*
X1524000D02*
D03*
X1511300D02*
D03*
X1460500D02*
D03*
X1473200D02*
D03*
X1447800D02*
D03*
X1435100D02*
D03*
X1587500D02*
D03*
X1600200D02*
D03*
X1625600D02*
D03*
X1612900D02*
D03*
X1562100D02*
D03*
X1574800D02*
D03*
X1549400D02*
D03*
X1536700D02*
D03*
X1943100D02*
D03*
X1955800D02*
D03*
X1981200D02*
D03*
X1968500D02*
D03*
X2019300D02*
D03*
X2032000D02*
D03*
X2006600D02*
D03*
X1993900D02*
D03*
X1841500D02*
D03*
X1854200D02*
D03*
X1879600D02*
D03*
X1866900D02*
D03*
X1917700D02*
D03*
X1930400D02*
D03*
X1905000D02*
D03*
X1892300D02*
D03*
X1739900D02*
D03*
X1752600D02*
D03*
X1778000D02*
D03*
X1765300D02*
D03*
X1816100D02*
D03*
X1828800D02*
D03*
X1803400D02*
D03*
X1790700D02*
D03*
X1689100D02*
D03*
X1701800D02*
D03*
X1727200D02*
D03*
X1714500D02*
D03*
X1663700D02*
D03*
X1676400D02*
D03*
X1651000D02*
D03*
X1638300D02*
D03*
Y304800D02*
D03*
X1651000D02*
D03*
X1676400D02*
D03*
X1663700D02*
D03*
X1714500D02*
D03*
X1727200D02*
D03*
X1701800D02*
D03*
X1689100D02*
D03*
X1790700D02*
D03*
X1803400D02*
D03*
X1828800D02*
D03*
X1816100D02*
D03*
X1765300D02*
D03*
X1778000D02*
D03*
X1752600D02*
D03*
X1739900D02*
D03*
X1892300D02*
D03*
X1905000D02*
D03*
X1930400D02*
D03*
X1917700D02*
D03*
X1866900D02*
D03*
X1879600D02*
D03*
X1854200D02*
D03*
X1841500D02*
D03*
X1993900D02*
D03*
X2006600D02*
D03*
X2032000D02*
D03*
X2019300D02*
D03*
X1968500D02*
D03*
X1981200D02*
D03*
X1955800D02*
D03*
X1943100D02*
D03*
X1536700D02*
D03*
X1549400D02*
D03*
X1574800D02*
D03*
X1562100D02*
D03*
X1612900D02*
D03*
X1625600D02*
D03*
X1600200D02*
D03*
X1587500D02*
D03*
X1435100D02*
D03*
X1447800D02*
D03*
X1473200D02*
D03*
X1460500D02*
D03*
X1511300D02*
D03*
X1524000D02*
D03*
X1498600D02*
D03*
X1485900D02*
D03*
X1333500D02*
D03*
X1346200D02*
D03*
X1371600D02*
D03*
X1358900D02*
D03*
X1409700D02*
D03*
X1422400D02*
D03*
X1397000D02*
D03*
X1384300D02*
D03*
X1282700D02*
D03*
X1295400D02*
D03*
X1320800D02*
D03*
X1308100D02*
D03*
X1257300D02*
D03*
X1270000D02*
D03*
X1244600D02*
D03*
X1231900D02*
D03*
Y279400D02*
D03*
X1244600D02*
D03*
X1270000D02*
D03*
X1257300D02*
D03*
X1308100D02*
D03*
X1320800D02*
D03*
X1295400D02*
D03*
X1282700D02*
D03*
X1384300D02*
D03*
X1397000D02*
D03*
X1422400D02*
D03*
X1409700D02*
D03*
X1358900D02*
D03*
X1371600D02*
D03*
X1346200D02*
D03*
X1333500D02*
D03*
X1485900D02*
D03*
X1498600D02*
D03*
X1524000D02*
D03*
X1511300D02*
D03*
X1460500D02*
D03*
X1473200D02*
D03*
X1447800D02*
D03*
X1435100D02*
D03*
X1587500D02*
D03*
X1600200D02*
D03*
X1625600D02*
D03*
X1612900D02*
D03*
X1562100D02*
D03*
X1574800D02*
D03*
X1549400D02*
D03*
X1536700D02*
D03*
X1943100D02*
D03*
X1955800D02*
D03*
X1981200D02*
D03*
X1968500D02*
D03*
X2019300D02*
D03*
X2032000D02*
D03*
X2006600D02*
D03*
X1993900D02*
D03*
X1841500D02*
D03*
X1854200D02*
D03*
X1879600D02*
D03*
X1866900D02*
D03*
X1917700D02*
D03*
X1930400D02*
D03*
X1905000D02*
D03*
X1892300D02*
D03*
X1739900D02*
D03*
X1752600D02*
D03*
X1778000D02*
D03*
X1765300D02*
D03*
X1816100D02*
D03*
X1828800D02*
D03*
X1803400D02*
D03*
X1790700D02*
D03*
X1689100D02*
D03*
X1701800D02*
D03*
X1727200D02*
D03*
X1714500D02*
D03*
X1663700D02*
D03*
X1676400D02*
D03*
X1651000D02*
D03*
X1638300D02*
D03*
Y266700D02*
D03*
X1651000D02*
D03*
X1676400D02*
D03*
X1663700D02*
D03*
X1714500D02*
D03*
X1727200D02*
D03*
X1701800D02*
D03*
X1689100D02*
D03*
X1790700D02*
D03*
X1803400D02*
D03*
X1828800D02*
D03*
X1816100D02*
D03*
X1765300D02*
D03*
X1778000D02*
D03*
X1752600D02*
D03*
X1739900D02*
D03*
X1892300D02*
D03*
X1905000D02*
D03*
X1930400D02*
D03*
X1917700D02*
D03*
X1866900D02*
D03*
X1879600D02*
D03*
X1854200D02*
D03*
X1841500D02*
D03*
X1993900D02*
D03*
X2006600D02*
D03*
X2032000D02*
D03*
X2019300D02*
D03*
X1968500D02*
D03*
X1981200D02*
D03*
X1955800D02*
D03*
X1943100D02*
D03*
X1536700D02*
D03*
X1549400D02*
D03*
X1574800D02*
D03*
X1562100D02*
D03*
X1612900D02*
D03*
X1625600D02*
D03*
X1600200D02*
D03*
X1587500D02*
D03*
X1435100D02*
D03*
X1447800D02*
D03*
X1473200D02*
D03*
X1460500D02*
D03*
X1511300D02*
D03*
X1524000D02*
D03*
X1498600D02*
D03*
X1485900D02*
D03*
X1333500D02*
D03*
X1346200D02*
D03*
X1371600D02*
D03*
X1358900D02*
D03*
X1409700D02*
D03*
X1422400D02*
D03*
X1397000D02*
D03*
X1384300D02*
D03*
X1282700D02*
D03*
X1295400D02*
D03*
X1320800D02*
D03*
X1308100D02*
D03*
X1257300D02*
D03*
X1270000D02*
D03*
X1244600D02*
D03*
X1231900D02*
D03*
D63*
X2087300Y295000D02*
D03*
X2112700D02*
D03*
D64*
X2587500Y820000D02*
D03*
X3325000Y835000D02*
D03*
X3337500Y472500D02*
D03*
X2050000Y620000D02*
D03*
X1207500Y592500D02*
D03*
X2032500Y872500D02*
D03*
X1635000D02*
D03*
X1250000D02*
D03*
X1212500Y275000D02*
D03*
X2050000Y272500D02*
D03*
X2435000Y500000D02*
D03*
Y450000D02*
D03*
Y405000D02*
D03*
X2075000Y435000D02*
D03*
Y465000D02*
D03*
X2100000Y510000D02*
D03*
X1140000Y405000D02*
D03*
X2240000Y2355000D02*
D03*
X2225000Y1035000D02*
D03*
X2235000Y1945000D02*
D03*
X2225000Y1485000D02*
D03*
D65*
X2470100Y312500D02*
D03*
Y337900D02*
D03*
X2495500Y312500D02*
D03*
Y337900D02*
D03*
X2520900Y312500D02*
D03*
Y337900D02*
D03*
X2546300Y312500D02*
D03*
Y337900D02*
D03*
X2571700Y312500D02*
D03*
Y337900D02*
D03*
X2597100Y312500D02*
D03*
Y337900D02*
D03*
X2622500Y312500D02*
D03*
Y337900D02*
D03*
X2647900Y312500D02*
D03*
Y337900D02*
D03*
X2673300Y312500D02*
D03*
Y337900D02*
D03*
X2698700Y312500D02*
D03*
Y337900D02*
D03*
X2724100Y312500D02*
D03*
Y337900D02*
D03*
X2749500Y312500D02*
D03*
Y337900D02*
D03*
X2774900Y312500D02*
D03*
Y337900D02*
D03*
X2800300Y312500D02*
D03*
Y337900D02*
D03*
X2825700Y312500D02*
D03*
Y337900D02*
D03*
X2851100Y312500D02*
D03*
Y337900D02*
D03*
X2876500Y312500D02*
D03*
Y337900D02*
D03*
X2901900Y312500D02*
D03*
Y337900D02*
D03*
X2927300Y312500D02*
D03*
Y337900D02*
D03*
X2952700Y312500D02*
D03*
Y337900D02*
D03*
X2978100Y312500D02*
D03*
Y337900D02*
D03*
X3003500Y312500D02*
D03*
Y337900D02*
D03*
X3028900Y312500D02*
D03*
Y337900D02*
D03*
X3054300Y312500D02*
D03*
Y337900D02*
D03*
X3079700Y312500D02*
D03*
Y337900D02*
D03*
X3105100Y312500D02*
D03*
Y337900D02*
D03*
X3130500Y312500D02*
D03*
Y337900D02*
D03*
X3155900Y312500D02*
D03*
Y337900D02*
D03*
X3181300Y312500D02*
D03*
Y337900D02*
D03*
X3206700Y312500D02*
D03*
Y337900D02*
D03*
X3232100Y312500D02*
D03*
Y337900D02*
D03*
X3257500Y312500D02*
D03*
Y337900D02*
D03*
X3282900Y312500D02*
D03*
Y337900D02*
D03*
X3308300Y312500D02*
D03*
Y337900D02*
D03*
X3333700Y312500D02*
D03*
Y337900D02*
D03*
X2673500Y388700D02*
D03*
Y414100D02*
D03*
Y845900D02*
D03*
Y871300D02*
D03*
X3120540Y388700D02*
D03*
Y414100D02*
D03*
X3145940Y388700D02*
D03*
Y414100D02*
D03*
X3171340Y388700D02*
D03*
Y414100D02*
D03*
X3196740Y388700D02*
D03*
Y414100D02*
D03*
X3222140Y388700D02*
D03*
Y414100D02*
D03*
X3247540Y388700D02*
D03*
Y414100D02*
D03*
X3272940Y388700D02*
D03*
Y414100D02*
D03*
X3298340Y388700D02*
D03*
Y414100D02*
D03*
X3323740Y388700D02*
D03*
Y414100D02*
D03*
X2470300Y922100D02*
D03*
Y947500D02*
D03*
X2698900Y388700D02*
D03*
Y414100D02*
D03*
X2724300Y388700D02*
D03*
Y414100D02*
D03*
X2749700Y388700D02*
D03*
Y414100D02*
D03*
X2775100Y388700D02*
D03*
Y414100D02*
D03*
X2800500Y388700D02*
D03*
Y414100D02*
D03*
X2825900Y388700D02*
D03*
Y414100D02*
D03*
X2851300Y388700D02*
D03*
Y414100D02*
D03*
X2876700Y388700D02*
D03*
Y414100D02*
D03*
X2902100Y388700D02*
D03*
Y414100D02*
D03*
X2927500Y388700D02*
D03*
Y414100D02*
D03*
X2952900Y388700D02*
D03*
Y414100D02*
D03*
X2978300Y388700D02*
D03*
Y414100D02*
D03*
X3003700Y388700D02*
D03*
Y414100D02*
D03*
X3029100Y388700D02*
D03*
Y414100D02*
D03*
X3054500Y388700D02*
D03*
Y414100D02*
D03*
X3079900Y388700D02*
D03*
X3349140D02*
D03*
X2698900Y845900D02*
D03*
Y871300D02*
D03*
X2724300Y845900D02*
D03*
Y871300D02*
D03*
X2749700Y845900D02*
D03*
Y871300D02*
D03*
X2775100Y845900D02*
D03*
Y871300D02*
D03*
X2800500Y845900D02*
D03*
Y871300D02*
D03*
X2825900Y845900D02*
D03*
Y871300D02*
D03*
X2851300Y845900D02*
D03*
Y871300D02*
D03*
X2876700Y845900D02*
D03*
Y871300D02*
D03*
X2902100Y845900D02*
D03*
Y871300D02*
D03*
X2927500Y845900D02*
D03*
Y871300D02*
D03*
X2952900Y845900D02*
D03*
Y871300D02*
D03*
X2978300Y845900D02*
D03*
Y871300D02*
D03*
X3003700Y845900D02*
D03*
Y871300D02*
D03*
X3029100Y845900D02*
D03*
X3079900D02*
D03*
Y871300D02*
D03*
X3105300Y845900D02*
D03*
Y871300D02*
D03*
X3130700Y845900D02*
D03*
Y871300D02*
D03*
X3156100Y845900D02*
D03*
Y871300D02*
D03*
X3181500Y845900D02*
D03*
Y871300D02*
D03*
X3206900Y845900D02*
D03*
Y871300D02*
D03*
X3232300Y845900D02*
D03*
Y871300D02*
D03*
X3257700Y845900D02*
D03*
X3359100Y312500D02*
D03*
X2495700Y922100D02*
D03*
Y947500D02*
D03*
X2521100Y922100D02*
D03*
Y947500D02*
D03*
X2546500Y922100D02*
D03*
Y947500D02*
D03*
X2571900Y922100D02*
D03*
Y947500D02*
D03*
X2597300Y922100D02*
D03*
Y947500D02*
D03*
X2622700Y922100D02*
D03*
Y947500D02*
D03*
X2648100Y922100D02*
D03*
Y947500D02*
D03*
X2673500Y922100D02*
D03*
Y947500D02*
D03*
X2698900Y922100D02*
D03*
Y947500D02*
D03*
X2724300Y922100D02*
D03*
Y947500D02*
D03*
X2749700Y922100D02*
D03*
Y947500D02*
D03*
X2775100Y922100D02*
D03*
Y947500D02*
D03*
X2800500Y922100D02*
D03*
Y947500D02*
D03*
X2825900Y922100D02*
D03*
Y947500D02*
D03*
X2851300Y922100D02*
D03*
Y947500D02*
D03*
X2876700Y922100D02*
D03*
Y947500D02*
D03*
X2902100Y922100D02*
D03*
Y947500D02*
D03*
X2927500Y922100D02*
D03*
Y947500D02*
D03*
X2952900Y922100D02*
D03*
Y947500D02*
D03*
X2978300Y922100D02*
D03*
Y947500D02*
D03*
X3003700Y922100D02*
D03*
Y947500D02*
D03*
X3029100Y922100D02*
D03*
Y947500D02*
D03*
X3054500Y922100D02*
D03*
Y947500D02*
D03*
X3079900Y922100D02*
D03*
Y947500D02*
D03*
X3105300Y922100D02*
D03*
Y947500D02*
D03*
X3130700Y922100D02*
D03*
Y947500D02*
D03*
X3156100Y922100D02*
D03*
Y947500D02*
D03*
X3181500Y922100D02*
D03*
Y947500D02*
D03*
X3206900Y922100D02*
D03*
Y947500D02*
D03*
X3232300Y922100D02*
D03*
Y947500D02*
D03*
X3257700Y922100D02*
D03*
Y947500D02*
D03*
X3283100Y922100D02*
D03*
Y947500D02*
D03*
X3308500Y922100D02*
D03*
Y947500D02*
D03*
X3333900Y922100D02*
D03*
Y947500D02*
D03*
X3359300Y922100D02*
D03*
D66*
X3397400Y871300D02*
D03*
X2876700Y541100D02*
D03*
X3384700Y388700D02*
D03*
X2635400Y401400D02*
D03*
Y858600D02*
D03*
D67*
X3079900Y414100D02*
D03*
X3349140D02*
D03*
X3029100Y871300D02*
D03*
X3257700D02*
D03*
X3359100Y337900D02*
D03*
X3359300Y947500D02*
D03*
D68*
X1272500Y1840000D02*
D03*
Y1380000D02*
D03*
Y2295000D02*
D03*
D69*
X1197500Y1840000D02*
D03*
Y1380000D02*
D03*
X1030000Y1237500D02*
D03*
Y1437500D02*
D03*
X1030000Y1637500D02*
D03*
Y1837500D02*
D03*
Y2037500D02*
D03*
X1030000Y2240000D02*
D03*
X1197500Y2295000D02*
D03*
X3418400Y2150000D02*
D03*
X3520000D02*
D03*
X2230000Y285000D02*
D03*
X2280000D02*
D03*
X2255000D02*
D03*
X3418400Y1430000D02*
D03*
X3520000D02*
D03*
X3418400Y1790000D02*
D03*
X3520000D02*
D03*
X3118400Y1430000D02*
D03*
X3220000D02*
D03*
X3118400Y1790000D02*
D03*
X3220000D02*
D03*
X3118400Y2150000D02*
D03*
X3220000D02*
D03*
D70*
X1030000Y1162500D02*
D03*
Y1362500D02*
D03*
X1030000Y1562500D02*
D03*
Y1762500D02*
D03*
Y1962500D02*
D03*
X1030000Y2165000D02*
D03*
D71*
X3715800Y2190000D02*
D03*
X3665000D02*
D03*
X3715800Y1990000D02*
D03*
X3665000D02*
D03*
X3715800Y1790000D02*
D03*
X3665000D02*
D03*
X3715800Y1590000D02*
D03*
X3665000D02*
D03*
X3715800Y1390000D02*
D03*
X3665000D02*
D03*
X3715800Y1190000D02*
D03*
X3665000D02*
D03*
X995000Y660000D02*
D03*
X1045800D02*
D03*
X995000Y870000D02*
D03*
X1045800D02*
D03*
X2430000Y1135000D02*
D03*
Y1338000D02*
D03*
X2955000D02*
D03*
Y1135000D02*
D03*
X2430000Y1600000D02*
D03*
Y1803000D02*
D03*
X2955000D02*
D03*
Y1600000D02*
D03*
Y2065000D02*
D03*
Y2268000D02*
D03*
X2430000D02*
D03*
Y2065000D02*
D03*
D72*
X1770000Y2385000D02*
D03*
X1370000D02*
D03*
X970000Y1040000D02*
D03*
Y2390000D02*
D03*
X3740000D02*
D03*
Y1040000D02*
D03*
Y290000D02*
D03*
X970000D02*
D03*
X1370000Y1292000D02*
D03*
X1770000D02*
D03*
X1370000Y2210000D02*
D03*
Y1925000D02*
D03*
X1770000D02*
D03*
X1370000Y1040000D02*
D03*
X1770000D02*
D03*
X1770000Y2210000D02*
D03*
Y1750000D02*
D03*
Y1465000D02*
D03*
X1370000D02*
D03*
Y1750000D02*
D03*
D73*
X3380300Y1921400D02*
D03*
Y1997600D02*
D03*
X3558100Y2023000D02*
D03*
X3380300Y1201400D02*
D03*
Y1277600D02*
D03*
X3558100Y1303000D02*
D03*
X3380300Y1561400D02*
D03*
Y1637600D02*
D03*
X3558100Y1663000D02*
D03*
X3080300Y1201400D02*
D03*
Y1277600D02*
D03*
X3258100Y1303000D02*
D03*
X3080300Y1561400D02*
D03*
Y1637600D02*
D03*
X3258100Y1663000D02*
D03*
X3080300Y1921400D02*
D03*
Y1997600D02*
D03*
X3258100Y2023000D02*
D03*
D74*
X2205000Y318000D02*
D03*
X2305000D02*
D03*
D75*
X967930Y923975D02*
D03*
X1020000D02*
D03*
X1072070D02*
D03*
Y816025D02*
D03*
X1020000D02*
D03*
X967930D02*
D03*
X3742070Y2136025D02*
D03*
X3690000D02*
D03*
X3637930D02*
D03*
Y2243975D02*
D03*
X3690000D02*
D03*
X3742070D02*
D03*
X3637930Y1843975D02*
D03*
X3690000D02*
D03*
X3742070D02*
D03*
Y1736025D02*
D03*
X3690000D02*
D03*
X3637930D02*
D03*
X3742070Y1336025D02*
D03*
X3690000D02*
D03*
X3637930D02*
D03*
Y1443975D02*
D03*
X3690000D02*
D03*
X3742070D02*
D03*
X967930Y713975D02*
D03*
X1020000D02*
D03*
X1072070D02*
D03*
Y606025D02*
D03*
X1020000D02*
D03*
X967930D02*
D03*
X3637930Y2043975D02*
D03*
X3690000D02*
D03*
X3742070D02*
D03*
Y1936025D02*
D03*
X3690000D02*
D03*
X3637930D02*
D03*
Y1643975D02*
D03*
X3690000D02*
D03*
X3742070D02*
D03*
Y1536025D02*
D03*
X3690000D02*
D03*
X3637930D02*
D03*
X3742070Y1136025D02*
D03*
X3690000D02*
D03*
X3637930D02*
D03*
Y1243975D02*
D03*
X3690000D02*
D03*
X3742070D02*
D03*
D76*
X1960000Y2290000D02*
D03*
X2100000Y2050000D02*
D03*
X1960000Y1830000D02*
D03*
X2100000Y1590000D02*
D03*
X1960000Y1370000D02*
D03*
X2100000Y1130000D02*
D03*
D77*
X2030000Y2050000D02*
D03*
Y2290000D02*
D03*
Y1590000D02*
D03*
Y1830000D02*
D03*
Y1130000D02*
D03*
Y1370000D02*
D03*
D78*
X2901000Y1437500D02*
D03*
Y1062500D02*
D03*
X2799000Y1437500D02*
D03*
Y1062500D02*
D03*
X2591000Y1437500D02*
D03*
Y1062500D02*
D03*
X2489000Y1437500D02*
D03*
Y1062500D02*
D03*
X2901000Y1887500D02*
D03*
Y1512500D02*
D03*
X2799000Y1887500D02*
D03*
Y1512500D02*
D03*
X2591000Y1887500D02*
D03*
Y1512500D02*
D03*
X2489000Y1887500D02*
D03*
Y1512500D02*
D03*
X2901000Y2337500D02*
D03*
Y1962500D02*
D03*
X2799000Y2337500D02*
D03*
Y1962500D02*
D03*
X2591000Y2337500D02*
D03*
Y1962500D02*
D03*
X2489000Y2337500D02*
D03*
Y1962500D02*
D03*
D79*
X1375000Y1114000D02*
D03*
X1291840Y1603000D02*
D03*
X1362840Y1541000D02*
D03*
X1378840Y1585000D02*
D03*
X1291840Y1159000D02*
D03*
X1373000Y1135000D02*
D03*
X1379000Y2045000D02*
D03*
X1363000Y2001000D02*
D03*
X2304000Y948000D02*
D03*
Y985000D02*
D03*
Y967000D02*
D03*
X2324000Y985000D02*
D03*
X2304000Y929000D02*
D03*
Y910000D02*
D03*
Y893000D02*
D03*
Y875000D02*
D03*
Y858000D02*
D03*
Y841000D02*
D03*
Y823000D02*
D03*
Y805000D02*
D03*
X2050000Y385000D02*
D03*
Y405000D02*
D03*
Y425000D02*
D03*
Y445000D02*
D03*
Y530000D02*
D03*
Y550000D02*
D03*
Y570000D02*
D03*
Y590000D02*
D03*
Y700000D02*
D03*
Y720000D02*
D03*
Y740000D02*
D03*
Y760000D02*
D03*
Y780000D02*
D03*
Y800000D02*
D03*
Y820000D02*
D03*
Y840000D02*
D03*
X1915000Y870000D02*
D03*
X1935000D02*
D03*
X1955000D02*
D03*
X1975000D02*
D03*
X1700000D02*
D03*
X1720000D02*
D03*
X1740000D02*
D03*
X1760000D02*
D03*
X1500000D02*
D03*
X1520000D02*
D03*
X1540000D02*
D03*
X1560000D02*
D03*
X1320000D02*
D03*
X1340000D02*
D03*
X1360000D02*
D03*
X1380000D02*
D03*
X1205000Y510000D02*
D03*
Y490000D02*
D03*
Y470000D02*
D03*
Y450000D02*
D03*
Y710000D02*
D03*
Y730000D02*
D03*
Y750000D02*
D03*
Y770000D02*
D03*
X2355000Y455000D02*
D03*
X2140000Y435000D02*
D03*
X3590000Y595000D02*
D03*
X3431000Y594000D02*
D03*
X3400000Y595000D02*
D03*
X3480000D02*
D03*
X3560000D02*
D03*
X3505000D02*
D03*
X2310000Y750000D02*
D03*
X2465000Y885000D02*
D03*
X2280000Y1005000D02*
D03*
X2405000Y885000D02*
D03*
Y955000D02*
D03*
Y805000D02*
D03*
X2324000D02*
D03*
Y823000D02*
D03*
Y841000D02*
D03*
Y858000D02*
D03*
Y875000D02*
D03*
Y893000D02*
D03*
Y910000D02*
D03*
Y929000D02*
D03*
Y948000D02*
D03*
Y967000D02*
D03*
X2240000Y490000D02*
D03*
X2130000Y495000D02*
D03*
X2155000Y405000D02*
D03*
X2245000Y460000D02*
D03*
Y430000D02*
D03*
X1281675Y2133825D02*
D03*
X1281500Y1230000D02*
D03*
X1292000Y2063000D02*
D03*
X1281500Y1674000D02*
D03*
D80*
X2361800Y1046500D02*
D03*
X2323700D02*
D03*
X2336400D02*
D03*
X2185000Y650000D02*
D03*
X3580000Y775000D02*
D03*
X3510000D02*
D03*
X2145000Y635000D02*
D03*
X2125000D02*
D03*
X2243000Y597000D02*
D03*
X2202000Y646000D02*
D03*
X2284500Y662500D02*
D03*
X2274000Y649000D02*
D03*
X1424000Y914000D02*
D03*
X2216000Y571000D02*
D03*
X2244000Y637000D02*
D03*
X2349100Y1046500D02*
D03*
X2285600D02*
D03*
X2298300D02*
D03*
X2374500D02*
D03*
X2285550Y1486550D02*
D03*
X2298250D02*
D03*
X3530000Y810000D02*
D03*
X3600000D02*
D03*
X2355000Y2325000D02*
D03*
X2390000Y1425000D02*
D03*
Y1875000D02*
D03*
X2374500Y1486500D02*
D03*
X2361800D02*
D03*
X2349100D02*
D03*
X2336400D02*
D03*
X2323700D02*
D03*
X2374500Y1946500D02*
D03*
X2361800D02*
D03*
X2349100D02*
D03*
X2336400D02*
D03*
X2323700D02*
D03*
X2298300D02*
D03*
X2285600D02*
D03*
X3490000Y1095000D02*
D03*
X3405000D02*
D03*
D81*
X1265000Y1215000D02*
D03*
X1216500Y2065500D02*
D03*
Y1210500D02*
D03*
Y1161500D02*
D03*
X1216500Y1605500D02*
D03*
Y1654500D02*
D03*
X1216500Y2114500D02*
D03*
X1690000Y1119000D02*
D03*
X1680000D02*
D03*
X1670000D02*
D03*
X1660000D02*
D03*
X1650000D02*
D03*
X1640000D02*
D03*
X1620000D02*
D03*
X1630000D02*
D03*
X1610000D02*
D03*
X1600000D02*
D03*
X1590000D02*
D03*
X1690000Y1129000D02*
D03*
X1680000D02*
D03*
X1670000D02*
D03*
X1660000D02*
D03*
X1650000D02*
D03*
X1640000D02*
D03*
X1620000D02*
D03*
X1630000D02*
D03*
X1610000D02*
D03*
X1600000D02*
D03*
X1590000D02*
D03*
X1690000Y1139000D02*
D03*
X1680000D02*
D03*
X1670000D02*
D03*
X1660000D02*
D03*
X1650000D02*
D03*
X1640000D02*
D03*
X1620000D02*
D03*
X1630000D02*
D03*
X1610000D02*
D03*
X1600000D02*
D03*
X1590000D02*
D03*
X1690000Y1149000D02*
D03*
X1680000D02*
D03*
X1670000D02*
D03*
X1660000D02*
D03*
X1650000D02*
D03*
X1640000D02*
D03*
X1620000D02*
D03*
X1630000D02*
D03*
X1610000D02*
D03*
X1600000D02*
D03*
X1590000D02*
D03*
X1690000Y1159000D02*
D03*
X1680000D02*
D03*
X1670000D02*
D03*
X1660000D02*
D03*
X1650000D02*
D03*
X1640000D02*
D03*
X1620000D02*
D03*
X1630000D02*
D03*
X1610000D02*
D03*
X1600000D02*
D03*
X1590000D02*
D03*
X1690000Y1169000D02*
D03*
X1680000D02*
D03*
X1670000D02*
D03*
X1660000D02*
D03*
X1650000D02*
D03*
X1640000D02*
D03*
X1620000D02*
D03*
X1630000D02*
D03*
X1610000D02*
D03*
X1600000D02*
D03*
X1590000D02*
D03*
X1690000Y1179000D02*
D03*
X1680000D02*
D03*
X1670000D02*
D03*
X1660000D02*
D03*
X1650000D02*
D03*
X1640000D02*
D03*
X1620000D02*
D03*
X1630000D02*
D03*
X1610000D02*
D03*
X1600000D02*
D03*
X1590000D02*
D03*
X1690000Y1189000D02*
D03*
X1680000D02*
D03*
X1670000D02*
D03*
X1660000D02*
D03*
X1650000D02*
D03*
X1640000D02*
D03*
X1620000D02*
D03*
X1630000D02*
D03*
X1610000D02*
D03*
X1600000D02*
D03*
X1590000D02*
D03*
X1690000Y1199000D02*
D03*
X1680000D02*
D03*
X1670000D02*
D03*
X1660000D02*
D03*
X1650000D02*
D03*
X1640000D02*
D03*
X1620000D02*
D03*
X1630000D02*
D03*
X1610000D02*
D03*
X1600000D02*
D03*
X1590000D02*
D03*
X1660000Y1109000D02*
D03*
X1640000D02*
D03*
X1650000D02*
D03*
X1670000D02*
D03*
X1610000D02*
D03*
X1600000D02*
D03*
X1620000D02*
D03*
X1690000D02*
D03*
X1630000D02*
D03*
X1680000D02*
D03*
X1590000D02*
D03*
X1450000D02*
D03*
X1540000D02*
D03*
X1490000D02*
D03*
X1550000D02*
D03*
X1480000D02*
D03*
X1460000D02*
D03*
X1470000D02*
D03*
X1530000D02*
D03*
X1510000D02*
D03*
X1500000D02*
D03*
X1520000D02*
D03*
X1450000Y1199000D02*
D03*
X1460000D02*
D03*
X1470000D02*
D03*
X1490000D02*
D03*
X1480000D02*
D03*
X1500000D02*
D03*
X1510000D02*
D03*
X1520000D02*
D03*
X1530000D02*
D03*
X1540000D02*
D03*
X1550000D02*
D03*
X1450000Y1189000D02*
D03*
X1460000D02*
D03*
X1470000D02*
D03*
X1490000D02*
D03*
X1480000D02*
D03*
X1500000D02*
D03*
X1510000D02*
D03*
X1520000D02*
D03*
X1530000D02*
D03*
X1540000D02*
D03*
X1550000D02*
D03*
X1450000Y1179000D02*
D03*
X1460000D02*
D03*
X1470000D02*
D03*
X1490000D02*
D03*
X1480000D02*
D03*
X1500000D02*
D03*
X1510000D02*
D03*
X1520000D02*
D03*
X1530000D02*
D03*
X1540000D02*
D03*
X1550000D02*
D03*
X1450000Y1169000D02*
D03*
X1460000D02*
D03*
X1470000D02*
D03*
X1490000D02*
D03*
X1480000D02*
D03*
X1500000D02*
D03*
X1510000D02*
D03*
X1520000D02*
D03*
X1530000D02*
D03*
X1540000D02*
D03*
X1550000D02*
D03*
X1450000Y1159000D02*
D03*
X1460000D02*
D03*
X1470000D02*
D03*
X1490000D02*
D03*
X1480000D02*
D03*
X1500000D02*
D03*
X1510000D02*
D03*
X1520000D02*
D03*
X1530000D02*
D03*
X1540000D02*
D03*
X1550000D02*
D03*
X1450000Y1149000D02*
D03*
X1460000D02*
D03*
X1470000D02*
D03*
X1490000D02*
D03*
X1480000D02*
D03*
X1500000D02*
D03*
X1510000D02*
D03*
X1520000D02*
D03*
X1530000D02*
D03*
X1540000D02*
D03*
X1550000D02*
D03*
X1450000Y1139000D02*
D03*
X1460000D02*
D03*
X1470000D02*
D03*
X1490000D02*
D03*
X1480000D02*
D03*
X1500000D02*
D03*
X1510000D02*
D03*
X1520000D02*
D03*
X1530000D02*
D03*
X1540000D02*
D03*
X1550000D02*
D03*
X1450000Y1129000D02*
D03*
X1460000D02*
D03*
X1470000D02*
D03*
X1490000D02*
D03*
X1480000D02*
D03*
X1500000D02*
D03*
X1510000D02*
D03*
X1520000D02*
D03*
X1530000D02*
D03*
X1540000D02*
D03*
X1550000D02*
D03*
X1450000Y1119000D02*
D03*
X1460000D02*
D03*
X1470000D02*
D03*
X1490000D02*
D03*
X1480000D02*
D03*
X1500000D02*
D03*
X1510000D02*
D03*
X1520000D02*
D03*
X1530000D02*
D03*
X1540000D02*
D03*
X1550000D02*
D03*
X1690000Y1575000D02*
D03*
X1680000D02*
D03*
X1670000D02*
D03*
X1660000D02*
D03*
X1650000D02*
D03*
X1640000D02*
D03*
X1620000D02*
D03*
X1630000D02*
D03*
X1610000D02*
D03*
X1600000D02*
D03*
X1590000D02*
D03*
X1690000Y1585000D02*
D03*
X1680000D02*
D03*
X1670000D02*
D03*
X1660000D02*
D03*
X1650000D02*
D03*
X1640000D02*
D03*
X1620000D02*
D03*
X1630000D02*
D03*
X1610000D02*
D03*
X1600000D02*
D03*
X1590000D02*
D03*
X1690000Y1595000D02*
D03*
X1680000D02*
D03*
X1670000D02*
D03*
X1660000D02*
D03*
X1650000D02*
D03*
X1640000D02*
D03*
X1620000D02*
D03*
X1630000D02*
D03*
X1610000D02*
D03*
X1600000D02*
D03*
X1590000D02*
D03*
X1690000Y1605000D02*
D03*
X1680000D02*
D03*
X1670000D02*
D03*
X1660000D02*
D03*
X1650000D02*
D03*
X1640000D02*
D03*
X1620000D02*
D03*
X1630000D02*
D03*
X1610000D02*
D03*
X1600000D02*
D03*
X1590000D02*
D03*
X1690000Y1615000D02*
D03*
X1680000D02*
D03*
X1670000D02*
D03*
X1660000D02*
D03*
X1650000D02*
D03*
X1640000D02*
D03*
X1620000D02*
D03*
X1630000D02*
D03*
X1610000D02*
D03*
X1600000D02*
D03*
X1590000D02*
D03*
X1690000Y1625000D02*
D03*
X1680000D02*
D03*
X1670000D02*
D03*
X1660000D02*
D03*
X1650000D02*
D03*
X1640000D02*
D03*
X1620000D02*
D03*
X1630000D02*
D03*
X1610000D02*
D03*
X1600000D02*
D03*
X1590000D02*
D03*
X1690000Y1635000D02*
D03*
X1680000D02*
D03*
X1670000D02*
D03*
X1660000D02*
D03*
X1650000D02*
D03*
X1640000D02*
D03*
X1620000D02*
D03*
X1630000D02*
D03*
X1610000D02*
D03*
X1600000D02*
D03*
X1590000D02*
D03*
X1690000Y1645000D02*
D03*
X1680000D02*
D03*
X1670000D02*
D03*
X1660000D02*
D03*
X1650000D02*
D03*
X1640000D02*
D03*
X1620000D02*
D03*
X1630000D02*
D03*
X1610000D02*
D03*
X1600000D02*
D03*
X1590000D02*
D03*
X1690000Y1655000D02*
D03*
X1680000D02*
D03*
X1670000D02*
D03*
X1660000D02*
D03*
X1650000D02*
D03*
X1640000D02*
D03*
X1620000D02*
D03*
X1630000D02*
D03*
X1610000D02*
D03*
X1600000D02*
D03*
X1590000D02*
D03*
X1660000Y1565000D02*
D03*
X1640000D02*
D03*
X1650000D02*
D03*
X1670000D02*
D03*
X1610000D02*
D03*
X1600000D02*
D03*
X1620000D02*
D03*
X1690000D02*
D03*
X1630000D02*
D03*
X1680000D02*
D03*
X1590000D02*
D03*
X1450000D02*
D03*
X1540000D02*
D03*
X1490000D02*
D03*
X1550000D02*
D03*
X1480000D02*
D03*
X1460000D02*
D03*
X1470000D02*
D03*
X1530000D02*
D03*
X1510000D02*
D03*
X1500000D02*
D03*
X1520000D02*
D03*
X1450000Y1655000D02*
D03*
X1460000D02*
D03*
X1470000D02*
D03*
X1490000D02*
D03*
X1480000D02*
D03*
X1500000D02*
D03*
X1510000D02*
D03*
X1520000D02*
D03*
X1530000D02*
D03*
X1540000D02*
D03*
X1550000D02*
D03*
X1450000Y1645000D02*
D03*
X1460000D02*
D03*
X1470000D02*
D03*
X1490000D02*
D03*
X1480000D02*
D03*
X1500000D02*
D03*
X1510000D02*
D03*
X1520000D02*
D03*
X1530000D02*
D03*
X1540000D02*
D03*
X1550000D02*
D03*
X1450000Y1635000D02*
D03*
X1460000D02*
D03*
X1470000D02*
D03*
X1490000D02*
D03*
X1480000D02*
D03*
X1500000D02*
D03*
X1510000D02*
D03*
X1520000D02*
D03*
X1530000D02*
D03*
X1540000D02*
D03*
X1550000D02*
D03*
X1450000Y1625000D02*
D03*
X1460000D02*
D03*
X1470000D02*
D03*
X1490000D02*
D03*
X1480000D02*
D03*
X1500000D02*
D03*
X1510000D02*
D03*
X1520000D02*
D03*
X1530000D02*
D03*
X1540000D02*
D03*
X1550000D02*
D03*
X1450000Y1615000D02*
D03*
X1460000D02*
D03*
X1470000D02*
D03*
X1490000D02*
D03*
X1480000D02*
D03*
X1500000D02*
D03*
X1510000D02*
D03*
X1520000D02*
D03*
X1530000D02*
D03*
X1540000D02*
D03*
X1550000D02*
D03*
X1450000Y1605000D02*
D03*
X1460000D02*
D03*
X1470000D02*
D03*
X1490000D02*
D03*
X1480000D02*
D03*
X1500000D02*
D03*
X1510000D02*
D03*
X1520000D02*
D03*
X1530000D02*
D03*
X1540000D02*
D03*
X1550000D02*
D03*
X1450000Y1595000D02*
D03*
X1460000D02*
D03*
X1470000D02*
D03*
X1490000D02*
D03*
X1480000D02*
D03*
X1500000D02*
D03*
X1510000D02*
D03*
X1520000D02*
D03*
X1530000D02*
D03*
X1540000D02*
D03*
X1550000D02*
D03*
X1450000Y1585000D02*
D03*
X1460000D02*
D03*
X1470000D02*
D03*
X1490000D02*
D03*
X1480000D02*
D03*
X1500000D02*
D03*
X1510000D02*
D03*
X1520000D02*
D03*
X1530000D02*
D03*
X1540000D02*
D03*
X1550000D02*
D03*
X1450000Y1575000D02*
D03*
X1460000D02*
D03*
X1470000D02*
D03*
X1490000D02*
D03*
X1480000D02*
D03*
X1500000D02*
D03*
X1510000D02*
D03*
X1520000D02*
D03*
X1530000D02*
D03*
X1540000D02*
D03*
X1550000D02*
D03*
X1690000Y2035000D02*
D03*
X1680000D02*
D03*
X1670000D02*
D03*
X1660000D02*
D03*
X1650000D02*
D03*
X1640000D02*
D03*
X1620000D02*
D03*
X1630000D02*
D03*
X1610000D02*
D03*
X1600000D02*
D03*
X1590000D02*
D03*
X1690000Y2045000D02*
D03*
X1680000D02*
D03*
X1670000D02*
D03*
X1660000D02*
D03*
X1650000D02*
D03*
X1640000D02*
D03*
X1620000D02*
D03*
X1630000D02*
D03*
X1610000D02*
D03*
X1600000D02*
D03*
X1590000D02*
D03*
X1690000Y2055000D02*
D03*
X1680000D02*
D03*
X1670000D02*
D03*
X1660000D02*
D03*
X1650000D02*
D03*
X1640000D02*
D03*
X1620000D02*
D03*
X1630000D02*
D03*
X1610000D02*
D03*
X1600000D02*
D03*
X1590000D02*
D03*
X1690000Y2065000D02*
D03*
X1680000D02*
D03*
X1670000D02*
D03*
X1660000D02*
D03*
X1650000D02*
D03*
X1640000D02*
D03*
X1620000D02*
D03*
X1630000D02*
D03*
X1610000D02*
D03*
X1600000D02*
D03*
X1590000D02*
D03*
X1690000Y2075000D02*
D03*
X1680000D02*
D03*
X1670000D02*
D03*
X1660000D02*
D03*
X1650000D02*
D03*
X1640000D02*
D03*
X1620000D02*
D03*
X1630000D02*
D03*
X1610000D02*
D03*
X1600000D02*
D03*
X1590000D02*
D03*
X1690000Y2085000D02*
D03*
X1680000D02*
D03*
X1670000D02*
D03*
X1660000D02*
D03*
X1650000D02*
D03*
X1640000D02*
D03*
X1620000D02*
D03*
X1630000D02*
D03*
X1610000D02*
D03*
X1600000D02*
D03*
X1590000D02*
D03*
X1690000Y2095000D02*
D03*
X1680000D02*
D03*
X1670000D02*
D03*
X1660000D02*
D03*
X1650000D02*
D03*
X1640000D02*
D03*
X1620000D02*
D03*
X1630000D02*
D03*
X1610000D02*
D03*
X1600000D02*
D03*
X1590000D02*
D03*
X1690000Y2105000D02*
D03*
X1680000D02*
D03*
X1670000D02*
D03*
X1660000D02*
D03*
X1650000D02*
D03*
X1640000D02*
D03*
X1620000D02*
D03*
X1630000D02*
D03*
X1610000D02*
D03*
X1600000D02*
D03*
X1590000D02*
D03*
X1690000Y2115000D02*
D03*
X1680000D02*
D03*
X1670000D02*
D03*
X1660000D02*
D03*
X1650000D02*
D03*
X1640000D02*
D03*
X1620000D02*
D03*
X1630000D02*
D03*
X1610000D02*
D03*
X1600000D02*
D03*
X1590000D02*
D03*
X1660000Y2025000D02*
D03*
X1640000D02*
D03*
X1650000D02*
D03*
X1670000D02*
D03*
X1610000D02*
D03*
X1600000D02*
D03*
X1620000D02*
D03*
X1690000D02*
D03*
X1630000D02*
D03*
X1680000D02*
D03*
X1590000D02*
D03*
X1450000D02*
D03*
X1540000D02*
D03*
X1490000D02*
D03*
X1550000D02*
D03*
X1480000D02*
D03*
X1460000D02*
D03*
X1470000D02*
D03*
X1530000D02*
D03*
X1510000D02*
D03*
X1500000D02*
D03*
X1520000D02*
D03*
X1450000Y2115000D02*
D03*
X1460000D02*
D03*
X1470000D02*
D03*
X1490000D02*
D03*
X1480000D02*
D03*
X1500000D02*
D03*
X1510000D02*
D03*
X1520000D02*
D03*
X1530000D02*
D03*
X1540000D02*
D03*
X1550000D02*
D03*
X1450000Y2105000D02*
D03*
X1460000D02*
D03*
X1470000D02*
D03*
X1490000D02*
D03*
X1480000D02*
D03*
X1500000D02*
D03*
X1510000D02*
D03*
X1520000D02*
D03*
X1530000D02*
D03*
X1540000D02*
D03*
X1550000D02*
D03*
X1450000Y2095000D02*
D03*
X1460000D02*
D03*
X1470000D02*
D03*
X1490000D02*
D03*
X1480000D02*
D03*
X1500000D02*
D03*
X1510000D02*
D03*
X1520000D02*
D03*
X1530000D02*
D03*
X1540000D02*
D03*
X1550000D02*
D03*
X1450000Y2085000D02*
D03*
X1460000D02*
D03*
X1470000D02*
D03*
X1490000D02*
D03*
X1480000D02*
D03*
X1500000D02*
D03*
X1510000D02*
D03*
X1520000D02*
D03*
X1530000D02*
D03*
X1540000D02*
D03*
X1550000D02*
D03*
X1450000Y2075000D02*
D03*
X1460000D02*
D03*
X1470000D02*
D03*
X1490000D02*
D03*
X1480000D02*
D03*
X1500000D02*
D03*
X1510000D02*
D03*
X1520000D02*
D03*
X1530000D02*
D03*
X1540000D02*
D03*
X1550000D02*
D03*
X1450000Y2065000D02*
D03*
X1460000D02*
D03*
X1470000D02*
D03*
X1490000D02*
D03*
X1480000D02*
D03*
X1500000D02*
D03*
X1510000D02*
D03*
X1520000D02*
D03*
X1530000D02*
D03*
X1540000D02*
D03*
X1550000D02*
D03*
X1450000Y2055000D02*
D03*
X1460000D02*
D03*
X1470000D02*
D03*
X1490000D02*
D03*
X1480000D02*
D03*
X1500000D02*
D03*
X1510000D02*
D03*
X1520000D02*
D03*
X1530000D02*
D03*
X1540000D02*
D03*
X1550000D02*
D03*
X1450000Y2045000D02*
D03*
X1460000D02*
D03*
X1470000D02*
D03*
X1490000D02*
D03*
X1480000D02*
D03*
X1500000D02*
D03*
X1510000D02*
D03*
X1520000D02*
D03*
X1530000D02*
D03*
X1540000D02*
D03*
X1550000D02*
D03*
X1450000Y2035000D02*
D03*
X1460000D02*
D03*
X1470000D02*
D03*
X1490000D02*
D03*
X1480000D02*
D03*
X1500000D02*
D03*
X1510000D02*
D03*
X1520000D02*
D03*
X1530000D02*
D03*
X1540000D02*
D03*
X1550000D02*
D03*
X1265000Y2119000D02*
D03*
X1550000Y1339000D02*
D03*
X1540000D02*
D03*
X1530000D02*
D03*
X1520000D02*
D03*
X1510000D02*
D03*
X1500000D02*
D03*
X1480000D02*
D03*
X1490000D02*
D03*
X1470000D02*
D03*
X1460000D02*
D03*
X1450000D02*
D03*
X1550000Y1349000D02*
D03*
X1540000D02*
D03*
X1530000D02*
D03*
X1520000D02*
D03*
X1510000D02*
D03*
X1500000D02*
D03*
X1480000D02*
D03*
X1490000D02*
D03*
X1470000D02*
D03*
X1460000D02*
D03*
X1450000D02*
D03*
X1550000Y1359000D02*
D03*
X1540000D02*
D03*
X1530000D02*
D03*
X1520000D02*
D03*
X1510000D02*
D03*
X1500000D02*
D03*
X1480000D02*
D03*
X1490000D02*
D03*
X1470000D02*
D03*
X1460000D02*
D03*
X1450000D02*
D03*
X1550000Y1369000D02*
D03*
X1540000D02*
D03*
X1530000D02*
D03*
X1520000D02*
D03*
X1510000D02*
D03*
X1500000D02*
D03*
X1480000D02*
D03*
X1490000D02*
D03*
X1470000D02*
D03*
X1460000D02*
D03*
X1450000D02*
D03*
X1550000Y1379000D02*
D03*
X1540000D02*
D03*
X1530000D02*
D03*
X1520000D02*
D03*
X1510000D02*
D03*
X1500000D02*
D03*
X1480000D02*
D03*
X1490000D02*
D03*
X1470000D02*
D03*
X1460000D02*
D03*
X1450000D02*
D03*
X1550000Y1389000D02*
D03*
X1540000D02*
D03*
X1530000D02*
D03*
X1520000D02*
D03*
X1510000D02*
D03*
X1500000D02*
D03*
X1480000D02*
D03*
X1490000D02*
D03*
X1470000D02*
D03*
X1460000D02*
D03*
X1450000D02*
D03*
X1550000Y1399000D02*
D03*
X1540000D02*
D03*
X1530000D02*
D03*
X1520000D02*
D03*
X1510000D02*
D03*
X1500000D02*
D03*
X1480000D02*
D03*
X1490000D02*
D03*
X1470000D02*
D03*
X1460000D02*
D03*
X1450000D02*
D03*
X1550000Y1409000D02*
D03*
X1540000D02*
D03*
X1530000D02*
D03*
X1520000D02*
D03*
X1510000D02*
D03*
X1500000D02*
D03*
X1480000D02*
D03*
X1490000D02*
D03*
X1470000D02*
D03*
X1460000D02*
D03*
X1450000D02*
D03*
X1550000Y1419000D02*
D03*
X1540000D02*
D03*
X1530000D02*
D03*
X1520000D02*
D03*
X1510000D02*
D03*
X1500000D02*
D03*
X1480000D02*
D03*
X1490000D02*
D03*
X1470000D02*
D03*
X1460000D02*
D03*
X1450000D02*
D03*
X1520000Y1329000D02*
D03*
X1500000D02*
D03*
X1510000D02*
D03*
X1530000D02*
D03*
X1470000D02*
D03*
X1460000D02*
D03*
X1480000D02*
D03*
X1550000D02*
D03*
X1490000D02*
D03*
X1540000D02*
D03*
X1450000D02*
D03*
X1590000D02*
D03*
X1680000D02*
D03*
X1630000D02*
D03*
X1690000D02*
D03*
X1620000D02*
D03*
X1600000D02*
D03*
X1610000D02*
D03*
X1670000D02*
D03*
X1650000D02*
D03*
X1640000D02*
D03*
X1660000D02*
D03*
X1590000Y1419000D02*
D03*
X1600000D02*
D03*
X1610000D02*
D03*
X1630000D02*
D03*
X1620000D02*
D03*
X1640000D02*
D03*
X1650000D02*
D03*
X1660000D02*
D03*
X1670000D02*
D03*
X1680000D02*
D03*
X1690000D02*
D03*
X1590000Y1409000D02*
D03*
X1600000D02*
D03*
X1610000D02*
D03*
X1630000D02*
D03*
X1620000D02*
D03*
X1640000D02*
D03*
X1650000D02*
D03*
X1660000D02*
D03*
X1670000D02*
D03*
X1680000D02*
D03*
X1690000D02*
D03*
X1590000Y1399000D02*
D03*
X1600000D02*
D03*
X1610000D02*
D03*
X1630000D02*
D03*
X1620000D02*
D03*
X1640000D02*
D03*
X1650000D02*
D03*
X1660000D02*
D03*
X1670000D02*
D03*
X1680000D02*
D03*
X1690000D02*
D03*
X1590000Y1389000D02*
D03*
X1600000D02*
D03*
X1610000D02*
D03*
X1630000D02*
D03*
X1620000D02*
D03*
X1640000D02*
D03*
X1650000D02*
D03*
X1660000D02*
D03*
X1670000D02*
D03*
X1680000D02*
D03*
X1690000D02*
D03*
X1590000Y1379000D02*
D03*
X1600000D02*
D03*
X1610000D02*
D03*
X1630000D02*
D03*
X1620000D02*
D03*
X1640000D02*
D03*
X1650000D02*
D03*
X1660000D02*
D03*
X1670000D02*
D03*
X1680000D02*
D03*
X1690000D02*
D03*
X1590000Y1369000D02*
D03*
X1600000D02*
D03*
X1610000D02*
D03*
X1630000D02*
D03*
X1620000D02*
D03*
X1640000D02*
D03*
X1650000D02*
D03*
X1660000D02*
D03*
X1670000D02*
D03*
X1680000D02*
D03*
X1690000D02*
D03*
X1590000Y1359000D02*
D03*
X1600000D02*
D03*
X1610000D02*
D03*
X1630000D02*
D03*
X1620000D02*
D03*
X1640000D02*
D03*
X1650000D02*
D03*
X1660000D02*
D03*
X1670000D02*
D03*
X1680000D02*
D03*
X1690000D02*
D03*
X1590000Y1349000D02*
D03*
X1600000D02*
D03*
X1610000D02*
D03*
X1630000D02*
D03*
X1620000D02*
D03*
X1640000D02*
D03*
X1650000D02*
D03*
X1660000D02*
D03*
X1670000D02*
D03*
X1680000D02*
D03*
X1690000D02*
D03*
X1590000Y1339000D02*
D03*
X1600000D02*
D03*
X1610000D02*
D03*
X1630000D02*
D03*
X1620000D02*
D03*
X1640000D02*
D03*
X1650000D02*
D03*
X1660000D02*
D03*
X1670000D02*
D03*
X1680000D02*
D03*
X1690000D02*
D03*
X1550000Y2257000D02*
D03*
X1540000D02*
D03*
X1530000D02*
D03*
X1520000D02*
D03*
X1510000D02*
D03*
X1500000D02*
D03*
X1480000D02*
D03*
X1490000D02*
D03*
X1470000D02*
D03*
X1460000D02*
D03*
X1450000D02*
D03*
X1550000Y2267000D02*
D03*
X1540000D02*
D03*
X1530000D02*
D03*
X1520000D02*
D03*
X1510000D02*
D03*
X1500000D02*
D03*
X1480000D02*
D03*
X1490000D02*
D03*
X1470000D02*
D03*
X1460000D02*
D03*
X1450000D02*
D03*
X1550000Y2277000D02*
D03*
X1540000D02*
D03*
X1530000D02*
D03*
X1520000D02*
D03*
X1510000D02*
D03*
X1500000D02*
D03*
X1480000D02*
D03*
X1490000D02*
D03*
X1470000D02*
D03*
X1460000D02*
D03*
X1450000D02*
D03*
X1550000Y2287000D02*
D03*
X1540000D02*
D03*
X1530000D02*
D03*
X1520000D02*
D03*
X1510000D02*
D03*
X1500000D02*
D03*
X1480000D02*
D03*
X1490000D02*
D03*
X1470000D02*
D03*
X1460000D02*
D03*
X1450000D02*
D03*
X1550000Y2297000D02*
D03*
X1540000D02*
D03*
X1530000D02*
D03*
X1520000D02*
D03*
X1510000D02*
D03*
X1500000D02*
D03*
X1480000D02*
D03*
X1490000D02*
D03*
X1470000D02*
D03*
X1460000D02*
D03*
X1450000D02*
D03*
X1550000Y2307000D02*
D03*
X1540000D02*
D03*
X1530000D02*
D03*
X1520000D02*
D03*
X1510000D02*
D03*
X1500000D02*
D03*
X1480000D02*
D03*
X1490000D02*
D03*
X1470000D02*
D03*
X1460000D02*
D03*
X1450000D02*
D03*
X1550000Y2317000D02*
D03*
X1540000D02*
D03*
X1530000D02*
D03*
X1520000D02*
D03*
X1510000D02*
D03*
X1500000D02*
D03*
X1480000D02*
D03*
X1490000D02*
D03*
X1470000D02*
D03*
X1460000D02*
D03*
X1450000D02*
D03*
X1550000Y2327000D02*
D03*
X1540000D02*
D03*
X1530000D02*
D03*
X1520000D02*
D03*
X1510000D02*
D03*
X1500000D02*
D03*
X1480000D02*
D03*
X1490000D02*
D03*
X1470000D02*
D03*
X1460000D02*
D03*
X1450000D02*
D03*
X1550000Y2337000D02*
D03*
X1540000D02*
D03*
X1530000D02*
D03*
X1520000D02*
D03*
X1510000D02*
D03*
X1500000D02*
D03*
X1480000D02*
D03*
X1490000D02*
D03*
X1470000D02*
D03*
X1460000D02*
D03*
X1450000D02*
D03*
X1520000Y2247000D02*
D03*
X1500000D02*
D03*
X1510000D02*
D03*
X1530000D02*
D03*
X1470000D02*
D03*
X1460000D02*
D03*
X1480000D02*
D03*
X1550000D02*
D03*
X1490000D02*
D03*
X1540000D02*
D03*
X1450000D02*
D03*
X1590000D02*
D03*
X1680000D02*
D03*
X1630000D02*
D03*
X1690000D02*
D03*
X1620000D02*
D03*
X1600000D02*
D03*
X1610000D02*
D03*
X1670000D02*
D03*
X1650000D02*
D03*
X1640000D02*
D03*
X1660000D02*
D03*
X1590000Y2337000D02*
D03*
X1600000D02*
D03*
X1610000D02*
D03*
X1630000D02*
D03*
X1620000D02*
D03*
X1640000D02*
D03*
X1650000D02*
D03*
X1660000D02*
D03*
X1670000D02*
D03*
X1680000D02*
D03*
X1690000D02*
D03*
X1590000Y2327000D02*
D03*
X1600000D02*
D03*
X1610000D02*
D03*
X1630000D02*
D03*
X1620000D02*
D03*
X1640000D02*
D03*
X1650000D02*
D03*
X1660000D02*
D03*
X1670000D02*
D03*
X1680000D02*
D03*
X1690000D02*
D03*
X1590000Y2317000D02*
D03*
X1600000D02*
D03*
X1610000D02*
D03*
X1630000D02*
D03*
X1620000D02*
D03*
X1640000D02*
D03*
X1650000D02*
D03*
X1660000D02*
D03*
X1670000D02*
D03*
X1680000D02*
D03*
X1690000D02*
D03*
X1590000Y2307000D02*
D03*
X1600000D02*
D03*
X1610000D02*
D03*
X1630000D02*
D03*
X1620000D02*
D03*
X1640000D02*
D03*
X1650000D02*
D03*
X1660000D02*
D03*
X1670000D02*
D03*
X1680000D02*
D03*
X1690000D02*
D03*
X1590000Y2297000D02*
D03*
X1600000D02*
D03*
X1610000D02*
D03*
X1630000D02*
D03*
X1620000D02*
D03*
X1640000D02*
D03*
X1650000D02*
D03*
X1660000D02*
D03*
X1670000D02*
D03*
X1680000D02*
D03*
X1690000D02*
D03*
X1590000Y2287000D02*
D03*
X1600000D02*
D03*
X1610000D02*
D03*
X1630000D02*
D03*
X1620000D02*
D03*
X1640000D02*
D03*
X1650000D02*
D03*
X1660000D02*
D03*
X1670000D02*
D03*
X1680000D02*
D03*
X1690000D02*
D03*
X1590000Y2277000D02*
D03*
X1600000D02*
D03*
X1610000D02*
D03*
X1630000D02*
D03*
X1620000D02*
D03*
X1640000D02*
D03*
X1650000D02*
D03*
X1660000D02*
D03*
X1670000D02*
D03*
X1680000D02*
D03*
X1690000D02*
D03*
X1590000Y2267000D02*
D03*
X1600000D02*
D03*
X1610000D02*
D03*
X1630000D02*
D03*
X1620000D02*
D03*
X1640000D02*
D03*
X1650000D02*
D03*
X1660000D02*
D03*
X1670000D02*
D03*
X1680000D02*
D03*
X1690000D02*
D03*
X1590000Y2257000D02*
D03*
X1600000D02*
D03*
X1610000D02*
D03*
X1630000D02*
D03*
X1620000D02*
D03*
X1640000D02*
D03*
X1650000D02*
D03*
X1660000D02*
D03*
X1670000D02*
D03*
X1680000D02*
D03*
X1690000D02*
D03*
Y1797000D02*
D03*
X1680000D02*
D03*
X1670000D02*
D03*
X1660000D02*
D03*
X1650000D02*
D03*
X1640000D02*
D03*
X1620000D02*
D03*
X1630000D02*
D03*
X1610000D02*
D03*
X1600000D02*
D03*
X1590000D02*
D03*
X1690000Y1807000D02*
D03*
X1680000D02*
D03*
X1670000D02*
D03*
X1660000D02*
D03*
X1650000D02*
D03*
X1640000D02*
D03*
X1620000D02*
D03*
X1630000D02*
D03*
X1610000D02*
D03*
X1600000D02*
D03*
X1590000D02*
D03*
X1690000Y1817000D02*
D03*
X1680000D02*
D03*
X1670000D02*
D03*
X1660000D02*
D03*
X1650000D02*
D03*
X1640000D02*
D03*
X1620000D02*
D03*
X1630000D02*
D03*
X1610000D02*
D03*
X1600000D02*
D03*
X1590000D02*
D03*
X1690000Y1827000D02*
D03*
X1680000D02*
D03*
X1670000D02*
D03*
X1660000D02*
D03*
X1650000D02*
D03*
X1640000D02*
D03*
X1620000D02*
D03*
X1630000D02*
D03*
X1610000D02*
D03*
X1600000D02*
D03*
X1590000D02*
D03*
X1690000Y1837000D02*
D03*
X1680000D02*
D03*
X1670000D02*
D03*
X1660000D02*
D03*
X1650000D02*
D03*
X1640000D02*
D03*
X1620000D02*
D03*
X1630000D02*
D03*
X1610000D02*
D03*
X1600000D02*
D03*
X1590000D02*
D03*
X1690000Y1847000D02*
D03*
X1680000D02*
D03*
X1670000D02*
D03*
X1660000D02*
D03*
X1650000D02*
D03*
X1640000D02*
D03*
X1620000D02*
D03*
X1630000D02*
D03*
X1610000D02*
D03*
X1600000D02*
D03*
X1590000D02*
D03*
X1690000Y1857000D02*
D03*
X1680000D02*
D03*
X1670000D02*
D03*
X1660000D02*
D03*
X1650000D02*
D03*
X1640000D02*
D03*
X1620000D02*
D03*
X1630000D02*
D03*
X1610000D02*
D03*
X1600000D02*
D03*
X1590000D02*
D03*
X1690000Y1867000D02*
D03*
X1680000D02*
D03*
X1670000D02*
D03*
X1660000D02*
D03*
X1650000D02*
D03*
X1640000D02*
D03*
X1620000D02*
D03*
X1630000D02*
D03*
X1610000D02*
D03*
X1600000D02*
D03*
X1590000D02*
D03*
X1690000Y1877000D02*
D03*
X1680000D02*
D03*
X1670000D02*
D03*
X1660000D02*
D03*
X1650000D02*
D03*
X1640000D02*
D03*
X1620000D02*
D03*
X1630000D02*
D03*
X1610000D02*
D03*
X1600000D02*
D03*
X1590000D02*
D03*
X1660000Y1787000D02*
D03*
X1640000D02*
D03*
X1650000D02*
D03*
X1670000D02*
D03*
X1610000D02*
D03*
X1600000D02*
D03*
X1620000D02*
D03*
X1690000D02*
D03*
X1630000D02*
D03*
X1680000D02*
D03*
X1590000D02*
D03*
X1450000D02*
D03*
X1540000D02*
D03*
X1490000D02*
D03*
X1550000D02*
D03*
X1480000D02*
D03*
X1460000D02*
D03*
X1470000D02*
D03*
X1530000D02*
D03*
X1510000D02*
D03*
X1500000D02*
D03*
X1520000D02*
D03*
X1450000Y1877000D02*
D03*
X1460000D02*
D03*
X1470000D02*
D03*
X1490000D02*
D03*
X1480000D02*
D03*
X1500000D02*
D03*
X1510000D02*
D03*
X1520000D02*
D03*
X1530000D02*
D03*
X1540000D02*
D03*
X1550000D02*
D03*
X1450000Y1867000D02*
D03*
X1460000D02*
D03*
X1470000D02*
D03*
X1490000D02*
D03*
X1480000D02*
D03*
X1500000D02*
D03*
X1510000D02*
D03*
X1520000D02*
D03*
X1530000D02*
D03*
X1540000D02*
D03*
X1550000D02*
D03*
X1450000Y1857000D02*
D03*
X1460000D02*
D03*
X1470000D02*
D03*
X1490000D02*
D03*
X1480000D02*
D03*
X1500000D02*
D03*
X1510000D02*
D03*
X1520000D02*
D03*
X1530000D02*
D03*
X1540000D02*
D03*
X1550000D02*
D03*
X1450000Y1847000D02*
D03*
X1460000D02*
D03*
X1470000D02*
D03*
X1490000D02*
D03*
X1480000D02*
D03*
X1500000D02*
D03*
X1510000D02*
D03*
X1520000D02*
D03*
X1530000D02*
D03*
X1540000D02*
D03*
X1550000D02*
D03*
X1450000Y1837000D02*
D03*
X1460000D02*
D03*
X1470000D02*
D03*
X1490000D02*
D03*
X1480000D02*
D03*
X1500000D02*
D03*
X1510000D02*
D03*
X1520000D02*
D03*
X1530000D02*
D03*
X1540000D02*
D03*
X1550000D02*
D03*
X1450000Y1827000D02*
D03*
X1460000D02*
D03*
X1470000D02*
D03*
X1490000D02*
D03*
X1480000D02*
D03*
X1500000D02*
D03*
X1510000D02*
D03*
X1520000D02*
D03*
X1530000D02*
D03*
X1540000D02*
D03*
X1550000D02*
D03*
X1450000Y1817000D02*
D03*
X1460000D02*
D03*
X1470000D02*
D03*
X1490000D02*
D03*
X1480000D02*
D03*
X1500000D02*
D03*
X1510000D02*
D03*
X1520000D02*
D03*
X1530000D02*
D03*
X1540000D02*
D03*
X1550000D02*
D03*
X1450000Y1807000D02*
D03*
X1460000D02*
D03*
X1470000D02*
D03*
X1490000D02*
D03*
X1480000D02*
D03*
X1500000D02*
D03*
X1510000D02*
D03*
X1520000D02*
D03*
X1530000D02*
D03*
X1540000D02*
D03*
X1550000D02*
D03*
X1450000Y1797000D02*
D03*
X1460000D02*
D03*
X1470000D02*
D03*
X1490000D02*
D03*
X1480000D02*
D03*
X1500000D02*
D03*
X1510000D02*
D03*
X1520000D02*
D03*
X1530000D02*
D03*
X1540000D02*
D03*
X1550000D02*
D03*
X1265000Y1659000D02*
D03*
D82*
X3560000Y910000D02*
D03*
X3590000Y910000D02*
D03*
X3520000D02*
D03*
M02*
