G04*
G04 #@! TF.GenerationSoftware,Altium Limited,Altium Designer,20.0.13 (296)*
G04*
G04 Layer_Color=128*
%FSLAX44Y44*%
%MOMM*%
G71*
G01*
G75*
%ADD114C,0.0508*%
D114*
X2081300Y295000D02*
X2093300D01*
X2087300Y289000D02*
Y301000D01*
X2106700Y295000D02*
X2118700D01*
X2112700Y289000D02*
Y301000D01*
X2582500Y820000D02*
X2592500D01*
X2587500Y815000D02*
Y825000D01*
X3320000Y835000D02*
X3330000D01*
X3325000Y830000D02*
Y840000D01*
X3332500Y472500D02*
X3342500D01*
X3337500Y467500D02*
Y477500D01*
X2045000Y620000D02*
X2055000D01*
X2050000Y615000D02*
Y625000D01*
X1202500Y592500D02*
X1212500D01*
X1207500Y587500D02*
Y597500D01*
X2027500Y872500D02*
X2037500D01*
X2032500Y867500D02*
Y877500D01*
X1630000Y872500D02*
X1640000D01*
X1635000Y867500D02*
Y877500D01*
X1245000Y872500D02*
X1255000D01*
X1250000Y867500D02*
Y877500D01*
X1207500Y275000D02*
X1217500D01*
X1212500Y270000D02*
Y280000D01*
X2045000Y272500D02*
X2055000D01*
X2050000Y267500D02*
Y277500D01*
X2430000Y500000D02*
X2440000D01*
X2435000Y495000D02*
Y505000D01*
X2430000Y450000D02*
X2440000D01*
X2435000Y445000D02*
Y455000D01*
X2430000Y405000D02*
X2440000D01*
X2435000Y400000D02*
Y410000D01*
X2070000Y435000D02*
X2080000D01*
X2075000Y430000D02*
Y440000D01*
X2070000Y465000D02*
X2080000D01*
X2075000Y460000D02*
Y470000D01*
X2095000Y510000D02*
X2105000D01*
X2100000Y505000D02*
Y515000D01*
X1135000Y405000D02*
X1145000D01*
X1140000Y400000D02*
Y410000D01*
X2235000Y2355000D02*
X2245000D01*
X2240000Y2350000D02*
Y2360000D01*
X2220000Y1035000D02*
X2230000D01*
X2225000Y1030000D02*
Y1040000D01*
X2230000Y1945000D02*
X2240000D01*
X2235000Y1940000D02*
Y1950000D01*
X2220000Y1485000D02*
X2230000D01*
X2225000Y1480000D02*
Y1490000D01*
X2465000Y312500D02*
X2475200D01*
X2470100Y307400D02*
Y317600D01*
X2465000Y337900D02*
X2475200D01*
X2470100Y332800D02*
Y343000D01*
X2490400Y312500D02*
X2500600D01*
X2495500Y307400D02*
Y317600D01*
X2490400Y337900D02*
X2500600D01*
X2495500Y332800D02*
Y343000D01*
X2515800Y312500D02*
X2526000D01*
X2520900Y307400D02*
Y317600D01*
X2515800Y337900D02*
X2526000D01*
X2520900Y332800D02*
Y343000D01*
X2541200Y312500D02*
X2551400D01*
X2546300Y307400D02*
Y317600D01*
X2541200Y337900D02*
X2551400D01*
X2546300Y332800D02*
Y343000D01*
X2566600Y312500D02*
X2576800D01*
X2571700Y307400D02*
Y317600D01*
X2566600Y337900D02*
X2576800D01*
X2571700Y332800D02*
Y343000D01*
X2592000Y312500D02*
X2602200D01*
X2597100Y307400D02*
Y317600D01*
X2592000Y337900D02*
X2602200D01*
X2597100Y332800D02*
Y343000D01*
X2617400Y312500D02*
X2627600D01*
X2622500Y307400D02*
Y317600D01*
X2617400Y337900D02*
X2627600D01*
X2622500Y332800D02*
Y343000D01*
X2642800Y312500D02*
X2653000D01*
X2647900Y307400D02*
Y317600D01*
X2642800Y337900D02*
X2653000D01*
X2647900Y332800D02*
Y343000D01*
X2668200Y312500D02*
X2678400D01*
X2673300Y307400D02*
Y317600D01*
X2668200Y337900D02*
X2678400D01*
X2673300Y332800D02*
Y343000D01*
X2693600Y312500D02*
X2703800D01*
X2698700Y307400D02*
Y317600D01*
X2693600Y337900D02*
X2703800D01*
X2698700Y332800D02*
Y343000D01*
X2719000Y312500D02*
X2729200D01*
X2724100Y307400D02*
Y317600D01*
X2719000Y337900D02*
X2729200D01*
X2724100Y332800D02*
Y343000D01*
X2744400Y312500D02*
X2754600D01*
X2749500Y307400D02*
Y317600D01*
X2744400Y337900D02*
X2754600D01*
X2749500Y332800D02*
Y343000D01*
X2769800Y312500D02*
X2780000D01*
X2774900Y307400D02*
Y317600D01*
X2769800Y337900D02*
X2780000D01*
X2774900Y332800D02*
Y343000D01*
X2795200Y312500D02*
X2805400D01*
X2800300Y307400D02*
Y317600D01*
X2795200Y337900D02*
X2805400D01*
X2800300Y332800D02*
Y343000D01*
X2820600Y312500D02*
X2830800D01*
X2825700Y307400D02*
Y317600D01*
X2820600Y337900D02*
X2830800D01*
X2825700Y332800D02*
Y343000D01*
X2846000Y312500D02*
X2856200D01*
X2851100Y307400D02*
Y317600D01*
X2846000Y337900D02*
X2856200D01*
X2851100Y332800D02*
Y343000D01*
X2871400Y312500D02*
X2881600D01*
X2876500Y307400D02*
Y317600D01*
X2871400Y337900D02*
X2881600D01*
X2876500Y332800D02*
Y343000D01*
X2896800Y312500D02*
X2907000D01*
X2901900Y307400D02*
Y317600D01*
X2896800Y337900D02*
X2907000D01*
X2901900Y332800D02*
Y343000D01*
X2922200Y312500D02*
X2932400D01*
X2927300Y307400D02*
Y317600D01*
X2922200Y337900D02*
X2932400D01*
X2927300Y332800D02*
Y343000D01*
X2947600Y312500D02*
X2957800D01*
X2952700Y307400D02*
Y317600D01*
X2947600Y337900D02*
X2957800D01*
X2952700Y332800D02*
Y343000D01*
X2973000Y312500D02*
X2983200D01*
X2978100Y307400D02*
Y317600D01*
X2973000Y337900D02*
X2983200D01*
X2978100Y332800D02*
Y343000D01*
X2998400Y312500D02*
X3008600D01*
X3003500Y307400D02*
Y317600D01*
X2998400Y337900D02*
X3008600D01*
X3003500Y332800D02*
Y343000D01*
X3023800Y312500D02*
X3034000D01*
X3028900Y307400D02*
Y317600D01*
X3023800Y337900D02*
X3034000D01*
X3028900Y332800D02*
Y343000D01*
X3049200Y312500D02*
X3059400D01*
X3054300Y307400D02*
Y317600D01*
X3049200Y337900D02*
X3059400D01*
X3054300Y332800D02*
Y343000D01*
X3074600Y312500D02*
X3084800D01*
X3079700Y307400D02*
Y317600D01*
X3074600Y337900D02*
X3084800D01*
X3079700Y332800D02*
Y343000D01*
X3100000Y312500D02*
X3110200D01*
X3105100Y307400D02*
Y317600D01*
X3100000Y337900D02*
X3110200D01*
X3105100Y332800D02*
Y343000D01*
X3125400Y312500D02*
X3135600D01*
X3130500Y307400D02*
Y317600D01*
X3125400Y337900D02*
X3135600D01*
X3130500Y332800D02*
Y343000D01*
X3150800Y312500D02*
X3161000D01*
X3155900Y307400D02*
Y317600D01*
X3150800Y337900D02*
X3161000D01*
X3155900Y332800D02*
Y343000D01*
X3176200Y312500D02*
X3186400D01*
X3181300Y307400D02*
Y317600D01*
X3176200Y337900D02*
X3186400D01*
X3181300Y332800D02*
Y343000D01*
X3201600Y312500D02*
X3211800D01*
X3206700Y307400D02*
Y317600D01*
X3201600Y337900D02*
X3211800D01*
X3206700Y332800D02*
Y343000D01*
X3227000Y312500D02*
X3237200D01*
X3232100Y307400D02*
Y317600D01*
X3227000Y337900D02*
X3237200D01*
X3232100Y332800D02*
Y343000D01*
X3252400Y312500D02*
X3262600D01*
X3257500Y307400D02*
Y317600D01*
X3252400Y337900D02*
X3262600D01*
X3257500Y332800D02*
Y343000D01*
X3277800Y312500D02*
X3288000D01*
X3282900Y307400D02*
Y317600D01*
X3277800Y337900D02*
X3288000D01*
X3282900Y332800D02*
Y343000D01*
X3303200Y312500D02*
X3313400D01*
X3308300Y307400D02*
Y317600D01*
X3303200Y337900D02*
X3313400D01*
X3308300Y332800D02*
Y343000D01*
X3328600Y312500D02*
X3338800D01*
X3333700Y307400D02*
Y317600D01*
X3328600Y337900D02*
X3338800D01*
X3333700Y332800D02*
Y343000D01*
X2668400Y388700D02*
X2678600D01*
X2673500Y383600D02*
Y393800D01*
X2668400Y414100D02*
X2678600D01*
X2673500Y409000D02*
Y419200D01*
X2668400Y845900D02*
X2678600D01*
X2673500Y840800D02*
Y851000D01*
X2668400Y871300D02*
X2678600D01*
X2673500Y866200D02*
Y876400D01*
X3115440Y388700D02*
X3125640D01*
X3120540Y383600D02*
Y393800D01*
X3115440Y414100D02*
X3125640D01*
X3120540Y409000D02*
Y419200D01*
X3140840Y388700D02*
X3151040D01*
X3145940Y383600D02*
Y393800D01*
X3140840Y414100D02*
X3151040D01*
X3145940Y409000D02*
Y419200D01*
X3166240Y388700D02*
X3176440D01*
X3171340Y383600D02*
Y393800D01*
X3166240Y414100D02*
X3176440D01*
X3171340Y409000D02*
Y419200D01*
X3191640Y388700D02*
X3201840D01*
X3196740Y383600D02*
Y393800D01*
X3191640Y414100D02*
X3201840D01*
X3196740Y409000D02*
Y419200D01*
X3217040Y388700D02*
X3227240D01*
X3222140Y383600D02*
Y393800D01*
X3217040Y414100D02*
X3227240D01*
X3222140Y409000D02*
Y419200D01*
X3242440Y388700D02*
X3252640D01*
X3247540Y383600D02*
Y393800D01*
X3242440Y414100D02*
X3252640D01*
X3247540Y409000D02*
Y419200D01*
X3267840Y388700D02*
X3278040D01*
X3272940Y383600D02*
Y393800D01*
X3267840Y414100D02*
X3278040D01*
X3272940Y409000D02*
Y419200D01*
X3293240Y388700D02*
X3303440D01*
X3298340Y383600D02*
Y393800D01*
X3293240Y414100D02*
X3303440D01*
X3298340Y409000D02*
Y419200D01*
X3318640Y388700D02*
X3328840D01*
X3323740Y383600D02*
Y393800D01*
X3318640Y414100D02*
X3328840D01*
X3323740Y409000D02*
Y419200D01*
X3381400Y871300D02*
X3413400D01*
X3397400Y855300D02*
Y887300D01*
X2860700Y541100D02*
X2892700D01*
X2876700Y525100D02*
Y557100D01*
X3368700Y388700D02*
X3400700D01*
X3384700Y372700D02*
Y404700D01*
X2465200Y922100D02*
X2475400D01*
X2470300Y917000D02*
Y927200D01*
X2465200Y947500D02*
X2475400D01*
X2470300Y942400D02*
Y952600D01*
X2693800Y388700D02*
X2704000D01*
X2698900Y383600D02*
Y393800D01*
X2693800Y414100D02*
X2704000D01*
X2698900Y409000D02*
Y419200D01*
X2719200Y388700D02*
X2729400D01*
X2724300Y383600D02*
Y393800D01*
X2719200Y414100D02*
X2729400D01*
X2724300Y409000D02*
Y419200D01*
X2744600Y388700D02*
X2754800D01*
X2749700Y383600D02*
Y393800D01*
X2744600Y414100D02*
X2754800D01*
X2749700Y409000D02*
Y419200D01*
X2770000Y388700D02*
X2780200D01*
X2775100Y383600D02*
Y393800D01*
X2770000Y414100D02*
X2780200D01*
X2775100Y409000D02*
Y419200D01*
X2795400Y388700D02*
X2805600D01*
X2800500Y383600D02*
Y393800D01*
X2795400Y414100D02*
X2805600D01*
X2800500Y409000D02*
Y419200D01*
X2820800Y388700D02*
X2831000D01*
X2825900Y383600D02*
Y393800D01*
X2820800Y414100D02*
X2831000D01*
X2825900Y409000D02*
Y419200D01*
X2846200Y388700D02*
X2856400D01*
X2851300Y383600D02*
Y393800D01*
X2846200Y414100D02*
X2856400D01*
X2851300Y409000D02*
Y419200D01*
X2871600Y388700D02*
X2881800D01*
X2876700Y383600D02*
Y393800D01*
X2871600Y414100D02*
X2881800D01*
X2876700Y409000D02*
Y419200D01*
X2619400Y401400D02*
X2651400D01*
X2635400Y385400D02*
Y417400D01*
X2897000Y388700D02*
X2907200D01*
X2902100Y383600D02*
Y393800D01*
X2897000Y414100D02*
X2907200D01*
X2902100Y409000D02*
Y419200D01*
X2922400Y388700D02*
X2932600D01*
X2927500Y383600D02*
Y393800D01*
X2922400Y414100D02*
X2932600D01*
X2927500Y409000D02*
Y419200D01*
X2947800Y388700D02*
X2958000D01*
X2952900Y383600D02*
Y393800D01*
X2947800Y414100D02*
X2958000D01*
X2952900Y409000D02*
Y419200D01*
X2973200Y388700D02*
X2983400D01*
X2978300Y383600D02*
Y393800D01*
X2973200Y414100D02*
X2983400D01*
X2978300Y409000D02*
Y419200D01*
X2998600Y388700D02*
X3008800D01*
X3003700Y383600D02*
Y393800D01*
X2998600Y414100D02*
X3008800D01*
X3003700Y409000D02*
Y419200D01*
X3024000Y388700D02*
X3034200D01*
X3029100Y383600D02*
Y393800D01*
X3024000Y414100D02*
X3034200D01*
X3029100Y409000D02*
Y419200D01*
X3049400Y388700D02*
X3059600D01*
X3054500Y383600D02*
Y393800D01*
X3049400Y414100D02*
X3059600D01*
X3054500Y409000D02*
Y419200D01*
X3074800Y388700D02*
X3085000D01*
X3079900Y383600D02*
Y393800D01*
X3074800Y414100D02*
X3085000D01*
X3079900Y409000D02*
Y419200D01*
X3344040Y388700D02*
X3354240D01*
X3349140Y383600D02*
Y393800D01*
X3344040Y414100D02*
X3354240D01*
X3349140Y409000D02*
Y419200D01*
X2619400Y858600D02*
X2651400D01*
X2635400Y842600D02*
Y874600D01*
X2693800Y845900D02*
X2704000D01*
X2698900Y840800D02*
Y851000D01*
X2693800Y871300D02*
X2704000D01*
X2698900Y866200D02*
Y876400D01*
X2719200Y845900D02*
X2729400D01*
X2724300Y840800D02*
Y851000D01*
X2719200Y871300D02*
X2729400D01*
X2724300Y866200D02*
Y876400D01*
X2744600Y845900D02*
X2754800D01*
X2749700Y840800D02*
Y851000D01*
X2744600Y871300D02*
X2754800D01*
X2749700Y866200D02*
Y876400D01*
X2770000Y845900D02*
X2780200D01*
X2775100Y840800D02*
Y851000D01*
X2770000Y871300D02*
X2780200D01*
X2775100Y866200D02*
Y876400D01*
X2795400Y845900D02*
X2805600D01*
X2800500Y840800D02*
Y851000D01*
X2795400Y871300D02*
X2805600D01*
X2800500Y866200D02*
Y876400D01*
X2820800Y845900D02*
X2831000D01*
X2825900Y840800D02*
Y851000D01*
X2820800Y871300D02*
X2831000D01*
X2825900Y866200D02*
Y876400D01*
X2846200Y845900D02*
X2856400D01*
X2851300Y840800D02*
Y851000D01*
X2846200Y871300D02*
X2856400D01*
X2851300Y866200D02*
Y876400D01*
X2871600Y845900D02*
X2881800D01*
X2876700Y840800D02*
Y851000D01*
X2871600Y871300D02*
X2881800D01*
X2876700Y866200D02*
Y876400D01*
X2897000Y845900D02*
X2907200D01*
X2902100Y840800D02*
Y851000D01*
X2897000Y871300D02*
X2907200D01*
X2902100Y866200D02*
Y876400D01*
X2922400Y845900D02*
X2932600D01*
X2927500Y840800D02*
Y851000D01*
X2922400Y871300D02*
X2932600D01*
X2927500Y866200D02*
Y876400D01*
X2947800Y845900D02*
X2958000D01*
X2952900Y840800D02*
Y851000D01*
X2947800Y871300D02*
X2958000D01*
X2952900Y866200D02*
Y876400D01*
X2973200Y845900D02*
X2983400D01*
X2978300Y840800D02*
Y851000D01*
X2973200Y871300D02*
X2983400D01*
X2978300Y866200D02*
Y876400D01*
X2998600Y845900D02*
X3008800D01*
X3003700Y840800D02*
Y851000D01*
X2998600Y871300D02*
X3008800D01*
X3003700Y866200D02*
Y876400D01*
X3024000Y845900D02*
X3034200D01*
X3029100Y840800D02*
Y851000D01*
X3024000Y871300D02*
X3034200D01*
X3029100Y866200D02*
Y876400D01*
X3074800Y845900D02*
X3085000D01*
X3079900Y840800D02*
Y851000D01*
X3074800Y871300D02*
X3085000D01*
X3079900Y866200D02*
Y876400D01*
X3100200Y845900D02*
X3110400D01*
X3105300Y840800D02*
Y851000D01*
X3100200Y871300D02*
X3110400D01*
X3105300Y866200D02*
Y876400D01*
X3125600Y845900D02*
X3135800D01*
X3130700Y840800D02*
Y851000D01*
X3125600Y871300D02*
X3135800D01*
X3130700Y866200D02*
Y876400D01*
X3151000Y845900D02*
X3161200D01*
X3156100Y840800D02*
Y851000D01*
X3151000Y871300D02*
X3161200D01*
X3156100Y866200D02*
Y876400D01*
X3176400Y845900D02*
X3186600D01*
X3181500Y840800D02*
Y851000D01*
X3176400Y871300D02*
X3186600D01*
X3181500Y866200D02*
Y876400D01*
X3201800Y845900D02*
X3212000D01*
X3206900Y840800D02*
Y851000D01*
X3201800Y871300D02*
X3212000D01*
X3206900Y866200D02*
Y876400D01*
X3227200Y845900D02*
X3237400D01*
X3232300Y840800D02*
Y851000D01*
X3227200Y871300D02*
X3237400D01*
X3232300Y866200D02*
Y876400D01*
X3252600Y845900D02*
X3262800D01*
X3257700Y840800D02*
Y851000D01*
X3252600Y871300D02*
X3262800D01*
X3257700Y866200D02*
Y876400D01*
X3354000Y312500D02*
X3364200D01*
X3359100Y307400D02*
Y317600D01*
X3354000Y337900D02*
X3364200D01*
X3359100Y332800D02*
Y343000D01*
X2490600Y922100D02*
X2500800D01*
X2495700Y917000D02*
Y927200D01*
X2490600Y947500D02*
X2500800D01*
X2495700Y942400D02*
Y952600D01*
X2516000Y922100D02*
X2526200D01*
X2521100Y917000D02*
Y927200D01*
X2516000Y947500D02*
X2526200D01*
X2521100Y942400D02*
Y952600D01*
X2541400Y922100D02*
X2551600D01*
X2546500Y917000D02*
Y927200D01*
X2541400Y947500D02*
X2551600D01*
X2546500Y942400D02*
Y952600D01*
X2566800Y922100D02*
X2577000D01*
X2571900Y917000D02*
Y927200D01*
X2566800Y947500D02*
X2577000D01*
X2571900Y942400D02*
Y952600D01*
X2592200Y922100D02*
X2602400D01*
X2597300Y917000D02*
Y927200D01*
X2592200Y947500D02*
X2602400D01*
X2597300Y942400D02*
Y952600D01*
X2617600Y922100D02*
X2627800D01*
X2622700Y917000D02*
Y927200D01*
X2617600Y947500D02*
X2627800D01*
X2622700Y942400D02*
Y952600D01*
X2643000Y922100D02*
X2653200D01*
X2648100Y917000D02*
Y927200D01*
X2643000Y947500D02*
X2653200D01*
X2648100Y942400D02*
Y952600D01*
X2668400Y922100D02*
X2678600D01*
X2673500Y917000D02*
Y927200D01*
X2668400Y947500D02*
X2678600D01*
X2673500Y942400D02*
Y952600D01*
X2693800Y922100D02*
X2704000D01*
X2698900Y917000D02*
Y927200D01*
X2693800Y947500D02*
X2704000D01*
X2698900Y942400D02*
Y952600D01*
X2719200Y922100D02*
X2729400D01*
X2724300Y917000D02*
Y927200D01*
X2719200Y947500D02*
X2729400D01*
X2724300Y942400D02*
Y952600D01*
X2744600Y922100D02*
X2754800D01*
X2749700Y917000D02*
Y927200D01*
X2744600Y947500D02*
X2754800D01*
X2749700Y942400D02*
Y952600D01*
X2770000Y922100D02*
X2780200D01*
X2775100Y917000D02*
Y927200D01*
X2770000Y947500D02*
X2780200D01*
X2775100Y942400D02*
Y952600D01*
X2795400Y922100D02*
X2805600D01*
X2800500Y917000D02*
Y927200D01*
X2795400Y947500D02*
X2805600D01*
X2800500Y942400D02*
Y952600D01*
X2820800Y922100D02*
X2831000D01*
X2825900Y917000D02*
Y927200D01*
X2820800Y947500D02*
X2831000D01*
X2825900Y942400D02*
Y952600D01*
X2846200Y922100D02*
X2856400D01*
X2851300Y917000D02*
Y927200D01*
X2846200Y947500D02*
X2856400D01*
X2851300Y942400D02*
Y952600D01*
X2871600Y922100D02*
X2881800D01*
X2876700Y917000D02*
Y927200D01*
X2871600Y947500D02*
X2881800D01*
X2876700Y942400D02*
Y952600D01*
X2897000Y922100D02*
X2907200D01*
X2902100Y917000D02*
Y927200D01*
X2897000Y947500D02*
X2907200D01*
X2902100Y942400D02*
Y952600D01*
X2922400Y922100D02*
X2932600D01*
X2927500Y917000D02*
Y927200D01*
X2922400Y947500D02*
X2932600D01*
X2927500Y942400D02*
Y952600D01*
X2947800Y922100D02*
X2958000D01*
X2952900Y917000D02*
Y927200D01*
X2947800Y947500D02*
X2958000D01*
X2952900Y942400D02*
Y952600D01*
X2973200Y922100D02*
X2983400D01*
X2978300Y917000D02*
Y927200D01*
X2973200Y947500D02*
X2983400D01*
X2978300Y942400D02*
Y952600D01*
X2998600Y922100D02*
X3008800D01*
X3003700Y917000D02*
Y927200D01*
X2998600Y947500D02*
X3008800D01*
X3003700Y942400D02*
Y952600D01*
X3024000Y922100D02*
X3034200D01*
X3029100Y917000D02*
Y927200D01*
X3024000Y947500D02*
X3034200D01*
X3029100Y942400D02*
Y952600D01*
X3049400Y922100D02*
X3059600D01*
X3054500Y917000D02*
Y927200D01*
X3049400Y947500D02*
X3059600D01*
X3054500Y942400D02*
Y952600D01*
X3074800Y922100D02*
X3085000D01*
X3079900Y917000D02*
Y927200D01*
X3074800Y947500D02*
X3085000D01*
X3079900Y942400D02*
Y952600D01*
X3100200Y922100D02*
X3110400D01*
X3105300Y917000D02*
Y927200D01*
X3100200Y947500D02*
X3110400D01*
X3105300Y942400D02*
Y952600D01*
X3125600Y922100D02*
X3135800D01*
X3130700Y917000D02*
Y927200D01*
X3125600Y947500D02*
X3135800D01*
X3130700Y942400D02*
Y952600D01*
X3151000Y922100D02*
X3161200D01*
X3156100Y917000D02*
Y927200D01*
X3151000Y947500D02*
X3161200D01*
X3156100Y942400D02*
Y952600D01*
X3176400Y922100D02*
X3186600D01*
X3181500Y917000D02*
Y927200D01*
X3176400Y947500D02*
X3186600D01*
X3181500Y942400D02*
Y952600D01*
X3201800Y922100D02*
X3212000D01*
X3206900Y917000D02*
Y927200D01*
X3201800Y947500D02*
X3212000D01*
X3206900Y942400D02*
Y952600D01*
X3227200Y922100D02*
X3237400D01*
X3232300Y917000D02*
Y927200D01*
X3227200Y947500D02*
X3237400D01*
X3232300Y942400D02*
Y952600D01*
X3252600Y922100D02*
X3262800D01*
X3257700Y917000D02*
Y927200D01*
X3252600Y947500D02*
X3262800D01*
X3257700Y942400D02*
Y952600D01*
X3278000Y922100D02*
X3288200D01*
X3283100Y917000D02*
Y927200D01*
X3278000Y947500D02*
X3288200D01*
X3283100Y942400D02*
Y952600D01*
X3303400Y922100D02*
X3313600D01*
X3308500Y917000D02*
Y927200D01*
X3303400Y947500D02*
X3313600D01*
X3308500Y942400D02*
Y952600D01*
X3328800Y922100D02*
X3339000D01*
X3333900Y917000D02*
Y927200D01*
X3328800Y947500D02*
X3339000D01*
X3333900Y942400D02*
Y952600D01*
X3354200Y922100D02*
X3364400D01*
X3359300Y917000D02*
Y927200D01*
X3354200Y947500D02*
X3364400D01*
X3359300Y942400D02*
Y952600D01*
X1266500Y1840000D02*
X1278500D01*
X1272500Y1834000D02*
Y1846000D01*
X1191500Y1840000D02*
X1203500D01*
X1197500Y1834000D02*
Y1846000D01*
X1266500Y1380000D02*
X1278500D01*
X1272500Y1374000D02*
Y1386000D01*
X1191500Y1380000D02*
X1203500D01*
X1197500Y1374000D02*
Y1386000D01*
X1024000Y1162500D02*
X1036000D01*
X1030000Y1156500D02*
Y1168500D01*
X1024000Y1237500D02*
X1036000D01*
X1030000Y1231500D02*
Y1243500D01*
X1024000Y1362500D02*
X1036000D01*
X1030000Y1356500D02*
Y1368500D01*
X1024000Y1437500D02*
X1036000D01*
X1030000Y1431500D02*
Y1443500D01*
X1024000Y1562500D02*
X1036000D01*
X1030000Y1556500D02*
Y1568500D01*
X1024000Y1637500D02*
X1036000D01*
X1030000Y1631500D02*
Y1643500D01*
X1024000Y1762500D02*
X1036000D01*
X1030000Y1756500D02*
Y1768500D01*
X1024000Y1837500D02*
X1036000D01*
X1030000Y1831500D02*
Y1843500D01*
X1024000Y1962500D02*
X1036000D01*
X1030000Y1956500D02*
Y1968500D01*
X1024000Y2037500D02*
X1036000D01*
X1030000Y2031500D02*
Y2043500D01*
X1024000Y2165000D02*
X1036000D01*
X1030000Y2159000D02*
Y2171000D01*
X1024000Y2240000D02*
X1036000D01*
X1030000Y2234000D02*
Y2246000D01*
X1266500Y2295000D02*
X1278500D01*
X1272500Y2289000D02*
Y2301000D01*
X1191500Y2295000D02*
X1203500D01*
X1197500Y2289000D02*
Y2301000D01*
X3708800Y2190000D02*
X3722800D01*
X3715800Y2183000D02*
Y2197000D01*
X3658000Y2190000D02*
X3672000D01*
X3665000Y2183000D02*
Y2197000D01*
X3708800Y1990000D02*
X3722800D01*
X3715800Y1983000D02*
Y1997000D01*
X3658000Y1990000D02*
X3672000D01*
X3665000Y1983000D02*
Y1997000D01*
X3708800Y1790000D02*
X3722800D01*
X3715800Y1783000D02*
Y1797000D01*
X3658000Y1790000D02*
X3672000D01*
X3665000Y1783000D02*
Y1797000D01*
X3708800Y1590000D02*
X3722800D01*
X3715800Y1583000D02*
Y1597000D01*
X3658000Y1590000D02*
X3672000D01*
X3665000Y1583000D02*
Y1597000D01*
X3708800Y1390000D02*
X3722800D01*
X3715800Y1383000D02*
Y1397000D01*
X3658000Y1390000D02*
X3672000D01*
X3665000Y1383000D02*
Y1397000D01*
X3708800Y1190000D02*
X3722800D01*
X3715800Y1183000D02*
Y1197000D01*
X3658000Y1190000D02*
X3672000D01*
X3665000Y1183000D02*
Y1197000D01*
X988000Y660000D02*
X1002000D01*
X995000Y653000D02*
Y667000D01*
X1038800Y660000D02*
X1052800D01*
X1045800Y653000D02*
Y667000D01*
X988000Y870000D02*
X1002000D01*
X995000Y863000D02*
Y877000D01*
X1038800Y870000D02*
X1052800D01*
X1045800Y863000D02*
Y877000D01*
X2422500Y1135000D02*
X2437500D01*
X2430000Y1127500D02*
Y1142500D01*
X2422500Y1338000D02*
X2437500D01*
X2430000Y1330500D02*
Y1345500D01*
X2947500Y1338000D02*
X2962500D01*
X2955000Y1330500D02*
Y1345500D01*
X2947500Y1135000D02*
X2962500D01*
X2955000Y1127500D02*
Y1142500D01*
X2422500Y1600000D02*
X2437500D01*
X2430000Y1592500D02*
Y1607500D01*
X2422500Y1803000D02*
X2437500D01*
X2430000Y1795500D02*
Y1810500D01*
X2947500Y1803000D02*
X2962500D01*
X2955000Y1795500D02*
Y1810500D01*
X2947500Y1600000D02*
X2962500D01*
X2955000Y1592500D02*
Y1607500D01*
X2947500Y2065000D02*
X2962500D01*
X2955000Y2057500D02*
Y2072500D01*
X2947500Y2268000D02*
X2962500D01*
X2955000Y2260500D02*
Y2275500D01*
X2422500Y2268000D02*
X2437500D01*
X2430000Y2260500D02*
Y2275500D01*
X2422500Y2065000D02*
X2437500D01*
X2430000Y2057500D02*
Y2072500D01*
X1755000Y2385000D02*
X1785000D01*
X1770000Y2370000D02*
Y2400000D01*
X1355000Y2385000D02*
X1385000D01*
X1370000Y2370000D02*
Y2400000D01*
X955000Y1040000D02*
X985000D01*
X970000Y1025000D02*
Y1055000D01*
X955000Y2390000D02*
X985000D01*
X970000Y2375000D02*
Y2405000D01*
X3725000Y2390000D02*
X3755000D01*
X3740000Y2375000D02*
Y2405000D01*
X3725000Y1040000D02*
X3755000D01*
X3740000Y1025000D02*
Y1055000D01*
X3725000Y290000D02*
X3755000D01*
X3740000Y275000D02*
Y305000D01*
X955000Y290000D02*
X985000D01*
X970000Y275000D02*
Y305000D01*
X1355000Y1292000D02*
X1385000D01*
X1370000Y1277000D02*
Y1307000D01*
X1755000Y1292000D02*
X1785000D01*
X1770000Y1277000D02*
Y1307000D01*
X1355000Y2210000D02*
X1385000D01*
X1370000Y2195000D02*
Y2225000D01*
X1355000Y1925000D02*
X1385000D01*
X1370000Y1910000D02*
Y1940000D01*
X1755000Y1925000D02*
X1785000D01*
X1770000Y1910000D02*
Y1940000D01*
X1355000Y1040000D02*
X1385000D01*
X1370000Y1025000D02*
Y1055000D01*
X1755000Y1040000D02*
X1785000D01*
X1770000Y1025000D02*
Y1055000D01*
X1755000Y2210000D02*
X1785000D01*
X1770000Y2195000D02*
Y2225000D01*
X1755000Y1750000D02*
X1785000D01*
X1770000Y1735000D02*
Y1765000D01*
X1755000Y1465000D02*
X1785000D01*
X1770000Y1450000D02*
Y1480000D01*
X1355000Y1465000D02*
X1385000D01*
X1370000Y1450000D02*
Y1480000D01*
X1355000Y1750000D02*
X1385000D01*
X1370000Y1735000D02*
Y1765000D01*
X3369800Y1921400D02*
X3390800D01*
X3380300Y1910900D02*
Y1931900D01*
X3369800Y1997600D02*
X3390800D01*
X3380300Y1987100D02*
Y2008100D01*
X3547600Y2023000D02*
X3568600D01*
X3558100Y2012500D02*
Y2033500D01*
X3412900Y2150000D02*
X3423900D01*
X3418400Y2144500D02*
Y2155500D01*
X3514500Y2150000D02*
X3525500D01*
X3520000Y2144500D02*
Y2155500D01*
X2194000Y318000D02*
X2216000D01*
X2205000Y307000D02*
Y329000D01*
X2294000Y318000D02*
X2316000D01*
X2305000Y307000D02*
Y329000D01*
X2224500Y285000D02*
X2235500D01*
X2230000Y279500D02*
Y290500D01*
X2274500Y285000D02*
X2285500D01*
X2280000Y279500D02*
Y290500D01*
X2249500Y285000D02*
X2260500D01*
X2255000Y279500D02*
Y290500D01*
X3369800Y1201400D02*
X3390800D01*
X3380300Y1190900D02*
Y1211900D01*
X3369800Y1277600D02*
X3390800D01*
X3380300Y1267100D02*
Y1288100D01*
X3547600Y1303000D02*
X3568600D01*
X3558100Y1292500D02*
Y1313500D01*
X3412900Y1430000D02*
X3423900D01*
X3418400Y1424500D02*
Y1435500D01*
X3514500Y1430000D02*
X3525500D01*
X3520000Y1424500D02*
Y1435500D01*
X3369800Y1561400D02*
X3390800D01*
X3380300Y1550900D02*
Y1571900D01*
X3369800Y1637600D02*
X3390800D01*
X3380300Y1627100D02*
Y1648100D01*
X3547600Y1663000D02*
X3568600D01*
X3558100Y1652500D02*
Y1673500D01*
X3412900Y1790000D02*
X3423900D01*
X3418400Y1784500D02*
Y1795500D01*
X3514500Y1790000D02*
X3525500D01*
X3520000Y1784500D02*
Y1795500D01*
X3069800Y1201400D02*
X3090800D01*
X3080300Y1190900D02*
Y1211900D01*
X3069800Y1277600D02*
X3090800D01*
X3080300Y1267100D02*
Y1288100D01*
X3247600Y1303000D02*
X3268600D01*
X3258100Y1292500D02*
Y1313500D01*
X3112900Y1430000D02*
X3123900D01*
X3118400Y1424500D02*
Y1435500D01*
X3214500Y1430000D02*
X3225500D01*
X3220000Y1424500D02*
Y1435500D01*
X3069800Y1561400D02*
X3090800D01*
X3080300Y1550900D02*
Y1571900D01*
X3069800Y1637600D02*
X3090800D01*
X3080300Y1627100D02*
Y1648100D01*
X3247600Y1663000D02*
X3268600D01*
X3258100Y1652500D02*
Y1673500D01*
X3112900Y1790000D02*
X3123900D01*
X3118400Y1784500D02*
Y1795500D01*
X3214500Y1790000D02*
X3225500D01*
X3220000Y1784500D02*
Y1795500D01*
X3069800Y1921400D02*
X3090800D01*
X3080300Y1910900D02*
Y1931900D01*
X3069800Y1997600D02*
X3090800D01*
X3080300Y1987100D02*
Y2008100D01*
X3247600Y2023000D02*
X3268600D01*
X3258100Y2012500D02*
Y2033500D01*
X3112900Y2150000D02*
X3123900D01*
X3118400Y2144500D02*
Y2155500D01*
X3214500Y2150000D02*
X3225500D01*
X3220000Y2144500D02*
Y2155500D01*
X955230Y923975D02*
X980630D01*
X967930Y911275D02*
Y936675D01*
X1007300Y923975D02*
X1032700D01*
X1020000Y911275D02*
Y936675D01*
X1059370Y923975D02*
X1084770D01*
X1072070Y911275D02*
Y936675D01*
X1059370Y816025D02*
X1084770D01*
X1072070Y803325D02*
Y828725D01*
X1007300Y816025D02*
X1032700D01*
X1020000Y803325D02*
Y828725D01*
X955230Y816025D02*
X980630D01*
X967930Y803325D02*
Y828725D01*
X1945000Y2290000D02*
X1975000D01*
X1960000Y2275000D02*
Y2305000D01*
X2085000Y2050000D02*
X2115000D01*
X2100000Y2035000D02*
Y2065000D01*
X2005000Y2050000D02*
X2055000D01*
X2030000Y2025000D02*
Y2075000D01*
X2005000Y2290000D02*
X2055000D01*
X2030000Y2265000D02*
Y2315000D01*
X3729370Y2136025D02*
X3754770D01*
X3742070Y2123325D02*
Y2148725D01*
X3677300Y2136025D02*
X3702700D01*
X3690000Y2123325D02*
Y2148725D01*
X3625230Y2136025D02*
X3650630D01*
X3637930Y2123325D02*
Y2148725D01*
X3625230Y2243975D02*
X3650630D01*
X3637930Y2231275D02*
Y2256675D01*
X3677300Y2243975D02*
X3702700D01*
X3690000Y2231275D02*
Y2256675D01*
X3729370Y2243975D02*
X3754770D01*
X3742070Y2231275D02*
Y2256675D01*
X1945000Y1830000D02*
X1975000D01*
X1960000Y1815000D02*
Y1845000D01*
X2085000Y1590000D02*
X2115000D01*
X2100000Y1575000D02*
Y1605000D01*
X2005000Y1590000D02*
X2055000D01*
X2030000Y1565000D02*
Y1615000D01*
X2005000Y1830000D02*
X2055000D01*
X2030000Y1805000D02*
Y1855000D01*
X1945000Y1370000D02*
X1975000D01*
X1960000Y1355000D02*
Y1385000D01*
X2085000Y1130000D02*
X2115000D01*
X2100000Y1115000D02*
Y1145000D01*
X2005000Y1130000D02*
X2055000D01*
X2030000Y1105000D02*
Y1155000D01*
X2005000Y1370000D02*
X2055000D01*
X2030000Y1345000D02*
Y1395000D01*
X3625230Y1843975D02*
X3650630D01*
X3637930Y1831275D02*
Y1856675D01*
X3677300Y1843975D02*
X3702700D01*
X3690000Y1831275D02*
Y1856675D01*
X3729370Y1843975D02*
X3754770D01*
X3742070Y1831275D02*
Y1856675D01*
X3729370Y1736025D02*
X3754770D01*
X3742070Y1723325D02*
Y1748725D01*
X3677300Y1736025D02*
X3702700D01*
X3690000Y1723325D02*
Y1748725D01*
X3625230Y1736025D02*
X3650630D01*
X3637930Y1723325D02*
Y1748725D01*
X2895920Y1437500D02*
X2906080D01*
X2901000Y1432420D02*
Y1442580D01*
X2895920Y1062500D02*
X2906080D01*
X2901000Y1057420D02*
Y1067580D01*
X2793920Y1437500D02*
X2804080D01*
X2799000Y1432420D02*
Y1442580D01*
X2793920Y1062500D02*
X2804080D01*
X2799000Y1057420D02*
Y1067580D01*
X2585920Y1437500D02*
X2596080D01*
X2591000Y1432420D02*
Y1442580D01*
X2585920Y1062500D02*
X2596080D01*
X2591000Y1057420D02*
Y1067580D01*
X2483920Y1437500D02*
X2494080D01*
X2489000Y1432420D02*
Y1442580D01*
X2483920Y1062500D02*
X2494080D01*
X2489000Y1057420D02*
Y1067580D01*
X2895920Y1887500D02*
X2906080D01*
X2901000Y1882420D02*
Y1892580D01*
X2895920Y1512500D02*
X2906080D01*
X2901000Y1507420D02*
Y1517580D01*
X2793920Y1887500D02*
X2804080D01*
X2799000Y1882420D02*
Y1892580D01*
X2793920Y1512500D02*
X2804080D01*
X2799000Y1507420D02*
Y1517580D01*
X2585920Y1887500D02*
X2596080D01*
X2591000Y1882420D02*
Y1892580D01*
X2585920Y1512500D02*
X2596080D01*
X2591000Y1507420D02*
Y1517580D01*
X2483920Y1887500D02*
X2494080D01*
X2489000Y1882420D02*
Y1892580D01*
X2483920Y1512500D02*
X2494080D01*
X2489000Y1507420D02*
Y1517580D01*
X2895920Y2337500D02*
X2906080D01*
X2901000Y2332420D02*
Y2342580D01*
X2895920Y1962500D02*
X2906080D01*
X2901000Y1957420D02*
Y1967580D01*
X2793920Y2337500D02*
X2804080D01*
X2799000Y2332420D02*
Y2342580D01*
X2793920Y1962500D02*
X2804080D01*
X2799000Y1957420D02*
Y1967580D01*
X2585920Y2337500D02*
X2596080D01*
X2591000Y2332420D02*
Y2342580D01*
X2585920Y1962500D02*
X2596080D01*
X2591000Y1957420D02*
Y1967580D01*
X2483920Y2337500D02*
X2494080D01*
X2489000Y2332420D02*
Y2342580D01*
X2483920Y1962500D02*
X2494080D01*
X2489000Y1957420D02*
Y1967580D01*
X3729370Y1336025D02*
X3754770D01*
X3742070Y1323325D02*
Y1348725D01*
X3677300Y1336025D02*
X3702700D01*
X3690000Y1323325D02*
Y1348725D01*
X3625230Y1336025D02*
X3650630D01*
X3637930Y1323325D02*
Y1348725D01*
X3625230Y1443975D02*
X3650630D01*
X3637930Y1431275D02*
Y1456675D01*
X3677300Y1443975D02*
X3702700D01*
X3690000Y1431275D02*
Y1456675D01*
X3729370Y1443975D02*
X3754770D01*
X3742070Y1431275D02*
Y1456675D01*
X955230Y713975D02*
X980630D01*
X967930Y701275D02*
Y726675D01*
X1007300Y713975D02*
X1032700D01*
X1020000Y701275D02*
Y726675D01*
X1059370Y713975D02*
X1084770D01*
X1072070Y701275D02*
Y726675D01*
X1059370Y606025D02*
X1084770D01*
X1072070Y593325D02*
Y618725D01*
X1007300Y606025D02*
X1032700D01*
X1020000Y593325D02*
Y618725D01*
X955230Y606025D02*
X980630D01*
X967930Y593325D02*
Y618725D01*
X3625230Y2043975D02*
X3650630D01*
X3637930Y2031275D02*
Y2056675D01*
X3677300Y2043975D02*
X3702700D01*
X3690000Y2031275D02*
Y2056675D01*
X3729370Y2043975D02*
X3754770D01*
X3742070Y2031275D02*
Y2056675D01*
X3729370Y1936025D02*
X3754770D01*
X3742070Y1923325D02*
Y1948725D01*
X3677300Y1936025D02*
X3702700D01*
X3690000Y1923325D02*
Y1948725D01*
X3625230Y1936025D02*
X3650630D01*
X3637930Y1923325D02*
Y1948725D01*
X3625230Y1643975D02*
X3650630D01*
X3637930Y1631275D02*
Y1656675D01*
X3677300Y1643975D02*
X3702700D01*
X3690000Y1631275D02*
Y1656675D01*
X3729370Y1643975D02*
X3754770D01*
X3742070Y1631275D02*
Y1656675D01*
X3729370Y1536025D02*
X3754770D01*
X3742070Y1523325D02*
Y1548725D01*
X3677300Y1536025D02*
X3702700D01*
X3690000Y1523325D02*
Y1548725D01*
X3625230Y1536025D02*
X3650630D01*
X3637930Y1523325D02*
Y1548725D01*
X3729370Y1136025D02*
X3754770D01*
X3742070Y1123325D02*
Y1148725D01*
X3677300Y1136025D02*
X3702700D01*
X3690000Y1123325D02*
Y1148725D01*
X3625230Y1136025D02*
X3650630D01*
X3637930Y1123325D02*
Y1148725D01*
X3625230Y1243975D02*
X3650630D01*
X3637930Y1231275D02*
Y1256675D01*
X3677300Y1243975D02*
X3702700D01*
X3690000Y1231275D02*
Y1256675D01*
X3729370Y1243975D02*
X3754770D01*
X3742070Y1231275D02*
Y1256675D01*
X1371500Y1114000D02*
X1378500D01*
X1375000Y1110500D02*
Y1117500D01*
X1288340Y1603000D02*
X1295340D01*
X1291840Y1599500D02*
Y1606500D01*
X1359340Y1541000D02*
X1366340D01*
X1362840Y1537500D02*
Y1544500D01*
X1375340Y1585000D02*
X1382340D01*
X1378840Y1581500D02*
Y1588500D01*
X1288340Y1159000D02*
X1295340D01*
X1291840Y1155500D02*
Y1162500D01*
X1369500Y1135000D02*
X1376500D01*
X1373000Y1131500D02*
Y1138500D01*
X1375500Y2045000D02*
X1382500D01*
X1379000Y2041500D02*
Y2048500D01*
X1359500Y2001000D02*
X1366500D01*
X1363000Y1997500D02*
Y2004500D01*
X2300500Y948000D02*
X2307500D01*
X2304000Y944500D02*
Y951500D01*
X2300500Y985000D02*
X2307500D01*
X2304000Y981500D02*
Y988500D01*
X2300500Y967000D02*
X2307500D01*
X2304000Y963500D02*
Y970500D01*
X2320500Y985000D02*
X2327500D01*
X2324000Y981500D02*
Y988500D01*
X2300500Y929000D02*
X2307500D01*
X2304000Y925500D02*
Y932500D01*
X2300500Y910000D02*
X2307500D01*
X2304000Y906500D02*
Y913500D01*
X2300500Y893000D02*
X2307500D01*
X2304000Y889500D02*
Y896500D01*
X2300500Y875000D02*
X2307500D01*
X2304000Y871500D02*
Y878500D01*
X2300500Y858000D02*
X2307500D01*
X2304000Y854500D02*
Y861500D01*
X2300500Y841000D02*
X2307500D01*
X2304000Y837500D02*
Y844500D01*
X2300500Y823000D02*
X2307500D01*
X2304000Y819500D02*
Y826500D01*
X2300500Y805000D02*
X2307500D01*
X2304000Y801500D02*
Y808500D01*
X2046500Y385000D02*
X2053500D01*
X2050000Y381500D02*
Y388500D01*
X2046500Y405000D02*
X2053500D01*
X2050000Y401500D02*
Y408500D01*
X2046500Y425000D02*
X2053500D01*
X2050000Y421500D02*
Y428500D01*
X2046500Y445000D02*
X2053500D01*
X2050000Y441500D02*
Y448500D01*
X2046500Y530000D02*
X2053500D01*
X2050000Y526500D02*
Y533500D01*
X2046500Y550000D02*
X2053500D01*
X2050000Y546500D02*
Y553500D01*
X2046500Y570000D02*
X2053500D01*
X2050000Y566500D02*
Y573500D01*
X2046500Y590000D02*
X2053500D01*
X2050000Y586500D02*
Y593500D01*
X2046500Y700000D02*
X2053500D01*
X2050000Y696500D02*
Y703500D01*
X2046500Y720000D02*
X2053500D01*
X2050000Y716500D02*
Y723500D01*
X2046500Y740000D02*
X2053500D01*
X2050000Y736500D02*
Y743500D01*
X2046500Y760000D02*
X2053500D01*
X2050000Y756500D02*
Y763500D01*
X2046500Y780000D02*
X2053500D01*
X2050000Y776500D02*
Y783500D01*
X2046500Y800000D02*
X2053500D01*
X2050000Y796500D02*
Y803500D01*
X2046500Y820000D02*
X2053500D01*
X2050000Y816500D02*
Y823500D01*
X2046500Y840000D02*
X2053500D01*
X2050000Y836500D02*
Y843500D01*
X1911500Y870000D02*
X1918500D01*
X1915000Y866500D02*
Y873500D01*
X1931500Y870000D02*
X1938500D01*
X1935000Y866500D02*
Y873500D01*
X1951500Y870000D02*
X1958500D01*
X1955000Y866500D02*
Y873500D01*
X1971500Y870000D02*
X1978500D01*
X1975000Y866500D02*
Y873500D01*
X1696500Y870000D02*
X1703500D01*
X1700000Y866500D02*
Y873500D01*
X1716500Y870000D02*
X1723500D01*
X1720000Y866500D02*
Y873500D01*
X1736500Y870000D02*
X1743500D01*
X1740000Y866500D02*
Y873500D01*
X1756500Y870000D02*
X1763500D01*
X1760000Y866500D02*
Y873500D01*
X1496500Y870000D02*
X1503500D01*
X1500000Y866500D02*
Y873500D01*
X1516500Y870000D02*
X1523500D01*
X1520000Y866500D02*
Y873500D01*
X1536500Y870000D02*
X1543500D01*
X1540000Y866500D02*
Y873500D01*
X1556500Y870000D02*
X1563500D01*
X1560000Y866500D02*
Y873500D01*
X1316500Y870000D02*
X1323500D01*
X1320000Y866500D02*
Y873500D01*
X1336500Y870000D02*
X1343500D01*
X1340000Y866500D02*
Y873500D01*
X1356500Y870000D02*
X1363500D01*
X1360000Y866500D02*
Y873500D01*
X1376500Y870000D02*
X1383500D01*
X1380000Y866500D02*
Y873500D01*
X1201500Y510000D02*
X1208500D01*
X1205000Y506500D02*
Y513500D01*
X1201500Y490000D02*
X1208500D01*
X1205000Y486500D02*
Y493500D01*
X1201500Y470000D02*
X1208500D01*
X1205000Y466500D02*
Y473500D01*
X1201500Y450000D02*
X1208500D01*
X1205000Y446500D02*
Y453500D01*
X1201500Y710000D02*
X1208500D01*
X1205000Y706500D02*
Y713500D01*
X1201500Y730000D02*
X1208500D01*
X1205000Y726500D02*
Y733500D01*
X1201500Y750000D02*
X1208500D01*
X1205000Y746500D02*
Y753500D01*
X1201500Y770000D02*
X1208500D01*
X1205000Y766500D02*
Y773500D01*
X2359300Y1046500D02*
X2364300D01*
X2361800Y1044000D02*
Y1049000D01*
X2351500Y455000D02*
X2358500D01*
X2355000Y451500D02*
Y458500D01*
X2136500Y435000D02*
X2143500D01*
X2140000Y431500D02*
Y438500D01*
X1263000Y1215000D02*
X1267000D01*
X1265000Y1213000D02*
Y1217000D01*
X2321200Y1046500D02*
X2326200D01*
X2323700Y1044000D02*
Y1049000D01*
X2333900Y1046500D02*
X2338900D01*
X2336400Y1044000D02*
Y1049000D01*
X3586500Y595000D02*
X3593500D01*
X3590000Y591500D02*
Y598500D01*
X3427500Y594000D02*
X3434500D01*
X3431000Y590500D02*
Y597500D01*
X3396500Y595000D02*
X3403500D01*
X3400000Y591500D02*
Y598500D01*
X3476500Y595000D02*
X3483500D01*
X3480000Y591500D02*
Y598500D01*
X3556500Y595000D02*
X3563500D01*
X3560000Y591500D02*
Y598500D01*
X3501500Y595000D02*
X3508500D01*
X3505000Y591500D02*
Y598500D01*
X2306500Y750000D02*
X2313500D01*
X2310000Y746500D02*
Y753500D01*
X2461500Y885000D02*
X2468500D01*
X2465000Y881500D02*
Y888500D01*
X2182500Y650000D02*
X2187500D01*
X2185000Y647500D02*
Y652500D01*
X3577500Y775000D02*
X3582500D01*
X3580000Y772500D02*
Y777500D01*
X3507500Y775000D02*
X3512500D01*
X3510000Y772500D02*
Y777500D01*
X3555000Y910000D02*
X3565000D01*
X3560000Y905000D02*
Y915000D01*
X2276500Y1005000D02*
X2283500D01*
X2280000Y1001500D02*
Y1008500D01*
X2142500Y635000D02*
X2147500D01*
X2145000Y632500D02*
Y637500D01*
X2122500Y635000D02*
X2127500D01*
X2125000Y632500D02*
Y637500D01*
X2401500Y885000D02*
X2408500D01*
X2405000Y881500D02*
Y888500D01*
X2401500Y955000D02*
X2408500D01*
X2405000Y951500D02*
Y958500D01*
X2401500Y805000D02*
X2408500D01*
X2405000Y801500D02*
Y808500D01*
X2320500Y805000D02*
X2327500D01*
X2324000Y801500D02*
Y808500D01*
X2320500Y823000D02*
X2327500D01*
X2324000Y819500D02*
Y826500D01*
X2320500Y841000D02*
X2327500D01*
X2324000Y837500D02*
Y844500D01*
X2320500Y858000D02*
X2327500D01*
X2324000Y854500D02*
Y861500D01*
X2320500Y875000D02*
X2327500D01*
X2324000Y871500D02*
Y878500D01*
X2320500Y893000D02*
X2327500D01*
X2324000Y889500D02*
Y896500D01*
X2320500Y910000D02*
X2327500D01*
X2324000Y906500D02*
Y913500D01*
X2320500Y929000D02*
X2327500D01*
X2324000Y925500D02*
Y932500D01*
X2320500Y948000D02*
X2327500D01*
X2324000Y944500D02*
Y951500D01*
X2320500Y967000D02*
X2327500D01*
X2324000Y963500D02*
Y970500D01*
X2240500Y597000D02*
X2245500D01*
X2243000Y594500D02*
Y599500D01*
X2199500Y646000D02*
X2204500D01*
X2202000Y643500D02*
Y648500D01*
X2282000Y662500D02*
X2287000D01*
X2284500Y660000D02*
Y665000D01*
X2271500Y649000D02*
X2276500D01*
X2274000Y646500D02*
Y651500D01*
X1421500Y914000D02*
X1426500D01*
X1424000Y911500D02*
Y916500D01*
X2213500Y571000D02*
X2218500D01*
X2216000Y568500D02*
Y573500D01*
X2241500Y637000D02*
X2246500D01*
X2244000Y634500D02*
Y639500D01*
X2236500Y490000D02*
X2243500D01*
X2240000Y486500D02*
Y493500D01*
X2126500Y495000D02*
X2133500D01*
X2130000Y491500D02*
Y498500D01*
X2151500Y405000D02*
X2158500D01*
X2155000Y401500D02*
Y408500D01*
X2241500Y460000D02*
X2248500D01*
X2245000Y456500D02*
Y463500D01*
X2241500Y430000D02*
X2248500D01*
X2245000Y426500D02*
Y433500D01*
X2346600Y1046500D02*
X2351600D01*
X2349100Y1044000D02*
Y1049000D01*
X2283100Y1046500D02*
X2288100D01*
X2285600Y1044000D02*
Y1049000D01*
X2295800Y1046500D02*
X2300800D01*
X2298300Y1044000D02*
Y1049000D01*
X2372000Y1046500D02*
X2377000D01*
X2374500Y1044000D02*
Y1049000D01*
X2283050Y1486550D02*
X2288050D01*
X2285550Y1484050D02*
Y1489050D01*
X2295750Y1486550D02*
X2300750D01*
X2298250Y1484050D02*
Y1489050D01*
X1214500Y2065500D02*
X1218500D01*
X1216500Y2063500D02*
Y2067500D01*
X1214500Y1210500D02*
X1218500D01*
X1216500Y1208500D02*
Y1212500D01*
X1214500Y1161500D02*
X1218500D01*
X1216500Y1159500D02*
Y1163500D01*
X1214500Y1605500D02*
X1218500D01*
X1216500Y1603500D02*
Y1607500D01*
X1214500Y1654500D02*
X1218500D01*
X1216500Y1652500D02*
Y1656500D01*
X1214500Y2114500D02*
X1218500D01*
X1216500Y2112500D02*
Y2116500D01*
X3527500Y810000D02*
X3532500D01*
X3530000Y807500D02*
Y812500D01*
X3597500Y810000D02*
X3602500D01*
X3600000Y807500D02*
Y812500D01*
X3585000Y910000D02*
X3595000D01*
X3590000Y905000D02*
Y915000D01*
X3515000Y910000D02*
X3525000D01*
X3520000Y905000D02*
Y915000D01*
X2352500Y2325000D02*
X2357500D01*
X2355000Y2322500D02*
Y2327500D01*
X2387500Y1425000D02*
X2392500D01*
X2390000Y1422500D02*
Y1427500D01*
X2387500Y1875000D02*
X2392500D01*
X2390000Y1872500D02*
Y1877500D01*
X2372000Y1486500D02*
X2377000D01*
X2374500Y1484000D02*
Y1489000D01*
X2359300Y1486500D02*
X2364300D01*
X2361800Y1484000D02*
Y1489000D01*
X2346600Y1486500D02*
X2351600D01*
X2349100Y1484000D02*
Y1489000D01*
X2333900Y1486500D02*
X2338900D01*
X2336400Y1484000D02*
Y1489000D01*
X2321200Y1486500D02*
X2326200D01*
X2323700Y1484000D02*
Y1489000D01*
X2372000Y1946500D02*
X2377000D01*
X2374500Y1944000D02*
Y1949000D01*
X2359300Y1946500D02*
X2364300D01*
X2361800Y1944000D02*
Y1949000D01*
X2346600Y1946500D02*
X2351600D01*
X2349100Y1944000D02*
Y1949000D01*
X2333900Y1946500D02*
X2338900D01*
X2336400Y1944000D02*
Y1949000D01*
X2321200Y1946500D02*
X2326200D01*
X2323700Y1944000D02*
Y1949000D01*
X2295800Y1946500D02*
X2300800D01*
X2298300Y1944000D02*
Y1949000D01*
X2283100Y1946500D02*
X2288100D01*
X2285600Y1944000D02*
Y1949000D01*
X3487500Y1095000D02*
X3492500D01*
X3490000Y1092500D02*
Y1097500D01*
X3402500Y1095000D02*
X3407500D01*
X3405000Y1092500D02*
Y1097500D01*
X1578000Y1109000D02*
X1582000D01*
X1580000Y1107000D02*
Y1111000D01*
X1698000Y1109000D02*
X1702000D01*
X1700000Y1107000D02*
Y1111000D01*
X1698000Y1119000D02*
X1702000D01*
X1700000Y1117000D02*
Y1121000D01*
X1688000Y1119000D02*
X1692000D01*
X1690000Y1117000D02*
Y1121000D01*
X1678000Y1119000D02*
X1682000D01*
X1680000Y1117000D02*
Y1121000D01*
X1668000Y1119000D02*
X1672000D01*
X1670000Y1117000D02*
Y1121000D01*
X1658000Y1119000D02*
X1662000D01*
X1660000Y1117000D02*
Y1121000D01*
X1648000Y1119000D02*
X1652000D01*
X1650000Y1117000D02*
Y1121000D01*
X1638000Y1119000D02*
X1642000D01*
X1640000Y1117000D02*
Y1121000D01*
X1618000Y1119000D02*
X1622000D01*
X1620000Y1117000D02*
Y1121000D01*
X1628000Y1119000D02*
X1632000D01*
X1630000Y1117000D02*
Y1121000D01*
X1608000Y1119000D02*
X1612000D01*
X1610000Y1117000D02*
Y1121000D01*
X1598000Y1119000D02*
X1602000D01*
X1600000Y1117000D02*
Y1121000D01*
X1588000Y1119000D02*
X1592000D01*
X1590000Y1117000D02*
Y1121000D01*
X1578000Y1119000D02*
X1582000D01*
X1580000Y1117000D02*
Y1121000D01*
X1698000Y1129000D02*
X1702000D01*
X1700000Y1127000D02*
Y1131000D01*
X1688000Y1129000D02*
X1692000D01*
X1690000Y1127000D02*
Y1131000D01*
X1678000Y1129000D02*
X1682000D01*
X1680000Y1127000D02*
Y1131000D01*
X1668000Y1129000D02*
X1672000D01*
X1670000Y1127000D02*
Y1131000D01*
X1658000Y1129000D02*
X1662000D01*
X1660000Y1127000D02*
Y1131000D01*
X1648000Y1129000D02*
X1652000D01*
X1650000Y1127000D02*
Y1131000D01*
X1638000Y1129000D02*
X1642000D01*
X1640000Y1127000D02*
Y1131000D01*
X1618000Y1129000D02*
X1622000D01*
X1620000Y1127000D02*
Y1131000D01*
X1628000Y1129000D02*
X1632000D01*
X1630000Y1127000D02*
Y1131000D01*
X1608000Y1129000D02*
X1612000D01*
X1610000Y1127000D02*
Y1131000D01*
X1598000Y1129000D02*
X1602000D01*
X1600000Y1127000D02*
Y1131000D01*
X1588000Y1129000D02*
X1592000D01*
X1590000Y1127000D02*
Y1131000D01*
X1578000Y1129000D02*
X1582000D01*
X1580000Y1127000D02*
Y1131000D01*
X1698000Y1139000D02*
X1702000D01*
X1700000Y1137000D02*
Y1141000D01*
X1688000Y1139000D02*
X1692000D01*
X1690000Y1137000D02*
Y1141000D01*
X1678000Y1139000D02*
X1682000D01*
X1680000Y1137000D02*
Y1141000D01*
X1668000Y1139000D02*
X1672000D01*
X1670000Y1137000D02*
Y1141000D01*
X1658000Y1139000D02*
X1662000D01*
X1660000Y1137000D02*
Y1141000D01*
X1648000Y1139000D02*
X1652000D01*
X1650000Y1137000D02*
Y1141000D01*
X1638000Y1139000D02*
X1642000D01*
X1640000Y1137000D02*
Y1141000D01*
X1618000Y1139000D02*
X1622000D01*
X1620000Y1137000D02*
Y1141000D01*
X1628000Y1139000D02*
X1632000D01*
X1630000Y1137000D02*
Y1141000D01*
X1608000Y1139000D02*
X1612000D01*
X1610000Y1137000D02*
Y1141000D01*
X1598000Y1139000D02*
X1602000D01*
X1600000Y1137000D02*
Y1141000D01*
X1588000Y1139000D02*
X1592000D01*
X1590000Y1137000D02*
Y1141000D01*
X1578000Y1139000D02*
X1582000D01*
X1580000Y1137000D02*
Y1141000D01*
X1698000Y1149000D02*
X1702000D01*
X1700000Y1147000D02*
Y1151000D01*
X1688000Y1149000D02*
X1692000D01*
X1690000Y1147000D02*
Y1151000D01*
X1678000Y1149000D02*
X1682000D01*
X1680000Y1147000D02*
Y1151000D01*
X1668000Y1149000D02*
X1672000D01*
X1670000Y1147000D02*
Y1151000D01*
X1658000Y1149000D02*
X1662000D01*
X1660000Y1147000D02*
Y1151000D01*
X1648000Y1149000D02*
X1652000D01*
X1650000Y1147000D02*
Y1151000D01*
X1638000Y1149000D02*
X1642000D01*
X1640000Y1147000D02*
Y1151000D01*
X1618000Y1149000D02*
X1622000D01*
X1620000Y1147000D02*
Y1151000D01*
X1628000Y1149000D02*
X1632000D01*
X1630000Y1147000D02*
Y1151000D01*
X1608000Y1149000D02*
X1612000D01*
X1610000Y1147000D02*
Y1151000D01*
X1598000Y1149000D02*
X1602000D01*
X1600000Y1147000D02*
Y1151000D01*
X1588000Y1149000D02*
X1592000D01*
X1590000Y1147000D02*
Y1151000D01*
X1578000Y1149000D02*
X1582000D01*
X1580000Y1147000D02*
Y1151000D01*
X1698000Y1159000D02*
X1702000D01*
X1700000Y1157000D02*
Y1161000D01*
X1688000Y1159000D02*
X1692000D01*
X1690000Y1157000D02*
Y1161000D01*
X1678000Y1159000D02*
X1682000D01*
X1680000Y1157000D02*
Y1161000D01*
X1668000Y1159000D02*
X1672000D01*
X1670000Y1157000D02*
Y1161000D01*
X1658000Y1159000D02*
X1662000D01*
X1660000Y1157000D02*
Y1161000D01*
X1648000Y1159000D02*
X1652000D01*
X1650000Y1157000D02*
Y1161000D01*
X1638000Y1159000D02*
X1642000D01*
X1640000Y1157000D02*
Y1161000D01*
X1618000Y1159000D02*
X1622000D01*
X1620000Y1157000D02*
Y1161000D01*
X1628000Y1159000D02*
X1632000D01*
X1630000Y1157000D02*
Y1161000D01*
X1608000Y1159000D02*
X1612000D01*
X1610000Y1157000D02*
Y1161000D01*
X1598000Y1159000D02*
X1602000D01*
X1600000Y1157000D02*
Y1161000D01*
X1588000Y1159000D02*
X1592000D01*
X1590000Y1157000D02*
Y1161000D01*
X1578000Y1159000D02*
X1582000D01*
X1580000Y1157000D02*
Y1161000D01*
X1698000Y1169000D02*
X1702000D01*
X1700000Y1167000D02*
Y1171000D01*
X1688000Y1169000D02*
X1692000D01*
X1690000Y1167000D02*
Y1171000D01*
X1678000Y1169000D02*
X1682000D01*
X1680000Y1167000D02*
Y1171000D01*
X1668000Y1169000D02*
X1672000D01*
X1670000Y1167000D02*
Y1171000D01*
X1658000Y1169000D02*
X1662000D01*
X1660000Y1167000D02*
Y1171000D01*
X1648000Y1169000D02*
X1652000D01*
X1650000Y1167000D02*
Y1171000D01*
X1638000Y1169000D02*
X1642000D01*
X1640000Y1167000D02*
Y1171000D01*
X1618000Y1169000D02*
X1622000D01*
X1620000Y1167000D02*
Y1171000D01*
X1628000Y1169000D02*
X1632000D01*
X1630000Y1167000D02*
Y1171000D01*
X1608000Y1169000D02*
X1612000D01*
X1610000Y1167000D02*
Y1171000D01*
X1598000Y1169000D02*
X1602000D01*
X1600000Y1167000D02*
Y1171000D01*
X1588000Y1169000D02*
X1592000D01*
X1590000Y1167000D02*
Y1171000D01*
X1578000Y1169000D02*
X1582000D01*
X1580000Y1167000D02*
Y1171000D01*
X1698000Y1179000D02*
X1702000D01*
X1700000Y1177000D02*
Y1181000D01*
X1688000Y1179000D02*
X1692000D01*
X1690000Y1177000D02*
Y1181000D01*
X1678000Y1179000D02*
X1682000D01*
X1680000Y1177000D02*
Y1181000D01*
X1668000Y1179000D02*
X1672000D01*
X1670000Y1177000D02*
Y1181000D01*
X1658000Y1179000D02*
X1662000D01*
X1660000Y1177000D02*
Y1181000D01*
X1648000Y1179000D02*
X1652000D01*
X1650000Y1177000D02*
Y1181000D01*
X1638000Y1179000D02*
X1642000D01*
X1640000Y1177000D02*
Y1181000D01*
X1618000Y1179000D02*
X1622000D01*
X1620000Y1177000D02*
Y1181000D01*
X1628000Y1179000D02*
X1632000D01*
X1630000Y1177000D02*
Y1181000D01*
X1608000Y1179000D02*
X1612000D01*
X1610000Y1177000D02*
Y1181000D01*
X1598000Y1179000D02*
X1602000D01*
X1600000Y1177000D02*
Y1181000D01*
X1588000Y1179000D02*
X1592000D01*
X1590000Y1177000D02*
Y1181000D01*
X1578000Y1179000D02*
X1582000D01*
X1580000Y1177000D02*
Y1181000D01*
X1698000Y1189000D02*
X1702000D01*
X1700000Y1187000D02*
Y1191000D01*
X1688000Y1189000D02*
X1692000D01*
X1690000Y1187000D02*
Y1191000D01*
X1678000Y1189000D02*
X1682000D01*
X1680000Y1187000D02*
Y1191000D01*
X1668000Y1189000D02*
X1672000D01*
X1670000Y1187000D02*
Y1191000D01*
X1658000Y1189000D02*
X1662000D01*
X1660000Y1187000D02*
Y1191000D01*
X1648000Y1189000D02*
X1652000D01*
X1650000Y1187000D02*
Y1191000D01*
X1638000Y1189000D02*
X1642000D01*
X1640000Y1187000D02*
Y1191000D01*
X1618000Y1189000D02*
X1622000D01*
X1620000Y1187000D02*
Y1191000D01*
X1628000Y1189000D02*
X1632000D01*
X1630000Y1187000D02*
Y1191000D01*
X1608000Y1189000D02*
X1612000D01*
X1610000Y1187000D02*
Y1191000D01*
X1598000Y1189000D02*
X1602000D01*
X1600000Y1187000D02*
Y1191000D01*
X1588000Y1189000D02*
X1592000D01*
X1590000Y1187000D02*
Y1191000D01*
X1578000Y1189000D02*
X1582000D01*
X1580000Y1187000D02*
Y1191000D01*
X1698000Y1199000D02*
X1702000D01*
X1700000Y1197000D02*
Y1201000D01*
X1688000Y1199000D02*
X1692000D01*
X1690000Y1197000D02*
Y1201000D01*
X1678000Y1199000D02*
X1682000D01*
X1680000Y1197000D02*
Y1201000D01*
X1668000Y1199000D02*
X1672000D01*
X1670000Y1197000D02*
Y1201000D01*
X1658000Y1199000D02*
X1662000D01*
X1660000Y1197000D02*
Y1201000D01*
X1648000Y1199000D02*
X1652000D01*
X1650000Y1197000D02*
Y1201000D01*
X1638000Y1199000D02*
X1642000D01*
X1640000Y1197000D02*
Y1201000D01*
X1618000Y1199000D02*
X1622000D01*
X1620000Y1197000D02*
Y1201000D01*
X1628000Y1199000D02*
X1632000D01*
X1630000Y1197000D02*
Y1201000D01*
X1608000Y1199000D02*
X1612000D01*
X1610000Y1197000D02*
Y1201000D01*
X1598000Y1199000D02*
X1602000D01*
X1600000Y1197000D02*
Y1201000D01*
X1588000Y1199000D02*
X1592000D01*
X1590000Y1197000D02*
Y1201000D01*
X1578000Y1199000D02*
X1582000D01*
X1580000Y1197000D02*
Y1201000D01*
X1698000Y1209000D02*
X1702000D01*
X1700000Y1207000D02*
Y1211000D01*
X1688000Y1209000D02*
X1692000D01*
X1690000Y1207000D02*
Y1211000D01*
X1678000Y1209000D02*
X1682000D01*
X1680000Y1207000D02*
Y1211000D01*
X1668000Y1209000D02*
X1672000D01*
X1670000Y1207000D02*
Y1211000D01*
X1658000Y1209000D02*
X1662000D01*
X1660000Y1207000D02*
Y1211000D01*
X1648000Y1209000D02*
X1652000D01*
X1650000Y1207000D02*
Y1211000D01*
X1638000Y1209000D02*
X1642000D01*
X1640000Y1207000D02*
Y1211000D01*
X1618000Y1209000D02*
X1622000D01*
X1620000Y1207000D02*
Y1211000D01*
X1628000Y1209000D02*
X1632000D01*
X1630000Y1207000D02*
Y1211000D01*
X1608000Y1209000D02*
X1612000D01*
X1610000Y1207000D02*
Y1211000D01*
X1598000Y1209000D02*
X1602000D01*
X1600000Y1207000D02*
Y1211000D01*
X1588000Y1209000D02*
X1592000D01*
X1590000Y1207000D02*
Y1211000D01*
X1578000Y1209000D02*
X1582000D01*
X1580000Y1207000D02*
Y1211000D01*
X1658000Y1109000D02*
X1662000D01*
X1660000Y1107000D02*
Y1111000D01*
X1638000Y1109000D02*
X1642000D01*
X1640000Y1107000D02*
Y1111000D01*
X1648000Y1109000D02*
X1652000D01*
X1650000Y1107000D02*
Y1111000D01*
X1668000Y1109000D02*
X1672000D01*
X1670000Y1107000D02*
Y1111000D01*
X1608000Y1109000D02*
X1612000D01*
X1610000Y1107000D02*
Y1111000D01*
X1598000Y1109000D02*
X1602000D01*
X1600000Y1107000D02*
Y1111000D01*
X1618000Y1109000D02*
X1622000D01*
X1620000Y1107000D02*
Y1111000D01*
X1688000Y1109000D02*
X1692000D01*
X1690000Y1107000D02*
Y1111000D01*
X1628000Y1109000D02*
X1632000D01*
X1630000Y1107000D02*
Y1111000D01*
X1678000Y1109000D02*
X1682000D01*
X1680000Y1107000D02*
Y1111000D01*
X1588000Y1109000D02*
X1592000D01*
X1590000Y1107000D02*
Y1111000D01*
X1448000Y1109000D02*
X1452000D01*
X1450000Y1107000D02*
Y1111000D01*
X1538000Y1109000D02*
X1542000D01*
X1540000Y1107000D02*
Y1111000D01*
X1488000Y1109000D02*
X1492000D01*
X1490000Y1107000D02*
Y1111000D01*
X1548000Y1109000D02*
X1552000D01*
X1550000Y1107000D02*
Y1111000D01*
X1478000Y1109000D02*
X1482000D01*
X1480000Y1107000D02*
Y1111000D01*
X1458000Y1109000D02*
X1462000D01*
X1460000Y1107000D02*
Y1111000D01*
X1468000Y1109000D02*
X1472000D01*
X1470000Y1107000D02*
Y1111000D01*
X1528000Y1109000D02*
X1532000D01*
X1530000Y1107000D02*
Y1111000D01*
X1508000Y1109000D02*
X1512000D01*
X1510000Y1107000D02*
Y1111000D01*
X1498000Y1109000D02*
X1502000D01*
X1500000Y1107000D02*
Y1111000D01*
X1518000Y1109000D02*
X1522000D01*
X1520000Y1107000D02*
Y1111000D01*
X1438000Y1209000D02*
X1442000D01*
X1440000Y1207000D02*
Y1211000D01*
X1448000Y1209000D02*
X1452000D01*
X1450000Y1207000D02*
Y1211000D01*
X1458000Y1209000D02*
X1462000D01*
X1460000Y1207000D02*
Y1211000D01*
X1468000Y1209000D02*
X1472000D01*
X1470000Y1207000D02*
Y1211000D01*
X1488000Y1209000D02*
X1492000D01*
X1490000Y1207000D02*
Y1211000D01*
X1478000Y1209000D02*
X1482000D01*
X1480000Y1207000D02*
Y1211000D01*
X1498000Y1209000D02*
X1502000D01*
X1500000Y1207000D02*
Y1211000D01*
X1508000Y1209000D02*
X1512000D01*
X1510000Y1207000D02*
Y1211000D01*
X1518000Y1209000D02*
X1522000D01*
X1520000Y1207000D02*
Y1211000D01*
X1528000Y1209000D02*
X1532000D01*
X1530000Y1207000D02*
Y1211000D01*
X1538000Y1209000D02*
X1542000D01*
X1540000Y1207000D02*
Y1211000D01*
X1548000Y1209000D02*
X1552000D01*
X1550000Y1207000D02*
Y1211000D01*
X1558000Y1209000D02*
X1562000D01*
X1560000Y1207000D02*
Y1211000D01*
X1438000Y1199000D02*
X1442000D01*
X1440000Y1197000D02*
Y1201000D01*
X1448000Y1199000D02*
X1452000D01*
X1450000Y1197000D02*
Y1201000D01*
X1458000Y1199000D02*
X1462000D01*
X1460000Y1197000D02*
Y1201000D01*
X1468000Y1199000D02*
X1472000D01*
X1470000Y1197000D02*
Y1201000D01*
X1488000Y1199000D02*
X1492000D01*
X1490000Y1197000D02*
Y1201000D01*
X1478000Y1199000D02*
X1482000D01*
X1480000Y1197000D02*
Y1201000D01*
X1498000Y1199000D02*
X1502000D01*
X1500000Y1197000D02*
Y1201000D01*
X1508000Y1199000D02*
X1512000D01*
X1510000Y1197000D02*
Y1201000D01*
X1518000Y1199000D02*
X1522000D01*
X1520000Y1197000D02*
Y1201000D01*
X1528000Y1199000D02*
X1532000D01*
X1530000Y1197000D02*
Y1201000D01*
X1538000Y1199000D02*
X1542000D01*
X1540000Y1197000D02*
Y1201000D01*
X1548000Y1199000D02*
X1552000D01*
X1550000Y1197000D02*
Y1201000D01*
X1558000Y1199000D02*
X1562000D01*
X1560000Y1197000D02*
Y1201000D01*
X1438000Y1189000D02*
X1442000D01*
X1440000Y1187000D02*
Y1191000D01*
X1448000Y1189000D02*
X1452000D01*
X1450000Y1187000D02*
Y1191000D01*
X1458000Y1189000D02*
X1462000D01*
X1460000Y1187000D02*
Y1191000D01*
X1468000Y1189000D02*
X1472000D01*
X1470000Y1187000D02*
Y1191000D01*
X1488000Y1189000D02*
X1492000D01*
X1490000Y1187000D02*
Y1191000D01*
X1478000Y1189000D02*
X1482000D01*
X1480000Y1187000D02*
Y1191000D01*
X1498000Y1189000D02*
X1502000D01*
X1500000Y1187000D02*
Y1191000D01*
X1508000Y1189000D02*
X1512000D01*
X1510000Y1187000D02*
Y1191000D01*
X1518000Y1189000D02*
X1522000D01*
X1520000Y1187000D02*
Y1191000D01*
X1528000Y1189000D02*
X1532000D01*
X1530000Y1187000D02*
Y1191000D01*
X1538000Y1189000D02*
X1542000D01*
X1540000Y1187000D02*
Y1191000D01*
X1548000Y1189000D02*
X1552000D01*
X1550000Y1187000D02*
Y1191000D01*
X1558000Y1189000D02*
X1562000D01*
X1560000Y1187000D02*
Y1191000D01*
X1438000Y1179000D02*
X1442000D01*
X1440000Y1177000D02*
Y1181000D01*
X1448000Y1179000D02*
X1452000D01*
X1450000Y1177000D02*
Y1181000D01*
X1458000Y1179000D02*
X1462000D01*
X1460000Y1177000D02*
Y1181000D01*
X1468000Y1179000D02*
X1472000D01*
X1470000Y1177000D02*
Y1181000D01*
X1488000Y1179000D02*
X1492000D01*
X1490000Y1177000D02*
Y1181000D01*
X1478000Y1179000D02*
X1482000D01*
X1480000Y1177000D02*
Y1181000D01*
X1498000Y1179000D02*
X1502000D01*
X1500000Y1177000D02*
Y1181000D01*
X1508000Y1179000D02*
X1512000D01*
X1510000Y1177000D02*
Y1181000D01*
X1518000Y1179000D02*
X1522000D01*
X1520000Y1177000D02*
Y1181000D01*
X1528000Y1179000D02*
X1532000D01*
X1530000Y1177000D02*
Y1181000D01*
X1538000Y1179000D02*
X1542000D01*
X1540000Y1177000D02*
Y1181000D01*
X1548000Y1179000D02*
X1552000D01*
X1550000Y1177000D02*
Y1181000D01*
X1558000Y1179000D02*
X1562000D01*
X1560000Y1177000D02*
Y1181000D01*
X1438000Y1169000D02*
X1442000D01*
X1440000Y1167000D02*
Y1171000D01*
X1448000Y1169000D02*
X1452000D01*
X1450000Y1167000D02*
Y1171000D01*
X1458000Y1169000D02*
X1462000D01*
X1460000Y1167000D02*
Y1171000D01*
X1468000Y1169000D02*
X1472000D01*
X1470000Y1167000D02*
Y1171000D01*
X1488000Y1169000D02*
X1492000D01*
X1490000Y1167000D02*
Y1171000D01*
X1478000Y1169000D02*
X1482000D01*
X1480000Y1167000D02*
Y1171000D01*
X1498000Y1169000D02*
X1502000D01*
X1500000Y1167000D02*
Y1171000D01*
X1508000Y1169000D02*
X1512000D01*
X1510000Y1167000D02*
Y1171000D01*
X1518000Y1169000D02*
X1522000D01*
X1520000Y1167000D02*
Y1171000D01*
X1528000Y1169000D02*
X1532000D01*
X1530000Y1167000D02*
Y1171000D01*
X1538000Y1169000D02*
X1542000D01*
X1540000Y1167000D02*
Y1171000D01*
X1548000Y1169000D02*
X1552000D01*
X1550000Y1167000D02*
Y1171000D01*
X1558000Y1169000D02*
X1562000D01*
X1560000Y1167000D02*
Y1171000D01*
X1438000Y1159000D02*
X1442000D01*
X1440000Y1157000D02*
Y1161000D01*
X1448000Y1159000D02*
X1452000D01*
X1450000Y1157000D02*
Y1161000D01*
X1458000Y1159000D02*
X1462000D01*
X1460000Y1157000D02*
Y1161000D01*
X1468000Y1159000D02*
X1472000D01*
X1470000Y1157000D02*
Y1161000D01*
X1488000Y1159000D02*
X1492000D01*
X1490000Y1157000D02*
Y1161000D01*
X1478000Y1159000D02*
X1482000D01*
X1480000Y1157000D02*
Y1161000D01*
X1498000Y1159000D02*
X1502000D01*
X1500000Y1157000D02*
Y1161000D01*
X1508000Y1159000D02*
X1512000D01*
X1510000Y1157000D02*
Y1161000D01*
X1518000Y1159000D02*
X1522000D01*
X1520000Y1157000D02*
Y1161000D01*
X1528000Y1159000D02*
X1532000D01*
X1530000Y1157000D02*
Y1161000D01*
X1538000Y1159000D02*
X1542000D01*
X1540000Y1157000D02*
Y1161000D01*
X1548000Y1159000D02*
X1552000D01*
X1550000Y1157000D02*
Y1161000D01*
X1558000Y1159000D02*
X1562000D01*
X1560000Y1157000D02*
Y1161000D01*
X1438000Y1149000D02*
X1442000D01*
X1440000Y1147000D02*
Y1151000D01*
X1448000Y1149000D02*
X1452000D01*
X1450000Y1147000D02*
Y1151000D01*
X1458000Y1149000D02*
X1462000D01*
X1460000Y1147000D02*
Y1151000D01*
X1468000Y1149000D02*
X1472000D01*
X1470000Y1147000D02*
Y1151000D01*
X1488000Y1149000D02*
X1492000D01*
X1490000Y1147000D02*
Y1151000D01*
X1478000Y1149000D02*
X1482000D01*
X1480000Y1147000D02*
Y1151000D01*
X1498000Y1149000D02*
X1502000D01*
X1500000Y1147000D02*
Y1151000D01*
X1508000Y1149000D02*
X1512000D01*
X1510000Y1147000D02*
Y1151000D01*
X1518000Y1149000D02*
X1522000D01*
X1520000Y1147000D02*
Y1151000D01*
X1528000Y1149000D02*
X1532000D01*
X1530000Y1147000D02*
Y1151000D01*
X1538000Y1149000D02*
X1542000D01*
X1540000Y1147000D02*
Y1151000D01*
X1548000Y1149000D02*
X1552000D01*
X1550000Y1147000D02*
Y1151000D01*
X1558000Y1149000D02*
X1562000D01*
X1560000Y1147000D02*
Y1151000D01*
X1438000Y1139000D02*
X1442000D01*
X1440000Y1137000D02*
Y1141000D01*
X1448000Y1139000D02*
X1452000D01*
X1450000Y1137000D02*
Y1141000D01*
X1458000Y1139000D02*
X1462000D01*
X1460000Y1137000D02*
Y1141000D01*
X1468000Y1139000D02*
X1472000D01*
X1470000Y1137000D02*
Y1141000D01*
X1488000Y1139000D02*
X1492000D01*
X1490000Y1137000D02*
Y1141000D01*
X1478000Y1139000D02*
X1482000D01*
X1480000Y1137000D02*
Y1141000D01*
X1498000Y1139000D02*
X1502000D01*
X1500000Y1137000D02*
Y1141000D01*
X1508000Y1139000D02*
X1512000D01*
X1510000Y1137000D02*
Y1141000D01*
X1518000Y1139000D02*
X1522000D01*
X1520000Y1137000D02*
Y1141000D01*
X1528000Y1139000D02*
X1532000D01*
X1530000Y1137000D02*
Y1141000D01*
X1538000Y1139000D02*
X1542000D01*
X1540000Y1137000D02*
Y1141000D01*
X1548000Y1139000D02*
X1552000D01*
X1550000Y1137000D02*
Y1141000D01*
X1558000Y1139000D02*
X1562000D01*
X1560000Y1137000D02*
Y1141000D01*
X1438000Y1129000D02*
X1442000D01*
X1440000Y1127000D02*
Y1131000D01*
X1448000Y1129000D02*
X1452000D01*
X1450000Y1127000D02*
Y1131000D01*
X1458000Y1129000D02*
X1462000D01*
X1460000Y1127000D02*
Y1131000D01*
X1468000Y1129000D02*
X1472000D01*
X1470000Y1127000D02*
Y1131000D01*
X1488000Y1129000D02*
X1492000D01*
X1490000Y1127000D02*
Y1131000D01*
X1478000Y1129000D02*
X1482000D01*
X1480000Y1127000D02*
Y1131000D01*
X1498000Y1129000D02*
X1502000D01*
X1500000Y1127000D02*
Y1131000D01*
X1508000Y1129000D02*
X1512000D01*
X1510000Y1127000D02*
Y1131000D01*
X1518000Y1129000D02*
X1522000D01*
X1520000Y1127000D02*
Y1131000D01*
X1528000Y1129000D02*
X1532000D01*
X1530000Y1127000D02*
Y1131000D01*
X1538000Y1129000D02*
X1542000D01*
X1540000Y1127000D02*
Y1131000D01*
X1548000Y1129000D02*
X1552000D01*
X1550000Y1127000D02*
Y1131000D01*
X1558000Y1129000D02*
X1562000D01*
X1560000Y1127000D02*
Y1131000D01*
X1438000Y1119000D02*
X1442000D01*
X1440000Y1117000D02*
Y1121000D01*
X1448000Y1119000D02*
X1452000D01*
X1450000Y1117000D02*
Y1121000D01*
X1458000Y1119000D02*
X1462000D01*
X1460000Y1117000D02*
Y1121000D01*
X1468000Y1119000D02*
X1472000D01*
X1470000Y1117000D02*
Y1121000D01*
X1488000Y1119000D02*
X1492000D01*
X1490000Y1117000D02*
Y1121000D01*
X1478000Y1119000D02*
X1482000D01*
X1480000Y1117000D02*
Y1121000D01*
X1498000Y1119000D02*
X1502000D01*
X1500000Y1117000D02*
Y1121000D01*
X1508000Y1119000D02*
X1512000D01*
X1510000Y1117000D02*
Y1121000D01*
X1518000Y1119000D02*
X1522000D01*
X1520000Y1117000D02*
Y1121000D01*
X1528000Y1119000D02*
X1532000D01*
X1530000Y1117000D02*
Y1121000D01*
X1538000Y1119000D02*
X1542000D01*
X1540000Y1117000D02*
Y1121000D01*
X1548000Y1119000D02*
X1552000D01*
X1550000Y1117000D02*
Y1121000D01*
X1558000Y1119000D02*
X1562000D01*
X1560000Y1117000D02*
Y1121000D01*
X1558000Y1109000D02*
X1562000D01*
X1560000Y1107000D02*
Y1111000D01*
X1438000Y1109000D02*
X1442000D01*
X1440000Y1107000D02*
Y1111000D01*
X1278175Y2133825D02*
X1285175D01*
X1281675Y2130325D02*
Y2137325D01*
X1278000Y1230000D02*
X1285000D01*
X1281500Y1226500D02*
Y1233500D01*
X1676500Y1062000D02*
X1683500D01*
X1680000Y1058500D02*
Y1065500D01*
X1676500Y1038000D02*
X1683500D01*
X1680000Y1034500D02*
Y1041500D01*
X1676500Y1050000D02*
X1683500D01*
X1680000Y1046500D02*
Y1053500D01*
X1647500Y1062000D02*
X1654500D01*
X1651000Y1058500D02*
Y1065500D01*
X1647500Y1050000D02*
X1654500D01*
X1651000Y1046500D02*
Y1053500D01*
X1647500Y1038000D02*
X1654500D01*
X1651000Y1034500D02*
Y1041500D01*
X1536500Y1062000D02*
X1543500D01*
X1540000Y1058500D02*
Y1065500D01*
X1536500Y1038000D02*
X1543500D01*
X1540000Y1034500D02*
Y1041500D01*
X1536500Y1050000D02*
X1543500D01*
X1540000Y1046500D02*
Y1053500D01*
X1507500Y1062000D02*
X1514500D01*
X1511000Y1058500D02*
Y1065500D01*
X1507500Y1050000D02*
X1514500D01*
X1511000Y1046500D02*
Y1053500D01*
X1507500Y1038000D02*
X1514500D01*
X1511000Y1034500D02*
Y1041500D01*
X1578000Y1565000D02*
X1582000D01*
X1580000Y1563000D02*
Y1567000D01*
X1698000Y1565000D02*
X1702000D01*
X1700000Y1563000D02*
Y1567000D01*
X1698000Y1575000D02*
X1702000D01*
X1700000Y1573000D02*
Y1577000D01*
X1688000Y1575000D02*
X1692000D01*
X1690000Y1573000D02*
Y1577000D01*
X1678000Y1575000D02*
X1682000D01*
X1680000Y1573000D02*
Y1577000D01*
X1668000Y1575000D02*
X1672000D01*
X1670000Y1573000D02*
Y1577000D01*
X1658000Y1575000D02*
X1662000D01*
X1660000Y1573000D02*
Y1577000D01*
X1648000Y1575000D02*
X1652000D01*
X1650000Y1573000D02*
Y1577000D01*
X1638000Y1575000D02*
X1642000D01*
X1640000Y1573000D02*
Y1577000D01*
X1618000Y1575000D02*
X1622000D01*
X1620000Y1573000D02*
Y1577000D01*
X1628000Y1575000D02*
X1632000D01*
X1630000Y1573000D02*
Y1577000D01*
X1608000Y1575000D02*
X1612000D01*
X1610000Y1573000D02*
Y1577000D01*
X1598000Y1575000D02*
X1602000D01*
X1600000Y1573000D02*
Y1577000D01*
X1588000Y1575000D02*
X1592000D01*
X1590000Y1573000D02*
Y1577000D01*
X1578000Y1575000D02*
X1582000D01*
X1580000Y1573000D02*
Y1577000D01*
X1698000Y1585000D02*
X1702000D01*
X1700000Y1583000D02*
Y1587000D01*
X1688000Y1585000D02*
X1692000D01*
X1690000Y1583000D02*
Y1587000D01*
X1678000Y1585000D02*
X1682000D01*
X1680000Y1583000D02*
Y1587000D01*
X1668000Y1585000D02*
X1672000D01*
X1670000Y1583000D02*
Y1587000D01*
X1658000Y1585000D02*
X1662000D01*
X1660000Y1583000D02*
Y1587000D01*
X1648000Y1585000D02*
X1652000D01*
X1650000Y1583000D02*
Y1587000D01*
X1638000Y1585000D02*
X1642000D01*
X1640000Y1583000D02*
Y1587000D01*
X1618000Y1585000D02*
X1622000D01*
X1620000Y1583000D02*
Y1587000D01*
X1628000Y1585000D02*
X1632000D01*
X1630000Y1583000D02*
Y1587000D01*
X1608000Y1585000D02*
X1612000D01*
X1610000Y1583000D02*
Y1587000D01*
X1598000Y1585000D02*
X1602000D01*
X1600000Y1583000D02*
Y1587000D01*
X1588000Y1585000D02*
X1592000D01*
X1590000Y1583000D02*
Y1587000D01*
X1578000Y1585000D02*
X1582000D01*
X1580000Y1583000D02*
Y1587000D01*
X1698000Y1595000D02*
X1702000D01*
X1700000Y1593000D02*
Y1597000D01*
X1688000Y1595000D02*
X1692000D01*
X1690000Y1593000D02*
Y1597000D01*
X1678000Y1595000D02*
X1682000D01*
X1680000Y1593000D02*
Y1597000D01*
X1668000Y1595000D02*
X1672000D01*
X1670000Y1593000D02*
Y1597000D01*
X1658000Y1595000D02*
X1662000D01*
X1660000Y1593000D02*
Y1597000D01*
X1648000Y1595000D02*
X1652000D01*
X1650000Y1593000D02*
Y1597000D01*
X1638000Y1595000D02*
X1642000D01*
X1640000Y1593000D02*
Y1597000D01*
X1618000Y1595000D02*
X1622000D01*
X1620000Y1593000D02*
Y1597000D01*
X1628000Y1595000D02*
X1632000D01*
X1630000Y1593000D02*
Y1597000D01*
X1608000Y1595000D02*
X1612000D01*
X1610000Y1593000D02*
Y1597000D01*
X1598000Y1595000D02*
X1602000D01*
X1600000Y1593000D02*
Y1597000D01*
X1588000Y1595000D02*
X1592000D01*
X1590000Y1593000D02*
Y1597000D01*
X1578000Y1595000D02*
X1582000D01*
X1580000Y1593000D02*
Y1597000D01*
X1698000Y1605000D02*
X1702000D01*
X1700000Y1603000D02*
Y1607000D01*
X1688000Y1605000D02*
X1692000D01*
X1690000Y1603000D02*
Y1607000D01*
X1678000Y1605000D02*
X1682000D01*
X1680000Y1603000D02*
Y1607000D01*
X1668000Y1605000D02*
X1672000D01*
X1670000Y1603000D02*
Y1607000D01*
X1658000Y1605000D02*
X1662000D01*
X1660000Y1603000D02*
Y1607000D01*
X1648000Y1605000D02*
X1652000D01*
X1650000Y1603000D02*
Y1607000D01*
X1638000Y1605000D02*
X1642000D01*
X1640000Y1603000D02*
Y1607000D01*
X1618000Y1605000D02*
X1622000D01*
X1620000Y1603000D02*
Y1607000D01*
X1628000Y1605000D02*
X1632000D01*
X1630000Y1603000D02*
Y1607000D01*
X1608000Y1605000D02*
X1612000D01*
X1610000Y1603000D02*
Y1607000D01*
X1598000Y1605000D02*
X1602000D01*
X1600000Y1603000D02*
Y1607000D01*
X1588000Y1605000D02*
X1592000D01*
X1590000Y1603000D02*
Y1607000D01*
X1578000Y1605000D02*
X1582000D01*
X1580000Y1603000D02*
Y1607000D01*
X1698000Y1615000D02*
X1702000D01*
X1700000Y1613000D02*
Y1617000D01*
X1688000Y1615000D02*
X1692000D01*
X1690000Y1613000D02*
Y1617000D01*
X1678000Y1615000D02*
X1682000D01*
X1680000Y1613000D02*
Y1617000D01*
X1668000Y1615000D02*
X1672000D01*
X1670000Y1613000D02*
Y1617000D01*
X1658000Y1615000D02*
X1662000D01*
X1660000Y1613000D02*
Y1617000D01*
X1648000Y1615000D02*
X1652000D01*
X1650000Y1613000D02*
Y1617000D01*
X1638000Y1615000D02*
X1642000D01*
X1640000Y1613000D02*
Y1617000D01*
X1618000Y1615000D02*
X1622000D01*
X1620000Y1613000D02*
Y1617000D01*
X1628000Y1615000D02*
X1632000D01*
X1630000Y1613000D02*
Y1617000D01*
X1608000Y1615000D02*
X1612000D01*
X1610000Y1613000D02*
Y1617000D01*
X1598000Y1615000D02*
X1602000D01*
X1600000Y1613000D02*
Y1617000D01*
X1588000Y1615000D02*
X1592000D01*
X1590000Y1613000D02*
Y1617000D01*
X1578000Y1615000D02*
X1582000D01*
X1580000Y1613000D02*
Y1617000D01*
X1698000Y1625000D02*
X1702000D01*
X1700000Y1623000D02*
Y1627000D01*
X1688000Y1625000D02*
X1692000D01*
X1690000Y1623000D02*
Y1627000D01*
X1678000Y1625000D02*
X1682000D01*
X1680000Y1623000D02*
Y1627000D01*
X1668000Y1625000D02*
X1672000D01*
X1670000Y1623000D02*
Y1627000D01*
X1658000Y1625000D02*
X1662000D01*
X1660000Y1623000D02*
Y1627000D01*
X1648000Y1625000D02*
X1652000D01*
X1650000Y1623000D02*
Y1627000D01*
X1638000Y1625000D02*
X1642000D01*
X1640000Y1623000D02*
Y1627000D01*
X1618000Y1625000D02*
X1622000D01*
X1620000Y1623000D02*
Y1627000D01*
X1628000Y1625000D02*
X1632000D01*
X1630000Y1623000D02*
Y1627000D01*
X1608000Y1625000D02*
X1612000D01*
X1610000Y1623000D02*
Y1627000D01*
X1598000Y1625000D02*
X1602000D01*
X1600000Y1623000D02*
Y1627000D01*
X1588000Y1625000D02*
X1592000D01*
X1590000Y1623000D02*
Y1627000D01*
X1578000Y1625000D02*
X1582000D01*
X1580000Y1623000D02*
Y1627000D01*
X1698000Y1635000D02*
X1702000D01*
X1700000Y1633000D02*
Y1637000D01*
X1688000Y1635000D02*
X1692000D01*
X1690000Y1633000D02*
Y1637000D01*
X1678000Y1635000D02*
X1682000D01*
X1680000Y1633000D02*
Y1637000D01*
X1668000Y1635000D02*
X1672000D01*
X1670000Y1633000D02*
Y1637000D01*
X1658000Y1635000D02*
X1662000D01*
X1660000Y1633000D02*
Y1637000D01*
X1648000Y1635000D02*
X1652000D01*
X1650000Y1633000D02*
Y1637000D01*
X1638000Y1635000D02*
X1642000D01*
X1640000Y1633000D02*
Y1637000D01*
X1618000Y1635000D02*
X1622000D01*
X1620000Y1633000D02*
Y1637000D01*
X1628000Y1635000D02*
X1632000D01*
X1630000Y1633000D02*
Y1637000D01*
X1608000Y1635000D02*
X1612000D01*
X1610000Y1633000D02*
Y1637000D01*
X1598000Y1635000D02*
X1602000D01*
X1600000Y1633000D02*
Y1637000D01*
X1588000Y1635000D02*
X1592000D01*
X1590000Y1633000D02*
Y1637000D01*
X1578000Y1635000D02*
X1582000D01*
X1580000Y1633000D02*
Y1637000D01*
X1698000Y1645000D02*
X1702000D01*
X1700000Y1643000D02*
Y1647000D01*
X1688000Y1645000D02*
X1692000D01*
X1690000Y1643000D02*
Y1647000D01*
X1678000Y1645000D02*
X1682000D01*
X1680000Y1643000D02*
Y1647000D01*
X1668000Y1645000D02*
X1672000D01*
X1670000Y1643000D02*
Y1647000D01*
X1658000Y1645000D02*
X1662000D01*
X1660000Y1643000D02*
Y1647000D01*
X1648000Y1645000D02*
X1652000D01*
X1650000Y1643000D02*
Y1647000D01*
X1638000Y1645000D02*
X1642000D01*
X1640000Y1643000D02*
Y1647000D01*
X1618000Y1645000D02*
X1622000D01*
X1620000Y1643000D02*
Y1647000D01*
X1628000Y1645000D02*
X1632000D01*
X1630000Y1643000D02*
Y1647000D01*
X1608000Y1645000D02*
X1612000D01*
X1610000Y1643000D02*
Y1647000D01*
X1598000Y1645000D02*
X1602000D01*
X1600000Y1643000D02*
Y1647000D01*
X1588000Y1645000D02*
X1592000D01*
X1590000Y1643000D02*
Y1647000D01*
X1578000Y1645000D02*
X1582000D01*
X1580000Y1643000D02*
Y1647000D01*
X1698000Y1655000D02*
X1702000D01*
X1700000Y1653000D02*
Y1657000D01*
X1688000Y1655000D02*
X1692000D01*
X1690000Y1653000D02*
Y1657000D01*
X1678000Y1655000D02*
X1682000D01*
X1680000Y1653000D02*
Y1657000D01*
X1668000Y1655000D02*
X1672000D01*
X1670000Y1653000D02*
Y1657000D01*
X1658000Y1655000D02*
X1662000D01*
X1660000Y1653000D02*
Y1657000D01*
X1648000Y1655000D02*
X1652000D01*
X1650000Y1653000D02*
Y1657000D01*
X1638000Y1655000D02*
X1642000D01*
X1640000Y1653000D02*
Y1657000D01*
X1618000Y1655000D02*
X1622000D01*
X1620000Y1653000D02*
Y1657000D01*
X1628000Y1655000D02*
X1632000D01*
X1630000Y1653000D02*
Y1657000D01*
X1608000Y1655000D02*
X1612000D01*
X1610000Y1653000D02*
Y1657000D01*
X1598000Y1655000D02*
X1602000D01*
X1600000Y1653000D02*
Y1657000D01*
X1588000Y1655000D02*
X1592000D01*
X1590000Y1653000D02*
Y1657000D01*
X1578000Y1655000D02*
X1582000D01*
X1580000Y1653000D02*
Y1657000D01*
X1698000Y1665000D02*
X1702000D01*
X1700000Y1663000D02*
Y1667000D01*
X1688000Y1665000D02*
X1692000D01*
X1690000Y1663000D02*
Y1667000D01*
X1678000Y1665000D02*
X1682000D01*
X1680000Y1663000D02*
Y1667000D01*
X1668000Y1665000D02*
X1672000D01*
X1670000Y1663000D02*
Y1667000D01*
X1658000Y1665000D02*
X1662000D01*
X1660000Y1663000D02*
Y1667000D01*
X1648000Y1665000D02*
X1652000D01*
X1650000Y1663000D02*
Y1667000D01*
X1638000Y1665000D02*
X1642000D01*
X1640000Y1663000D02*
Y1667000D01*
X1618000Y1665000D02*
X1622000D01*
X1620000Y1663000D02*
Y1667000D01*
X1628000Y1665000D02*
X1632000D01*
X1630000Y1663000D02*
Y1667000D01*
X1608000Y1665000D02*
X1612000D01*
X1610000Y1663000D02*
Y1667000D01*
X1598000Y1665000D02*
X1602000D01*
X1600000Y1663000D02*
Y1667000D01*
X1588000Y1665000D02*
X1592000D01*
X1590000Y1663000D02*
Y1667000D01*
X1578000Y1665000D02*
X1582000D01*
X1580000Y1663000D02*
Y1667000D01*
X1658000Y1565000D02*
X1662000D01*
X1660000Y1563000D02*
Y1567000D01*
X1638000Y1565000D02*
X1642000D01*
X1640000Y1563000D02*
Y1567000D01*
X1648000Y1565000D02*
X1652000D01*
X1650000Y1563000D02*
Y1567000D01*
X1668000Y1565000D02*
X1672000D01*
X1670000Y1563000D02*
Y1567000D01*
X1608000Y1565000D02*
X1612000D01*
X1610000Y1563000D02*
Y1567000D01*
X1598000Y1565000D02*
X1602000D01*
X1600000Y1563000D02*
Y1567000D01*
X1618000Y1565000D02*
X1622000D01*
X1620000Y1563000D02*
Y1567000D01*
X1688000Y1565000D02*
X1692000D01*
X1690000Y1563000D02*
Y1567000D01*
X1628000Y1565000D02*
X1632000D01*
X1630000Y1563000D02*
Y1567000D01*
X1678000Y1565000D02*
X1682000D01*
X1680000Y1563000D02*
Y1567000D01*
X1588000Y1565000D02*
X1592000D01*
X1590000Y1563000D02*
Y1567000D01*
X1448000Y1565000D02*
X1452000D01*
X1450000Y1563000D02*
Y1567000D01*
X1538000Y1565000D02*
X1542000D01*
X1540000Y1563000D02*
Y1567000D01*
X1488000Y1565000D02*
X1492000D01*
X1490000Y1563000D02*
Y1567000D01*
X1548000Y1565000D02*
X1552000D01*
X1550000Y1563000D02*
Y1567000D01*
X1478000Y1565000D02*
X1482000D01*
X1480000Y1563000D02*
Y1567000D01*
X1458000Y1565000D02*
X1462000D01*
X1460000Y1563000D02*
Y1567000D01*
X1468000Y1565000D02*
X1472000D01*
X1470000Y1563000D02*
Y1567000D01*
X1528000Y1565000D02*
X1532000D01*
X1530000Y1563000D02*
Y1567000D01*
X1508000Y1565000D02*
X1512000D01*
X1510000Y1563000D02*
Y1567000D01*
X1498000Y1565000D02*
X1502000D01*
X1500000Y1563000D02*
Y1567000D01*
X1518000Y1565000D02*
X1522000D01*
X1520000Y1563000D02*
Y1567000D01*
X1438000Y1665000D02*
X1442000D01*
X1440000Y1663000D02*
Y1667000D01*
X1448000Y1665000D02*
X1452000D01*
X1450000Y1663000D02*
Y1667000D01*
X1458000Y1665000D02*
X1462000D01*
X1460000Y1663000D02*
Y1667000D01*
X1468000Y1665000D02*
X1472000D01*
X1470000Y1663000D02*
Y1667000D01*
X1488000Y1665000D02*
X1492000D01*
X1490000Y1663000D02*
Y1667000D01*
X1478000Y1665000D02*
X1482000D01*
X1480000Y1663000D02*
Y1667000D01*
X1498000Y1665000D02*
X1502000D01*
X1500000Y1663000D02*
Y1667000D01*
X1508000Y1665000D02*
X1512000D01*
X1510000Y1663000D02*
Y1667000D01*
X1518000Y1665000D02*
X1522000D01*
X1520000Y1663000D02*
Y1667000D01*
X1528000Y1665000D02*
X1532000D01*
X1530000Y1663000D02*
Y1667000D01*
X1538000Y1665000D02*
X1542000D01*
X1540000Y1663000D02*
Y1667000D01*
X1548000Y1665000D02*
X1552000D01*
X1550000Y1663000D02*
Y1667000D01*
X1558000Y1665000D02*
X1562000D01*
X1560000Y1663000D02*
Y1667000D01*
X1438000Y1655000D02*
X1442000D01*
X1440000Y1653000D02*
Y1657000D01*
X1448000Y1655000D02*
X1452000D01*
X1450000Y1653000D02*
Y1657000D01*
X1458000Y1655000D02*
X1462000D01*
X1460000Y1653000D02*
Y1657000D01*
X1468000Y1655000D02*
X1472000D01*
X1470000Y1653000D02*
Y1657000D01*
X1488000Y1655000D02*
X1492000D01*
X1490000Y1653000D02*
Y1657000D01*
X1478000Y1655000D02*
X1482000D01*
X1480000Y1653000D02*
Y1657000D01*
X1498000Y1655000D02*
X1502000D01*
X1500000Y1653000D02*
Y1657000D01*
X1508000Y1655000D02*
X1512000D01*
X1510000Y1653000D02*
Y1657000D01*
X1518000Y1655000D02*
X1522000D01*
X1520000Y1653000D02*
Y1657000D01*
X1528000Y1655000D02*
X1532000D01*
X1530000Y1653000D02*
Y1657000D01*
X1538000Y1655000D02*
X1542000D01*
X1540000Y1653000D02*
Y1657000D01*
X1548000Y1655000D02*
X1552000D01*
X1550000Y1653000D02*
Y1657000D01*
X1558000Y1655000D02*
X1562000D01*
X1560000Y1653000D02*
Y1657000D01*
X1438000Y1645000D02*
X1442000D01*
X1440000Y1643000D02*
Y1647000D01*
X1448000Y1645000D02*
X1452000D01*
X1450000Y1643000D02*
Y1647000D01*
X1458000Y1645000D02*
X1462000D01*
X1460000Y1643000D02*
Y1647000D01*
X1468000Y1645000D02*
X1472000D01*
X1470000Y1643000D02*
Y1647000D01*
X1488000Y1645000D02*
X1492000D01*
X1490000Y1643000D02*
Y1647000D01*
X1478000Y1645000D02*
X1482000D01*
X1480000Y1643000D02*
Y1647000D01*
X1498000Y1645000D02*
X1502000D01*
X1500000Y1643000D02*
Y1647000D01*
X1508000Y1645000D02*
X1512000D01*
X1510000Y1643000D02*
Y1647000D01*
X1518000Y1645000D02*
X1522000D01*
X1520000Y1643000D02*
Y1647000D01*
X1528000Y1645000D02*
X1532000D01*
X1530000Y1643000D02*
Y1647000D01*
X1538000Y1645000D02*
X1542000D01*
X1540000Y1643000D02*
Y1647000D01*
X1548000Y1645000D02*
X1552000D01*
X1550000Y1643000D02*
Y1647000D01*
X1558000Y1645000D02*
X1562000D01*
X1560000Y1643000D02*
Y1647000D01*
X1438000Y1635000D02*
X1442000D01*
X1440000Y1633000D02*
Y1637000D01*
X1448000Y1635000D02*
X1452000D01*
X1450000Y1633000D02*
Y1637000D01*
X1458000Y1635000D02*
X1462000D01*
X1460000Y1633000D02*
Y1637000D01*
X1468000Y1635000D02*
X1472000D01*
X1470000Y1633000D02*
Y1637000D01*
X1488000Y1635000D02*
X1492000D01*
X1490000Y1633000D02*
Y1637000D01*
X1478000Y1635000D02*
X1482000D01*
X1480000Y1633000D02*
Y1637000D01*
X1498000Y1635000D02*
X1502000D01*
X1500000Y1633000D02*
Y1637000D01*
X1508000Y1635000D02*
X1512000D01*
X1510000Y1633000D02*
Y1637000D01*
X1518000Y1635000D02*
X1522000D01*
X1520000Y1633000D02*
Y1637000D01*
X1528000Y1635000D02*
X1532000D01*
X1530000Y1633000D02*
Y1637000D01*
X1538000Y1635000D02*
X1542000D01*
X1540000Y1633000D02*
Y1637000D01*
X1548000Y1635000D02*
X1552000D01*
X1550000Y1633000D02*
Y1637000D01*
X1558000Y1635000D02*
X1562000D01*
X1560000Y1633000D02*
Y1637000D01*
X1438000Y1625000D02*
X1442000D01*
X1440000Y1623000D02*
Y1627000D01*
X1448000Y1625000D02*
X1452000D01*
X1450000Y1623000D02*
Y1627000D01*
X1458000Y1625000D02*
X1462000D01*
X1460000Y1623000D02*
Y1627000D01*
X1468000Y1625000D02*
X1472000D01*
X1470000Y1623000D02*
Y1627000D01*
X1488000Y1625000D02*
X1492000D01*
X1490000Y1623000D02*
Y1627000D01*
X1478000Y1625000D02*
X1482000D01*
X1480000Y1623000D02*
Y1627000D01*
X1498000Y1625000D02*
X1502000D01*
X1500000Y1623000D02*
Y1627000D01*
X1508000Y1625000D02*
X1512000D01*
X1510000Y1623000D02*
Y1627000D01*
X1518000Y1625000D02*
X1522000D01*
X1520000Y1623000D02*
Y1627000D01*
X1528000Y1625000D02*
X1532000D01*
X1530000Y1623000D02*
Y1627000D01*
X1538000Y1625000D02*
X1542000D01*
X1540000Y1623000D02*
Y1627000D01*
X1548000Y1625000D02*
X1552000D01*
X1550000Y1623000D02*
Y1627000D01*
X1558000Y1625000D02*
X1562000D01*
X1560000Y1623000D02*
Y1627000D01*
X1438000Y1615000D02*
X1442000D01*
X1440000Y1613000D02*
Y1617000D01*
X1448000Y1615000D02*
X1452000D01*
X1450000Y1613000D02*
Y1617000D01*
X1458000Y1615000D02*
X1462000D01*
X1460000Y1613000D02*
Y1617000D01*
X1468000Y1615000D02*
X1472000D01*
X1470000Y1613000D02*
Y1617000D01*
X1488000Y1615000D02*
X1492000D01*
X1490000Y1613000D02*
Y1617000D01*
X1478000Y1615000D02*
X1482000D01*
X1480000Y1613000D02*
Y1617000D01*
X1498000Y1615000D02*
X1502000D01*
X1500000Y1613000D02*
Y1617000D01*
X1508000Y1615000D02*
X1512000D01*
X1510000Y1613000D02*
Y1617000D01*
X1518000Y1615000D02*
X1522000D01*
X1520000Y1613000D02*
Y1617000D01*
X1528000Y1615000D02*
X1532000D01*
X1530000Y1613000D02*
Y1617000D01*
X1538000Y1615000D02*
X1542000D01*
X1540000Y1613000D02*
Y1617000D01*
X1548000Y1615000D02*
X1552000D01*
X1550000Y1613000D02*
Y1617000D01*
X1558000Y1615000D02*
X1562000D01*
X1560000Y1613000D02*
Y1617000D01*
X1438000Y1605000D02*
X1442000D01*
X1440000Y1603000D02*
Y1607000D01*
X1448000Y1605000D02*
X1452000D01*
X1450000Y1603000D02*
Y1607000D01*
X1458000Y1605000D02*
X1462000D01*
X1460000Y1603000D02*
Y1607000D01*
X1468000Y1605000D02*
X1472000D01*
X1470000Y1603000D02*
Y1607000D01*
X1488000Y1605000D02*
X1492000D01*
X1490000Y1603000D02*
Y1607000D01*
X1478000Y1605000D02*
X1482000D01*
X1480000Y1603000D02*
Y1607000D01*
X1498000Y1605000D02*
X1502000D01*
X1500000Y1603000D02*
Y1607000D01*
X1508000Y1605000D02*
X1512000D01*
X1510000Y1603000D02*
Y1607000D01*
X1518000Y1605000D02*
X1522000D01*
X1520000Y1603000D02*
Y1607000D01*
X1528000Y1605000D02*
X1532000D01*
X1530000Y1603000D02*
Y1607000D01*
X1538000Y1605000D02*
X1542000D01*
X1540000Y1603000D02*
Y1607000D01*
X1548000Y1605000D02*
X1552000D01*
X1550000Y1603000D02*
Y1607000D01*
X1558000Y1605000D02*
X1562000D01*
X1560000Y1603000D02*
Y1607000D01*
X1438000Y1595000D02*
X1442000D01*
X1440000Y1593000D02*
Y1597000D01*
X1448000Y1595000D02*
X1452000D01*
X1450000Y1593000D02*
Y1597000D01*
X1458000Y1595000D02*
X1462000D01*
X1460000Y1593000D02*
Y1597000D01*
X1468000Y1595000D02*
X1472000D01*
X1470000Y1593000D02*
Y1597000D01*
X1488000Y1595000D02*
X1492000D01*
X1490000Y1593000D02*
Y1597000D01*
X1478000Y1595000D02*
X1482000D01*
X1480000Y1593000D02*
Y1597000D01*
X1498000Y1595000D02*
X1502000D01*
X1500000Y1593000D02*
Y1597000D01*
X1508000Y1595000D02*
X1512000D01*
X1510000Y1593000D02*
Y1597000D01*
X1518000Y1595000D02*
X1522000D01*
X1520000Y1593000D02*
Y1597000D01*
X1528000Y1595000D02*
X1532000D01*
X1530000Y1593000D02*
Y1597000D01*
X1538000Y1595000D02*
X1542000D01*
X1540000Y1593000D02*
Y1597000D01*
X1548000Y1595000D02*
X1552000D01*
X1550000Y1593000D02*
Y1597000D01*
X1558000Y1595000D02*
X1562000D01*
X1560000Y1593000D02*
Y1597000D01*
X1438000Y1585000D02*
X1442000D01*
X1440000Y1583000D02*
Y1587000D01*
X1448000Y1585000D02*
X1452000D01*
X1450000Y1583000D02*
Y1587000D01*
X1458000Y1585000D02*
X1462000D01*
X1460000Y1583000D02*
Y1587000D01*
X1468000Y1585000D02*
X1472000D01*
X1470000Y1583000D02*
Y1587000D01*
X1488000Y1585000D02*
X1492000D01*
X1490000Y1583000D02*
Y1587000D01*
X1478000Y1585000D02*
X1482000D01*
X1480000Y1583000D02*
Y1587000D01*
X1498000Y1585000D02*
X1502000D01*
X1500000Y1583000D02*
Y1587000D01*
X1508000Y1585000D02*
X1512000D01*
X1510000Y1583000D02*
Y1587000D01*
X1518000Y1585000D02*
X1522000D01*
X1520000Y1583000D02*
Y1587000D01*
X1528000Y1585000D02*
X1532000D01*
X1530000Y1583000D02*
Y1587000D01*
X1538000Y1585000D02*
X1542000D01*
X1540000Y1583000D02*
Y1587000D01*
X1548000Y1585000D02*
X1552000D01*
X1550000Y1583000D02*
Y1587000D01*
X1558000Y1585000D02*
X1562000D01*
X1560000Y1583000D02*
Y1587000D01*
X1438000Y1575000D02*
X1442000D01*
X1440000Y1573000D02*
Y1577000D01*
X1448000Y1575000D02*
X1452000D01*
X1450000Y1573000D02*
Y1577000D01*
X1458000Y1575000D02*
X1462000D01*
X1460000Y1573000D02*
Y1577000D01*
X1468000Y1575000D02*
X1472000D01*
X1470000Y1573000D02*
Y1577000D01*
X1488000Y1575000D02*
X1492000D01*
X1490000Y1573000D02*
Y1577000D01*
X1478000Y1575000D02*
X1482000D01*
X1480000Y1573000D02*
Y1577000D01*
X1498000Y1575000D02*
X1502000D01*
X1500000Y1573000D02*
Y1577000D01*
X1508000Y1575000D02*
X1512000D01*
X1510000Y1573000D02*
Y1577000D01*
X1518000Y1575000D02*
X1522000D01*
X1520000Y1573000D02*
Y1577000D01*
X1528000Y1575000D02*
X1532000D01*
X1530000Y1573000D02*
Y1577000D01*
X1538000Y1575000D02*
X1542000D01*
X1540000Y1573000D02*
Y1577000D01*
X1548000Y1575000D02*
X1552000D01*
X1550000Y1573000D02*
Y1577000D01*
X1558000Y1575000D02*
X1562000D01*
X1560000Y1573000D02*
Y1577000D01*
X1558000Y1565000D02*
X1562000D01*
X1560000Y1563000D02*
Y1567000D01*
X1438000Y1565000D02*
X1442000D01*
X1440000Y1563000D02*
Y1567000D01*
X1578000Y2025000D02*
X1582000D01*
X1580000Y2023000D02*
Y2027000D01*
X1698000Y2025000D02*
X1702000D01*
X1700000Y2023000D02*
Y2027000D01*
X1698000Y2035000D02*
X1702000D01*
X1700000Y2033000D02*
Y2037000D01*
X1688000Y2035000D02*
X1692000D01*
X1690000Y2033000D02*
Y2037000D01*
X1678000Y2035000D02*
X1682000D01*
X1680000Y2033000D02*
Y2037000D01*
X1668000Y2035000D02*
X1672000D01*
X1670000Y2033000D02*
Y2037000D01*
X1658000Y2035000D02*
X1662000D01*
X1660000Y2033000D02*
Y2037000D01*
X1648000Y2035000D02*
X1652000D01*
X1650000Y2033000D02*
Y2037000D01*
X1638000Y2035000D02*
X1642000D01*
X1640000Y2033000D02*
Y2037000D01*
X1618000Y2035000D02*
X1622000D01*
X1620000Y2033000D02*
Y2037000D01*
X1628000Y2035000D02*
X1632000D01*
X1630000Y2033000D02*
Y2037000D01*
X1608000Y2035000D02*
X1612000D01*
X1610000Y2033000D02*
Y2037000D01*
X1598000Y2035000D02*
X1602000D01*
X1600000Y2033000D02*
Y2037000D01*
X1588000Y2035000D02*
X1592000D01*
X1590000Y2033000D02*
Y2037000D01*
X1578000Y2035000D02*
X1582000D01*
X1580000Y2033000D02*
Y2037000D01*
X1698000Y2045000D02*
X1702000D01*
X1700000Y2043000D02*
Y2047000D01*
X1688000Y2045000D02*
X1692000D01*
X1690000Y2043000D02*
Y2047000D01*
X1678000Y2045000D02*
X1682000D01*
X1680000Y2043000D02*
Y2047000D01*
X1668000Y2045000D02*
X1672000D01*
X1670000Y2043000D02*
Y2047000D01*
X1658000Y2045000D02*
X1662000D01*
X1660000Y2043000D02*
Y2047000D01*
X1648000Y2045000D02*
X1652000D01*
X1650000Y2043000D02*
Y2047000D01*
X1638000Y2045000D02*
X1642000D01*
X1640000Y2043000D02*
Y2047000D01*
X1618000Y2045000D02*
X1622000D01*
X1620000Y2043000D02*
Y2047000D01*
X1628000Y2045000D02*
X1632000D01*
X1630000Y2043000D02*
Y2047000D01*
X1608000Y2045000D02*
X1612000D01*
X1610000Y2043000D02*
Y2047000D01*
X1598000Y2045000D02*
X1602000D01*
X1600000Y2043000D02*
Y2047000D01*
X1588000Y2045000D02*
X1592000D01*
X1590000Y2043000D02*
Y2047000D01*
X1578000Y2045000D02*
X1582000D01*
X1580000Y2043000D02*
Y2047000D01*
X1698000Y2055000D02*
X1702000D01*
X1700000Y2053000D02*
Y2057000D01*
X1688000Y2055000D02*
X1692000D01*
X1690000Y2053000D02*
Y2057000D01*
X1678000Y2055000D02*
X1682000D01*
X1680000Y2053000D02*
Y2057000D01*
X1668000Y2055000D02*
X1672000D01*
X1670000Y2053000D02*
Y2057000D01*
X1658000Y2055000D02*
X1662000D01*
X1660000Y2053000D02*
Y2057000D01*
X1648000Y2055000D02*
X1652000D01*
X1650000Y2053000D02*
Y2057000D01*
X1638000Y2055000D02*
X1642000D01*
X1640000Y2053000D02*
Y2057000D01*
X1618000Y2055000D02*
X1622000D01*
X1620000Y2053000D02*
Y2057000D01*
X1628000Y2055000D02*
X1632000D01*
X1630000Y2053000D02*
Y2057000D01*
X1608000Y2055000D02*
X1612000D01*
X1610000Y2053000D02*
Y2057000D01*
X1598000Y2055000D02*
X1602000D01*
X1600000Y2053000D02*
Y2057000D01*
X1588000Y2055000D02*
X1592000D01*
X1590000Y2053000D02*
Y2057000D01*
X1578000Y2055000D02*
X1582000D01*
X1580000Y2053000D02*
Y2057000D01*
X1698000Y2065000D02*
X1702000D01*
X1700000Y2063000D02*
Y2067000D01*
X1688000Y2065000D02*
X1692000D01*
X1690000Y2063000D02*
Y2067000D01*
X1678000Y2065000D02*
X1682000D01*
X1680000Y2063000D02*
Y2067000D01*
X1668000Y2065000D02*
X1672000D01*
X1670000Y2063000D02*
Y2067000D01*
X1658000Y2065000D02*
X1662000D01*
X1660000Y2063000D02*
Y2067000D01*
X1648000Y2065000D02*
X1652000D01*
X1650000Y2063000D02*
Y2067000D01*
X1638000Y2065000D02*
X1642000D01*
X1640000Y2063000D02*
Y2067000D01*
X1618000Y2065000D02*
X1622000D01*
X1620000Y2063000D02*
Y2067000D01*
X1628000Y2065000D02*
X1632000D01*
X1630000Y2063000D02*
Y2067000D01*
X1608000Y2065000D02*
X1612000D01*
X1610000Y2063000D02*
Y2067000D01*
X1598000Y2065000D02*
X1602000D01*
X1600000Y2063000D02*
Y2067000D01*
X1588000Y2065000D02*
X1592000D01*
X1590000Y2063000D02*
Y2067000D01*
X1578000Y2065000D02*
X1582000D01*
X1580000Y2063000D02*
Y2067000D01*
X1698000Y2075000D02*
X1702000D01*
X1700000Y2073000D02*
Y2077000D01*
X1688000Y2075000D02*
X1692000D01*
X1690000Y2073000D02*
Y2077000D01*
X1678000Y2075000D02*
X1682000D01*
X1680000Y2073000D02*
Y2077000D01*
X1668000Y2075000D02*
X1672000D01*
X1670000Y2073000D02*
Y2077000D01*
X1658000Y2075000D02*
X1662000D01*
X1660000Y2073000D02*
Y2077000D01*
X1648000Y2075000D02*
X1652000D01*
X1650000Y2073000D02*
Y2077000D01*
X1638000Y2075000D02*
X1642000D01*
X1640000Y2073000D02*
Y2077000D01*
X1618000Y2075000D02*
X1622000D01*
X1620000Y2073000D02*
Y2077000D01*
X1628000Y2075000D02*
X1632000D01*
X1630000Y2073000D02*
Y2077000D01*
X1608000Y2075000D02*
X1612000D01*
X1610000Y2073000D02*
Y2077000D01*
X1598000Y2075000D02*
X1602000D01*
X1600000Y2073000D02*
Y2077000D01*
X1588000Y2075000D02*
X1592000D01*
X1590000Y2073000D02*
Y2077000D01*
X1578000Y2075000D02*
X1582000D01*
X1580000Y2073000D02*
Y2077000D01*
X1698000Y2085000D02*
X1702000D01*
X1700000Y2083000D02*
Y2087000D01*
X1688000Y2085000D02*
X1692000D01*
X1690000Y2083000D02*
Y2087000D01*
X1678000Y2085000D02*
X1682000D01*
X1680000Y2083000D02*
Y2087000D01*
X1668000Y2085000D02*
X1672000D01*
X1670000Y2083000D02*
Y2087000D01*
X1658000Y2085000D02*
X1662000D01*
X1660000Y2083000D02*
Y2087000D01*
X1648000Y2085000D02*
X1652000D01*
X1650000Y2083000D02*
Y2087000D01*
X1638000Y2085000D02*
X1642000D01*
X1640000Y2083000D02*
Y2087000D01*
X1618000Y2085000D02*
X1622000D01*
X1620000Y2083000D02*
Y2087000D01*
X1628000Y2085000D02*
X1632000D01*
X1630000Y2083000D02*
Y2087000D01*
X1608000Y2085000D02*
X1612000D01*
X1610000Y2083000D02*
Y2087000D01*
X1598000Y2085000D02*
X1602000D01*
X1600000Y2083000D02*
Y2087000D01*
X1588000Y2085000D02*
X1592000D01*
X1590000Y2083000D02*
Y2087000D01*
X1578000Y2085000D02*
X1582000D01*
X1580000Y2083000D02*
Y2087000D01*
X1698000Y2095000D02*
X1702000D01*
X1700000Y2093000D02*
Y2097000D01*
X1688000Y2095000D02*
X1692000D01*
X1690000Y2093000D02*
Y2097000D01*
X1678000Y2095000D02*
X1682000D01*
X1680000Y2093000D02*
Y2097000D01*
X1668000Y2095000D02*
X1672000D01*
X1670000Y2093000D02*
Y2097000D01*
X1658000Y2095000D02*
X1662000D01*
X1660000Y2093000D02*
Y2097000D01*
X1648000Y2095000D02*
X1652000D01*
X1650000Y2093000D02*
Y2097000D01*
X1638000Y2095000D02*
X1642000D01*
X1640000Y2093000D02*
Y2097000D01*
X1618000Y2095000D02*
X1622000D01*
X1620000Y2093000D02*
Y2097000D01*
X1628000Y2095000D02*
X1632000D01*
X1630000Y2093000D02*
Y2097000D01*
X1608000Y2095000D02*
X1612000D01*
X1610000Y2093000D02*
Y2097000D01*
X1598000Y2095000D02*
X1602000D01*
X1600000Y2093000D02*
Y2097000D01*
X1588000Y2095000D02*
X1592000D01*
X1590000Y2093000D02*
Y2097000D01*
X1578000Y2095000D02*
X1582000D01*
X1580000Y2093000D02*
Y2097000D01*
X1698000Y2105000D02*
X1702000D01*
X1700000Y2103000D02*
Y2107000D01*
X1688000Y2105000D02*
X1692000D01*
X1690000Y2103000D02*
Y2107000D01*
X1678000Y2105000D02*
X1682000D01*
X1680000Y2103000D02*
Y2107000D01*
X1668000Y2105000D02*
X1672000D01*
X1670000Y2103000D02*
Y2107000D01*
X1658000Y2105000D02*
X1662000D01*
X1660000Y2103000D02*
Y2107000D01*
X1648000Y2105000D02*
X1652000D01*
X1650000Y2103000D02*
Y2107000D01*
X1638000Y2105000D02*
X1642000D01*
X1640000Y2103000D02*
Y2107000D01*
X1618000Y2105000D02*
X1622000D01*
X1620000Y2103000D02*
Y2107000D01*
X1628000Y2105000D02*
X1632000D01*
X1630000Y2103000D02*
Y2107000D01*
X1608000Y2105000D02*
X1612000D01*
X1610000Y2103000D02*
Y2107000D01*
X1598000Y2105000D02*
X1602000D01*
X1600000Y2103000D02*
Y2107000D01*
X1588000Y2105000D02*
X1592000D01*
X1590000Y2103000D02*
Y2107000D01*
X1578000Y2105000D02*
X1582000D01*
X1580000Y2103000D02*
Y2107000D01*
X1698000Y2115000D02*
X1702000D01*
X1700000Y2113000D02*
Y2117000D01*
X1688000Y2115000D02*
X1692000D01*
X1690000Y2113000D02*
Y2117000D01*
X1678000Y2115000D02*
X1682000D01*
X1680000Y2113000D02*
Y2117000D01*
X1668000Y2115000D02*
X1672000D01*
X1670000Y2113000D02*
Y2117000D01*
X1658000Y2115000D02*
X1662000D01*
X1660000Y2113000D02*
Y2117000D01*
X1648000Y2115000D02*
X1652000D01*
X1650000Y2113000D02*
Y2117000D01*
X1638000Y2115000D02*
X1642000D01*
X1640000Y2113000D02*
Y2117000D01*
X1618000Y2115000D02*
X1622000D01*
X1620000Y2113000D02*
Y2117000D01*
X1628000Y2115000D02*
X1632000D01*
X1630000Y2113000D02*
Y2117000D01*
X1608000Y2115000D02*
X1612000D01*
X1610000Y2113000D02*
Y2117000D01*
X1598000Y2115000D02*
X1602000D01*
X1600000Y2113000D02*
Y2117000D01*
X1588000Y2115000D02*
X1592000D01*
X1590000Y2113000D02*
Y2117000D01*
X1578000Y2115000D02*
X1582000D01*
X1580000Y2113000D02*
Y2117000D01*
X1698000Y2125000D02*
X1702000D01*
X1700000Y2123000D02*
Y2127000D01*
X1688000Y2125000D02*
X1692000D01*
X1690000Y2123000D02*
Y2127000D01*
X1678000Y2125000D02*
X1682000D01*
X1680000Y2123000D02*
Y2127000D01*
X1668000Y2125000D02*
X1672000D01*
X1670000Y2123000D02*
Y2127000D01*
X1658000Y2125000D02*
X1662000D01*
X1660000Y2123000D02*
Y2127000D01*
X1648000Y2125000D02*
X1652000D01*
X1650000Y2123000D02*
Y2127000D01*
X1638000Y2125000D02*
X1642000D01*
X1640000Y2123000D02*
Y2127000D01*
X1618000Y2125000D02*
X1622000D01*
X1620000Y2123000D02*
Y2127000D01*
X1628000Y2125000D02*
X1632000D01*
X1630000Y2123000D02*
Y2127000D01*
X1608000Y2125000D02*
X1612000D01*
X1610000Y2123000D02*
Y2127000D01*
X1598000Y2125000D02*
X1602000D01*
X1600000Y2123000D02*
Y2127000D01*
X1588000Y2125000D02*
X1592000D01*
X1590000Y2123000D02*
Y2127000D01*
X1578000Y2125000D02*
X1582000D01*
X1580000Y2123000D02*
Y2127000D01*
X1658000Y2025000D02*
X1662000D01*
X1660000Y2023000D02*
Y2027000D01*
X1638000Y2025000D02*
X1642000D01*
X1640000Y2023000D02*
Y2027000D01*
X1648000Y2025000D02*
X1652000D01*
X1650000Y2023000D02*
Y2027000D01*
X1668000Y2025000D02*
X1672000D01*
X1670000Y2023000D02*
Y2027000D01*
X1608000Y2025000D02*
X1612000D01*
X1610000Y2023000D02*
Y2027000D01*
X1598000Y2025000D02*
X1602000D01*
X1600000Y2023000D02*
Y2027000D01*
X1618000Y2025000D02*
X1622000D01*
X1620000Y2023000D02*
Y2027000D01*
X1688000Y2025000D02*
X1692000D01*
X1690000Y2023000D02*
Y2027000D01*
X1628000Y2025000D02*
X1632000D01*
X1630000Y2023000D02*
Y2027000D01*
X1678000Y2025000D02*
X1682000D01*
X1680000Y2023000D02*
Y2027000D01*
X1588000Y2025000D02*
X1592000D01*
X1590000Y2023000D02*
Y2027000D01*
X1448000Y2025000D02*
X1452000D01*
X1450000Y2023000D02*
Y2027000D01*
X1538000Y2025000D02*
X1542000D01*
X1540000Y2023000D02*
Y2027000D01*
X1488000Y2025000D02*
X1492000D01*
X1490000Y2023000D02*
Y2027000D01*
X1548000Y2025000D02*
X1552000D01*
X1550000Y2023000D02*
Y2027000D01*
X1478000Y2025000D02*
X1482000D01*
X1480000Y2023000D02*
Y2027000D01*
X1458000Y2025000D02*
X1462000D01*
X1460000Y2023000D02*
Y2027000D01*
X1468000Y2025000D02*
X1472000D01*
X1470000Y2023000D02*
Y2027000D01*
X1528000Y2025000D02*
X1532000D01*
X1530000Y2023000D02*
Y2027000D01*
X1508000Y2025000D02*
X1512000D01*
X1510000Y2023000D02*
Y2027000D01*
X1498000Y2025000D02*
X1502000D01*
X1500000Y2023000D02*
Y2027000D01*
X1518000Y2025000D02*
X1522000D01*
X1520000Y2023000D02*
Y2027000D01*
X1438000Y2125000D02*
X1442000D01*
X1440000Y2123000D02*
Y2127000D01*
X1448000Y2125000D02*
X1452000D01*
X1450000Y2123000D02*
Y2127000D01*
X1458000Y2125000D02*
X1462000D01*
X1460000Y2123000D02*
Y2127000D01*
X1468000Y2125000D02*
X1472000D01*
X1470000Y2123000D02*
Y2127000D01*
X1488000Y2125000D02*
X1492000D01*
X1490000Y2123000D02*
Y2127000D01*
X1478000Y2125000D02*
X1482000D01*
X1480000Y2123000D02*
Y2127000D01*
X1498000Y2125000D02*
X1502000D01*
X1500000Y2123000D02*
Y2127000D01*
X1508000Y2125000D02*
X1512000D01*
X1510000Y2123000D02*
Y2127000D01*
X1518000Y2125000D02*
X1522000D01*
X1520000Y2123000D02*
Y2127000D01*
X1528000Y2125000D02*
X1532000D01*
X1530000Y2123000D02*
Y2127000D01*
X1538000Y2125000D02*
X1542000D01*
X1540000Y2123000D02*
Y2127000D01*
X1548000Y2125000D02*
X1552000D01*
X1550000Y2123000D02*
Y2127000D01*
X1558000Y2125000D02*
X1562000D01*
X1560000Y2123000D02*
Y2127000D01*
X1438000Y2115000D02*
X1442000D01*
X1440000Y2113000D02*
Y2117000D01*
X1448000Y2115000D02*
X1452000D01*
X1450000Y2113000D02*
Y2117000D01*
X1458000Y2115000D02*
X1462000D01*
X1460000Y2113000D02*
Y2117000D01*
X1468000Y2115000D02*
X1472000D01*
X1470000Y2113000D02*
Y2117000D01*
X1488000Y2115000D02*
X1492000D01*
X1490000Y2113000D02*
Y2117000D01*
X1478000Y2115000D02*
X1482000D01*
X1480000Y2113000D02*
Y2117000D01*
X1498000Y2115000D02*
X1502000D01*
X1500000Y2113000D02*
Y2117000D01*
X1508000Y2115000D02*
X1512000D01*
X1510000Y2113000D02*
Y2117000D01*
X1518000Y2115000D02*
X1522000D01*
X1520000Y2113000D02*
Y2117000D01*
X1528000Y2115000D02*
X1532000D01*
X1530000Y2113000D02*
Y2117000D01*
X1538000Y2115000D02*
X1542000D01*
X1540000Y2113000D02*
Y2117000D01*
X1548000Y2115000D02*
X1552000D01*
X1550000Y2113000D02*
Y2117000D01*
X1558000Y2115000D02*
X1562000D01*
X1560000Y2113000D02*
Y2117000D01*
X1438000Y2105000D02*
X1442000D01*
X1440000Y2103000D02*
Y2107000D01*
X1448000Y2105000D02*
X1452000D01*
X1450000Y2103000D02*
Y2107000D01*
X1458000Y2105000D02*
X1462000D01*
X1460000Y2103000D02*
Y2107000D01*
X1468000Y2105000D02*
X1472000D01*
X1470000Y2103000D02*
Y2107000D01*
X1488000Y2105000D02*
X1492000D01*
X1490000Y2103000D02*
Y2107000D01*
X1478000Y2105000D02*
X1482000D01*
X1480000Y2103000D02*
Y2107000D01*
X1498000Y2105000D02*
X1502000D01*
X1500000Y2103000D02*
Y2107000D01*
X1508000Y2105000D02*
X1512000D01*
X1510000Y2103000D02*
Y2107000D01*
X1518000Y2105000D02*
X1522000D01*
X1520000Y2103000D02*
Y2107000D01*
X1528000Y2105000D02*
X1532000D01*
X1530000Y2103000D02*
Y2107000D01*
X1538000Y2105000D02*
X1542000D01*
X1540000Y2103000D02*
Y2107000D01*
X1548000Y2105000D02*
X1552000D01*
X1550000Y2103000D02*
Y2107000D01*
X1558000Y2105000D02*
X1562000D01*
X1560000Y2103000D02*
Y2107000D01*
X1438000Y2095000D02*
X1442000D01*
X1440000Y2093000D02*
Y2097000D01*
X1448000Y2095000D02*
X1452000D01*
X1450000Y2093000D02*
Y2097000D01*
X1458000Y2095000D02*
X1462000D01*
X1460000Y2093000D02*
Y2097000D01*
X1468000Y2095000D02*
X1472000D01*
X1470000Y2093000D02*
Y2097000D01*
X1488000Y2095000D02*
X1492000D01*
X1490000Y2093000D02*
Y2097000D01*
X1478000Y2095000D02*
X1482000D01*
X1480000Y2093000D02*
Y2097000D01*
X1498000Y2095000D02*
X1502000D01*
X1500000Y2093000D02*
Y2097000D01*
X1508000Y2095000D02*
X1512000D01*
X1510000Y2093000D02*
Y2097000D01*
X1518000Y2095000D02*
X1522000D01*
X1520000Y2093000D02*
Y2097000D01*
X1528000Y2095000D02*
X1532000D01*
X1530000Y2093000D02*
Y2097000D01*
X1538000Y2095000D02*
X1542000D01*
X1540000Y2093000D02*
Y2097000D01*
X1548000Y2095000D02*
X1552000D01*
X1550000Y2093000D02*
Y2097000D01*
X1558000Y2095000D02*
X1562000D01*
X1560000Y2093000D02*
Y2097000D01*
X1438000Y2085000D02*
X1442000D01*
X1440000Y2083000D02*
Y2087000D01*
X1448000Y2085000D02*
X1452000D01*
X1450000Y2083000D02*
Y2087000D01*
X1458000Y2085000D02*
X1462000D01*
X1460000Y2083000D02*
Y2087000D01*
X1468000Y2085000D02*
X1472000D01*
X1470000Y2083000D02*
Y2087000D01*
X1488000Y2085000D02*
X1492000D01*
X1490000Y2083000D02*
Y2087000D01*
X1478000Y2085000D02*
X1482000D01*
X1480000Y2083000D02*
Y2087000D01*
X1498000Y2085000D02*
X1502000D01*
X1500000Y2083000D02*
Y2087000D01*
X1508000Y2085000D02*
X1512000D01*
X1510000Y2083000D02*
Y2087000D01*
X1518000Y2085000D02*
X1522000D01*
X1520000Y2083000D02*
Y2087000D01*
X1528000Y2085000D02*
X1532000D01*
X1530000Y2083000D02*
Y2087000D01*
X1538000Y2085000D02*
X1542000D01*
X1540000Y2083000D02*
Y2087000D01*
X1548000Y2085000D02*
X1552000D01*
X1550000Y2083000D02*
Y2087000D01*
X1558000Y2085000D02*
X1562000D01*
X1560000Y2083000D02*
Y2087000D01*
X1438000Y2075000D02*
X1442000D01*
X1440000Y2073000D02*
Y2077000D01*
X1448000Y2075000D02*
X1452000D01*
X1450000Y2073000D02*
Y2077000D01*
X1458000Y2075000D02*
X1462000D01*
X1460000Y2073000D02*
Y2077000D01*
X1468000Y2075000D02*
X1472000D01*
X1470000Y2073000D02*
Y2077000D01*
X1488000Y2075000D02*
X1492000D01*
X1490000Y2073000D02*
Y2077000D01*
X1478000Y2075000D02*
X1482000D01*
X1480000Y2073000D02*
Y2077000D01*
X1498000Y2075000D02*
X1502000D01*
X1500000Y2073000D02*
Y2077000D01*
X1508000Y2075000D02*
X1512000D01*
X1510000Y2073000D02*
Y2077000D01*
X1518000Y2075000D02*
X1522000D01*
X1520000Y2073000D02*
Y2077000D01*
X1528000Y2075000D02*
X1532000D01*
X1530000Y2073000D02*
Y2077000D01*
X1538000Y2075000D02*
X1542000D01*
X1540000Y2073000D02*
Y2077000D01*
X1548000Y2075000D02*
X1552000D01*
X1550000Y2073000D02*
Y2077000D01*
X1558000Y2075000D02*
X1562000D01*
X1560000Y2073000D02*
Y2077000D01*
X1438000Y2065000D02*
X1442000D01*
X1440000Y2063000D02*
Y2067000D01*
X1448000Y2065000D02*
X1452000D01*
X1450000Y2063000D02*
Y2067000D01*
X1458000Y2065000D02*
X1462000D01*
X1460000Y2063000D02*
Y2067000D01*
X1468000Y2065000D02*
X1472000D01*
X1470000Y2063000D02*
Y2067000D01*
X1488000Y2065000D02*
X1492000D01*
X1490000Y2063000D02*
Y2067000D01*
X1478000Y2065000D02*
X1482000D01*
X1480000Y2063000D02*
Y2067000D01*
X1498000Y2065000D02*
X1502000D01*
X1500000Y2063000D02*
Y2067000D01*
X1508000Y2065000D02*
X1512000D01*
X1510000Y2063000D02*
Y2067000D01*
X1518000Y2065000D02*
X1522000D01*
X1520000Y2063000D02*
Y2067000D01*
X1528000Y2065000D02*
X1532000D01*
X1530000Y2063000D02*
Y2067000D01*
X1538000Y2065000D02*
X1542000D01*
X1540000Y2063000D02*
Y2067000D01*
X1548000Y2065000D02*
X1552000D01*
X1550000Y2063000D02*
Y2067000D01*
X1558000Y2065000D02*
X1562000D01*
X1560000Y2063000D02*
Y2067000D01*
X1438000Y2055000D02*
X1442000D01*
X1440000Y2053000D02*
Y2057000D01*
X1448000Y2055000D02*
X1452000D01*
X1450000Y2053000D02*
Y2057000D01*
X1458000Y2055000D02*
X1462000D01*
X1460000Y2053000D02*
Y2057000D01*
X1468000Y2055000D02*
X1472000D01*
X1470000Y2053000D02*
Y2057000D01*
X1488000Y2055000D02*
X1492000D01*
X1490000Y2053000D02*
Y2057000D01*
X1478000Y2055000D02*
X1482000D01*
X1480000Y2053000D02*
Y2057000D01*
X1498000Y2055000D02*
X1502000D01*
X1500000Y2053000D02*
Y2057000D01*
X1508000Y2055000D02*
X1512000D01*
X1510000Y2053000D02*
Y2057000D01*
X1518000Y2055000D02*
X1522000D01*
X1520000Y2053000D02*
Y2057000D01*
X1528000Y2055000D02*
X1532000D01*
X1530000Y2053000D02*
Y2057000D01*
X1538000Y2055000D02*
X1542000D01*
X1540000Y2053000D02*
Y2057000D01*
X1548000Y2055000D02*
X1552000D01*
X1550000Y2053000D02*
Y2057000D01*
X1558000Y2055000D02*
X1562000D01*
X1560000Y2053000D02*
Y2057000D01*
X1438000Y2045000D02*
X1442000D01*
X1440000Y2043000D02*
Y2047000D01*
X1448000Y2045000D02*
X1452000D01*
X1450000Y2043000D02*
Y2047000D01*
X1458000Y2045000D02*
X1462000D01*
X1460000Y2043000D02*
Y2047000D01*
X1468000Y2045000D02*
X1472000D01*
X1470000Y2043000D02*
Y2047000D01*
X1488000Y2045000D02*
X1492000D01*
X1490000Y2043000D02*
Y2047000D01*
X1478000Y2045000D02*
X1482000D01*
X1480000Y2043000D02*
Y2047000D01*
X1498000Y2045000D02*
X1502000D01*
X1500000Y2043000D02*
Y2047000D01*
X1508000Y2045000D02*
X1512000D01*
X1510000Y2043000D02*
Y2047000D01*
X1518000Y2045000D02*
X1522000D01*
X1520000Y2043000D02*
Y2047000D01*
X1528000Y2045000D02*
X1532000D01*
X1530000Y2043000D02*
Y2047000D01*
X1538000Y2045000D02*
X1542000D01*
X1540000Y2043000D02*
Y2047000D01*
X1548000Y2045000D02*
X1552000D01*
X1550000Y2043000D02*
Y2047000D01*
X1558000Y2045000D02*
X1562000D01*
X1560000Y2043000D02*
Y2047000D01*
X1438000Y2035000D02*
X1442000D01*
X1440000Y2033000D02*
Y2037000D01*
X1448000Y2035000D02*
X1452000D01*
X1450000Y2033000D02*
Y2037000D01*
X1458000Y2035000D02*
X1462000D01*
X1460000Y2033000D02*
Y2037000D01*
X1468000Y2035000D02*
X1472000D01*
X1470000Y2033000D02*
Y2037000D01*
X1488000Y2035000D02*
X1492000D01*
X1490000Y2033000D02*
Y2037000D01*
X1478000Y2035000D02*
X1482000D01*
X1480000Y2033000D02*
Y2037000D01*
X1498000Y2035000D02*
X1502000D01*
X1500000Y2033000D02*
Y2037000D01*
X1508000Y2035000D02*
X1512000D01*
X1510000Y2033000D02*
Y2037000D01*
X1518000Y2035000D02*
X1522000D01*
X1520000Y2033000D02*
Y2037000D01*
X1528000Y2035000D02*
X1532000D01*
X1530000Y2033000D02*
Y2037000D01*
X1538000Y2035000D02*
X1542000D01*
X1540000Y2033000D02*
Y2037000D01*
X1548000Y2035000D02*
X1552000D01*
X1550000Y2033000D02*
Y2037000D01*
X1558000Y2035000D02*
X1562000D01*
X1560000Y2033000D02*
Y2037000D01*
X1558000Y2025000D02*
X1562000D01*
X1560000Y2023000D02*
Y2027000D01*
X1438000Y2025000D02*
X1442000D01*
X1440000Y2023000D02*
Y2027000D01*
X1288500Y2063000D02*
X1295500D01*
X1292000Y2059500D02*
Y2066500D01*
X1263000Y2119000D02*
X1267000D01*
X1265000Y2117000D02*
Y2121000D01*
X1676500Y1980000D02*
X1683500D01*
X1680000Y1976500D02*
Y1983500D01*
X1676500Y1956000D02*
X1683500D01*
X1680000Y1952500D02*
Y1959500D01*
X1676500Y1968000D02*
X1683500D01*
X1680000Y1964500D02*
Y1971500D01*
X1647500Y1980000D02*
X1654500D01*
X1651000Y1976500D02*
Y1983500D01*
X1647500Y1968000D02*
X1654500D01*
X1651000Y1964500D02*
Y1971500D01*
X1647500Y1956000D02*
X1654500D01*
X1651000Y1952500D02*
Y1959500D01*
X1536500Y1980000D02*
X1543500D01*
X1540000Y1976500D02*
Y1983500D01*
X1536500Y1956000D02*
X1543500D01*
X1540000Y1952500D02*
Y1959500D01*
X1536500Y1968000D02*
X1543500D01*
X1540000Y1964500D02*
Y1971500D01*
X1507500Y1980000D02*
X1514500D01*
X1511000Y1976500D02*
Y1983500D01*
X1507500Y1968000D02*
X1514500D01*
X1511000Y1964500D02*
Y1971500D01*
X1507500Y1956000D02*
X1514500D01*
X1511000Y1952500D02*
Y1959500D01*
X1438000Y1329000D02*
X1442000D01*
X1440000Y1327000D02*
Y1331000D01*
X1558000Y1329000D02*
X1562000D01*
X1560000Y1327000D02*
Y1331000D01*
X1558000Y1339000D02*
X1562000D01*
X1560000Y1337000D02*
Y1341000D01*
X1548000Y1339000D02*
X1552000D01*
X1550000Y1337000D02*
Y1341000D01*
X1538000Y1339000D02*
X1542000D01*
X1540000Y1337000D02*
Y1341000D01*
X1528000Y1339000D02*
X1532000D01*
X1530000Y1337000D02*
Y1341000D01*
X1518000Y1339000D02*
X1522000D01*
X1520000Y1337000D02*
Y1341000D01*
X1508000Y1339000D02*
X1512000D01*
X1510000Y1337000D02*
Y1341000D01*
X1498000Y1339000D02*
X1502000D01*
X1500000Y1337000D02*
Y1341000D01*
X1478000Y1339000D02*
X1482000D01*
X1480000Y1337000D02*
Y1341000D01*
X1488000Y1339000D02*
X1492000D01*
X1490000Y1337000D02*
Y1341000D01*
X1468000Y1339000D02*
X1472000D01*
X1470000Y1337000D02*
Y1341000D01*
X1458000Y1339000D02*
X1462000D01*
X1460000Y1337000D02*
Y1341000D01*
X1448000Y1339000D02*
X1452000D01*
X1450000Y1337000D02*
Y1341000D01*
X1438000Y1339000D02*
X1442000D01*
X1440000Y1337000D02*
Y1341000D01*
X1558000Y1349000D02*
X1562000D01*
X1560000Y1347000D02*
Y1351000D01*
X1548000Y1349000D02*
X1552000D01*
X1550000Y1347000D02*
Y1351000D01*
X1538000Y1349000D02*
X1542000D01*
X1540000Y1347000D02*
Y1351000D01*
X1528000Y1349000D02*
X1532000D01*
X1530000Y1347000D02*
Y1351000D01*
X1518000Y1349000D02*
X1522000D01*
X1520000Y1347000D02*
Y1351000D01*
X1508000Y1349000D02*
X1512000D01*
X1510000Y1347000D02*
Y1351000D01*
X1498000Y1349000D02*
X1502000D01*
X1500000Y1347000D02*
Y1351000D01*
X1478000Y1349000D02*
X1482000D01*
X1480000Y1347000D02*
Y1351000D01*
X1488000Y1349000D02*
X1492000D01*
X1490000Y1347000D02*
Y1351000D01*
X1468000Y1349000D02*
X1472000D01*
X1470000Y1347000D02*
Y1351000D01*
X1458000Y1349000D02*
X1462000D01*
X1460000Y1347000D02*
Y1351000D01*
X1448000Y1349000D02*
X1452000D01*
X1450000Y1347000D02*
Y1351000D01*
X1438000Y1349000D02*
X1442000D01*
X1440000Y1347000D02*
Y1351000D01*
X1558000Y1359000D02*
X1562000D01*
X1560000Y1357000D02*
Y1361000D01*
X1548000Y1359000D02*
X1552000D01*
X1550000Y1357000D02*
Y1361000D01*
X1538000Y1359000D02*
X1542000D01*
X1540000Y1357000D02*
Y1361000D01*
X1528000Y1359000D02*
X1532000D01*
X1530000Y1357000D02*
Y1361000D01*
X1518000Y1359000D02*
X1522000D01*
X1520000Y1357000D02*
Y1361000D01*
X1508000Y1359000D02*
X1512000D01*
X1510000Y1357000D02*
Y1361000D01*
X1498000Y1359000D02*
X1502000D01*
X1500000Y1357000D02*
Y1361000D01*
X1478000Y1359000D02*
X1482000D01*
X1480000Y1357000D02*
Y1361000D01*
X1488000Y1359000D02*
X1492000D01*
X1490000Y1357000D02*
Y1361000D01*
X1468000Y1359000D02*
X1472000D01*
X1470000Y1357000D02*
Y1361000D01*
X1458000Y1359000D02*
X1462000D01*
X1460000Y1357000D02*
Y1361000D01*
X1448000Y1359000D02*
X1452000D01*
X1450000Y1357000D02*
Y1361000D01*
X1438000Y1359000D02*
X1442000D01*
X1440000Y1357000D02*
Y1361000D01*
X1558000Y1369000D02*
X1562000D01*
X1560000Y1367000D02*
Y1371000D01*
X1548000Y1369000D02*
X1552000D01*
X1550000Y1367000D02*
Y1371000D01*
X1538000Y1369000D02*
X1542000D01*
X1540000Y1367000D02*
Y1371000D01*
X1528000Y1369000D02*
X1532000D01*
X1530000Y1367000D02*
Y1371000D01*
X1518000Y1369000D02*
X1522000D01*
X1520000Y1367000D02*
Y1371000D01*
X1508000Y1369000D02*
X1512000D01*
X1510000Y1367000D02*
Y1371000D01*
X1498000Y1369000D02*
X1502000D01*
X1500000Y1367000D02*
Y1371000D01*
X1478000Y1369000D02*
X1482000D01*
X1480000Y1367000D02*
Y1371000D01*
X1488000Y1369000D02*
X1492000D01*
X1490000Y1367000D02*
Y1371000D01*
X1468000Y1369000D02*
X1472000D01*
X1470000Y1367000D02*
Y1371000D01*
X1458000Y1369000D02*
X1462000D01*
X1460000Y1367000D02*
Y1371000D01*
X1448000Y1369000D02*
X1452000D01*
X1450000Y1367000D02*
Y1371000D01*
X1438000Y1369000D02*
X1442000D01*
X1440000Y1367000D02*
Y1371000D01*
X1558000Y1379000D02*
X1562000D01*
X1560000Y1377000D02*
Y1381000D01*
X1548000Y1379000D02*
X1552000D01*
X1550000Y1377000D02*
Y1381000D01*
X1538000Y1379000D02*
X1542000D01*
X1540000Y1377000D02*
Y1381000D01*
X1528000Y1379000D02*
X1532000D01*
X1530000Y1377000D02*
Y1381000D01*
X1518000Y1379000D02*
X1522000D01*
X1520000Y1377000D02*
Y1381000D01*
X1508000Y1379000D02*
X1512000D01*
X1510000Y1377000D02*
Y1381000D01*
X1498000Y1379000D02*
X1502000D01*
X1500000Y1377000D02*
Y1381000D01*
X1478000Y1379000D02*
X1482000D01*
X1480000Y1377000D02*
Y1381000D01*
X1488000Y1379000D02*
X1492000D01*
X1490000Y1377000D02*
Y1381000D01*
X1468000Y1379000D02*
X1472000D01*
X1470000Y1377000D02*
Y1381000D01*
X1458000Y1379000D02*
X1462000D01*
X1460000Y1377000D02*
Y1381000D01*
X1448000Y1379000D02*
X1452000D01*
X1450000Y1377000D02*
Y1381000D01*
X1438000Y1379000D02*
X1442000D01*
X1440000Y1377000D02*
Y1381000D01*
X1558000Y1389000D02*
X1562000D01*
X1560000Y1387000D02*
Y1391000D01*
X1548000Y1389000D02*
X1552000D01*
X1550000Y1387000D02*
Y1391000D01*
X1538000Y1389000D02*
X1542000D01*
X1540000Y1387000D02*
Y1391000D01*
X1528000Y1389000D02*
X1532000D01*
X1530000Y1387000D02*
Y1391000D01*
X1518000Y1389000D02*
X1522000D01*
X1520000Y1387000D02*
Y1391000D01*
X1508000Y1389000D02*
X1512000D01*
X1510000Y1387000D02*
Y1391000D01*
X1498000Y1389000D02*
X1502000D01*
X1500000Y1387000D02*
Y1391000D01*
X1478000Y1389000D02*
X1482000D01*
X1480000Y1387000D02*
Y1391000D01*
X1488000Y1389000D02*
X1492000D01*
X1490000Y1387000D02*
Y1391000D01*
X1468000Y1389000D02*
X1472000D01*
X1470000Y1387000D02*
Y1391000D01*
X1458000Y1389000D02*
X1462000D01*
X1460000Y1387000D02*
Y1391000D01*
X1448000Y1389000D02*
X1452000D01*
X1450000Y1387000D02*
Y1391000D01*
X1438000Y1389000D02*
X1442000D01*
X1440000Y1387000D02*
Y1391000D01*
X1558000Y1399000D02*
X1562000D01*
X1560000Y1397000D02*
Y1401000D01*
X1548000Y1399000D02*
X1552000D01*
X1550000Y1397000D02*
Y1401000D01*
X1538000Y1399000D02*
X1542000D01*
X1540000Y1397000D02*
Y1401000D01*
X1528000Y1399000D02*
X1532000D01*
X1530000Y1397000D02*
Y1401000D01*
X1518000Y1399000D02*
X1522000D01*
X1520000Y1397000D02*
Y1401000D01*
X1508000Y1399000D02*
X1512000D01*
X1510000Y1397000D02*
Y1401000D01*
X1498000Y1399000D02*
X1502000D01*
X1500000Y1397000D02*
Y1401000D01*
X1478000Y1399000D02*
X1482000D01*
X1480000Y1397000D02*
Y1401000D01*
X1488000Y1399000D02*
X1492000D01*
X1490000Y1397000D02*
Y1401000D01*
X1468000Y1399000D02*
X1472000D01*
X1470000Y1397000D02*
Y1401000D01*
X1458000Y1399000D02*
X1462000D01*
X1460000Y1397000D02*
Y1401000D01*
X1448000Y1399000D02*
X1452000D01*
X1450000Y1397000D02*
Y1401000D01*
X1438000Y1399000D02*
X1442000D01*
X1440000Y1397000D02*
Y1401000D01*
X1558000Y1409000D02*
X1562000D01*
X1560000Y1407000D02*
Y1411000D01*
X1548000Y1409000D02*
X1552000D01*
X1550000Y1407000D02*
Y1411000D01*
X1538000Y1409000D02*
X1542000D01*
X1540000Y1407000D02*
Y1411000D01*
X1528000Y1409000D02*
X1532000D01*
X1530000Y1407000D02*
Y1411000D01*
X1518000Y1409000D02*
X1522000D01*
X1520000Y1407000D02*
Y1411000D01*
X1508000Y1409000D02*
X1512000D01*
X1510000Y1407000D02*
Y1411000D01*
X1498000Y1409000D02*
X1502000D01*
X1500000Y1407000D02*
Y1411000D01*
X1478000Y1409000D02*
X1482000D01*
X1480000Y1407000D02*
Y1411000D01*
X1488000Y1409000D02*
X1492000D01*
X1490000Y1407000D02*
Y1411000D01*
X1468000Y1409000D02*
X1472000D01*
X1470000Y1407000D02*
Y1411000D01*
X1458000Y1409000D02*
X1462000D01*
X1460000Y1407000D02*
Y1411000D01*
X1448000Y1409000D02*
X1452000D01*
X1450000Y1407000D02*
Y1411000D01*
X1438000Y1409000D02*
X1442000D01*
X1440000Y1407000D02*
Y1411000D01*
X1558000Y1419000D02*
X1562000D01*
X1560000Y1417000D02*
Y1421000D01*
X1548000Y1419000D02*
X1552000D01*
X1550000Y1417000D02*
Y1421000D01*
X1538000Y1419000D02*
X1542000D01*
X1540000Y1417000D02*
Y1421000D01*
X1528000Y1419000D02*
X1532000D01*
X1530000Y1417000D02*
Y1421000D01*
X1518000Y1419000D02*
X1522000D01*
X1520000Y1417000D02*
Y1421000D01*
X1508000Y1419000D02*
X1512000D01*
X1510000Y1417000D02*
Y1421000D01*
X1498000Y1419000D02*
X1502000D01*
X1500000Y1417000D02*
Y1421000D01*
X1478000Y1419000D02*
X1482000D01*
X1480000Y1417000D02*
Y1421000D01*
X1488000Y1419000D02*
X1492000D01*
X1490000Y1417000D02*
Y1421000D01*
X1468000Y1419000D02*
X1472000D01*
X1470000Y1417000D02*
Y1421000D01*
X1458000Y1419000D02*
X1462000D01*
X1460000Y1417000D02*
Y1421000D01*
X1448000Y1419000D02*
X1452000D01*
X1450000Y1417000D02*
Y1421000D01*
X1438000Y1419000D02*
X1442000D01*
X1440000Y1417000D02*
Y1421000D01*
X1558000Y1429000D02*
X1562000D01*
X1560000Y1427000D02*
Y1431000D01*
X1548000Y1429000D02*
X1552000D01*
X1550000Y1427000D02*
Y1431000D01*
X1538000Y1429000D02*
X1542000D01*
X1540000Y1427000D02*
Y1431000D01*
X1528000Y1429000D02*
X1532000D01*
X1530000Y1427000D02*
Y1431000D01*
X1518000Y1429000D02*
X1522000D01*
X1520000Y1427000D02*
Y1431000D01*
X1508000Y1429000D02*
X1512000D01*
X1510000Y1427000D02*
Y1431000D01*
X1498000Y1429000D02*
X1502000D01*
X1500000Y1427000D02*
Y1431000D01*
X1478000Y1429000D02*
X1482000D01*
X1480000Y1427000D02*
Y1431000D01*
X1488000Y1429000D02*
X1492000D01*
X1490000Y1427000D02*
Y1431000D01*
X1468000Y1429000D02*
X1472000D01*
X1470000Y1427000D02*
Y1431000D01*
X1458000Y1429000D02*
X1462000D01*
X1460000Y1427000D02*
Y1431000D01*
X1448000Y1429000D02*
X1452000D01*
X1450000Y1427000D02*
Y1431000D01*
X1438000Y1429000D02*
X1442000D01*
X1440000Y1427000D02*
Y1431000D01*
X1518000Y1329000D02*
X1522000D01*
X1520000Y1327000D02*
Y1331000D01*
X1498000Y1329000D02*
X1502000D01*
X1500000Y1327000D02*
Y1331000D01*
X1508000Y1329000D02*
X1512000D01*
X1510000Y1327000D02*
Y1331000D01*
X1528000Y1329000D02*
X1532000D01*
X1530000Y1327000D02*
Y1331000D01*
X1468000Y1329000D02*
X1472000D01*
X1470000Y1327000D02*
Y1331000D01*
X1458000Y1329000D02*
X1462000D01*
X1460000Y1327000D02*
Y1331000D01*
X1478000Y1329000D02*
X1482000D01*
X1480000Y1327000D02*
Y1331000D01*
X1548000Y1329000D02*
X1552000D01*
X1550000Y1327000D02*
Y1331000D01*
X1488000Y1329000D02*
X1492000D01*
X1490000Y1327000D02*
Y1331000D01*
X1538000Y1329000D02*
X1542000D01*
X1540000Y1327000D02*
Y1331000D01*
X1448000Y1329000D02*
X1452000D01*
X1450000Y1327000D02*
Y1331000D01*
X1588000Y1329000D02*
X1592000D01*
X1590000Y1327000D02*
Y1331000D01*
X1678000Y1329000D02*
X1682000D01*
X1680000Y1327000D02*
Y1331000D01*
X1628000Y1329000D02*
X1632000D01*
X1630000Y1327000D02*
Y1331000D01*
X1688000Y1329000D02*
X1692000D01*
X1690000Y1327000D02*
Y1331000D01*
X1618000Y1329000D02*
X1622000D01*
X1620000Y1327000D02*
Y1331000D01*
X1598000Y1329000D02*
X1602000D01*
X1600000Y1327000D02*
Y1331000D01*
X1608000Y1329000D02*
X1612000D01*
X1610000Y1327000D02*
Y1331000D01*
X1668000Y1329000D02*
X1672000D01*
X1670000Y1327000D02*
Y1331000D01*
X1648000Y1329000D02*
X1652000D01*
X1650000Y1327000D02*
Y1331000D01*
X1638000Y1329000D02*
X1642000D01*
X1640000Y1327000D02*
Y1331000D01*
X1658000Y1329000D02*
X1662000D01*
X1660000Y1327000D02*
Y1331000D01*
X1578000Y1429000D02*
X1582000D01*
X1580000Y1427000D02*
Y1431000D01*
X1588000Y1429000D02*
X1592000D01*
X1590000Y1427000D02*
Y1431000D01*
X1598000Y1429000D02*
X1602000D01*
X1600000Y1427000D02*
Y1431000D01*
X1608000Y1429000D02*
X1612000D01*
X1610000Y1427000D02*
Y1431000D01*
X1628000Y1429000D02*
X1632000D01*
X1630000Y1427000D02*
Y1431000D01*
X1618000Y1429000D02*
X1622000D01*
X1620000Y1427000D02*
Y1431000D01*
X1638000Y1429000D02*
X1642000D01*
X1640000Y1427000D02*
Y1431000D01*
X1648000Y1429000D02*
X1652000D01*
X1650000Y1427000D02*
Y1431000D01*
X1658000Y1429000D02*
X1662000D01*
X1660000Y1427000D02*
Y1431000D01*
X1668000Y1429000D02*
X1672000D01*
X1670000Y1427000D02*
Y1431000D01*
X1678000Y1429000D02*
X1682000D01*
X1680000Y1427000D02*
Y1431000D01*
X1688000Y1429000D02*
X1692000D01*
X1690000Y1427000D02*
Y1431000D01*
X1698000Y1429000D02*
X1702000D01*
X1700000Y1427000D02*
Y1431000D01*
X1578000Y1419000D02*
X1582000D01*
X1580000Y1417000D02*
Y1421000D01*
X1588000Y1419000D02*
X1592000D01*
X1590000Y1417000D02*
Y1421000D01*
X1598000Y1419000D02*
X1602000D01*
X1600000Y1417000D02*
Y1421000D01*
X1608000Y1419000D02*
X1612000D01*
X1610000Y1417000D02*
Y1421000D01*
X1628000Y1419000D02*
X1632000D01*
X1630000Y1417000D02*
Y1421000D01*
X1618000Y1419000D02*
X1622000D01*
X1620000Y1417000D02*
Y1421000D01*
X1638000Y1419000D02*
X1642000D01*
X1640000Y1417000D02*
Y1421000D01*
X1648000Y1419000D02*
X1652000D01*
X1650000Y1417000D02*
Y1421000D01*
X1658000Y1419000D02*
X1662000D01*
X1660000Y1417000D02*
Y1421000D01*
X1668000Y1419000D02*
X1672000D01*
X1670000Y1417000D02*
Y1421000D01*
X1678000Y1419000D02*
X1682000D01*
X1680000Y1417000D02*
Y1421000D01*
X1688000Y1419000D02*
X1692000D01*
X1690000Y1417000D02*
Y1421000D01*
X1698000Y1419000D02*
X1702000D01*
X1700000Y1417000D02*
Y1421000D01*
X1578000Y1409000D02*
X1582000D01*
X1580000Y1407000D02*
Y1411000D01*
X1588000Y1409000D02*
X1592000D01*
X1590000Y1407000D02*
Y1411000D01*
X1598000Y1409000D02*
X1602000D01*
X1600000Y1407000D02*
Y1411000D01*
X1608000Y1409000D02*
X1612000D01*
X1610000Y1407000D02*
Y1411000D01*
X1628000Y1409000D02*
X1632000D01*
X1630000Y1407000D02*
Y1411000D01*
X1618000Y1409000D02*
X1622000D01*
X1620000Y1407000D02*
Y1411000D01*
X1638000Y1409000D02*
X1642000D01*
X1640000Y1407000D02*
Y1411000D01*
X1648000Y1409000D02*
X1652000D01*
X1650000Y1407000D02*
Y1411000D01*
X1658000Y1409000D02*
X1662000D01*
X1660000Y1407000D02*
Y1411000D01*
X1668000Y1409000D02*
X1672000D01*
X1670000Y1407000D02*
Y1411000D01*
X1678000Y1409000D02*
X1682000D01*
X1680000Y1407000D02*
Y1411000D01*
X1688000Y1409000D02*
X1692000D01*
X1690000Y1407000D02*
Y1411000D01*
X1698000Y1409000D02*
X1702000D01*
X1700000Y1407000D02*
Y1411000D01*
X1578000Y1399000D02*
X1582000D01*
X1580000Y1397000D02*
Y1401000D01*
X1588000Y1399000D02*
X1592000D01*
X1590000Y1397000D02*
Y1401000D01*
X1598000Y1399000D02*
X1602000D01*
X1600000Y1397000D02*
Y1401000D01*
X1608000Y1399000D02*
X1612000D01*
X1610000Y1397000D02*
Y1401000D01*
X1628000Y1399000D02*
X1632000D01*
X1630000Y1397000D02*
Y1401000D01*
X1618000Y1399000D02*
X1622000D01*
X1620000Y1397000D02*
Y1401000D01*
X1638000Y1399000D02*
X1642000D01*
X1640000Y1397000D02*
Y1401000D01*
X1648000Y1399000D02*
X1652000D01*
X1650000Y1397000D02*
Y1401000D01*
X1658000Y1399000D02*
X1662000D01*
X1660000Y1397000D02*
Y1401000D01*
X1668000Y1399000D02*
X1672000D01*
X1670000Y1397000D02*
Y1401000D01*
X1678000Y1399000D02*
X1682000D01*
X1680000Y1397000D02*
Y1401000D01*
X1688000Y1399000D02*
X1692000D01*
X1690000Y1397000D02*
Y1401000D01*
X1698000Y1399000D02*
X1702000D01*
X1700000Y1397000D02*
Y1401000D01*
X1578000Y1389000D02*
X1582000D01*
X1580000Y1387000D02*
Y1391000D01*
X1588000Y1389000D02*
X1592000D01*
X1590000Y1387000D02*
Y1391000D01*
X1598000Y1389000D02*
X1602000D01*
X1600000Y1387000D02*
Y1391000D01*
X1608000Y1389000D02*
X1612000D01*
X1610000Y1387000D02*
Y1391000D01*
X1628000Y1389000D02*
X1632000D01*
X1630000Y1387000D02*
Y1391000D01*
X1618000Y1389000D02*
X1622000D01*
X1620000Y1387000D02*
Y1391000D01*
X1638000Y1389000D02*
X1642000D01*
X1640000Y1387000D02*
Y1391000D01*
X1648000Y1389000D02*
X1652000D01*
X1650000Y1387000D02*
Y1391000D01*
X1658000Y1389000D02*
X1662000D01*
X1660000Y1387000D02*
Y1391000D01*
X1668000Y1389000D02*
X1672000D01*
X1670000Y1387000D02*
Y1391000D01*
X1678000Y1389000D02*
X1682000D01*
X1680000Y1387000D02*
Y1391000D01*
X1688000Y1389000D02*
X1692000D01*
X1690000Y1387000D02*
Y1391000D01*
X1698000Y1389000D02*
X1702000D01*
X1700000Y1387000D02*
Y1391000D01*
X1578000Y1379000D02*
X1582000D01*
X1580000Y1377000D02*
Y1381000D01*
X1588000Y1379000D02*
X1592000D01*
X1590000Y1377000D02*
Y1381000D01*
X1598000Y1379000D02*
X1602000D01*
X1600000Y1377000D02*
Y1381000D01*
X1608000Y1379000D02*
X1612000D01*
X1610000Y1377000D02*
Y1381000D01*
X1628000Y1379000D02*
X1632000D01*
X1630000Y1377000D02*
Y1381000D01*
X1618000Y1379000D02*
X1622000D01*
X1620000Y1377000D02*
Y1381000D01*
X1638000Y1379000D02*
X1642000D01*
X1640000Y1377000D02*
Y1381000D01*
X1648000Y1379000D02*
X1652000D01*
X1650000Y1377000D02*
Y1381000D01*
X1658000Y1379000D02*
X1662000D01*
X1660000Y1377000D02*
Y1381000D01*
X1668000Y1379000D02*
X1672000D01*
X1670000Y1377000D02*
Y1381000D01*
X1678000Y1379000D02*
X1682000D01*
X1680000Y1377000D02*
Y1381000D01*
X1688000Y1379000D02*
X1692000D01*
X1690000Y1377000D02*
Y1381000D01*
X1698000Y1379000D02*
X1702000D01*
X1700000Y1377000D02*
Y1381000D01*
X1578000Y1369000D02*
X1582000D01*
X1580000Y1367000D02*
Y1371000D01*
X1588000Y1369000D02*
X1592000D01*
X1590000Y1367000D02*
Y1371000D01*
X1598000Y1369000D02*
X1602000D01*
X1600000Y1367000D02*
Y1371000D01*
X1608000Y1369000D02*
X1612000D01*
X1610000Y1367000D02*
Y1371000D01*
X1628000Y1369000D02*
X1632000D01*
X1630000Y1367000D02*
Y1371000D01*
X1618000Y1369000D02*
X1622000D01*
X1620000Y1367000D02*
Y1371000D01*
X1638000Y1369000D02*
X1642000D01*
X1640000Y1367000D02*
Y1371000D01*
X1648000Y1369000D02*
X1652000D01*
X1650000Y1367000D02*
Y1371000D01*
X1658000Y1369000D02*
X1662000D01*
X1660000Y1367000D02*
Y1371000D01*
X1668000Y1369000D02*
X1672000D01*
X1670000Y1367000D02*
Y1371000D01*
X1678000Y1369000D02*
X1682000D01*
X1680000Y1367000D02*
Y1371000D01*
X1688000Y1369000D02*
X1692000D01*
X1690000Y1367000D02*
Y1371000D01*
X1698000Y1369000D02*
X1702000D01*
X1700000Y1367000D02*
Y1371000D01*
X1578000Y1359000D02*
X1582000D01*
X1580000Y1357000D02*
Y1361000D01*
X1588000Y1359000D02*
X1592000D01*
X1590000Y1357000D02*
Y1361000D01*
X1598000Y1359000D02*
X1602000D01*
X1600000Y1357000D02*
Y1361000D01*
X1608000Y1359000D02*
X1612000D01*
X1610000Y1357000D02*
Y1361000D01*
X1628000Y1359000D02*
X1632000D01*
X1630000Y1357000D02*
Y1361000D01*
X1618000Y1359000D02*
X1622000D01*
X1620000Y1357000D02*
Y1361000D01*
X1638000Y1359000D02*
X1642000D01*
X1640000Y1357000D02*
Y1361000D01*
X1648000Y1359000D02*
X1652000D01*
X1650000Y1357000D02*
Y1361000D01*
X1658000Y1359000D02*
X1662000D01*
X1660000Y1357000D02*
Y1361000D01*
X1668000Y1359000D02*
X1672000D01*
X1670000Y1357000D02*
Y1361000D01*
X1678000Y1359000D02*
X1682000D01*
X1680000Y1357000D02*
Y1361000D01*
X1688000Y1359000D02*
X1692000D01*
X1690000Y1357000D02*
Y1361000D01*
X1698000Y1359000D02*
X1702000D01*
X1700000Y1357000D02*
Y1361000D01*
X1578000Y1349000D02*
X1582000D01*
X1580000Y1347000D02*
Y1351000D01*
X1588000Y1349000D02*
X1592000D01*
X1590000Y1347000D02*
Y1351000D01*
X1598000Y1349000D02*
X1602000D01*
X1600000Y1347000D02*
Y1351000D01*
X1608000Y1349000D02*
X1612000D01*
X1610000Y1347000D02*
Y1351000D01*
X1628000Y1349000D02*
X1632000D01*
X1630000Y1347000D02*
Y1351000D01*
X1618000Y1349000D02*
X1622000D01*
X1620000Y1347000D02*
Y1351000D01*
X1638000Y1349000D02*
X1642000D01*
X1640000Y1347000D02*
Y1351000D01*
X1648000Y1349000D02*
X1652000D01*
X1650000Y1347000D02*
Y1351000D01*
X1658000Y1349000D02*
X1662000D01*
X1660000Y1347000D02*
Y1351000D01*
X1668000Y1349000D02*
X1672000D01*
X1670000Y1347000D02*
Y1351000D01*
X1678000Y1349000D02*
X1682000D01*
X1680000Y1347000D02*
Y1351000D01*
X1688000Y1349000D02*
X1692000D01*
X1690000Y1347000D02*
Y1351000D01*
X1698000Y1349000D02*
X1702000D01*
X1700000Y1347000D02*
Y1351000D01*
X1578000Y1339000D02*
X1582000D01*
X1580000Y1337000D02*
Y1341000D01*
X1588000Y1339000D02*
X1592000D01*
X1590000Y1337000D02*
Y1341000D01*
X1598000Y1339000D02*
X1602000D01*
X1600000Y1337000D02*
Y1341000D01*
X1608000Y1339000D02*
X1612000D01*
X1610000Y1337000D02*
Y1341000D01*
X1628000Y1339000D02*
X1632000D01*
X1630000Y1337000D02*
Y1341000D01*
X1618000Y1339000D02*
X1622000D01*
X1620000Y1337000D02*
Y1341000D01*
X1638000Y1339000D02*
X1642000D01*
X1640000Y1337000D02*
Y1341000D01*
X1648000Y1339000D02*
X1652000D01*
X1650000Y1337000D02*
Y1341000D01*
X1658000Y1339000D02*
X1662000D01*
X1660000Y1337000D02*
Y1341000D01*
X1668000Y1339000D02*
X1672000D01*
X1670000Y1337000D02*
Y1341000D01*
X1678000Y1339000D02*
X1682000D01*
X1680000Y1337000D02*
Y1341000D01*
X1688000Y1339000D02*
X1692000D01*
X1690000Y1337000D02*
Y1341000D01*
X1698000Y1339000D02*
X1702000D01*
X1700000Y1337000D02*
Y1341000D01*
X1698000Y1329000D02*
X1702000D01*
X1700000Y1327000D02*
Y1331000D01*
X1578000Y1329000D02*
X1582000D01*
X1580000Y1327000D02*
Y1331000D01*
X1438000Y2247000D02*
X1442000D01*
X1440000Y2245000D02*
Y2249000D01*
X1558000Y2247000D02*
X1562000D01*
X1560000Y2245000D02*
Y2249000D01*
X1558000Y2257000D02*
X1562000D01*
X1560000Y2255000D02*
Y2259000D01*
X1548000Y2257000D02*
X1552000D01*
X1550000Y2255000D02*
Y2259000D01*
X1538000Y2257000D02*
X1542000D01*
X1540000Y2255000D02*
Y2259000D01*
X1528000Y2257000D02*
X1532000D01*
X1530000Y2255000D02*
Y2259000D01*
X1518000Y2257000D02*
X1522000D01*
X1520000Y2255000D02*
Y2259000D01*
X1508000Y2257000D02*
X1512000D01*
X1510000Y2255000D02*
Y2259000D01*
X1498000Y2257000D02*
X1502000D01*
X1500000Y2255000D02*
Y2259000D01*
X1478000Y2257000D02*
X1482000D01*
X1480000Y2255000D02*
Y2259000D01*
X1488000Y2257000D02*
X1492000D01*
X1490000Y2255000D02*
Y2259000D01*
X1468000Y2257000D02*
X1472000D01*
X1470000Y2255000D02*
Y2259000D01*
X1458000Y2257000D02*
X1462000D01*
X1460000Y2255000D02*
Y2259000D01*
X1448000Y2257000D02*
X1452000D01*
X1450000Y2255000D02*
Y2259000D01*
X1438000Y2257000D02*
X1442000D01*
X1440000Y2255000D02*
Y2259000D01*
X1558000Y2267000D02*
X1562000D01*
X1560000Y2265000D02*
Y2269000D01*
X1548000Y2267000D02*
X1552000D01*
X1550000Y2265000D02*
Y2269000D01*
X1538000Y2267000D02*
X1542000D01*
X1540000Y2265000D02*
Y2269000D01*
X1528000Y2267000D02*
X1532000D01*
X1530000Y2265000D02*
Y2269000D01*
X1518000Y2267000D02*
X1522000D01*
X1520000Y2265000D02*
Y2269000D01*
X1508000Y2267000D02*
X1512000D01*
X1510000Y2265000D02*
Y2269000D01*
X1498000Y2267000D02*
X1502000D01*
X1500000Y2265000D02*
Y2269000D01*
X1478000Y2267000D02*
X1482000D01*
X1480000Y2265000D02*
Y2269000D01*
X1488000Y2267000D02*
X1492000D01*
X1490000Y2265000D02*
Y2269000D01*
X1468000Y2267000D02*
X1472000D01*
X1470000Y2265000D02*
Y2269000D01*
X1458000Y2267000D02*
X1462000D01*
X1460000Y2265000D02*
Y2269000D01*
X1448000Y2267000D02*
X1452000D01*
X1450000Y2265000D02*
Y2269000D01*
X1438000Y2267000D02*
X1442000D01*
X1440000Y2265000D02*
Y2269000D01*
X1558000Y2277000D02*
X1562000D01*
X1560000Y2275000D02*
Y2279000D01*
X1548000Y2277000D02*
X1552000D01*
X1550000Y2275000D02*
Y2279000D01*
X1538000Y2277000D02*
X1542000D01*
X1540000Y2275000D02*
Y2279000D01*
X1528000Y2277000D02*
X1532000D01*
X1530000Y2275000D02*
Y2279000D01*
X1518000Y2277000D02*
X1522000D01*
X1520000Y2275000D02*
Y2279000D01*
X1508000Y2277000D02*
X1512000D01*
X1510000Y2275000D02*
Y2279000D01*
X1498000Y2277000D02*
X1502000D01*
X1500000Y2275000D02*
Y2279000D01*
X1478000Y2277000D02*
X1482000D01*
X1480000Y2275000D02*
Y2279000D01*
X1488000Y2277000D02*
X1492000D01*
X1490000Y2275000D02*
Y2279000D01*
X1468000Y2277000D02*
X1472000D01*
X1470000Y2275000D02*
Y2279000D01*
X1458000Y2277000D02*
X1462000D01*
X1460000Y2275000D02*
Y2279000D01*
X1448000Y2277000D02*
X1452000D01*
X1450000Y2275000D02*
Y2279000D01*
X1438000Y2277000D02*
X1442000D01*
X1440000Y2275000D02*
Y2279000D01*
X1558000Y2287000D02*
X1562000D01*
X1560000Y2285000D02*
Y2289000D01*
X1548000Y2287000D02*
X1552000D01*
X1550000Y2285000D02*
Y2289000D01*
X1538000Y2287000D02*
X1542000D01*
X1540000Y2285000D02*
Y2289000D01*
X1528000Y2287000D02*
X1532000D01*
X1530000Y2285000D02*
Y2289000D01*
X1518000Y2287000D02*
X1522000D01*
X1520000Y2285000D02*
Y2289000D01*
X1508000Y2287000D02*
X1512000D01*
X1510000Y2285000D02*
Y2289000D01*
X1498000Y2287000D02*
X1502000D01*
X1500000Y2285000D02*
Y2289000D01*
X1478000Y2287000D02*
X1482000D01*
X1480000Y2285000D02*
Y2289000D01*
X1488000Y2287000D02*
X1492000D01*
X1490000Y2285000D02*
Y2289000D01*
X1468000Y2287000D02*
X1472000D01*
X1470000Y2285000D02*
Y2289000D01*
X1458000Y2287000D02*
X1462000D01*
X1460000Y2285000D02*
Y2289000D01*
X1448000Y2287000D02*
X1452000D01*
X1450000Y2285000D02*
Y2289000D01*
X1438000Y2287000D02*
X1442000D01*
X1440000Y2285000D02*
Y2289000D01*
X1558000Y2297000D02*
X1562000D01*
X1560000Y2295000D02*
Y2299000D01*
X1548000Y2297000D02*
X1552000D01*
X1550000Y2295000D02*
Y2299000D01*
X1538000Y2297000D02*
X1542000D01*
X1540000Y2295000D02*
Y2299000D01*
X1528000Y2297000D02*
X1532000D01*
X1530000Y2295000D02*
Y2299000D01*
X1518000Y2297000D02*
X1522000D01*
X1520000Y2295000D02*
Y2299000D01*
X1508000Y2297000D02*
X1512000D01*
X1510000Y2295000D02*
Y2299000D01*
X1498000Y2297000D02*
X1502000D01*
X1500000Y2295000D02*
Y2299000D01*
X1478000Y2297000D02*
X1482000D01*
X1480000Y2295000D02*
Y2299000D01*
X1488000Y2297000D02*
X1492000D01*
X1490000Y2295000D02*
Y2299000D01*
X1468000Y2297000D02*
X1472000D01*
X1470000Y2295000D02*
Y2299000D01*
X1458000Y2297000D02*
X1462000D01*
X1460000Y2295000D02*
Y2299000D01*
X1448000Y2297000D02*
X1452000D01*
X1450000Y2295000D02*
Y2299000D01*
X1438000Y2297000D02*
X1442000D01*
X1440000Y2295000D02*
Y2299000D01*
X1558000Y2307000D02*
X1562000D01*
X1560000Y2305000D02*
Y2309000D01*
X1548000Y2307000D02*
X1552000D01*
X1550000Y2305000D02*
Y2309000D01*
X1538000Y2307000D02*
X1542000D01*
X1540000Y2305000D02*
Y2309000D01*
X1528000Y2307000D02*
X1532000D01*
X1530000Y2305000D02*
Y2309000D01*
X1518000Y2307000D02*
X1522000D01*
X1520000Y2305000D02*
Y2309000D01*
X1508000Y2307000D02*
X1512000D01*
X1510000Y2305000D02*
Y2309000D01*
X1498000Y2307000D02*
X1502000D01*
X1500000Y2305000D02*
Y2309000D01*
X1478000Y2307000D02*
X1482000D01*
X1480000Y2305000D02*
Y2309000D01*
X1488000Y2307000D02*
X1492000D01*
X1490000Y2305000D02*
Y2309000D01*
X1468000Y2307000D02*
X1472000D01*
X1470000Y2305000D02*
Y2309000D01*
X1458000Y2307000D02*
X1462000D01*
X1460000Y2305000D02*
Y2309000D01*
X1448000Y2307000D02*
X1452000D01*
X1450000Y2305000D02*
Y2309000D01*
X1438000Y2307000D02*
X1442000D01*
X1440000Y2305000D02*
Y2309000D01*
X1558000Y2317000D02*
X1562000D01*
X1560000Y2315000D02*
Y2319000D01*
X1548000Y2317000D02*
X1552000D01*
X1550000Y2315000D02*
Y2319000D01*
X1538000Y2317000D02*
X1542000D01*
X1540000Y2315000D02*
Y2319000D01*
X1528000Y2317000D02*
X1532000D01*
X1530000Y2315000D02*
Y2319000D01*
X1518000Y2317000D02*
X1522000D01*
X1520000Y2315000D02*
Y2319000D01*
X1508000Y2317000D02*
X1512000D01*
X1510000Y2315000D02*
Y2319000D01*
X1498000Y2317000D02*
X1502000D01*
X1500000Y2315000D02*
Y2319000D01*
X1478000Y2317000D02*
X1482000D01*
X1480000Y2315000D02*
Y2319000D01*
X1488000Y2317000D02*
X1492000D01*
X1490000Y2315000D02*
Y2319000D01*
X1468000Y2317000D02*
X1472000D01*
X1470000Y2315000D02*
Y2319000D01*
X1458000Y2317000D02*
X1462000D01*
X1460000Y2315000D02*
Y2319000D01*
X1448000Y2317000D02*
X1452000D01*
X1450000Y2315000D02*
Y2319000D01*
X1438000Y2317000D02*
X1442000D01*
X1440000Y2315000D02*
Y2319000D01*
X1558000Y2327000D02*
X1562000D01*
X1560000Y2325000D02*
Y2329000D01*
X1548000Y2327000D02*
X1552000D01*
X1550000Y2325000D02*
Y2329000D01*
X1538000Y2327000D02*
X1542000D01*
X1540000Y2325000D02*
Y2329000D01*
X1528000Y2327000D02*
X1532000D01*
X1530000Y2325000D02*
Y2329000D01*
X1518000Y2327000D02*
X1522000D01*
X1520000Y2325000D02*
Y2329000D01*
X1508000Y2327000D02*
X1512000D01*
X1510000Y2325000D02*
Y2329000D01*
X1498000Y2327000D02*
X1502000D01*
X1500000Y2325000D02*
Y2329000D01*
X1478000Y2327000D02*
X1482000D01*
X1480000Y2325000D02*
Y2329000D01*
X1488000Y2327000D02*
X1492000D01*
X1490000Y2325000D02*
Y2329000D01*
X1468000Y2327000D02*
X1472000D01*
X1470000Y2325000D02*
Y2329000D01*
X1458000Y2327000D02*
X1462000D01*
X1460000Y2325000D02*
Y2329000D01*
X1448000Y2327000D02*
X1452000D01*
X1450000Y2325000D02*
Y2329000D01*
X1438000Y2327000D02*
X1442000D01*
X1440000Y2325000D02*
Y2329000D01*
X1558000Y2337000D02*
X1562000D01*
X1560000Y2335000D02*
Y2339000D01*
X1548000Y2337000D02*
X1552000D01*
X1550000Y2335000D02*
Y2339000D01*
X1538000Y2337000D02*
X1542000D01*
X1540000Y2335000D02*
Y2339000D01*
X1528000Y2337000D02*
X1532000D01*
X1530000Y2335000D02*
Y2339000D01*
X1518000Y2337000D02*
X1522000D01*
X1520000Y2335000D02*
Y2339000D01*
X1508000Y2337000D02*
X1512000D01*
X1510000Y2335000D02*
Y2339000D01*
X1498000Y2337000D02*
X1502000D01*
X1500000Y2335000D02*
Y2339000D01*
X1478000Y2337000D02*
X1482000D01*
X1480000Y2335000D02*
Y2339000D01*
X1488000Y2337000D02*
X1492000D01*
X1490000Y2335000D02*
Y2339000D01*
X1468000Y2337000D02*
X1472000D01*
X1470000Y2335000D02*
Y2339000D01*
X1458000Y2337000D02*
X1462000D01*
X1460000Y2335000D02*
Y2339000D01*
X1448000Y2337000D02*
X1452000D01*
X1450000Y2335000D02*
Y2339000D01*
X1438000Y2337000D02*
X1442000D01*
X1440000Y2335000D02*
Y2339000D01*
X1558000Y2347000D02*
X1562000D01*
X1560000Y2345000D02*
Y2349000D01*
X1548000Y2347000D02*
X1552000D01*
X1550000Y2345000D02*
Y2349000D01*
X1538000Y2347000D02*
X1542000D01*
X1540000Y2345000D02*
Y2349000D01*
X1528000Y2347000D02*
X1532000D01*
X1530000Y2345000D02*
Y2349000D01*
X1518000Y2347000D02*
X1522000D01*
X1520000Y2345000D02*
Y2349000D01*
X1508000Y2347000D02*
X1512000D01*
X1510000Y2345000D02*
Y2349000D01*
X1498000Y2347000D02*
X1502000D01*
X1500000Y2345000D02*
Y2349000D01*
X1478000Y2347000D02*
X1482000D01*
X1480000Y2345000D02*
Y2349000D01*
X1488000Y2347000D02*
X1492000D01*
X1490000Y2345000D02*
Y2349000D01*
X1468000Y2347000D02*
X1472000D01*
X1470000Y2345000D02*
Y2349000D01*
X1458000Y2347000D02*
X1462000D01*
X1460000Y2345000D02*
Y2349000D01*
X1448000Y2347000D02*
X1452000D01*
X1450000Y2345000D02*
Y2349000D01*
X1438000Y2347000D02*
X1442000D01*
X1440000Y2345000D02*
Y2349000D01*
X1518000Y2247000D02*
X1522000D01*
X1520000Y2245000D02*
Y2249000D01*
X1498000Y2247000D02*
X1502000D01*
X1500000Y2245000D02*
Y2249000D01*
X1508000Y2247000D02*
X1512000D01*
X1510000Y2245000D02*
Y2249000D01*
X1528000Y2247000D02*
X1532000D01*
X1530000Y2245000D02*
Y2249000D01*
X1468000Y2247000D02*
X1472000D01*
X1470000Y2245000D02*
Y2249000D01*
X1458000Y2247000D02*
X1462000D01*
X1460000Y2245000D02*
Y2249000D01*
X1478000Y2247000D02*
X1482000D01*
X1480000Y2245000D02*
Y2249000D01*
X1548000Y2247000D02*
X1552000D01*
X1550000Y2245000D02*
Y2249000D01*
X1488000Y2247000D02*
X1492000D01*
X1490000Y2245000D02*
Y2249000D01*
X1538000Y2247000D02*
X1542000D01*
X1540000Y2245000D02*
Y2249000D01*
X1448000Y2247000D02*
X1452000D01*
X1450000Y2245000D02*
Y2249000D01*
X1588000Y2247000D02*
X1592000D01*
X1590000Y2245000D02*
Y2249000D01*
X1678000Y2247000D02*
X1682000D01*
X1680000Y2245000D02*
Y2249000D01*
X1628000Y2247000D02*
X1632000D01*
X1630000Y2245000D02*
Y2249000D01*
X1688000Y2247000D02*
X1692000D01*
X1690000Y2245000D02*
Y2249000D01*
X1618000Y2247000D02*
X1622000D01*
X1620000Y2245000D02*
Y2249000D01*
X1598000Y2247000D02*
X1602000D01*
X1600000Y2245000D02*
Y2249000D01*
X1608000Y2247000D02*
X1612000D01*
X1610000Y2245000D02*
Y2249000D01*
X1668000Y2247000D02*
X1672000D01*
X1670000Y2245000D02*
Y2249000D01*
X1648000Y2247000D02*
X1652000D01*
X1650000Y2245000D02*
Y2249000D01*
X1638000Y2247000D02*
X1642000D01*
X1640000Y2245000D02*
Y2249000D01*
X1658000Y2247000D02*
X1662000D01*
X1660000Y2245000D02*
Y2249000D01*
X1578000Y2347000D02*
X1582000D01*
X1580000Y2345000D02*
Y2349000D01*
X1588000Y2347000D02*
X1592000D01*
X1590000Y2345000D02*
Y2349000D01*
X1598000Y2347000D02*
X1602000D01*
X1600000Y2345000D02*
Y2349000D01*
X1608000Y2347000D02*
X1612000D01*
X1610000Y2345000D02*
Y2349000D01*
X1628000Y2347000D02*
X1632000D01*
X1630000Y2345000D02*
Y2349000D01*
X1618000Y2347000D02*
X1622000D01*
X1620000Y2345000D02*
Y2349000D01*
X1638000Y2347000D02*
X1642000D01*
X1640000Y2345000D02*
Y2349000D01*
X1648000Y2347000D02*
X1652000D01*
X1650000Y2345000D02*
Y2349000D01*
X1658000Y2347000D02*
X1662000D01*
X1660000Y2345000D02*
Y2349000D01*
X1668000Y2347000D02*
X1672000D01*
X1670000Y2345000D02*
Y2349000D01*
X1678000Y2347000D02*
X1682000D01*
X1680000Y2345000D02*
Y2349000D01*
X1688000Y2347000D02*
X1692000D01*
X1690000Y2345000D02*
Y2349000D01*
X1698000Y2347000D02*
X1702000D01*
X1700000Y2345000D02*
Y2349000D01*
X1578000Y2337000D02*
X1582000D01*
X1580000Y2335000D02*
Y2339000D01*
X1588000Y2337000D02*
X1592000D01*
X1590000Y2335000D02*
Y2339000D01*
X1598000Y2337000D02*
X1602000D01*
X1600000Y2335000D02*
Y2339000D01*
X1608000Y2337000D02*
X1612000D01*
X1610000Y2335000D02*
Y2339000D01*
X1628000Y2337000D02*
X1632000D01*
X1630000Y2335000D02*
Y2339000D01*
X1618000Y2337000D02*
X1622000D01*
X1620000Y2335000D02*
Y2339000D01*
X1638000Y2337000D02*
X1642000D01*
X1640000Y2335000D02*
Y2339000D01*
X1648000Y2337000D02*
X1652000D01*
X1650000Y2335000D02*
Y2339000D01*
X1658000Y2337000D02*
X1662000D01*
X1660000Y2335000D02*
Y2339000D01*
X1668000Y2337000D02*
X1672000D01*
X1670000Y2335000D02*
Y2339000D01*
X1678000Y2337000D02*
X1682000D01*
X1680000Y2335000D02*
Y2339000D01*
X1688000Y2337000D02*
X1692000D01*
X1690000Y2335000D02*
Y2339000D01*
X1698000Y2337000D02*
X1702000D01*
X1700000Y2335000D02*
Y2339000D01*
X1578000Y2327000D02*
X1582000D01*
X1580000Y2325000D02*
Y2329000D01*
X1588000Y2327000D02*
X1592000D01*
X1590000Y2325000D02*
Y2329000D01*
X1598000Y2327000D02*
X1602000D01*
X1600000Y2325000D02*
Y2329000D01*
X1608000Y2327000D02*
X1612000D01*
X1610000Y2325000D02*
Y2329000D01*
X1628000Y2327000D02*
X1632000D01*
X1630000Y2325000D02*
Y2329000D01*
X1618000Y2327000D02*
X1622000D01*
X1620000Y2325000D02*
Y2329000D01*
X1638000Y2327000D02*
X1642000D01*
X1640000Y2325000D02*
Y2329000D01*
X1648000Y2327000D02*
X1652000D01*
X1650000Y2325000D02*
Y2329000D01*
X1658000Y2327000D02*
X1662000D01*
X1660000Y2325000D02*
Y2329000D01*
X1668000Y2327000D02*
X1672000D01*
X1670000Y2325000D02*
Y2329000D01*
X1678000Y2327000D02*
X1682000D01*
X1680000Y2325000D02*
Y2329000D01*
X1688000Y2327000D02*
X1692000D01*
X1690000Y2325000D02*
Y2329000D01*
X1698000Y2327000D02*
X1702000D01*
X1700000Y2325000D02*
Y2329000D01*
X1578000Y2317000D02*
X1582000D01*
X1580000Y2315000D02*
Y2319000D01*
X1588000Y2317000D02*
X1592000D01*
X1590000Y2315000D02*
Y2319000D01*
X1598000Y2317000D02*
X1602000D01*
X1600000Y2315000D02*
Y2319000D01*
X1608000Y2317000D02*
X1612000D01*
X1610000Y2315000D02*
Y2319000D01*
X1628000Y2317000D02*
X1632000D01*
X1630000Y2315000D02*
Y2319000D01*
X1618000Y2317000D02*
X1622000D01*
X1620000Y2315000D02*
Y2319000D01*
X1638000Y2317000D02*
X1642000D01*
X1640000Y2315000D02*
Y2319000D01*
X1648000Y2317000D02*
X1652000D01*
X1650000Y2315000D02*
Y2319000D01*
X1658000Y2317000D02*
X1662000D01*
X1660000Y2315000D02*
Y2319000D01*
X1668000Y2317000D02*
X1672000D01*
X1670000Y2315000D02*
Y2319000D01*
X1678000Y2317000D02*
X1682000D01*
X1680000Y2315000D02*
Y2319000D01*
X1688000Y2317000D02*
X1692000D01*
X1690000Y2315000D02*
Y2319000D01*
X1698000Y2317000D02*
X1702000D01*
X1700000Y2315000D02*
Y2319000D01*
X1578000Y2307000D02*
X1582000D01*
X1580000Y2305000D02*
Y2309000D01*
X1588000Y2307000D02*
X1592000D01*
X1590000Y2305000D02*
Y2309000D01*
X1598000Y2307000D02*
X1602000D01*
X1600000Y2305000D02*
Y2309000D01*
X1608000Y2307000D02*
X1612000D01*
X1610000Y2305000D02*
Y2309000D01*
X1628000Y2307000D02*
X1632000D01*
X1630000Y2305000D02*
Y2309000D01*
X1618000Y2307000D02*
X1622000D01*
X1620000Y2305000D02*
Y2309000D01*
X1638000Y2307000D02*
X1642000D01*
X1640000Y2305000D02*
Y2309000D01*
X1648000Y2307000D02*
X1652000D01*
X1650000Y2305000D02*
Y2309000D01*
X1658000Y2307000D02*
X1662000D01*
X1660000Y2305000D02*
Y2309000D01*
X1668000Y2307000D02*
X1672000D01*
X1670000Y2305000D02*
Y2309000D01*
X1678000Y2307000D02*
X1682000D01*
X1680000Y2305000D02*
Y2309000D01*
X1688000Y2307000D02*
X1692000D01*
X1690000Y2305000D02*
Y2309000D01*
X1698000Y2307000D02*
X1702000D01*
X1700000Y2305000D02*
Y2309000D01*
X1578000Y2297000D02*
X1582000D01*
X1580000Y2295000D02*
Y2299000D01*
X1588000Y2297000D02*
X1592000D01*
X1590000Y2295000D02*
Y2299000D01*
X1598000Y2297000D02*
X1602000D01*
X1600000Y2295000D02*
Y2299000D01*
X1608000Y2297000D02*
X1612000D01*
X1610000Y2295000D02*
Y2299000D01*
X1628000Y2297000D02*
X1632000D01*
X1630000Y2295000D02*
Y2299000D01*
X1618000Y2297000D02*
X1622000D01*
X1620000Y2295000D02*
Y2299000D01*
X1638000Y2297000D02*
X1642000D01*
X1640000Y2295000D02*
Y2299000D01*
X1648000Y2297000D02*
X1652000D01*
X1650000Y2295000D02*
Y2299000D01*
X1658000Y2297000D02*
X1662000D01*
X1660000Y2295000D02*
Y2299000D01*
X1668000Y2297000D02*
X1672000D01*
X1670000Y2295000D02*
Y2299000D01*
X1678000Y2297000D02*
X1682000D01*
X1680000Y2295000D02*
Y2299000D01*
X1688000Y2297000D02*
X1692000D01*
X1690000Y2295000D02*
Y2299000D01*
X1698000Y2297000D02*
X1702000D01*
X1700000Y2295000D02*
Y2299000D01*
X1578000Y2287000D02*
X1582000D01*
X1580000Y2285000D02*
Y2289000D01*
X1588000Y2287000D02*
X1592000D01*
X1590000Y2285000D02*
Y2289000D01*
X1598000Y2287000D02*
X1602000D01*
X1600000Y2285000D02*
Y2289000D01*
X1608000Y2287000D02*
X1612000D01*
X1610000Y2285000D02*
Y2289000D01*
X1628000Y2287000D02*
X1632000D01*
X1630000Y2285000D02*
Y2289000D01*
X1618000Y2287000D02*
X1622000D01*
X1620000Y2285000D02*
Y2289000D01*
X1638000Y2287000D02*
X1642000D01*
X1640000Y2285000D02*
Y2289000D01*
X1648000Y2287000D02*
X1652000D01*
X1650000Y2285000D02*
Y2289000D01*
X1658000Y2287000D02*
X1662000D01*
X1660000Y2285000D02*
Y2289000D01*
X1668000Y2287000D02*
X1672000D01*
X1670000Y2285000D02*
Y2289000D01*
X1678000Y2287000D02*
X1682000D01*
X1680000Y2285000D02*
Y2289000D01*
X1688000Y2287000D02*
X1692000D01*
X1690000Y2285000D02*
Y2289000D01*
X1698000Y2287000D02*
X1702000D01*
X1700000Y2285000D02*
Y2289000D01*
X1578000Y2277000D02*
X1582000D01*
X1580000Y2275000D02*
Y2279000D01*
X1588000Y2277000D02*
X1592000D01*
X1590000Y2275000D02*
Y2279000D01*
X1598000Y2277000D02*
X1602000D01*
X1600000Y2275000D02*
Y2279000D01*
X1608000Y2277000D02*
X1612000D01*
X1610000Y2275000D02*
Y2279000D01*
X1628000Y2277000D02*
X1632000D01*
X1630000Y2275000D02*
Y2279000D01*
X1618000Y2277000D02*
X1622000D01*
X1620000Y2275000D02*
Y2279000D01*
X1638000Y2277000D02*
X1642000D01*
X1640000Y2275000D02*
Y2279000D01*
X1648000Y2277000D02*
X1652000D01*
X1650000Y2275000D02*
Y2279000D01*
X1658000Y2277000D02*
X1662000D01*
X1660000Y2275000D02*
Y2279000D01*
X1668000Y2277000D02*
X1672000D01*
X1670000Y2275000D02*
Y2279000D01*
X1678000Y2277000D02*
X1682000D01*
X1680000Y2275000D02*
Y2279000D01*
X1688000Y2277000D02*
X1692000D01*
X1690000Y2275000D02*
Y2279000D01*
X1698000Y2277000D02*
X1702000D01*
X1700000Y2275000D02*
Y2279000D01*
X1578000Y2267000D02*
X1582000D01*
X1580000Y2265000D02*
Y2269000D01*
X1588000Y2267000D02*
X1592000D01*
X1590000Y2265000D02*
Y2269000D01*
X1598000Y2267000D02*
X1602000D01*
X1600000Y2265000D02*
Y2269000D01*
X1608000Y2267000D02*
X1612000D01*
X1610000Y2265000D02*
Y2269000D01*
X1628000Y2267000D02*
X1632000D01*
X1630000Y2265000D02*
Y2269000D01*
X1618000Y2267000D02*
X1622000D01*
X1620000Y2265000D02*
Y2269000D01*
X1638000Y2267000D02*
X1642000D01*
X1640000Y2265000D02*
Y2269000D01*
X1648000Y2267000D02*
X1652000D01*
X1650000Y2265000D02*
Y2269000D01*
X1658000Y2267000D02*
X1662000D01*
X1660000Y2265000D02*
Y2269000D01*
X1668000Y2267000D02*
X1672000D01*
X1670000Y2265000D02*
Y2269000D01*
X1678000Y2267000D02*
X1682000D01*
X1680000Y2265000D02*
Y2269000D01*
X1688000Y2267000D02*
X1692000D01*
X1690000Y2265000D02*
Y2269000D01*
X1698000Y2267000D02*
X1702000D01*
X1700000Y2265000D02*
Y2269000D01*
X1578000Y2257000D02*
X1582000D01*
X1580000Y2255000D02*
Y2259000D01*
X1588000Y2257000D02*
X1592000D01*
X1590000Y2255000D02*
Y2259000D01*
X1598000Y2257000D02*
X1602000D01*
X1600000Y2255000D02*
Y2259000D01*
X1608000Y2257000D02*
X1612000D01*
X1610000Y2255000D02*
Y2259000D01*
X1628000Y2257000D02*
X1632000D01*
X1630000Y2255000D02*
Y2259000D01*
X1618000Y2257000D02*
X1622000D01*
X1620000Y2255000D02*
Y2259000D01*
X1638000Y2257000D02*
X1642000D01*
X1640000Y2255000D02*
Y2259000D01*
X1648000Y2257000D02*
X1652000D01*
X1650000Y2255000D02*
Y2259000D01*
X1658000Y2257000D02*
X1662000D01*
X1660000Y2255000D02*
Y2259000D01*
X1668000Y2257000D02*
X1672000D01*
X1670000Y2255000D02*
Y2259000D01*
X1678000Y2257000D02*
X1682000D01*
X1680000Y2255000D02*
Y2259000D01*
X1688000Y2257000D02*
X1692000D01*
X1690000Y2255000D02*
Y2259000D01*
X1698000Y2257000D02*
X1702000D01*
X1700000Y2255000D02*
Y2259000D01*
X1698000Y2247000D02*
X1702000D01*
X1700000Y2245000D02*
Y2249000D01*
X1578000Y2247000D02*
X1582000D01*
X1580000Y2245000D02*
Y2249000D01*
X1578000Y1787000D02*
X1582000D01*
X1580000Y1785000D02*
Y1789000D01*
X1698000Y1787000D02*
X1702000D01*
X1700000Y1785000D02*
Y1789000D01*
X1698000Y1797000D02*
X1702000D01*
X1700000Y1795000D02*
Y1799000D01*
X1688000Y1797000D02*
X1692000D01*
X1690000Y1795000D02*
Y1799000D01*
X1678000Y1797000D02*
X1682000D01*
X1680000Y1795000D02*
Y1799000D01*
X1668000Y1797000D02*
X1672000D01*
X1670000Y1795000D02*
Y1799000D01*
X1658000Y1797000D02*
X1662000D01*
X1660000Y1795000D02*
Y1799000D01*
X1648000Y1797000D02*
X1652000D01*
X1650000Y1795000D02*
Y1799000D01*
X1638000Y1797000D02*
X1642000D01*
X1640000Y1795000D02*
Y1799000D01*
X1618000Y1797000D02*
X1622000D01*
X1620000Y1795000D02*
Y1799000D01*
X1628000Y1797000D02*
X1632000D01*
X1630000Y1795000D02*
Y1799000D01*
X1608000Y1797000D02*
X1612000D01*
X1610000Y1795000D02*
Y1799000D01*
X1598000Y1797000D02*
X1602000D01*
X1600000Y1795000D02*
Y1799000D01*
X1588000Y1797000D02*
X1592000D01*
X1590000Y1795000D02*
Y1799000D01*
X1578000Y1797000D02*
X1582000D01*
X1580000Y1795000D02*
Y1799000D01*
X1698000Y1807000D02*
X1702000D01*
X1700000Y1805000D02*
Y1809000D01*
X1688000Y1807000D02*
X1692000D01*
X1690000Y1805000D02*
Y1809000D01*
X1678000Y1807000D02*
X1682000D01*
X1680000Y1805000D02*
Y1809000D01*
X1668000Y1807000D02*
X1672000D01*
X1670000Y1805000D02*
Y1809000D01*
X1658000Y1807000D02*
X1662000D01*
X1660000Y1805000D02*
Y1809000D01*
X1648000Y1807000D02*
X1652000D01*
X1650000Y1805000D02*
Y1809000D01*
X1638000Y1807000D02*
X1642000D01*
X1640000Y1805000D02*
Y1809000D01*
X1618000Y1807000D02*
X1622000D01*
X1620000Y1805000D02*
Y1809000D01*
X1628000Y1807000D02*
X1632000D01*
X1630000Y1805000D02*
Y1809000D01*
X1608000Y1807000D02*
X1612000D01*
X1610000Y1805000D02*
Y1809000D01*
X1598000Y1807000D02*
X1602000D01*
X1600000Y1805000D02*
Y1809000D01*
X1588000Y1807000D02*
X1592000D01*
X1590000Y1805000D02*
Y1809000D01*
X1578000Y1807000D02*
X1582000D01*
X1580000Y1805000D02*
Y1809000D01*
X1698000Y1817000D02*
X1702000D01*
X1700000Y1815000D02*
Y1819000D01*
X1688000Y1817000D02*
X1692000D01*
X1690000Y1815000D02*
Y1819000D01*
X1678000Y1817000D02*
X1682000D01*
X1680000Y1815000D02*
Y1819000D01*
X1668000Y1817000D02*
X1672000D01*
X1670000Y1815000D02*
Y1819000D01*
X1658000Y1817000D02*
X1662000D01*
X1660000Y1815000D02*
Y1819000D01*
X1648000Y1817000D02*
X1652000D01*
X1650000Y1815000D02*
Y1819000D01*
X1638000Y1817000D02*
X1642000D01*
X1640000Y1815000D02*
Y1819000D01*
X1618000Y1817000D02*
X1622000D01*
X1620000Y1815000D02*
Y1819000D01*
X1628000Y1817000D02*
X1632000D01*
X1630000Y1815000D02*
Y1819000D01*
X1608000Y1817000D02*
X1612000D01*
X1610000Y1815000D02*
Y1819000D01*
X1598000Y1817000D02*
X1602000D01*
X1600000Y1815000D02*
Y1819000D01*
X1588000Y1817000D02*
X1592000D01*
X1590000Y1815000D02*
Y1819000D01*
X1578000Y1817000D02*
X1582000D01*
X1580000Y1815000D02*
Y1819000D01*
X1698000Y1827000D02*
X1702000D01*
X1700000Y1825000D02*
Y1829000D01*
X1688000Y1827000D02*
X1692000D01*
X1690000Y1825000D02*
Y1829000D01*
X1678000Y1827000D02*
X1682000D01*
X1680000Y1825000D02*
Y1829000D01*
X1668000Y1827000D02*
X1672000D01*
X1670000Y1825000D02*
Y1829000D01*
X1658000Y1827000D02*
X1662000D01*
X1660000Y1825000D02*
Y1829000D01*
X1648000Y1827000D02*
X1652000D01*
X1650000Y1825000D02*
Y1829000D01*
X1638000Y1827000D02*
X1642000D01*
X1640000Y1825000D02*
Y1829000D01*
X1618000Y1827000D02*
X1622000D01*
X1620000Y1825000D02*
Y1829000D01*
X1628000Y1827000D02*
X1632000D01*
X1630000Y1825000D02*
Y1829000D01*
X1608000Y1827000D02*
X1612000D01*
X1610000Y1825000D02*
Y1829000D01*
X1598000Y1827000D02*
X1602000D01*
X1600000Y1825000D02*
Y1829000D01*
X1588000Y1827000D02*
X1592000D01*
X1590000Y1825000D02*
Y1829000D01*
X1578000Y1827000D02*
X1582000D01*
X1580000Y1825000D02*
Y1829000D01*
X1698000Y1837000D02*
X1702000D01*
X1700000Y1835000D02*
Y1839000D01*
X1688000Y1837000D02*
X1692000D01*
X1690000Y1835000D02*
Y1839000D01*
X1678000Y1837000D02*
X1682000D01*
X1680000Y1835000D02*
Y1839000D01*
X1668000Y1837000D02*
X1672000D01*
X1670000Y1835000D02*
Y1839000D01*
X1658000Y1837000D02*
X1662000D01*
X1660000Y1835000D02*
Y1839000D01*
X1648000Y1837000D02*
X1652000D01*
X1650000Y1835000D02*
Y1839000D01*
X1638000Y1837000D02*
X1642000D01*
X1640000Y1835000D02*
Y1839000D01*
X1618000Y1837000D02*
X1622000D01*
X1620000Y1835000D02*
Y1839000D01*
X1628000Y1837000D02*
X1632000D01*
X1630000Y1835000D02*
Y1839000D01*
X1608000Y1837000D02*
X1612000D01*
X1610000Y1835000D02*
Y1839000D01*
X1598000Y1837000D02*
X1602000D01*
X1600000Y1835000D02*
Y1839000D01*
X1588000Y1837000D02*
X1592000D01*
X1590000Y1835000D02*
Y1839000D01*
X1578000Y1837000D02*
X1582000D01*
X1580000Y1835000D02*
Y1839000D01*
X1698000Y1847000D02*
X1702000D01*
X1700000Y1845000D02*
Y1849000D01*
X1688000Y1847000D02*
X1692000D01*
X1690000Y1845000D02*
Y1849000D01*
X1678000Y1847000D02*
X1682000D01*
X1680000Y1845000D02*
Y1849000D01*
X1668000Y1847000D02*
X1672000D01*
X1670000Y1845000D02*
Y1849000D01*
X1658000Y1847000D02*
X1662000D01*
X1660000Y1845000D02*
Y1849000D01*
X1648000Y1847000D02*
X1652000D01*
X1650000Y1845000D02*
Y1849000D01*
X1638000Y1847000D02*
X1642000D01*
X1640000Y1845000D02*
Y1849000D01*
X1618000Y1847000D02*
X1622000D01*
X1620000Y1845000D02*
Y1849000D01*
X1628000Y1847000D02*
X1632000D01*
X1630000Y1845000D02*
Y1849000D01*
X1608000Y1847000D02*
X1612000D01*
X1610000Y1845000D02*
Y1849000D01*
X1598000Y1847000D02*
X1602000D01*
X1600000Y1845000D02*
Y1849000D01*
X1588000Y1847000D02*
X1592000D01*
X1590000Y1845000D02*
Y1849000D01*
X1578000Y1847000D02*
X1582000D01*
X1580000Y1845000D02*
Y1849000D01*
X1698000Y1857000D02*
X1702000D01*
X1700000Y1855000D02*
Y1859000D01*
X1688000Y1857000D02*
X1692000D01*
X1690000Y1855000D02*
Y1859000D01*
X1678000Y1857000D02*
X1682000D01*
X1680000Y1855000D02*
Y1859000D01*
X1668000Y1857000D02*
X1672000D01*
X1670000Y1855000D02*
Y1859000D01*
X1658000Y1857000D02*
X1662000D01*
X1660000Y1855000D02*
Y1859000D01*
X1648000Y1857000D02*
X1652000D01*
X1650000Y1855000D02*
Y1859000D01*
X1638000Y1857000D02*
X1642000D01*
X1640000Y1855000D02*
Y1859000D01*
X1618000Y1857000D02*
X1622000D01*
X1620000Y1855000D02*
Y1859000D01*
X1628000Y1857000D02*
X1632000D01*
X1630000Y1855000D02*
Y1859000D01*
X1608000Y1857000D02*
X1612000D01*
X1610000Y1855000D02*
Y1859000D01*
X1598000Y1857000D02*
X1602000D01*
X1600000Y1855000D02*
Y1859000D01*
X1588000Y1857000D02*
X1592000D01*
X1590000Y1855000D02*
Y1859000D01*
X1578000Y1857000D02*
X1582000D01*
X1580000Y1855000D02*
Y1859000D01*
X1698000Y1867000D02*
X1702000D01*
X1700000Y1865000D02*
Y1869000D01*
X1688000Y1867000D02*
X1692000D01*
X1690000Y1865000D02*
Y1869000D01*
X1678000Y1867000D02*
X1682000D01*
X1680000Y1865000D02*
Y1869000D01*
X1668000Y1867000D02*
X1672000D01*
X1670000Y1865000D02*
Y1869000D01*
X1658000Y1867000D02*
X1662000D01*
X1660000Y1865000D02*
Y1869000D01*
X1648000Y1867000D02*
X1652000D01*
X1650000Y1865000D02*
Y1869000D01*
X1638000Y1867000D02*
X1642000D01*
X1640000Y1865000D02*
Y1869000D01*
X1618000Y1867000D02*
X1622000D01*
X1620000Y1865000D02*
Y1869000D01*
X1628000Y1867000D02*
X1632000D01*
X1630000Y1865000D02*
Y1869000D01*
X1608000Y1867000D02*
X1612000D01*
X1610000Y1865000D02*
Y1869000D01*
X1598000Y1867000D02*
X1602000D01*
X1600000Y1865000D02*
Y1869000D01*
X1588000Y1867000D02*
X1592000D01*
X1590000Y1865000D02*
Y1869000D01*
X1578000Y1867000D02*
X1582000D01*
X1580000Y1865000D02*
Y1869000D01*
X1698000Y1877000D02*
X1702000D01*
X1700000Y1875000D02*
Y1879000D01*
X1688000Y1877000D02*
X1692000D01*
X1690000Y1875000D02*
Y1879000D01*
X1678000Y1877000D02*
X1682000D01*
X1680000Y1875000D02*
Y1879000D01*
X1668000Y1877000D02*
X1672000D01*
X1670000Y1875000D02*
Y1879000D01*
X1658000Y1877000D02*
X1662000D01*
X1660000Y1875000D02*
Y1879000D01*
X1648000Y1877000D02*
X1652000D01*
X1650000Y1875000D02*
Y1879000D01*
X1638000Y1877000D02*
X1642000D01*
X1640000Y1875000D02*
Y1879000D01*
X1618000Y1877000D02*
X1622000D01*
X1620000Y1875000D02*
Y1879000D01*
X1628000Y1877000D02*
X1632000D01*
X1630000Y1875000D02*
Y1879000D01*
X1608000Y1877000D02*
X1612000D01*
X1610000Y1875000D02*
Y1879000D01*
X1598000Y1877000D02*
X1602000D01*
X1600000Y1875000D02*
Y1879000D01*
X1588000Y1877000D02*
X1592000D01*
X1590000Y1875000D02*
Y1879000D01*
X1578000Y1877000D02*
X1582000D01*
X1580000Y1875000D02*
Y1879000D01*
X1698000Y1887000D02*
X1702000D01*
X1700000Y1885000D02*
Y1889000D01*
X1688000Y1887000D02*
X1692000D01*
X1690000Y1885000D02*
Y1889000D01*
X1678000Y1887000D02*
X1682000D01*
X1680000Y1885000D02*
Y1889000D01*
X1668000Y1887000D02*
X1672000D01*
X1670000Y1885000D02*
Y1889000D01*
X1658000Y1887000D02*
X1662000D01*
X1660000Y1885000D02*
Y1889000D01*
X1648000Y1887000D02*
X1652000D01*
X1650000Y1885000D02*
Y1889000D01*
X1638000Y1887000D02*
X1642000D01*
X1640000Y1885000D02*
Y1889000D01*
X1618000Y1887000D02*
X1622000D01*
X1620000Y1885000D02*
Y1889000D01*
X1628000Y1887000D02*
X1632000D01*
X1630000Y1885000D02*
Y1889000D01*
X1608000Y1887000D02*
X1612000D01*
X1610000Y1885000D02*
Y1889000D01*
X1598000Y1887000D02*
X1602000D01*
X1600000Y1885000D02*
Y1889000D01*
X1588000Y1887000D02*
X1592000D01*
X1590000Y1885000D02*
Y1889000D01*
X1578000Y1887000D02*
X1582000D01*
X1580000Y1885000D02*
Y1889000D01*
X1658000Y1787000D02*
X1662000D01*
X1660000Y1785000D02*
Y1789000D01*
X1638000Y1787000D02*
X1642000D01*
X1640000Y1785000D02*
Y1789000D01*
X1648000Y1787000D02*
X1652000D01*
X1650000Y1785000D02*
Y1789000D01*
X1668000Y1787000D02*
X1672000D01*
X1670000Y1785000D02*
Y1789000D01*
X1608000Y1787000D02*
X1612000D01*
X1610000Y1785000D02*
Y1789000D01*
X1598000Y1787000D02*
X1602000D01*
X1600000Y1785000D02*
Y1789000D01*
X1618000Y1787000D02*
X1622000D01*
X1620000Y1785000D02*
Y1789000D01*
X1688000Y1787000D02*
X1692000D01*
X1690000Y1785000D02*
Y1789000D01*
X1628000Y1787000D02*
X1632000D01*
X1630000Y1785000D02*
Y1789000D01*
X1678000Y1787000D02*
X1682000D01*
X1680000Y1785000D02*
Y1789000D01*
X1588000Y1787000D02*
X1592000D01*
X1590000Y1785000D02*
Y1789000D01*
X1448000Y1787000D02*
X1452000D01*
X1450000Y1785000D02*
Y1789000D01*
X1538000Y1787000D02*
X1542000D01*
X1540000Y1785000D02*
Y1789000D01*
X1488000Y1787000D02*
X1492000D01*
X1490000Y1785000D02*
Y1789000D01*
X1548000Y1787000D02*
X1552000D01*
X1550000Y1785000D02*
Y1789000D01*
X1478000Y1787000D02*
X1482000D01*
X1480000Y1785000D02*
Y1789000D01*
X1458000Y1787000D02*
X1462000D01*
X1460000Y1785000D02*
Y1789000D01*
X1468000Y1787000D02*
X1472000D01*
X1470000Y1785000D02*
Y1789000D01*
X1528000Y1787000D02*
X1532000D01*
X1530000Y1785000D02*
Y1789000D01*
X1508000Y1787000D02*
X1512000D01*
X1510000Y1785000D02*
Y1789000D01*
X1498000Y1787000D02*
X1502000D01*
X1500000Y1785000D02*
Y1789000D01*
X1518000Y1787000D02*
X1522000D01*
X1520000Y1785000D02*
Y1789000D01*
X1438000Y1887000D02*
X1442000D01*
X1440000Y1885000D02*
Y1889000D01*
X1448000Y1887000D02*
X1452000D01*
X1450000Y1885000D02*
Y1889000D01*
X1458000Y1887000D02*
X1462000D01*
X1460000Y1885000D02*
Y1889000D01*
X1468000Y1887000D02*
X1472000D01*
X1470000Y1885000D02*
Y1889000D01*
X1488000Y1887000D02*
X1492000D01*
X1490000Y1885000D02*
Y1889000D01*
X1478000Y1887000D02*
X1482000D01*
X1480000Y1885000D02*
Y1889000D01*
X1498000Y1887000D02*
X1502000D01*
X1500000Y1885000D02*
Y1889000D01*
X1508000Y1887000D02*
X1512000D01*
X1510000Y1885000D02*
Y1889000D01*
X1518000Y1887000D02*
X1522000D01*
X1520000Y1885000D02*
Y1889000D01*
X1528000Y1887000D02*
X1532000D01*
X1530000Y1885000D02*
Y1889000D01*
X1538000Y1887000D02*
X1542000D01*
X1540000Y1885000D02*
Y1889000D01*
X1548000Y1887000D02*
X1552000D01*
X1550000Y1885000D02*
Y1889000D01*
X1558000Y1887000D02*
X1562000D01*
X1560000Y1885000D02*
Y1889000D01*
X1438000Y1877000D02*
X1442000D01*
X1440000Y1875000D02*
Y1879000D01*
X1448000Y1877000D02*
X1452000D01*
X1450000Y1875000D02*
Y1879000D01*
X1458000Y1877000D02*
X1462000D01*
X1460000Y1875000D02*
Y1879000D01*
X1468000Y1877000D02*
X1472000D01*
X1470000Y1875000D02*
Y1879000D01*
X1488000Y1877000D02*
X1492000D01*
X1490000Y1875000D02*
Y1879000D01*
X1478000Y1877000D02*
X1482000D01*
X1480000Y1875000D02*
Y1879000D01*
X1498000Y1877000D02*
X1502000D01*
X1500000Y1875000D02*
Y1879000D01*
X1508000Y1877000D02*
X1512000D01*
X1510000Y1875000D02*
Y1879000D01*
X1518000Y1877000D02*
X1522000D01*
X1520000Y1875000D02*
Y1879000D01*
X1528000Y1877000D02*
X1532000D01*
X1530000Y1875000D02*
Y1879000D01*
X1538000Y1877000D02*
X1542000D01*
X1540000Y1875000D02*
Y1879000D01*
X1548000Y1877000D02*
X1552000D01*
X1550000Y1875000D02*
Y1879000D01*
X1558000Y1877000D02*
X1562000D01*
X1560000Y1875000D02*
Y1879000D01*
X1438000Y1867000D02*
X1442000D01*
X1440000Y1865000D02*
Y1869000D01*
X1448000Y1867000D02*
X1452000D01*
X1450000Y1865000D02*
Y1869000D01*
X1458000Y1867000D02*
X1462000D01*
X1460000Y1865000D02*
Y1869000D01*
X1468000Y1867000D02*
X1472000D01*
X1470000Y1865000D02*
Y1869000D01*
X1488000Y1867000D02*
X1492000D01*
X1490000Y1865000D02*
Y1869000D01*
X1478000Y1867000D02*
X1482000D01*
X1480000Y1865000D02*
Y1869000D01*
X1498000Y1867000D02*
X1502000D01*
X1500000Y1865000D02*
Y1869000D01*
X1508000Y1867000D02*
X1512000D01*
X1510000Y1865000D02*
Y1869000D01*
X1518000Y1867000D02*
X1522000D01*
X1520000Y1865000D02*
Y1869000D01*
X1528000Y1867000D02*
X1532000D01*
X1530000Y1865000D02*
Y1869000D01*
X1538000Y1867000D02*
X1542000D01*
X1540000Y1865000D02*
Y1869000D01*
X1548000Y1867000D02*
X1552000D01*
X1550000Y1865000D02*
Y1869000D01*
X1558000Y1867000D02*
X1562000D01*
X1560000Y1865000D02*
Y1869000D01*
X1438000Y1857000D02*
X1442000D01*
X1440000Y1855000D02*
Y1859000D01*
X1448000Y1857000D02*
X1452000D01*
X1450000Y1855000D02*
Y1859000D01*
X1458000Y1857000D02*
X1462000D01*
X1460000Y1855000D02*
Y1859000D01*
X1468000Y1857000D02*
X1472000D01*
X1470000Y1855000D02*
Y1859000D01*
X1488000Y1857000D02*
X1492000D01*
X1490000Y1855000D02*
Y1859000D01*
X1478000Y1857000D02*
X1482000D01*
X1480000Y1855000D02*
Y1859000D01*
X1498000Y1857000D02*
X1502000D01*
X1500000Y1855000D02*
Y1859000D01*
X1508000Y1857000D02*
X1512000D01*
X1510000Y1855000D02*
Y1859000D01*
X1518000Y1857000D02*
X1522000D01*
X1520000Y1855000D02*
Y1859000D01*
X1528000Y1857000D02*
X1532000D01*
X1530000Y1855000D02*
Y1859000D01*
X1538000Y1857000D02*
X1542000D01*
X1540000Y1855000D02*
Y1859000D01*
X1548000Y1857000D02*
X1552000D01*
X1550000Y1855000D02*
Y1859000D01*
X1558000Y1857000D02*
X1562000D01*
X1560000Y1855000D02*
Y1859000D01*
X1438000Y1847000D02*
X1442000D01*
X1440000Y1845000D02*
Y1849000D01*
X1448000Y1847000D02*
X1452000D01*
X1450000Y1845000D02*
Y1849000D01*
X1458000Y1847000D02*
X1462000D01*
X1460000Y1845000D02*
Y1849000D01*
X1468000Y1847000D02*
X1472000D01*
X1470000Y1845000D02*
Y1849000D01*
X1488000Y1847000D02*
X1492000D01*
X1490000Y1845000D02*
Y1849000D01*
X1478000Y1847000D02*
X1482000D01*
X1480000Y1845000D02*
Y1849000D01*
X1498000Y1847000D02*
X1502000D01*
X1500000Y1845000D02*
Y1849000D01*
X1508000Y1847000D02*
X1512000D01*
X1510000Y1845000D02*
Y1849000D01*
X1518000Y1847000D02*
X1522000D01*
X1520000Y1845000D02*
Y1849000D01*
X1528000Y1847000D02*
X1532000D01*
X1530000Y1845000D02*
Y1849000D01*
X1538000Y1847000D02*
X1542000D01*
X1540000Y1845000D02*
Y1849000D01*
X1548000Y1847000D02*
X1552000D01*
X1550000Y1845000D02*
Y1849000D01*
X1558000Y1847000D02*
X1562000D01*
X1560000Y1845000D02*
Y1849000D01*
X1438000Y1837000D02*
X1442000D01*
X1440000Y1835000D02*
Y1839000D01*
X1448000Y1837000D02*
X1452000D01*
X1450000Y1835000D02*
Y1839000D01*
X1458000Y1837000D02*
X1462000D01*
X1460000Y1835000D02*
Y1839000D01*
X1468000Y1837000D02*
X1472000D01*
X1470000Y1835000D02*
Y1839000D01*
X1488000Y1837000D02*
X1492000D01*
X1490000Y1835000D02*
Y1839000D01*
X1478000Y1837000D02*
X1482000D01*
X1480000Y1835000D02*
Y1839000D01*
X1498000Y1837000D02*
X1502000D01*
X1500000Y1835000D02*
Y1839000D01*
X1508000Y1837000D02*
X1512000D01*
X1510000Y1835000D02*
Y1839000D01*
X1518000Y1837000D02*
X1522000D01*
X1520000Y1835000D02*
Y1839000D01*
X1528000Y1837000D02*
X1532000D01*
X1530000Y1835000D02*
Y1839000D01*
X1538000Y1837000D02*
X1542000D01*
X1540000Y1835000D02*
Y1839000D01*
X1548000Y1837000D02*
X1552000D01*
X1550000Y1835000D02*
Y1839000D01*
X1558000Y1837000D02*
X1562000D01*
X1560000Y1835000D02*
Y1839000D01*
X1438000Y1827000D02*
X1442000D01*
X1440000Y1825000D02*
Y1829000D01*
X1448000Y1827000D02*
X1452000D01*
X1450000Y1825000D02*
Y1829000D01*
X1458000Y1827000D02*
X1462000D01*
X1460000Y1825000D02*
Y1829000D01*
X1468000Y1827000D02*
X1472000D01*
X1470000Y1825000D02*
Y1829000D01*
X1488000Y1827000D02*
X1492000D01*
X1490000Y1825000D02*
Y1829000D01*
X1478000Y1827000D02*
X1482000D01*
X1480000Y1825000D02*
Y1829000D01*
X1498000Y1827000D02*
X1502000D01*
X1500000Y1825000D02*
Y1829000D01*
X1508000Y1827000D02*
X1512000D01*
X1510000Y1825000D02*
Y1829000D01*
X1518000Y1827000D02*
X1522000D01*
X1520000Y1825000D02*
Y1829000D01*
X1528000Y1827000D02*
X1532000D01*
X1530000Y1825000D02*
Y1829000D01*
X1538000Y1827000D02*
X1542000D01*
X1540000Y1825000D02*
Y1829000D01*
X1548000Y1827000D02*
X1552000D01*
X1550000Y1825000D02*
Y1829000D01*
X1558000Y1827000D02*
X1562000D01*
X1560000Y1825000D02*
Y1829000D01*
X1438000Y1817000D02*
X1442000D01*
X1440000Y1815000D02*
Y1819000D01*
X1448000Y1817000D02*
X1452000D01*
X1450000Y1815000D02*
Y1819000D01*
X1458000Y1817000D02*
X1462000D01*
X1460000Y1815000D02*
Y1819000D01*
X1468000Y1817000D02*
X1472000D01*
X1470000Y1815000D02*
Y1819000D01*
X1488000Y1817000D02*
X1492000D01*
X1490000Y1815000D02*
Y1819000D01*
X1478000Y1817000D02*
X1482000D01*
X1480000Y1815000D02*
Y1819000D01*
X1498000Y1817000D02*
X1502000D01*
X1500000Y1815000D02*
Y1819000D01*
X1508000Y1817000D02*
X1512000D01*
X1510000Y1815000D02*
Y1819000D01*
X1518000Y1817000D02*
X1522000D01*
X1520000Y1815000D02*
Y1819000D01*
X1528000Y1817000D02*
X1532000D01*
X1530000Y1815000D02*
Y1819000D01*
X1538000Y1817000D02*
X1542000D01*
X1540000Y1815000D02*
Y1819000D01*
X1548000Y1817000D02*
X1552000D01*
X1550000Y1815000D02*
Y1819000D01*
X1558000Y1817000D02*
X1562000D01*
X1560000Y1815000D02*
Y1819000D01*
X1438000Y1807000D02*
X1442000D01*
X1440000Y1805000D02*
Y1809000D01*
X1448000Y1807000D02*
X1452000D01*
X1450000Y1805000D02*
Y1809000D01*
X1458000Y1807000D02*
X1462000D01*
X1460000Y1805000D02*
Y1809000D01*
X1468000Y1807000D02*
X1472000D01*
X1470000Y1805000D02*
Y1809000D01*
X1488000Y1807000D02*
X1492000D01*
X1490000Y1805000D02*
Y1809000D01*
X1478000Y1807000D02*
X1482000D01*
X1480000Y1805000D02*
Y1809000D01*
X1498000Y1807000D02*
X1502000D01*
X1500000Y1805000D02*
Y1809000D01*
X1508000Y1807000D02*
X1512000D01*
X1510000Y1805000D02*
Y1809000D01*
X1518000Y1807000D02*
X1522000D01*
X1520000Y1805000D02*
Y1809000D01*
X1528000Y1807000D02*
X1532000D01*
X1530000Y1805000D02*
Y1809000D01*
X1538000Y1807000D02*
X1542000D01*
X1540000Y1805000D02*
Y1809000D01*
X1548000Y1807000D02*
X1552000D01*
X1550000Y1805000D02*
Y1809000D01*
X1558000Y1807000D02*
X1562000D01*
X1560000Y1805000D02*
Y1809000D01*
X1438000Y1797000D02*
X1442000D01*
X1440000Y1795000D02*
Y1799000D01*
X1448000Y1797000D02*
X1452000D01*
X1450000Y1795000D02*
Y1799000D01*
X1458000Y1797000D02*
X1462000D01*
X1460000Y1795000D02*
Y1799000D01*
X1468000Y1797000D02*
X1472000D01*
X1470000Y1795000D02*
Y1799000D01*
X1488000Y1797000D02*
X1492000D01*
X1490000Y1795000D02*
Y1799000D01*
X1478000Y1797000D02*
X1482000D01*
X1480000Y1795000D02*
Y1799000D01*
X1498000Y1797000D02*
X1502000D01*
X1500000Y1795000D02*
Y1799000D01*
X1508000Y1797000D02*
X1512000D01*
X1510000Y1795000D02*
Y1799000D01*
X1518000Y1797000D02*
X1522000D01*
X1520000Y1795000D02*
Y1799000D01*
X1528000Y1797000D02*
X1532000D01*
X1530000Y1795000D02*
Y1799000D01*
X1538000Y1797000D02*
X1542000D01*
X1540000Y1795000D02*
Y1799000D01*
X1548000Y1797000D02*
X1552000D01*
X1550000Y1795000D02*
Y1799000D01*
X1558000Y1797000D02*
X1562000D01*
X1560000Y1795000D02*
Y1799000D01*
X1558000Y1787000D02*
X1562000D01*
X1560000Y1785000D02*
Y1789000D01*
X1438000Y1787000D02*
X1442000D01*
X1440000Y1785000D02*
Y1789000D01*
X1278000Y1674000D02*
X1285000D01*
X1281500Y1670500D02*
Y1677500D01*
X1263000Y1659000D02*
X1267000D01*
X1265000Y1657000D02*
Y1661000D01*
X1676500Y1520000D02*
X1683500D01*
X1680000Y1516500D02*
Y1523500D01*
X1676500Y1496000D02*
X1683500D01*
X1680000Y1492500D02*
Y1499500D01*
X1676500Y1508000D02*
X1683500D01*
X1680000Y1504500D02*
Y1511500D01*
X1647500Y1520000D02*
X1654500D01*
X1651000Y1516500D02*
Y1523500D01*
X1647500Y1508000D02*
X1654500D01*
X1651000Y1504500D02*
Y1511500D01*
X1647500Y1496000D02*
X1654500D01*
X1651000Y1492500D02*
Y1499500D01*
X1536500Y1520000D02*
X1543500D01*
X1540000Y1516500D02*
Y1523500D01*
X1536500Y1496000D02*
X1543500D01*
X1540000Y1492500D02*
Y1499500D01*
X1536500Y1508000D02*
X1543500D01*
X1540000Y1504500D02*
Y1511500D01*
X1507500Y1520000D02*
X1514500D01*
X1511000Y1516500D02*
Y1523500D01*
X1507500Y1508000D02*
X1514500D01*
X1511000Y1504500D02*
Y1511500D01*
X1507500Y1496000D02*
X1514500D01*
X1511000Y1492500D02*
Y1499500D01*
M02*
