G04*
G04 #@! TF.GenerationSoftware,Altium Limited,Altium Designer,20.0.13 (296)*
G04*
G04 Layer_Color=65535*
%FSLAX44Y44*%
%MOMM*%
G71*
G01*
G75*
%ADD10C,0.2500*%
%ADD11C,0.1000*%
%ADD12C,0.6000*%
%ADD13C,0.1270*%
%ADD14C,0.2000*%
%ADD15C,0.2540*%
%ADD16C,0.1800*%
%ADD17C,0.1750*%
%ADD18C,0.3000*%
%ADD19R,1.6000X0.5500*%
%ADD20R,1.6000X0.5500*%
%ADD21R,1.6000X0.5500*%
D10*
X1457250Y2189750D02*
G03*
X1457250Y2189750I-1250J0D01*
G01*
X1597250Y2189750D02*
G03*
X1597250Y2189750I-1250J0D01*
G01*
X1457250Y1729750D02*
G03*
X1457250Y1729750I-1250J0D01*
G01*
X1597250D02*
G03*
X1597250Y1729750I-1250J0D01*
G01*
X1457250Y1269750D02*
G03*
X1457250Y1269750I-1250J0D01*
G01*
X1597250D02*
G03*
X1597250Y1269750I-1250J0D01*
G01*
X1457250Y1967750D02*
G03*
X1457250Y1967750I-1250J0D01*
G01*
X1597250D02*
G03*
X1597250Y1967750I-1250J0D01*
G01*
X1457250Y1507750D02*
G03*
X1457250Y1507750I-1250J0D01*
G01*
X1597250D02*
G03*
X1597250Y1507750I-1250J0D01*
G01*
X1457250Y1049750D02*
G03*
X1457250Y1049750I-1250J0D01*
G01*
X1597250D02*
G03*
X1597250Y1049750I-1250J0D01*
G01*
X2089300Y261000D02*
G03*
X2089300Y261000I-1250J0D01*
G01*
X2252750Y461000D02*
G03*
X2252750Y461000I-1250J0D01*
G01*
X2148150Y434000D02*
G03*
X2148150Y434000I-1250J0D01*
G01*
X2217806Y631420D02*
G03*
X2217806Y631420I-1250J0D01*
G01*
X2384200Y1157250D02*
G03*
X2384200Y1157250I-1250J0D01*
G01*
Y2057250D02*
G03*
X2384200Y2057250I-1250J0D01*
G01*
Y1597250D02*
G03*
X2384200Y1597250I-1250J0D01*
G01*
X1312410Y2097550D02*
G03*
X1312410Y2097550I-1250J0D01*
G01*
X1312250Y1193550D02*
G03*
X1312250Y1193550I-1250J0D01*
G01*
X1376250Y1207750D02*
G03*
X1376250Y1207750I-1250J0D01*
G01*
X1312250Y1637550D02*
G03*
X1312250Y1637550I-1250J0D01*
G01*
X1376250Y1651750D02*
G03*
X1376250Y1651750I-1250J0D01*
G01*
X1375910Y2111750D02*
G03*
X1375910Y2111750I-1250J0D01*
G01*
X2198750Y267500D02*
G03*
X2198750Y267500I-1250J0D01*
G01*
D11*
X2123000Y626250D02*
G03*
X2123000Y626250I-500J0D01*
G01*
X3545000Y872750D02*
G03*
X3545000Y872750I-500J0D01*
G01*
X3615000D02*
G03*
X3615000Y872750I-500J0D01*
G01*
X1326590Y1133500D02*
G03*
X1326590Y1133500I-500J0D01*
G01*
X1383250Y1205500D02*
G03*
X1383250Y1205500I-500J0D01*
G01*
X1383250Y1650500D02*
G03*
X1383250Y1650500I-500J0D01*
G01*
X1326590Y1577500D02*
G03*
X1326590Y1577500I-500J0D01*
G01*
X1383250Y2110500D02*
G03*
X1383250Y2110500I-500J0D01*
G01*
X1326750Y2037500D02*
G03*
X1326750Y2037500I-500J0D01*
G01*
D12*
X2244556Y618870D02*
G03*
X2244556Y618870I-3000J0D01*
G01*
X2375500Y1134000D02*
G03*
X2375500Y1134000I-3000J0D01*
G01*
Y2034000D02*
G03*
X2375500Y2034000I-3000J0D01*
G01*
Y1574000D02*
G03*
X2375500Y1574000I-3000J0D01*
G01*
X1339160Y2085000D02*
G03*
X1339160Y2085000I-3000J0D01*
G01*
X1339000Y1181000D02*
G03*
X1339000Y1181000I-3000J0D01*
G01*
Y1625000D02*
G03*
X1339000Y1625000I-3000J0D01*
G01*
D13*
X3421700Y825065D02*
G03*
X3431100Y825065I4700J82D01*
G01*
Y790027D02*
G03*
X3421700Y790027I-4700J-82D01*
G01*
Y600021D02*
G03*
X3431100Y600021I4700J82D01*
G01*
Y553807D02*
G03*
X3421700Y553807I-4700J-82D01*
G01*
Y480641D02*
G03*
X3431100Y480641I4700J82D01*
G01*
Y440015D02*
G03*
X3421700Y440015I-4700J-82D01*
G01*
X3676700Y960000D02*
G03*
X3656700Y980000I-20000J0D01*
G01*
Y280000D02*
G03*
X3676700Y300000I0J20000D01*
G01*
X2343300D02*
G03*
X2363300Y280000I20000J0D01*
G01*
Y980000D02*
G03*
X2343300Y960000I0J-20000D01*
G01*
X3431100Y280000D02*
Y440008D01*
Y480648D02*
Y553800D01*
Y600028D02*
Y790020D01*
Y825072D02*
Y980000D01*
X3421700Y280000D02*
Y440008D01*
Y480648D02*
Y553800D01*
Y600028D02*
Y790020D01*
Y825072D02*
Y980000D01*
X3431100D02*
X3656700D01*
X3676700Y300000D02*
Y960000D01*
X3431100Y280000D02*
X3656700D01*
X2363300D02*
X3421700D01*
X2343300Y300000D02*
Y960000D01*
X2363300Y980000D02*
X3421700D01*
D14*
X3360300Y990400D02*
G03*
X3360300Y990400I-1000J0D01*
G01*
X1325000Y1840000D02*
G03*
X1325000Y1840000I-90000J0D01*
G01*
Y1380000D02*
G03*
X1325000Y1380000I-90000J0D01*
G01*
X1120000Y1200000D02*
G03*
X1120000Y1200000I-90000J0D01*
G01*
Y1400000D02*
G03*
X1120000Y1400000I-90000J0D01*
G01*
X1120000Y1600000D02*
G03*
X1120000Y1600000I-90000J0D01*
G01*
Y1800000D02*
G03*
X1120000Y1800000I-90000J0D01*
G01*
Y2000000D02*
G03*
X1120000Y2000000I-90000J0D01*
G01*
X1120000Y2202500D02*
G03*
X1120000Y2202500I-90000J0D01*
G01*
X1325000Y2295000D02*
G03*
X1325000Y2295000I-90000J0D01*
G01*
X1381000Y1192000D02*
X1389000D01*
X1448000Y2216000D02*
Y2239000D01*
Y2216000D02*
X1552000D01*
Y2239000D01*
X1692000Y2216000D02*
Y2239000D01*
X1588000Y2216000D02*
X1692000D01*
X1588000D02*
Y2239000D01*
X1448000Y1756000D02*
Y1779000D01*
Y1756000D02*
X1552000D01*
Y1779000D01*
X1692000Y1756000D02*
Y1779000D01*
X1588000Y1756000D02*
X1692000D01*
X1588000D02*
Y1779000D01*
X1448000Y1296000D02*
Y1319000D01*
Y1296000D02*
X1552000D01*
Y1319000D01*
X1692000Y1296000D02*
Y1319000D01*
X1588000Y1296000D02*
X1692000D01*
X1588000D02*
Y1319000D01*
X1448000Y1994000D02*
Y2017000D01*
Y1994000D02*
X1552000D01*
Y2017000D01*
X1692000Y1994000D02*
Y2017000D01*
X1588000Y1994000D02*
X1692000D01*
X1588000D02*
Y2017000D01*
X1448000Y1534000D02*
Y1557000D01*
Y1534000D02*
X1552000D01*
Y1557000D01*
X1692000Y1534000D02*
Y1557000D01*
X1588000Y1534000D02*
X1692000D01*
X1588000D02*
Y1557000D01*
X1448000Y1076000D02*
Y1099000D01*
Y1076000D02*
X1552000D01*
Y1099000D01*
X1692000Y1076000D02*
Y1099000D01*
X1588000Y1076000D02*
X1692000D01*
X1588000D02*
Y1099000D01*
X2074600Y265790D02*
Y324210D01*
X2125400D01*
Y265790D02*
Y324210D01*
X2074600Y265790D02*
X2125400D01*
X2251500Y476000D02*
X2318500D01*
X2251500Y504000D02*
X2318500D01*
X2251500Y476000D02*
Y504000D01*
X2318500Y476000D02*
Y504000D01*
X2183000Y605000D02*
X2191000D01*
X2163000Y587000D02*
Y591000D01*
X2171000Y587000D02*
Y591000D01*
X2146400Y446000D02*
X2213600D01*
X2146400D02*
Y514000D01*
X2213600Y446000D02*
Y514000D01*
X2213500D02*
X2213600D01*
X2210000D02*
X2213500D01*
X2146400D02*
X2150000D01*
X2143000Y587000D02*
Y591000D01*
X2151000Y587000D02*
Y591000D01*
X2118000Y587000D02*
Y591000D01*
X2126000Y587000D02*
Y591000D01*
X2146500Y611500D02*
Y612000D01*
X2127500Y611500D02*
Y612000D01*
X2146500Y625750D02*
Y626500D01*
X2127500Y626000D02*
Y626500D01*
Y611500D02*
X2146500D01*
X2127500Y626500D02*
X2146500D01*
X2231556Y578870D02*
Y628870D01*
X2249556Y578870D02*
Y628870D01*
X2231556D02*
X2249556D01*
X2231556Y578870D02*
X2249556D01*
X2183000Y627000D02*
Y631000D01*
X2191000Y627000D02*
Y631000D01*
X2171000Y627000D02*
Y631000D01*
X2163000Y627000D02*
Y631000D01*
X2221000Y652000D02*
Y656000D01*
X2213000Y652000D02*
Y656000D01*
X2268000Y645000D02*
Y653000D01*
X2301000Y607000D02*
Y611000D01*
X2293000Y607000D02*
Y611000D01*
X2301000Y572000D02*
Y576000D01*
X2293000Y572000D02*
Y576000D01*
X3520500Y887000D02*
Y887500D01*
X3539500Y887000D02*
Y887500D01*
X3520500Y872500D02*
Y873250D01*
X3539500Y872500D02*
Y873000D01*
X3520500Y887500D02*
X3539500D01*
X3520500Y872500D02*
X3539500D01*
X3590500D02*
X3609500D01*
X3590500Y887500D02*
X3609500D01*
Y872500D02*
Y873000D01*
X3590500Y872500D02*
Y873250D01*
X3609500Y887000D02*
Y887500D01*
X3590500Y887000D02*
Y887500D01*
X3575000Y841000D02*
Y847000D01*
X3605000Y841000D02*
Y847000D01*
X3597000D02*
X3605000D01*
X3575000D02*
X3583000D01*
X3588000Y794000D02*
X3592000D01*
X3588000Y786000D02*
X3592000D01*
X3518000Y794000D02*
X3522000D01*
X3518000Y786000D02*
X3522000D01*
X3505000Y841000D02*
Y847000D01*
X3535000Y841000D02*
Y847000D01*
X3527000D02*
X3535000D01*
X3505000D02*
X3513000D01*
X3551000Y1100000D02*
X3555000D01*
X3551000Y1092000D02*
X3555000D01*
X3551000Y1072000D02*
X3555000D01*
X3551000Y1080000D02*
X3555000D01*
X3551000Y1060000D02*
X3555000D01*
X3551000Y1052000D02*
X3555000D01*
X3551000Y1032000D02*
X3555000D01*
X3551000Y1040000D02*
X3555000D01*
X3551000Y1020000D02*
X3555000D01*
X3551000Y1012000D02*
X3555000D01*
X3551000Y992000D02*
X3555000D01*
X3551000Y1000000D02*
X3555000D01*
X3463000Y1099000D02*
X3467000D01*
X3463000Y1091000D02*
X3467000D01*
X3463000Y1071000D02*
X3467000D01*
X3463000Y1079000D02*
X3467000D01*
X3463000Y1059000D02*
X3467000D01*
X3463000Y1051000D02*
X3467000D01*
X3463000Y1031000D02*
X3467000D01*
X3463000Y1039000D02*
X3467000D01*
X3463000Y1019000D02*
X3467000D01*
X3463000Y1011000D02*
X3467000D01*
X3463000Y991000D02*
X3467000D01*
X3463000Y999000D02*
X3467000D01*
X3378000Y991000D02*
X3382000D01*
X3378000Y999000D02*
X3382000D01*
X3378000Y1019000D02*
X3382000D01*
X3378000Y1011000D02*
X3382000D01*
X3378000Y1031000D02*
X3382000D01*
X3378000Y1039000D02*
X3382000D01*
X3378000Y1059000D02*
X3382000D01*
X3378000Y1051000D02*
X3382000D01*
X3378000Y1071000D02*
X3382000D01*
X3378000Y1079000D02*
X3382000D01*
X3378000Y1099000D02*
X3382000D01*
X3378000Y1091000D02*
X3382000D01*
X3568000Y649000D02*
X3572000D01*
X3568000Y641000D02*
X3572000D01*
X3554000Y616000D02*
Y624000D01*
X3474000Y616000D02*
Y624000D01*
X3488000Y649000D02*
X3492000D01*
X3488000Y641000D02*
X3492000D01*
X3408000Y649000D02*
X3412000D01*
X3408000Y641000D02*
X3412000D01*
X3394000Y616000D02*
Y624000D01*
X2121000Y481000D02*
X2129000D01*
X2286000Y426000D02*
Y434000D01*
Y401000D02*
Y409000D01*
X2196000Y401000D02*
Y409000D01*
X2328000Y777000D02*
Y781000D01*
X2320000Y777000D02*
Y781000D01*
X2297000Y795000D02*
X2305000D01*
X2371000Y1036000D02*
X2379000D01*
X2346000D02*
X2354000D01*
X2321000Y1004000D02*
X2329000D01*
X2296000Y1036000D02*
X2304000D01*
X2277500Y1076000D02*
Y1144000D01*
X2382500Y1076000D02*
Y1144000D01*
X2277500Y1076000D02*
X2382500D01*
X2277500Y1144000D02*
X2382500D01*
X2346000Y1476000D02*
X2354000D01*
X2321000Y1444000D02*
X2329000D01*
X2296000Y1476000D02*
X2304000D01*
X2277500Y1976000D02*
Y2044000D01*
X2382500Y1976000D02*
Y2044000D01*
X2277500Y1976000D02*
X2382500D01*
X2277500Y2044000D02*
X2382500D01*
X2277500Y1516000D02*
Y1584000D01*
X2382500Y1516000D02*
Y1584000D01*
X2277500Y1516000D02*
X2382500D01*
X2277500Y1584000D02*
X2382500D01*
X2346000Y1936000D02*
X2354000D01*
X2321000Y1904000D02*
X2329000D01*
X2296000Y1936000D02*
X2304000D01*
X2328000Y1391000D02*
X2332000D01*
X2328000Y1399000D02*
X2332000D01*
X2328000Y1379000D02*
X2332000D01*
X2328000Y1371000D02*
X2332000D01*
X2328000Y1351000D02*
X2332000D01*
X2328000Y1359000D02*
X2332000D01*
X2328000Y1339000D02*
X2332000D01*
X2328000Y1331000D02*
X2332000D01*
X2328000Y1311000D02*
X2332000D01*
X2328000Y1319000D02*
X2332000D01*
X2328000Y1299000D02*
X2332000D01*
X2328000Y1291000D02*
X2332000D01*
X2328000Y1851000D02*
X2332000D01*
X2328000Y1859000D02*
X2332000D01*
X2328000Y1839000D02*
X2332000D01*
X2328000Y1831000D02*
X2332000D01*
X2328000Y1811000D02*
X2332000D01*
X2328000Y1819000D02*
X2332000D01*
X2328000Y1799000D02*
X2332000D01*
X2328000Y1791000D02*
X2332000D01*
X2328000Y1771000D02*
X2332000D01*
X2328000Y1779000D02*
X2332000D01*
X2328000Y1759000D02*
X2332000D01*
X2328000Y1751000D02*
X2332000D01*
X2328000Y2301000D02*
X2332000D01*
X2328000Y2309000D02*
X2332000D01*
X2328000Y2329000D02*
X2332000D01*
X2328000Y2321000D02*
X2332000D01*
X2328000Y2289000D02*
X2332000D01*
X2328000Y2281000D02*
X2332000D01*
X2328000Y2261000D02*
X2332000D01*
X2328000Y2269000D02*
X2332000D01*
X2328000Y2249000D02*
X2332000D01*
X2328000Y2241000D02*
X2332000D01*
X2328000Y2221000D02*
X2332000D01*
X2328000Y2229000D02*
X2332000D01*
X1326160Y2045000D02*
Y2095000D01*
X1344160Y2045000D02*
Y2095000D01*
X1326160D02*
X1344160D01*
X1326160Y2045000D02*
X1344160D01*
X1326000Y1141000D02*
Y1191000D01*
X1344000Y1141000D02*
Y1191000D01*
X1326000D02*
X1344000D01*
X1326000Y1141000D02*
X1344000D01*
X1291000Y1219000D02*
Y1223000D01*
X1299000Y1219000D02*
Y1223000D01*
X1250000Y1198000D02*
X1258000D01*
X1272000D02*
X1280000D01*
Y1192000D02*
Y1198000D01*
X1250000Y1192000D02*
Y1198000D01*
X1223000Y1192000D02*
X1227000D01*
X1223000Y1200000D02*
X1227000D01*
X1223000Y1172000D02*
X1227000D01*
X1223000Y1180000D02*
X1227000D01*
X1355840Y1135000D02*
X1363840D01*
X1401000Y1123000D02*
Y1131000D01*
X1385000Y1123000D02*
Y1131000D01*
X1401000D01*
X1343840Y1117000D02*
Y1121000D01*
X1335840Y1117000D02*
Y1121000D01*
X1296840Y1117000D02*
Y1121000D01*
X1304840Y1117000D02*
Y1121000D01*
X1311340Y1109500D02*
X1311840D01*
X1311340Y1128500D02*
X1311840D01*
X1325590Y1109500D02*
X1326340D01*
X1325840Y1128500D02*
X1326340D01*
X1311340Y1109500D02*
Y1128500D01*
X1326340Y1109500D02*
Y1128500D01*
X1414000Y1174000D02*
Y1178000D01*
X1406000Y1174000D02*
Y1178000D01*
X1397000Y1229500D02*
X1397500D01*
X1397000Y1210500D02*
X1397500D01*
X1382500Y1229500D02*
X1383250D01*
X1382500Y1210500D02*
X1383000D01*
X1397500D02*
Y1229500D01*
X1382500Y1210500D02*
Y1229500D01*
X1414000Y1219000D02*
Y1223000D01*
X1406000Y1219000D02*
Y1223000D01*
X1446000Y1040000D02*
Y1044000D01*
X1454000Y1040000D02*
Y1044000D01*
X1576000Y1040000D02*
Y1044000D01*
X1584000Y1040000D02*
Y1044000D01*
X1441000Y1265000D02*
X1445000D01*
X1441000Y1257000D02*
X1445000D01*
X1584000Y1269500D02*
Y1273500D01*
X1576000Y1269500D02*
Y1273500D01*
X1335000Y1834840D02*
Y1845000D01*
X1330000Y1840000D02*
X1340160D01*
X1335000Y1374840D02*
Y1385000D01*
X1330000Y1380000D02*
X1340160D01*
X1576000Y1498000D02*
Y1502000D01*
X1584000Y1498000D02*
Y1502000D01*
X1436000Y1498000D02*
Y1502000D01*
X1444000Y1498000D02*
Y1502000D01*
X1414000Y1663000D02*
Y1667000D01*
X1406000Y1663000D02*
Y1667000D01*
X1397000Y1674500D02*
X1397500D01*
X1397000Y1655500D02*
X1397500D01*
X1382500Y1674500D02*
X1383250D01*
X1382500Y1655500D02*
X1383000D01*
X1397500D02*
Y1674500D01*
X1382500Y1655500D02*
Y1674500D01*
X1381000Y1636000D02*
X1389000D01*
X1414000Y1618000D02*
Y1622000D01*
X1406000Y1618000D02*
Y1622000D01*
X1343840Y1561000D02*
Y1565000D01*
X1335840Y1561000D02*
Y1565000D01*
X1311340Y1553500D02*
X1311840D01*
X1311340Y1572500D02*
X1311840D01*
X1325590Y1553500D02*
X1326340D01*
X1325840Y1572500D02*
X1326340D01*
X1311340Y1553500D02*
Y1572500D01*
X1326340Y1553500D02*
Y1572500D01*
X1296840Y1561000D02*
Y1565000D01*
X1304840Y1561000D02*
Y1565000D01*
X1390340Y1552500D02*
Y1560500D01*
X1374340Y1552500D02*
Y1560500D01*
X1390340D01*
X1355840Y1579000D02*
X1363840D01*
X1223000Y1616000D02*
X1227000D01*
X1223000Y1624000D02*
X1227000D01*
X1223000Y1636000D02*
X1227000D01*
X1223000Y1644000D02*
X1227000D01*
X1250000Y1642000D02*
X1258000D01*
X1272000D02*
X1280000D01*
Y1636000D02*
Y1642000D01*
X1250000Y1636000D02*
Y1642000D01*
X1326000Y1585000D02*
Y1635000D01*
X1344000Y1585000D02*
Y1635000D01*
X1326000D02*
X1344000D01*
X1326000Y1585000D02*
X1344000D01*
X1291000Y1663000D02*
Y1667000D01*
X1299000Y1663000D02*
Y1667000D01*
X1441000Y1723000D02*
X1445000D01*
X1441000Y1715000D02*
X1445000D01*
X1584000Y1727500D02*
Y1731500D01*
X1576000Y1727500D02*
Y1731500D01*
X1024840Y1100000D02*
X1035000D01*
X1030000Y1094840D02*
Y1105000D01*
X1024840Y1300000D02*
X1035000D01*
X1030000Y1294840D02*
Y1305000D01*
X1024840Y1500000D02*
X1035000D01*
X1030000Y1494840D02*
Y1505000D01*
X1024840Y1700000D02*
X1035000D01*
X1030000Y1694840D02*
Y1705000D01*
X1024840Y1900000D02*
X1035000D01*
X1030000Y1894840D02*
Y1905000D01*
X1024840Y2102500D02*
X1035000D01*
X1030000Y2097340D02*
Y2107500D01*
X1335000Y2289840D02*
Y2300000D01*
X1330000Y2295000D02*
X1340160D01*
X1576000Y2187500D02*
Y2191500D01*
X1584000Y2187500D02*
Y2191500D01*
X1441000Y2183000D02*
X1445000D01*
X1441000Y2175000D02*
X1445000D01*
X1576000Y1958000D02*
Y1962000D01*
X1584000Y1958000D02*
Y1962000D01*
X1436000Y1958000D02*
Y1962000D01*
X1444000Y1958000D02*
Y1962000D01*
X1414000Y2078000D02*
Y2082000D01*
X1406000Y2078000D02*
Y2082000D01*
X1381000Y2096000D02*
X1389000D01*
X1414000Y2123000D02*
Y2127000D01*
X1406000Y2123000D02*
Y2127000D01*
X1397000Y2134500D02*
X1397500D01*
X1397000Y2115500D02*
X1397500D01*
X1382500Y2134500D02*
X1383250D01*
X1382500Y2115500D02*
X1383000D01*
X1397500D02*
Y2134500D01*
X1382500Y2115500D02*
Y2134500D01*
X1311500Y2013500D02*
X1312000D01*
X1311500Y2032500D02*
X1312000D01*
X1325750Y2013500D02*
X1326500D01*
X1326000Y2032500D02*
X1326500D01*
X1311500Y2013500D02*
Y2032500D01*
X1326500Y2013500D02*
Y2032500D01*
X1297000Y2021000D02*
Y2025000D01*
X1305000Y2021000D02*
Y2025000D01*
X1344000Y2021000D02*
Y2025000D01*
X1336000Y2021000D02*
Y2025000D01*
X1391000Y2012000D02*
Y2020000D01*
X1375000Y2012000D02*
Y2020000D01*
X1391000D01*
X1356000Y2039000D02*
X1364000D01*
X1223000Y2076000D02*
X1227000D01*
X1223000Y2084000D02*
X1227000D01*
X1223000Y2096000D02*
X1227000D01*
X1223000Y2104000D02*
X1227000D01*
X1250000Y2102000D02*
X1258000D01*
X1272000D02*
X1280000D01*
Y2096000D02*
Y2102000D01*
X1250000Y2096000D02*
Y2102000D01*
X1291000Y2123000D02*
Y2127000D01*
X1299000Y2123000D02*
Y2127000D01*
X3551000Y666000D02*
X3555000D01*
X3551000Y674000D02*
X3555000D01*
X3463000Y666000D02*
X3467000D01*
X3463000Y674000D02*
X3467000D01*
X3391000Y666000D02*
X3395000D01*
X3391000Y674000D02*
X3395000D01*
X2405000Y1010500D02*
Y1460500D01*
X2980000D01*
Y1010500D02*
Y1460500D01*
X2405000Y1010500D02*
X2980000D01*
X2405000Y1475500D02*
Y1925500D01*
X2980000D01*
Y1475500D02*
Y1925500D01*
X2405000Y1475500D02*
X2980000D01*
X2405000Y1940500D02*
X2980000D01*
Y2390500D01*
X2405000D02*
X2980000D01*
X2405000Y1940500D02*
Y2390500D01*
X2414000Y961000D02*
Y969000D01*
X2428000Y949000D02*
X2432000D01*
X2428000Y941000D02*
X2432000D01*
X2414000Y891000D02*
Y899000D01*
X2428000Y879000D02*
X2432000D01*
X2428000Y871000D02*
X2432000D01*
X2414000Y811000D02*
Y819000D01*
X2428000Y799000D02*
X2432000D01*
X2428000Y791000D02*
X2432000D01*
X3326300Y1896400D02*
Y2023400D01*
X3373300D01*
Y2221400D01*
X3577300D01*
Y2072400D02*
Y2221400D01*
Y2072400D02*
X3600300D01*
Y1896400D02*
Y2072400D01*
X3326300Y1896400D02*
X3600300D01*
X2190000Y255000D02*
X2320000D01*
Y345000D01*
X2190000D02*
X2320000D01*
X2190000Y255000D02*
Y345000D01*
X1238000Y956000D02*
X1242000D01*
X1238000Y964000D02*
X1242000D01*
X1273000Y956000D02*
X1277000D01*
X1273000Y964000D02*
X1277000D01*
X1308000Y956000D02*
X1312000D01*
X1308000Y964000D02*
X1312000D01*
X1341500Y956000D02*
X1345500D01*
X1341500Y964000D02*
X1345500D01*
X1378000Y956000D02*
X1382000D01*
X1378000Y964000D02*
X1382000D01*
X1413000Y956000D02*
X1417000D01*
X1413000Y964000D02*
X1417000D01*
X3326300Y1176400D02*
Y1303400D01*
X3373300D01*
Y1501400D01*
X3577300D01*
Y1352400D02*
Y1501400D01*
Y1352400D02*
X3600300D01*
Y1176400D02*
Y1352400D01*
X3326300Y1176400D02*
X3600300D01*
X3326300Y1536400D02*
Y1663400D01*
X3373300D01*
Y1861400D01*
X3577300D01*
Y1712400D02*
Y1861400D01*
Y1712400D02*
X3600300D01*
Y1536400D02*
Y1712400D01*
X3326300Y1536400D02*
X3600300D01*
X3026300Y1176400D02*
Y1303400D01*
X3073300D01*
Y1501400D01*
X3277300D01*
Y1352400D02*
Y1501400D01*
Y1352400D02*
X3300300D01*
Y1176400D02*
Y1352400D01*
X3026300Y1176400D02*
X3300300D01*
X3026300Y1536400D02*
Y1663400D01*
X3073300D01*
Y1861400D01*
X3277300D01*
Y1712400D02*
Y1861400D01*
Y1712400D02*
X3300300D01*
Y1536400D02*
Y1712400D01*
X3026300Y1536400D02*
X3300300D01*
X3026300Y1896400D02*
Y2023400D01*
X3073300D01*
Y2221400D01*
X3277300D01*
Y2072400D02*
Y2221400D01*
Y2072400D02*
X3300300D01*
Y1896400D02*
Y2072400D01*
X3026300Y1896400D02*
X3300300D01*
X1810000Y2020000D02*
Y2320000D01*
X2250000D01*
Y2020000D02*
Y2320000D01*
X1810000Y2020000D02*
X2250000D01*
X1810000Y1560000D02*
Y1860000D01*
X2250000D01*
Y1560000D02*
Y1860000D01*
X1810000Y1560000D02*
X2250000D01*
X1810000Y1100000D02*
Y1400000D01*
X2250000D01*
Y1100000D02*
Y1400000D01*
X1810000Y1100000D02*
X2250000D01*
X2710000Y1040000D02*
X2990000D01*
X2710000D02*
Y1460000D01*
X2990000D01*
Y1040000D02*
Y1460000D01*
X2400000Y1040000D02*
X2680000D01*
X2400000D02*
Y1460000D01*
X2680000D01*
Y1040000D02*
Y1460000D01*
X2710000Y1490000D02*
X2990000D01*
X2710000D02*
Y1910000D01*
X2990000D01*
Y1490000D02*
Y1910000D01*
X2400000Y1490000D02*
X2680000D01*
X2400000D02*
Y1910000D01*
X2680000D01*
Y1490000D02*
Y1910000D01*
X2710000Y1940000D02*
X2990000D01*
X2710000D02*
Y2360000D01*
X2990000D01*
Y1940000D02*
Y2360000D01*
X2400000Y1940000D02*
X2680000D01*
X2400000D02*
Y2360000D01*
X2680000D01*
Y1940000D02*
Y2360000D01*
D15*
X1065720Y870000D02*
G03*
X1065720Y870000I-45720J0D01*
G01*
X3735720Y2190000D02*
G03*
X3735720Y2190000I-45720J0D01*
G01*
Y1790000D02*
G03*
X3735720Y1790000I-45720J0D01*
G01*
Y1390000D02*
G03*
X3735720Y1390000I-45720J0D01*
G01*
X1065720Y660000D02*
G03*
X1065720Y660000I-45720J0D01*
G01*
X3735720Y1990000D02*
G03*
X3735720Y1990000I-45720J0D01*
G01*
Y1590000D02*
G03*
X3735720Y1590000I-45720J0D01*
G01*
Y1190000D02*
G03*
X3735720Y1190000I-45720J0D01*
G01*
X1322000Y1207000D02*
X1368000D01*
X1322000Y1235000D02*
X1368000D01*
X1351000Y1207000D02*
Y1235000D01*
X1349000Y1207000D02*
Y1235000D01*
X1322000Y1651000D02*
X1368000D01*
X1322000Y1679000D02*
X1368000D01*
X1351000Y1651000D02*
Y1679000D01*
X1349000Y1651000D02*
Y1679000D01*
X1321660Y2111000D02*
X1367660D01*
X1321660Y2139000D02*
X1367660D01*
X1350660Y2111000D02*
Y2139000D01*
X1348660Y2111000D02*
Y2139000D01*
X1041590Y810310D02*
X1050480D01*
X989520D02*
X998410D01*
X989520Y929690D02*
X998410D01*
X1041590D02*
X1050480D01*
X1079690Y838250D02*
Y901750D01*
X960310Y838250D02*
Y901750D01*
X3659520Y2249690D02*
X3668410D01*
X3711590D02*
X3720480D01*
X3711590Y2130310D02*
X3720480D01*
X3659520D02*
X3668410D01*
X3630310Y2158250D02*
Y2221750D01*
X3749690Y2158250D02*
Y2221750D01*
X3711590Y1730310D02*
X3720480D01*
X3659520D02*
X3668410D01*
X3659520Y1849690D02*
X3668410D01*
X3711590D02*
X3720480D01*
X3749690Y1758250D02*
Y1821750D01*
X3630310Y1758250D02*
Y1821750D01*
X3659520Y1449690D02*
X3668410D01*
X3711590D02*
X3720480D01*
X3711590Y1330310D02*
X3720480D01*
X3659520D02*
X3668410D01*
X3630310Y1358250D02*
Y1421750D01*
X3749690Y1358250D02*
Y1421750D01*
X1041590Y600310D02*
X1050480D01*
X989520D02*
X998410D01*
X989520Y719690D02*
X998410D01*
X1041590D02*
X1050480D01*
X1079690Y628250D02*
Y691750D01*
X960310Y628250D02*
Y691750D01*
X3711590Y1930310D02*
X3720480D01*
X3659520D02*
X3668410D01*
X3659520Y2049690D02*
X3668410D01*
X3711590D02*
X3720480D01*
X3749690Y1958250D02*
Y2021750D01*
X3630310Y1958250D02*
Y2021750D01*
X3711590Y1530310D02*
X3720480D01*
X3659520D02*
X3668410D01*
X3659520Y1649690D02*
X3668410D01*
X3711590D02*
X3720480D01*
X3749690Y1558250D02*
Y1621750D01*
X3630310Y1558250D02*
Y1621750D01*
X3659520Y1249690D02*
X3668410D01*
X3711590D02*
X3720480D01*
X3711590Y1130310D02*
X3720480D01*
X3659520D02*
X3668410D01*
X3630310Y1158250D02*
Y1221750D01*
X3749690Y1158250D02*
Y1221750D01*
D16*
X2086800Y345616D02*
X2090132D01*
X2088466D01*
Y355613D01*
X2086800Y353947D01*
X2101795Y345616D02*
X2095131D01*
X2101795Y352281D01*
Y353947D01*
X2100129Y355613D01*
X2096797D01*
X2095131Y353947D01*
X2105127Y355613D02*
Y348948D01*
X2108460Y345616D01*
X2111792Y348948D01*
Y355613D01*
X2086800Y334298D02*
X2093465D01*
X2106794D02*
X2113458D01*
X2110126Y337631D02*
Y330966D01*
X2331798Y275129D02*
X2328466D01*
X2326800Y273463D01*
Y266798D01*
X2328466Y265132D01*
X2331798D01*
X2333465Y266798D01*
Y273463D01*
X2331798Y275129D01*
X2336797Y271797D02*
X2340129Y265132D01*
X2343461Y271797D01*
X2351792Y265132D02*
X2348460D01*
X2346794Y266798D01*
Y270131D01*
X2348460Y271797D01*
X2351792D01*
X2353458Y270131D01*
Y268465D01*
X2346794D01*
X2356790Y271797D02*
Y265132D01*
Y268465D01*
X2358457Y270131D01*
X2360123Y271797D01*
X2361789D01*
X2373452D02*
X2368453D01*
X2366787Y270131D01*
Y266798D01*
X2368453Y265132D01*
X2373452D01*
X2376784Y271797D02*
Y266798D01*
X2378450Y265132D01*
X2383448D01*
Y271797D01*
X2386781D02*
Y265132D01*
Y268465D01*
X2388447Y270131D01*
X2390113Y271797D01*
X2391779D01*
X2396777D02*
Y265132D01*
Y268465D01*
X2398444Y270131D01*
X2400110Y271797D01*
X2401776D01*
X2411773Y265132D02*
X2408440D01*
X2406774Y266798D01*
Y270131D01*
X2408440Y271797D01*
X2411773D01*
X2413439Y270131D01*
Y268465D01*
X2406774D01*
X2416771Y265132D02*
Y271797D01*
X2421769D01*
X2423436Y270131D01*
Y265132D01*
X2428434Y273463D02*
Y271797D01*
X2426768D01*
X2430100D01*
X2428434D01*
Y266798D01*
X2430100Y265132D01*
X2445095Y275129D02*
X2451760D01*
X2448427D01*
Y265132D01*
X2455092Y271797D02*
Y265132D01*
Y268465D01*
X2456758Y270131D01*
X2458424Y271797D01*
X2460090D01*
X2465089Y265132D02*
X2468421D01*
X2466755D01*
Y271797D01*
X2465089D01*
X2473419Y261800D02*
Y271797D01*
X2478418D01*
X2480084Y270131D01*
Y266798D01*
X2478418Y265132D01*
X2473419D01*
X2493413D02*
Y271797D01*
X2496745Y275129D01*
X2500078Y271797D01*
Y265132D01*
Y270131D01*
X2493413D01*
X2510074Y275129D02*
Y265132D01*
X2505076D01*
X2503410Y266798D01*
Y270131D01*
X2505076Y271797D01*
X2510074D01*
X2513407Y261800D02*
X2515073D01*
X2516739Y263466D01*
Y271797D01*
X2523403D02*
Y266798D01*
X2525069Y265132D01*
X2530068D01*
Y271797D01*
X2533400Y265132D02*
X2538398D01*
X2540065Y266798D01*
X2538398Y268465D01*
X2535066D01*
X2533400Y270131D01*
X2535066Y271797D01*
X2540065D01*
X2545063Y273463D02*
Y271797D01*
X2543397D01*
X2546729D01*
X2545063D01*
Y266798D01*
X2546729Y265132D01*
X3606823Y915106D02*
X3610156D01*
X3608489D01*
Y905109D01*
X3606823D01*
X3610156D01*
X3615154D02*
Y915106D01*
X3620152D01*
X3621819Y913439D01*
Y910107D01*
X3620152Y908441D01*
X3615154D01*
X3625151Y903443D02*
X3631815D01*
X3635148Y905109D02*
Y915106D01*
X3640146D01*
X3641812Y913439D01*
Y910107D01*
X3640146Y908441D01*
X3635148D01*
X3638480D02*
X3641812Y905109D01*
X3650143D02*
X3646811D01*
X3645144Y906775D01*
Y910107D01*
X3646811Y911773D01*
X3650143D01*
X3651809Y910107D01*
Y908441D01*
X3645144D01*
X3655141Y905109D02*
X3658474D01*
X3656807D01*
Y915106D01*
X3655141D01*
X3665138Y911773D02*
X3668470D01*
X3670136Y910107D01*
Y905109D01*
X3665138D01*
X3663472Y906775D01*
X3665138Y908441D01*
X3670136D01*
X3673469Y911773D02*
Y906775D01*
X3675135Y905109D01*
X3680133D01*
Y903443D01*
X3678467Y901777D01*
X3676801D01*
X3680133Y905109D02*
Y911773D01*
X3683465Y903443D02*
X3690130D01*
X3693462Y915106D02*
Y905109D01*
X3698460D01*
X3700127Y906775D01*
Y913439D01*
X3698460Y915106D01*
X3693462D01*
X3703459Y911773D02*
Y905109D01*
Y908441D01*
X3705125Y910107D01*
X3706791Y911773D01*
X3708457D01*
X3713456D02*
X3716788Y905109D01*
X3720120Y911773D01*
X3391798Y917629D02*
X3388466D01*
X3386800Y915963D01*
Y909298D01*
X3388466Y907632D01*
X3391798D01*
X3393464Y909298D01*
Y915963D01*
X3391798Y917629D01*
X3396797Y907632D02*
Y917629D01*
X3401795D01*
X3403461Y915963D01*
Y912631D01*
X3401795Y910965D01*
X3396797D01*
X3406794Y905966D02*
X3413458D01*
X3416790Y907632D02*
Y917629D01*
X3421789D01*
X3423455Y915963D01*
Y912631D01*
X3421789Y910965D01*
X3416790D01*
X3420123D02*
X3423455Y907632D01*
X3431786D02*
X3428453D01*
X3426787Y909298D01*
Y912631D01*
X3428453Y914297D01*
X3431786D01*
X3433452Y912631D01*
Y910965D01*
X3426787D01*
X3436784Y907632D02*
X3440116D01*
X3438450D01*
Y917629D01*
X3436784D01*
X3446781Y914297D02*
X3450113D01*
X3451779Y912631D01*
Y907632D01*
X3446781D01*
X3445114Y909298D01*
X3446781Y910965D01*
X3451779D01*
X3455111Y914297D02*
Y909298D01*
X3456778Y907632D01*
X3461776D01*
Y905966D01*
X3460110Y904300D01*
X3458444D01*
X3461776Y907632D02*
Y914297D01*
X3465108Y905966D02*
X3471772D01*
X3475105Y917629D02*
Y907632D01*
X3480103D01*
X3481769Y909298D01*
Y915963D01*
X3480103Y917629D01*
X3475105D01*
X3485102Y914297D02*
Y907632D01*
Y910965D01*
X3486768Y912631D01*
X3488434Y914297D01*
X3490100D01*
X3495098D02*
X3498431Y907632D01*
X3501763Y914297D01*
X3565963Y580700D02*
X3559298D01*
X3555966Y577368D01*
X3559298Y574035D01*
X3565963D01*
X3555966Y570703D02*
Y565705D01*
X3557632Y564039D01*
X3559298Y565705D01*
Y569037D01*
X3560964Y570703D01*
X3562631Y569037D01*
Y564039D01*
X3555966Y555708D02*
Y559040D01*
X3557632Y560706D01*
X3560964D01*
X3562631Y559040D01*
Y555708D01*
X3560964Y554042D01*
X3559298D01*
Y560706D01*
X3555966Y550710D02*
X3562631D01*
Y545711D01*
X3560964Y544045D01*
X3555966D01*
Y540713D02*
Y535714D01*
X3557632Y534048D01*
X3559298Y535714D01*
Y539047D01*
X3560964Y540713D01*
X3562631Y539047D01*
Y534048D01*
X3555966Y525718D02*
Y529050D01*
X3557632Y530716D01*
X3560964D01*
X3562631Y529050D01*
Y525718D01*
X3560964Y524052D01*
X3559298D01*
Y530716D01*
X3554300Y520719D02*
Y514055D01*
X3565963Y510723D02*
Y507390D01*
Y509056D01*
X3555966D01*
Y510723D01*
Y507390D01*
Y502392D02*
X3562631D01*
Y497393D01*
X3560964Y495727D01*
X3555966D01*
X3554300Y492395D02*
Y485731D01*
X3565963Y482398D02*
X3555966D01*
X3559298Y479066D01*
X3555966Y475734D01*
X3565963D01*
X3485963Y580700D02*
X3479298D01*
X3475966Y577368D01*
X3479298Y574035D01*
X3485963D01*
X3475966Y570703D02*
Y565705D01*
X3477632Y564039D01*
X3479298Y565705D01*
Y569037D01*
X3480964Y570703D01*
X3482631Y569037D01*
Y564039D01*
X3475966Y555708D02*
Y559040D01*
X3477632Y560706D01*
X3480964D01*
X3482631Y559040D01*
Y555708D01*
X3480964Y554042D01*
X3479298D01*
Y560706D01*
X3475966Y550710D02*
X3482631D01*
Y545711D01*
X3480964Y544045D01*
X3475966D01*
Y540713D02*
Y535714D01*
X3477632Y534048D01*
X3479298Y535714D01*
Y539047D01*
X3480964Y540713D01*
X3482631Y539047D01*
Y534048D01*
X3475966Y525718D02*
Y529050D01*
X3477632Y530716D01*
X3480964D01*
X3482631Y529050D01*
Y525718D01*
X3480964Y524052D01*
X3479298D01*
Y530716D01*
X3474300Y520719D02*
Y514055D01*
X3485963Y510723D02*
Y507390D01*
Y509056D01*
X3475966D01*
Y510723D01*
Y507390D01*
Y502392D02*
X3482631D01*
Y497393D01*
X3480964Y495727D01*
X3475966D01*
X3474300Y492395D02*
Y485731D01*
X3485963Y482398D02*
X3479298D01*
X3475966Y479066D01*
X3479298Y475734D01*
X3485963D01*
X3405963Y580700D02*
X3399298D01*
X3395966Y577368D01*
X3399298Y574035D01*
X3405963D01*
X3395966Y570703D02*
Y565705D01*
X3397632Y564039D01*
X3399298Y565705D01*
Y569037D01*
X3400964Y570703D01*
X3402631Y569037D01*
Y564039D01*
X3395966Y555708D02*
Y559040D01*
X3397632Y560706D01*
X3400964D01*
X3402631Y559040D01*
Y555708D01*
X3400964Y554042D01*
X3399298D01*
Y560706D01*
X3395966Y550710D02*
X3402631D01*
Y545711D01*
X3400964Y544045D01*
X3395966D01*
Y540713D02*
Y535714D01*
X3397632Y534048D01*
X3399298Y535714D01*
Y539047D01*
X3400964Y540713D01*
X3402631Y539047D01*
Y534048D01*
X3395966Y525718D02*
Y529050D01*
X3397632Y530716D01*
X3400964D01*
X3402631Y529050D01*
Y525718D01*
X3400964Y524052D01*
X3399298D01*
Y530716D01*
X3394300Y520719D02*
Y514055D01*
X3405963Y510723D02*
Y507390D01*
Y509056D01*
X3395966D01*
Y510723D01*
Y507390D01*
Y502392D02*
X3402631D01*
Y497393D01*
X3400964Y495727D01*
X3395966D01*
X3394300Y492395D02*
Y485731D01*
X3405963Y482398D02*
X3397632D01*
X3395966Y480732D01*
Y477400D01*
X3397632Y475734D01*
X3405963D01*
X3656798Y1485129D02*
X3653466D01*
X3651800Y1483463D01*
Y1476798D01*
X3653466Y1475132D01*
X3656798D01*
X3658464Y1476798D01*
Y1483463D01*
X3656798Y1485129D01*
X3661797Y1481797D02*
Y1476798D01*
X3663463Y1475132D01*
X3668461D01*
Y1481797D01*
X3673460Y1483463D02*
Y1481797D01*
X3671794D01*
X3675126D01*
X3673460D01*
Y1476798D01*
X3675126Y1475132D01*
X3680124Y1471800D02*
Y1481797D01*
X3685123D01*
X3686789Y1480131D01*
Y1476798D01*
X3685123Y1475132D01*
X3680124D01*
X3690121Y1481797D02*
Y1476798D01*
X3691787Y1475132D01*
X3696786D01*
Y1481797D01*
X3701784Y1483463D02*
Y1481797D01*
X3700118D01*
X3703450D01*
X3701784D01*
Y1476798D01*
X3703450Y1475132D01*
X3708448Y1473466D02*
X3715113D01*
X3718445Y1485129D02*
Y1475132D01*
X3721777Y1478465D01*
X3725110Y1475132D01*
Y1485129D01*
X3659300Y1282629D02*
X3662632D01*
X3660966D01*
Y1272632D01*
X3659300D01*
X3662632D01*
X3667631D02*
Y1279297D01*
X3672629D01*
X3674295Y1277631D01*
Y1272632D01*
X3677627Y1269300D02*
Y1279297D01*
X3682626D01*
X3684292Y1277631D01*
Y1274298D01*
X3682626Y1272632D01*
X3677627D01*
X3687624Y1279297D02*
Y1274298D01*
X3689290Y1272632D01*
X3694289D01*
Y1279297D01*
X3699287Y1280963D02*
Y1279297D01*
X3697621D01*
X3700953D01*
X3699287D01*
Y1274298D01*
X3700953Y1272632D01*
X3705952Y1270966D02*
X3712616D01*
X3715948Y1282629D02*
Y1272632D01*
X3719281Y1275965D01*
X3722613Y1272632D01*
Y1282629D01*
X3656798Y1885129D02*
X3653466D01*
X3651800Y1883463D01*
Y1876798D01*
X3653466Y1875132D01*
X3656798D01*
X3658464Y1876798D01*
Y1883463D01*
X3656798Y1885129D01*
X3661797Y1881797D02*
Y1876798D01*
X3663463Y1875132D01*
X3668461D01*
Y1881797D01*
X3673460Y1883463D02*
Y1881797D01*
X3671794D01*
X3675126D01*
X3673460D01*
Y1876798D01*
X3675126Y1875132D01*
X3680124Y1871800D02*
Y1881797D01*
X3685123D01*
X3686789Y1880131D01*
Y1876798D01*
X3685123Y1875132D01*
X3680124D01*
X3690121Y1881797D02*
Y1876798D01*
X3691787Y1875132D01*
X3696786D01*
Y1881797D01*
X3701784Y1883463D02*
Y1881797D01*
X3700118D01*
X3703450D01*
X3701784D01*
Y1876798D01*
X3703450Y1875132D01*
X3708448Y1873466D02*
X3715113D01*
X3718445Y1885129D02*
Y1878465D01*
X3721777Y1875132D01*
X3725110Y1878465D01*
Y1885129D01*
X3659300Y1682629D02*
X3662632D01*
X3660966D01*
Y1672632D01*
X3659300D01*
X3662632D01*
X3667631D02*
Y1679297D01*
X3672629D01*
X3674295Y1677631D01*
Y1672632D01*
X3677627Y1669300D02*
Y1679297D01*
X3682626D01*
X3684292Y1677631D01*
Y1674298D01*
X3682626Y1672632D01*
X3677627D01*
X3687624Y1679297D02*
Y1674298D01*
X3689290Y1672632D01*
X3694289D01*
Y1679297D01*
X3699287Y1680963D02*
Y1679297D01*
X3697621D01*
X3700953D01*
X3699287D01*
Y1674298D01*
X3700953Y1672632D01*
X3705952Y1670966D02*
X3712616D01*
X3715948Y1682629D02*
Y1675965D01*
X3719281Y1672632D01*
X3722613Y1675965D01*
Y1682629D01*
X3659300Y2082629D02*
X3662632D01*
X3660966D01*
Y2072632D01*
X3659300D01*
X3662632D01*
X3667631D02*
Y2079297D01*
X3672629D01*
X3674295Y2077631D01*
Y2072632D01*
X3677627Y2069300D02*
Y2079297D01*
X3682626D01*
X3684292Y2077631D01*
Y2074298D01*
X3682626Y2072632D01*
X3677627D01*
X3687624Y2079297D02*
Y2074298D01*
X3689290Y2072632D01*
X3694289D01*
Y2079297D01*
X3699287Y2080963D02*
Y2079297D01*
X3697621D01*
X3700953D01*
X3699287D01*
Y2074298D01*
X3700953Y2072632D01*
X3705952Y2070966D02*
X3712616D01*
X3715948Y2082629D02*
Y2074298D01*
X3717614Y2072632D01*
X3720947D01*
X3722613Y2074298D01*
Y2082629D01*
X3656798Y2285129D02*
X3653466D01*
X3651800Y2283463D01*
Y2276798D01*
X3653466Y2275132D01*
X3656798D01*
X3658464Y2276798D01*
Y2283463D01*
X3656798Y2285129D01*
X3661797Y2281797D02*
Y2276798D01*
X3663463Y2275132D01*
X3668461D01*
Y2281797D01*
X3673460Y2283463D02*
Y2281797D01*
X3671794D01*
X3675126D01*
X3673460D01*
Y2276798D01*
X3675126Y2275132D01*
X3680124Y2271800D02*
Y2281797D01*
X3685123D01*
X3686789Y2280131D01*
Y2276798D01*
X3685123Y2275132D01*
X3680124D01*
X3690121Y2281797D02*
Y2276798D01*
X3691787Y2275132D01*
X3696786D01*
Y2281797D01*
X3701784Y2283463D02*
Y2281797D01*
X3700118D01*
X3703450D01*
X3701784D01*
Y2276798D01*
X3703450Y2275132D01*
X3708448Y2273466D02*
X3715113D01*
X3718445Y2285129D02*
Y2276798D01*
X3720111Y2275132D01*
X3723444D01*
X3725110Y2276798D01*
Y2285129D01*
X2364300Y780963D02*
Y774298D01*
X2367632Y770966D01*
X2370965Y774298D01*
Y780963D01*
X2380961Y779297D02*
X2379295Y780963D01*
X2375963D01*
X2374297Y779297D01*
Y777631D01*
X2375963Y775965D01*
X2379295D01*
X2380961Y774298D01*
Y772632D01*
X2379295Y770966D01*
X2375963D01*
X2374297Y772632D01*
X2389292Y770966D02*
X2385960D01*
X2384294Y772632D01*
Y775965D01*
X2385960Y777631D01*
X2389292D01*
X2390958Y775965D01*
Y774298D01*
X2384294D01*
X2394290Y770966D02*
Y777631D01*
X2399289D01*
X2400955Y775965D01*
Y770966D01*
X2404287D02*
X2409285D01*
X2410952Y772632D01*
X2409285Y774298D01*
X2405953D01*
X2404287Y775965D01*
X2405953Y777631D01*
X2410952D01*
X2419282Y770966D02*
X2415950D01*
X2414284Y772632D01*
Y775965D01*
X2415950Y777631D01*
X2419282D01*
X2420948Y775965D01*
Y774298D01*
X2414284D01*
X2424281Y769300D02*
X2430945D01*
X2434277Y780963D02*
Y770966D01*
X2437610Y774298D01*
X2440942Y770966D01*
Y780963D01*
X2364300Y863463D02*
Y856798D01*
X2367632Y853466D01*
X2370965Y856798D01*
Y863463D01*
X2380961Y861797D02*
X2379295Y863463D01*
X2375963D01*
X2374297Y861797D01*
Y860131D01*
X2375963Y858465D01*
X2379295D01*
X2380961Y856798D01*
Y855132D01*
X2379295Y853466D01*
X2375963D01*
X2374297Y855132D01*
X2389292Y853466D02*
X2385960D01*
X2384294Y855132D01*
Y858465D01*
X2385960Y860131D01*
X2389292D01*
X2390958Y858465D01*
Y856798D01*
X2384294D01*
X2394290Y853466D02*
Y860131D01*
X2399289D01*
X2400955Y858465D01*
Y853466D01*
X2404287D02*
X2409285D01*
X2410952Y855132D01*
X2409285Y856798D01*
X2405953D01*
X2404287Y858465D01*
X2405953Y860131D01*
X2410952D01*
X2419282Y853466D02*
X2415950D01*
X2414284Y855132D01*
Y858465D01*
X2415950Y860131D01*
X2419282D01*
X2420948Y858465D01*
Y856798D01*
X2414284D01*
X2424281Y851800D02*
X2430945D01*
X2434277Y863463D02*
Y856798D01*
X2437610Y853466D01*
X2440942Y856798D01*
Y863463D01*
X2364300Y933463D02*
Y926798D01*
X2367632Y923466D01*
X2370965Y926798D01*
Y933463D01*
X2380961Y931797D02*
X2379295Y933463D01*
X2375963D01*
X2374297Y931797D01*
Y930131D01*
X2375963Y928465D01*
X2379295D01*
X2380961Y926798D01*
Y925132D01*
X2379295Y923466D01*
X2375963D01*
X2374297Y925132D01*
X2389292Y923466D02*
X2385960D01*
X2384294Y925132D01*
Y928465D01*
X2385960Y930131D01*
X2389292D01*
X2390958Y928465D01*
Y926798D01*
X2384294D01*
X2394290Y923466D02*
Y930131D01*
X2399289D01*
X2400955Y928465D01*
Y923466D01*
X2404287D02*
X2409285D01*
X2410952Y925132D01*
X2409285Y926798D01*
X2405953D01*
X2404287Y928465D01*
X2405953Y930131D01*
X2410952D01*
X2419282Y923466D02*
X2415950D01*
X2414284Y925132D01*
Y928465D01*
X2415950Y930131D01*
X2419282D01*
X2420948Y928465D01*
Y926798D01*
X2414284D01*
X2424281Y921800D02*
X2430945D01*
X2434277Y933463D02*
Y925132D01*
X2435944Y923466D01*
X2439276D01*
X2440942Y925132D01*
Y933463D01*
X2171800Y990963D02*
X2175132D01*
X2173466D01*
Y980966D01*
X2171800D01*
X2175132D01*
X2186795Y989297D02*
X2185129Y990963D01*
X2181797D01*
X2180131Y989297D01*
Y987631D01*
X2181797Y985965D01*
X2185129D01*
X2186795Y984298D01*
Y982632D01*
X2185129Y980966D01*
X2181797D01*
X2180131Y982632D01*
X2195126Y980966D02*
X2191794D01*
X2190127Y982632D01*
Y985965D01*
X2191794Y987631D01*
X2195126D01*
X2196792Y985965D01*
Y984298D01*
X2190127D01*
X2200124Y980966D02*
Y987631D01*
X2205123D01*
X2206789Y985965D01*
Y980966D01*
X2210121D02*
X2215119D01*
X2216785Y982632D01*
X2215119Y984298D01*
X2211787D01*
X2210121Y985965D01*
X2211787Y987631D01*
X2216785D01*
X2225116Y980966D02*
X2221784D01*
X2220118Y982632D01*
Y985965D01*
X2221784Y987631D01*
X2225116D01*
X2226782Y985965D01*
Y984298D01*
X2220118D01*
X2230114Y979300D02*
X2236779D01*
X2240111Y980966D02*
Y990963D01*
X2245110D01*
X2246776Y989297D01*
Y985965D01*
X2245110Y984298D01*
X2240111D01*
X2243443D02*
X2246776Y980966D01*
X2251774Y987631D02*
X2255107D01*
X2256773Y985965D01*
Y980966D01*
X2251774D01*
X2250108Y982632D01*
X2251774Y984298D01*
X2256773D01*
X2260105Y987631D02*
Y982632D01*
X2261771Y980966D01*
X2263437Y982632D01*
X2265103Y980966D01*
X2266769Y982632D01*
Y987631D01*
X2270102Y979300D02*
X2276766D01*
X2280098Y990963D02*
Y980966D01*
X2283431Y984298D01*
X2286763Y980966D01*
Y990963D01*
X2171800Y970963D02*
X2175132D01*
X2173466D01*
Y960966D01*
X2171800D01*
X2175132D01*
X2186795Y969297D02*
X2185129Y970963D01*
X2181797D01*
X2180131Y969297D01*
Y967631D01*
X2181797Y965965D01*
X2185129D01*
X2186795Y964298D01*
Y962632D01*
X2185129Y960966D01*
X2181797D01*
X2180131Y962632D01*
X2195126Y960966D02*
X2191794D01*
X2190127Y962632D01*
Y965965D01*
X2191794Y967631D01*
X2195126D01*
X2196792Y965965D01*
Y964298D01*
X2190127D01*
X2200124Y960966D02*
Y967631D01*
X2205123D01*
X2206789Y965965D01*
Y960966D01*
X2210121D02*
X2215119D01*
X2216785Y962632D01*
X2215119Y964298D01*
X2211787D01*
X2210121Y965965D01*
X2211787Y967631D01*
X2216785D01*
X2225116Y960966D02*
X2221784D01*
X2220118Y962632D01*
Y965965D01*
X2221784Y967631D01*
X2225116D01*
X2226782Y965965D01*
Y964298D01*
X2220118D01*
X2230114Y959300D02*
X2236779D01*
X2240111Y960966D02*
Y970963D01*
X2245110D01*
X2246776Y969297D01*
Y965965D01*
X2245110Y964298D01*
X2240111D01*
X2243443D02*
X2246776Y960966D01*
X2251774Y967631D02*
X2255107D01*
X2256773Y965965D01*
Y960966D01*
X2251774D01*
X2250108Y962632D01*
X2251774Y964298D01*
X2256773D01*
X2260105Y967631D02*
Y962632D01*
X2261771Y960966D01*
X2263437Y962632D01*
X2265103Y960966D01*
X2266769Y962632D01*
Y967631D01*
X2270102Y959300D02*
X2276766D01*
X2280098Y970963D02*
Y964298D01*
X2283431Y960966D01*
X2286763Y964298D01*
Y970963D01*
X2171800Y953463D02*
X2175132D01*
X2173466D01*
Y943466D01*
X2171800D01*
X2175132D01*
X2186795Y951797D02*
X2185129Y953463D01*
X2181797D01*
X2180131Y951797D01*
Y950131D01*
X2181797Y948465D01*
X2185129D01*
X2186795Y946798D01*
Y945132D01*
X2185129Y943466D01*
X2181797D01*
X2180131Y945132D01*
X2195126Y943466D02*
X2191794D01*
X2190127Y945132D01*
Y948465D01*
X2191794Y950131D01*
X2195126D01*
X2196792Y948465D01*
Y946798D01*
X2190127D01*
X2200124Y943466D02*
Y950131D01*
X2205123D01*
X2206789Y948465D01*
Y943466D01*
X2210121D02*
X2215119D01*
X2216785Y945132D01*
X2215119Y946798D01*
X2211787D01*
X2210121Y948465D01*
X2211787Y950131D01*
X2216785D01*
X2225116Y943466D02*
X2221784D01*
X2220118Y945132D01*
Y948465D01*
X2221784Y950131D01*
X2225116D01*
X2226782Y948465D01*
Y946798D01*
X2220118D01*
X2230114Y941800D02*
X2236779D01*
X2240111Y943466D02*
Y953463D01*
X2245110D01*
X2246776Y951797D01*
Y948465D01*
X2245110Y946798D01*
X2240111D01*
X2243443D02*
X2246776Y943466D01*
X2251774Y950131D02*
X2255107D01*
X2256773Y948465D01*
Y943466D01*
X2251774D01*
X2250108Y945132D01*
X2251774Y946798D01*
X2256773D01*
X2260105Y950131D02*
Y945132D01*
X2261771Y943466D01*
X2263437Y945132D01*
X2265103Y943466D01*
X2266769Y945132D01*
Y950131D01*
X2270102Y941800D02*
X2276766D01*
X2280098Y953463D02*
Y945132D01*
X2281765Y943466D01*
X2285097D01*
X2286763Y945132D01*
Y953463D01*
X2231800Y923466D02*
Y933463D01*
X2236798D01*
X2238465Y931797D01*
Y928465D01*
X2236798Y926798D01*
X2231800D01*
X2241797Y933463D02*
Y923466D01*
X2245129Y926798D01*
X2248461Y923466D01*
Y933463D01*
X2251794Y923466D02*
Y933463D01*
X2255126Y930131D01*
X2258458Y933463D01*
Y923466D01*
X2261790Y921800D02*
X2268455D01*
X2278452Y933463D02*
X2271787D01*
Y923466D01*
X2278452D01*
X2271787Y928465D02*
X2275119D01*
X2281784Y923466D02*
Y933463D01*
X2288448Y923466D01*
Y933463D01*
X2221800Y915963D02*
Y905966D01*
X2225132Y909298D01*
X2228465Y905966D01*
Y915963D01*
X2231797Y904300D02*
X2238461D01*
X2241794Y915963D02*
Y905966D01*
X2246792D01*
X2248458Y907632D01*
Y914297D01*
X2246792Y915963D01*
X2241794D01*
X2251790Y905966D02*
Y915963D01*
X2256789D01*
X2258455Y914297D01*
Y910965D01*
X2256789Y909298D01*
X2251790D01*
X2255123D02*
X2258455Y905966D01*
X2261787Y915963D02*
Y909298D01*
X2265119Y905966D01*
X2268452Y909298D01*
Y915963D01*
X2271784Y904300D02*
X2278448D01*
X2281781Y915963D02*
Y905966D01*
Y910965D01*
X2288445D01*
Y915963D01*
Y905966D01*
X2221800Y898463D02*
Y888466D01*
X2225132Y891798D01*
X2228465Y888466D01*
Y898463D01*
X2231797Y886800D02*
X2238461D01*
X2241794Y898463D02*
Y888466D01*
X2246792D01*
X2248458Y890132D01*
Y896797D01*
X2246792Y898463D01*
X2241794D01*
X2251790Y888466D02*
Y898463D01*
X2256789D01*
X2258455Y896797D01*
Y893465D01*
X2256789Y891798D01*
X2251790D01*
X2255123D02*
X2258455Y888466D01*
X2261787Y898463D02*
Y891798D01*
X2265119Y888466D01*
X2268452Y891798D01*
Y898463D01*
X2271784Y886800D02*
X2278448D01*
X2281781Y898463D02*
Y888466D01*
X2288445D01*
X2221800Y863463D02*
Y856798D01*
X2225132Y853466D01*
X2228465Y856798D01*
Y863463D01*
X2231797Y851800D02*
X2238461D01*
X2241794Y863463D02*
Y853466D01*
X2246792D01*
X2248458Y855132D01*
Y861797D01*
X2246792Y863463D01*
X2241794D01*
X2251790Y853466D02*
Y863463D01*
X2256789D01*
X2258455Y861797D01*
Y858465D01*
X2256789Y856798D01*
X2251790D01*
X2255123D02*
X2258455Y853466D01*
X2261787Y863463D02*
Y856798D01*
X2265119Y853466D01*
X2268452Y856798D01*
Y863463D01*
X2271784Y851800D02*
X2278448D01*
X2281781Y863463D02*
Y853466D01*
X2288445D01*
X2221800Y880963D02*
Y874298D01*
X2225132Y870966D01*
X2228465Y874298D01*
Y880963D01*
X2231797Y869300D02*
X2238461D01*
X2241794Y880963D02*
Y870966D01*
X2246792D01*
X2248458Y872632D01*
Y879297D01*
X2246792Y880963D01*
X2241794D01*
X2251790Y870966D02*
Y880963D01*
X2256789D01*
X2258455Y879297D01*
Y875965D01*
X2256789Y874298D01*
X2251790D01*
X2255123D02*
X2258455Y870966D01*
X2261787Y880963D02*
Y874298D01*
X2265119Y870966D01*
X2268452Y874298D01*
Y880963D01*
X2271784Y869300D02*
X2278448D01*
X2281781Y880963D02*
Y870966D01*
Y875965D01*
X2288445D01*
Y880963D01*
Y870966D01*
X2221800Y845963D02*
Y837632D01*
X2223466Y835966D01*
X2226798D01*
X2228465Y837632D01*
Y845963D01*
X2231797Y834300D02*
X2238461D01*
X2241794Y845963D02*
Y835966D01*
X2246792D01*
X2248458Y837632D01*
Y844297D01*
X2246792Y845963D01*
X2241794D01*
X2251790Y835966D02*
Y845963D01*
X2256789D01*
X2258455Y844297D01*
Y840965D01*
X2256789Y839298D01*
X2251790D01*
X2255123D02*
X2258455Y835966D01*
X2261787Y845963D02*
Y839298D01*
X2265119Y835966D01*
X2268452Y839298D01*
Y845963D01*
X2271784Y834300D02*
X2278448D01*
X2281781Y845963D02*
Y835966D01*
Y840965D01*
X2288445D01*
Y845963D01*
Y835966D01*
X2221800Y828463D02*
Y820132D01*
X2223466Y818466D01*
X2226798D01*
X2228465Y820132D01*
Y828463D01*
X2231797Y816800D02*
X2238461D01*
X2241794Y828463D02*
Y818466D01*
X2246792D01*
X2248458Y820132D01*
Y826797D01*
X2246792Y828463D01*
X2241794D01*
X2251790Y818466D02*
Y828463D01*
X2256789D01*
X2258455Y826797D01*
Y823465D01*
X2256789Y821798D01*
X2251790D01*
X2255123D02*
X2258455Y818466D01*
X2261787Y828463D02*
Y821798D01*
X2265119Y818466D01*
X2268452Y821798D01*
Y828463D01*
X2271784Y816800D02*
X2278448D01*
X2281781Y828463D02*
Y818466D01*
X2288445D01*
X2191800Y810963D02*
Y804298D01*
X2195132Y800966D01*
X2198465Y804298D01*
Y810963D01*
X2208461Y809297D02*
X2206795Y810963D01*
X2203463D01*
X2201797Y809297D01*
Y807631D01*
X2203463Y805965D01*
X2206795D01*
X2208461Y804298D01*
Y802632D01*
X2206795Y800966D01*
X2203463D01*
X2201797Y802632D01*
X2216792Y800966D02*
X2213460D01*
X2211794Y802632D01*
Y805965D01*
X2213460Y807631D01*
X2216792D01*
X2218458Y805965D01*
Y804298D01*
X2211794D01*
X2221790Y800966D02*
Y807631D01*
X2226789D01*
X2228455Y805965D01*
Y800966D01*
X2231787D02*
X2236785D01*
X2238452Y802632D01*
X2236785Y804298D01*
X2233453D01*
X2231787Y805965D01*
X2233453Y807631D01*
X2238452D01*
X2246782Y800966D02*
X2243450D01*
X2241784Y802632D01*
Y805965D01*
X2243450Y807631D01*
X2246782D01*
X2248448Y805965D01*
Y804298D01*
X2241784D01*
X2251781Y799300D02*
X2258445D01*
X2261777Y810963D02*
Y800966D01*
X2266776D01*
X2268442Y802632D01*
Y804298D01*
Y805965D01*
X2266776Y807631D01*
X2261777D01*
X2271774D02*
Y802632D01*
X2273440Y800966D01*
X2278439D01*
Y807631D01*
X2281771Y800966D02*
X2286769D01*
X2288436Y802632D01*
X2286769Y804298D01*
X2283437D01*
X2281771Y805965D01*
X2283437Y807631D01*
X2288436D01*
D17*
X1401331Y1183335D02*
X1402997Y1185002D01*
Y1188334D01*
X1401331Y1190000D01*
X1394666D01*
X1393000Y1188334D01*
Y1185002D01*
X1394666Y1183335D01*
X1401331Y1180003D02*
X1402997Y1178337D01*
Y1175005D01*
X1401331Y1173339D01*
X1399664D01*
X1397998Y1175005D01*
Y1176671D01*
Y1175005D01*
X1396332Y1173339D01*
X1394666D01*
X1393000Y1175005D01*
Y1178337D01*
X1394666Y1180003D01*
Y1170006D02*
X1393000Y1168340D01*
Y1165008D01*
X1394666Y1163342D01*
X1401331D01*
X1402997Y1165008D01*
Y1168340D01*
X1401331Y1170006D01*
X1399664D01*
X1397998Y1168340D01*
Y1163342D01*
X3538728Y684784D02*
Y694781D01*
X3543727D01*
X3545392Y693115D01*
Y689782D01*
X3543727Y688116D01*
X3538728D01*
X3542060D02*
X3545392Y684784D01*
X3548725Y686450D02*
X3550391Y684784D01*
X3553723D01*
X3555389Y686450D01*
Y693115D01*
X3553723Y694781D01*
X3550391D01*
X3548725Y693115D01*
Y691449D01*
X3550391Y689782D01*
X3555389D01*
X3565386Y694781D02*
X3562054Y693115D01*
X3558722Y689782D01*
Y686450D01*
X3560388Y684784D01*
X3563720D01*
X3565386Y686450D01*
Y688116D01*
X3563720Y689782D01*
X3558722D01*
X3450844Y684784D02*
Y694781D01*
X3455842D01*
X3457509Y693115D01*
Y689782D01*
X3455842Y688116D01*
X3450844D01*
X3454176D02*
X3457509Y684784D01*
X3460841Y686450D02*
X3462507Y684784D01*
X3465839D01*
X3467505Y686450D01*
Y693115D01*
X3465839Y694781D01*
X3462507D01*
X3460841Y693115D01*
Y691449D01*
X3462507Y689782D01*
X3467505D01*
X3477502Y694781D02*
X3470838D01*
Y689782D01*
X3474170Y691449D01*
X3475836D01*
X3477502Y689782D01*
Y686450D01*
X3475836Y684784D01*
X3472504D01*
X3470838Y686450D01*
X3378708Y684784D02*
Y694781D01*
X3383706D01*
X3385373Y693115D01*
Y689782D01*
X3383706Y688116D01*
X3378708D01*
X3382040D02*
X3385373Y684784D01*
X3388705Y686450D02*
X3390371Y684784D01*
X3393703D01*
X3395369Y686450D01*
Y693115D01*
X3393703Y694781D01*
X3390371D01*
X3388705Y693115D01*
Y691449D01*
X3390371Y689782D01*
X3395369D01*
X3403700Y684784D02*
Y694781D01*
X3398701Y689782D01*
X3405366D01*
X3590000Y864997D02*
Y855000D01*
X3594998D01*
X3596664Y856666D01*
Y863331D01*
X3594998Y864997D01*
X3590000D01*
X3599997Y855000D02*
X3603329D01*
X3601663D01*
Y864997D01*
X3599997Y863331D01*
X3614992Y864997D02*
X3608327D01*
Y859998D01*
X3611660Y861665D01*
X3613326D01*
X3614992Y859998D01*
Y856666D01*
X3613326Y855000D01*
X3609994D01*
X3608327Y856666D01*
X953335Y2288332D02*
X951669Y2289998D01*
X948337D01*
X946671Y2288332D01*
Y2281668D01*
X948337Y2280002D01*
X951669D01*
X953335Y2281668D01*
X963332Y2289998D02*
X956668D01*
Y2285000D01*
X960000Y2286666D01*
X961666D01*
X963332Y2285000D01*
Y2281668D01*
X961666Y2280002D01*
X958334D01*
X956668Y2281668D01*
X971663Y2280002D02*
Y2289998D01*
X966665Y2285000D01*
X973329D01*
X956665Y1488331D02*
X954998Y1489997D01*
X951666D01*
X950000Y1488331D01*
Y1481666D01*
X951666Y1480000D01*
X954998D01*
X956665Y1481666D01*
X966661Y1489997D02*
X959997D01*
Y1484998D01*
X963329Y1486664D01*
X964995D01*
X966661Y1484998D01*
Y1481666D01*
X964995Y1480000D01*
X961663D01*
X959997Y1481666D01*
X969994Y1488331D02*
X971660Y1489997D01*
X974992D01*
X976658Y1488331D01*
Y1486664D01*
X974992Y1484998D01*
X973326D01*
X974992D01*
X976658Y1483332D01*
Y1481666D01*
X974992Y1480000D01*
X971660D01*
X969994Y1481666D01*
X961665Y1888331D02*
X959998Y1889997D01*
X956666D01*
X955000Y1888331D01*
Y1881666D01*
X956666Y1880000D01*
X959998D01*
X961665Y1881666D01*
X971661Y1889997D02*
X964997D01*
Y1884998D01*
X968329Y1886664D01*
X969995D01*
X971661Y1884998D01*
Y1881666D01*
X969995Y1880000D01*
X966663D01*
X964997Y1881666D01*
X981658Y1880000D02*
X974994D01*
X981658Y1886664D01*
Y1888331D01*
X979992Y1889997D01*
X976660D01*
X974994Y1888331D01*
X1560000Y2200000D02*
X1569997D01*
Y2195002D01*
X1568331Y2193336D01*
X1564998D01*
X1563332Y2195002D01*
Y2200000D01*
Y2196668D02*
X1560000Y2193336D01*
Y2183339D02*
Y2190003D01*
X1566664Y2183339D01*
X1568331D01*
X1569997Y2185005D01*
Y2188337D01*
X1568331Y2190003D01*
X2259997Y535000D02*
X2251666D01*
X2250000Y533334D01*
Y530002D01*
X2251666Y528335D01*
X2259997D01*
X2250000Y525003D02*
Y521671D01*
Y523337D01*
X2259997D01*
X2258331Y525003D01*
Y516673D02*
X2259997Y515006D01*
Y511674D01*
X2258331Y510008D01*
X2251666D01*
X2250000Y511674D01*
Y515006D01*
X2251666Y516673D01*
X2258331D01*
X2139997Y535000D02*
X2131666D01*
X2130000Y533334D01*
Y530002D01*
X2131666Y528335D01*
X2139997D01*
X2131666Y525003D02*
X2130000Y523337D01*
Y520005D01*
X2131666Y518339D01*
X2138331D01*
X2139997Y520005D01*
Y523337D01*
X2138331Y525003D01*
X2136664D01*
X2134998Y523337D01*
Y518339D01*
X2064997Y313335D02*
Y316668D01*
Y315002D01*
X2056666D01*
X2055000Y316668D01*
Y318334D01*
X2056666Y320000D01*
X2055000Y310003D02*
Y306671D01*
Y308337D01*
X2064997D01*
X2063331Y310003D01*
X2301664Y433331D02*
X2299998Y434997D01*
X2296666D01*
X2295000Y433331D01*
Y426666D01*
X2296666Y425000D01*
X2299998D01*
X2301664Y426666D01*
X2311661Y434997D02*
X2304997D01*
Y429998D01*
X2308329Y431665D01*
X2309995D01*
X2311661Y429998D01*
Y426666D01*
X2309995Y425000D01*
X2306663D01*
X2304997Y426666D01*
X2314994Y425000D02*
X2318326D01*
X2316660D01*
Y434997D01*
X2314994Y433331D01*
X2301664Y408331D02*
X2299998Y409997D01*
X2296666D01*
X2295000Y408331D01*
Y401666D01*
X2296666Y400000D01*
X2299998D01*
X2301664Y401666D01*
X2311661Y409997D02*
X2304997D01*
Y404998D01*
X2308329Y406665D01*
X2309995D01*
X2311661Y404998D01*
Y401666D01*
X2309995Y400000D01*
X2306663D01*
X2304997Y401666D01*
X2314994Y408331D02*
X2316660Y409997D01*
X2319992D01*
X2321658Y408331D01*
Y401666D01*
X2319992Y400000D01*
X2316660D01*
X2314994Y401666D01*
Y408331D01*
X2108331Y473335D02*
X2109997Y475002D01*
Y478334D01*
X2108331Y480000D01*
X2101666D01*
X2100000Y478334D01*
Y475002D01*
X2101666Y473335D01*
X2100000Y465005D02*
X2109997D01*
X2104998Y470003D01*
Y463339D01*
X2101666Y460006D02*
X2100000Y458340D01*
Y455008D01*
X2101666Y453342D01*
X2108331D01*
X2109997Y455008D01*
Y458340D01*
X2108331Y460006D01*
X2106664D01*
X2104998Y458340D01*
Y453342D01*
X2171664Y388331D02*
X2169998Y389997D01*
X2166666D01*
X2165000Y388331D01*
Y381666D01*
X2166666Y380000D01*
X2169998D01*
X2171664Y381666D01*
X2179995Y380000D02*
Y389997D01*
X2174997Y384998D01*
X2181661D01*
X2184993Y388331D02*
X2186660Y389997D01*
X2189992D01*
X2191658Y388331D01*
Y386665D01*
X2189992Y384998D01*
X2191658Y383332D01*
Y381666D01*
X2189992Y380000D01*
X2186660D01*
X2184993Y381666D01*
Y383332D01*
X2186660Y384998D01*
X2184993Y386665D01*
Y388331D01*
X2186660Y384998D02*
X2189992D01*
X3525000Y640000D02*
Y649997D01*
X3529998D01*
X3531664Y648331D01*
Y644998D01*
X3529998Y643332D01*
X3525000D01*
X3528332D02*
X3531664Y640000D01*
X3534997Y641666D02*
X3536663Y640000D01*
X3539995D01*
X3541661Y641666D01*
Y648331D01*
X3539995Y649997D01*
X3536663D01*
X3534997Y648331D01*
Y646665D01*
X3536663Y644998D01*
X3541661D01*
X3544994Y648331D02*
X3546660Y649997D01*
X3549992D01*
X3551658Y648331D01*
Y646665D01*
X3549992Y644998D01*
X3548326D01*
X3549992D01*
X3551658Y643332D01*
Y641666D01*
X3549992Y640000D01*
X3546660D01*
X3544994Y641666D01*
X3445000Y640000D02*
Y649997D01*
X3449998D01*
X3451664Y648331D01*
Y644998D01*
X3449998Y643332D01*
X3445000D01*
X3448332D02*
X3451664Y640000D01*
X3454997Y641666D02*
X3456663Y640000D01*
X3459995D01*
X3461661Y641666D01*
Y648331D01*
X3459995Y649997D01*
X3456663D01*
X3454997Y648331D01*
Y646665D01*
X3456663Y644998D01*
X3461661D01*
X3471658Y640000D02*
X3464994D01*
X3471658Y646665D01*
Y648331D01*
X3469992Y649997D01*
X3466660D01*
X3464994Y648331D01*
X3365000Y640000D02*
Y649997D01*
X3369998D01*
X3371664Y648331D01*
Y644998D01*
X3369998Y643332D01*
X3365000D01*
X3368332D02*
X3371664Y640000D01*
X3374997Y641666D02*
X3376663Y640000D01*
X3379995D01*
X3381661Y641666D01*
Y648331D01*
X3379995Y649997D01*
X3376663D01*
X3374997Y648331D01*
Y646665D01*
X3376663Y644998D01*
X3381661D01*
X3384994Y640000D02*
X3388326D01*
X3386660D01*
Y649997D01*
X3384994Y648331D01*
X3508728Y990920D02*
Y1000917D01*
X3513727D01*
X3515392Y999251D01*
Y995918D01*
X3513727Y994252D01*
X3508728D01*
X3512060D02*
X3515392Y990920D01*
X3518725Y992586D02*
X3520391Y990920D01*
X3523723D01*
X3525389Y992586D01*
Y999251D01*
X3523723Y1000917D01*
X3520391D01*
X3518725Y999251D01*
Y997585D01*
X3520391Y995918D01*
X3525389D01*
X3528722Y999251D02*
X3530388Y1000917D01*
X3533720D01*
X3535386Y999251D01*
Y992586D01*
X3533720Y990920D01*
X3530388D01*
X3528722Y992586D01*
Y999251D01*
X3420844Y989904D02*
Y999901D01*
X3425842D01*
X3427509Y998235D01*
Y994902D01*
X3425842Y993236D01*
X3420844D01*
X3424176D02*
X3427509Y989904D01*
X3430841Y998235D02*
X3432507Y999901D01*
X3435839D01*
X3437505Y998235D01*
Y996569D01*
X3435839Y994902D01*
X3437505Y993236D01*
Y991570D01*
X3435839Y989904D01*
X3432507D01*
X3430841Y991570D01*
Y993236D01*
X3432507Y994902D01*
X3430841Y996569D01*
Y998235D01*
X3432507Y994902D02*
X3435839D01*
X3440837Y991570D02*
X3442504Y989904D01*
X3445836D01*
X3447502Y991570D01*
Y998235D01*
X3445836Y999901D01*
X3442504D01*
X3440837Y998235D01*
Y996569D01*
X3442504Y994902D01*
X3447502D01*
X3335754Y989904D02*
Y999901D01*
X3340752D01*
X3342419Y998235D01*
Y994902D01*
X3340752Y993236D01*
X3335754D01*
X3339086D02*
X3342419Y989904D01*
X3345751Y998235D02*
X3347417Y999901D01*
X3350749D01*
X3352415Y998235D01*
Y996569D01*
X3350749Y994902D01*
X3352415Y993236D01*
Y991570D01*
X3350749Y989904D01*
X3347417D01*
X3345751Y991570D01*
Y993236D01*
X3347417Y994902D01*
X3345751Y996569D01*
Y998235D01*
X3347417Y994902D02*
X3350749D01*
X3355747Y998235D02*
X3357414Y999901D01*
X3360746D01*
X3362412Y998235D01*
Y996569D01*
X3360746Y994902D01*
X3362412Y993236D01*
Y991570D01*
X3360746Y989904D01*
X3357414D01*
X3355747Y991570D01*
Y993236D01*
X3357414Y994902D01*
X3355747Y996569D01*
Y998235D01*
X3357414Y994902D02*
X3360746D01*
X3508728Y1010732D02*
Y1020729D01*
X3513727D01*
X3515392Y1019063D01*
Y1015730D01*
X3513727Y1014064D01*
X3508728D01*
X3512060D02*
X3515392Y1010732D01*
X3518725Y1019063D02*
X3520391Y1020729D01*
X3523723D01*
X3525389Y1019063D01*
Y1017396D01*
X3523723Y1015730D01*
X3525389Y1014064D01*
Y1012398D01*
X3523723Y1010732D01*
X3520391D01*
X3518725Y1012398D01*
Y1014064D01*
X3520391Y1015730D01*
X3518725Y1017396D01*
Y1019063D01*
X3520391Y1015730D02*
X3523723D01*
X3528722Y1020729D02*
X3535386D01*
Y1019063D01*
X3528722Y1012398D01*
Y1010732D01*
X3420844Y1009716D02*
Y1019713D01*
X3425842D01*
X3427509Y1018047D01*
Y1014714D01*
X3425842Y1013048D01*
X3420844D01*
X3424176D02*
X3427509Y1009716D01*
X3430841Y1018047D02*
X3432507Y1019713D01*
X3435839D01*
X3437505Y1018047D01*
Y1016380D01*
X3435839Y1014714D01*
X3437505Y1013048D01*
Y1011382D01*
X3435839Y1009716D01*
X3432507D01*
X3430841Y1011382D01*
Y1013048D01*
X3432507Y1014714D01*
X3430841Y1016380D01*
Y1018047D01*
X3432507Y1014714D02*
X3435839D01*
X3447502Y1019713D02*
X3444170Y1018047D01*
X3440837Y1014714D01*
Y1011382D01*
X3442504Y1009716D01*
X3445836D01*
X3447502Y1011382D01*
Y1013048D01*
X3445836Y1014714D01*
X3440837D01*
X3335754Y1009716D02*
Y1019713D01*
X3340752D01*
X3342419Y1018047D01*
Y1014714D01*
X3340752Y1013048D01*
X3335754D01*
X3339086D02*
X3342419Y1009716D01*
X3345751Y1018047D02*
X3347417Y1019713D01*
X3350749D01*
X3352415Y1018047D01*
Y1016380D01*
X3350749Y1014714D01*
X3352415Y1013048D01*
Y1011382D01*
X3350749Y1009716D01*
X3347417D01*
X3345751Y1011382D01*
Y1013048D01*
X3347417Y1014714D01*
X3345751Y1016380D01*
Y1018047D01*
X3347417Y1014714D02*
X3350749D01*
X3362412Y1019713D02*
X3355747D01*
Y1014714D01*
X3359080Y1016380D01*
X3360746D01*
X3362412Y1014714D01*
Y1011382D01*
X3360746Y1009716D01*
X3357414D01*
X3355747Y1011382D01*
X2335000Y790000D02*
X2344997D01*
Y785002D01*
X2343331Y783335D01*
X2339998D01*
X2338332Y785002D01*
Y790000D01*
Y786668D02*
X2335000Y783335D01*
X2343331Y780003D02*
X2344997Y778337D01*
Y775005D01*
X2343331Y773339D01*
X2341664D01*
X2339998Y775005D01*
X2338332Y773339D01*
X2336666D01*
X2335000Y775005D01*
Y778337D01*
X2336666Y780003D01*
X2338332D01*
X2339998Y778337D01*
X2341664Y780003D01*
X2343331D01*
X2339998Y778337D02*
Y775005D01*
X2335000Y765008D02*
X2344997D01*
X2339998Y770006D01*
Y763342D01*
X3508728Y1030798D02*
Y1040795D01*
X3513727D01*
X3515392Y1039129D01*
Y1035796D01*
X3513727Y1034130D01*
X3508728D01*
X3512060D02*
X3515392Y1030798D01*
X3518725Y1039129D02*
X3520391Y1040795D01*
X3523723D01*
X3525389Y1039129D01*
Y1037462D01*
X3523723Y1035796D01*
X3525389Y1034130D01*
Y1032464D01*
X3523723Y1030798D01*
X3520391D01*
X3518725Y1032464D01*
Y1034130D01*
X3520391Y1035796D01*
X3518725Y1037462D01*
Y1039129D01*
X3520391Y1035796D02*
X3523723D01*
X3528722Y1039129D02*
X3530388Y1040795D01*
X3533720D01*
X3535386Y1039129D01*
Y1037462D01*
X3533720Y1035796D01*
X3532054D01*
X3533720D01*
X3535386Y1034130D01*
Y1032464D01*
X3533720Y1030798D01*
X3530388D01*
X3528722Y1032464D01*
X3420844Y1029782D02*
Y1039779D01*
X3425842D01*
X3427509Y1038113D01*
Y1034780D01*
X3425842Y1033114D01*
X3420844D01*
X3424176D02*
X3427509Y1029782D01*
X3430841Y1038113D02*
X3432507Y1039779D01*
X3435839D01*
X3437505Y1038113D01*
Y1036447D01*
X3435839Y1034780D01*
X3437505Y1033114D01*
Y1031448D01*
X3435839Y1029782D01*
X3432507D01*
X3430841Y1031448D01*
Y1033114D01*
X3432507Y1034780D01*
X3430841Y1036447D01*
Y1038113D01*
X3432507Y1034780D02*
X3435839D01*
X3447502Y1029782D02*
X3440837D01*
X3447502Y1036447D01*
Y1038113D01*
X3445836Y1039779D01*
X3442504D01*
X3440837Y1038113D01*
X3335754Y1029782D02*
Y1039779D01*
X3340752D01*
X3342419Y1038113D01*
Y1034780D01*
X3340752Y1033114D01*
X3335754D01*
X3339086D02*
X3342419Y1029782D01*
X3345751Y1038113D02*
X3347417Y1039779D01*
X3350749D01*
X3352415Y1038113D01*
Y1036447D01*
X3350749Y1034780D01*
X3352415Y1033114D01*
Y1031448D01*
X3350749Y1029782D01*
X3347417D01*
X3345751Y1031448D01*
Y1033114D01*
X3347417Y1034780D01*
X3345751Y1036447D01*
Y1038113D01*
X3347417Y1034780D02*
X3350749D01*
X3355747Y1029782D02*
X3359080D01*
X3357414D01*
Y1039779D01*
X3355747Y1038113D01*
X3508728Y1050864D02*
Y1060861D01*
X3513727D01*
X3515392Y1059195D01*
Y1055862D01*
X3513727Y1054196D01*
X3508728D01*
X3512060D02*
X3515392Y1050864D01*
X3518725Y1059195D02*
X3520391Y1060861D01*
X3523723D01*
X3525389Y1059195D01*
Y1057529D01*
X3523723Y1055862D01*
X3525389Y1054196D01*
Y1052530D01*
X3523723Y1050864D01*
X3520391D01*
X3518725Y1052530D01*
Y1054196D01*
X3520391Y1055862D01*
X3518725Y1057529D01*
Y1059195D01*
X3520391Y1055862D02*
X3523723D01*
X3528722Y1059195D02*
X3530388Y1060861D01*
X3533720D01*
X3535386Y1059195D01*
Y1052530D01*
X3533720Y1050864D01*
X3530388D01*
X3528722Y1052530D01*
Y1059195D01*
X3420844Y1049848D02*
Y1059845D01*
X3425842D01*
X3427509Y1058179D01*
Y1054846D01*
X3425842Y1053180D01*
X3420844D01*
X3424176D02*
X3427509Y1049848D01*
X3430841Y1059845D02*
X3437505D01*
Y1058179D01*
X3430841Y1051514D01*
Y1049848D01*
X3440837Y1051514D02*
X3442504Y1049848D01*
X3445836D01*
X3447502Y1051514D01*
Y1058179D01*
X3445836Y1059845D01*
X3442504D01*
X3440837Y1058179D01*
Y1056513D01*
X3442504Y1054846D01*
X3447502D01*
X3335754Y1049848D02*
Y1059845D01*
X3340752D01*
X3342419Y1058179D01*
Y1054846D01*
X3340752Y1053180D01*
X3335754D01*
X3339086D02*
X3342419Y1049848D01*
X3345751Y1059845D02*
X3352415D01*
Y1058179D01*
X3345751Y1051514D01*
Y1049848D01*
X3355747Y1058179D02*
X3357414Y1059845D01*
X3360746D01*
X3362412Y1058179D01*
Y1056513D01*
X3360746Y1054846D01*
X3362412Y1053180D01*
Y1051514D01*
X3360746Y1049848D01*
X3357414D01*
X3355747Y1051514D01*
Y1053180D01*
X3357414Y1054846D01*
X3355747Y1056513D01*
Y1058179D01*
X3357414Y1054846D02*
X3360746D01*
X1400810Y974852D02*
Y984849D01*
X1405808D01*
X1407475Y983183D01*
Y979850D01*
X1405808Y978184D01*
X1400810D01*
X1404142D02*
X1407475Y974852D01*
X1410807Y984849D02*
X1417471D01*
Y983183D01*
X1410807Y976518D01*
Y974852D01*
X1420804Y984849D02*
X1427468D01*
Y983183D01*
X1420804Y976518D01*
Y974852D01*
X3545000Y785000D02*
Y794997D01*
X3549998D01*
X3551664Y793331D01*
Y789998D01*
X3549998Y788332D01*
X3545000D01*
X3548332D02*
X3551664Y785000D01*
X3554997Y794997D02*
X3561661D01*
Y793331D01*
X3554997Y786666D01*
Y785000D01*
X3571658Y794997D02*
X3568326Y793331D01*
X3564994Y789998D01*
Y786666D01*
X3566660Y785000D01*
X3569992D01*
X3571658Y786666D01*
Y788332D01*
X3569992Y789998D01*
X3564994D01*
X3475000Y785000D02*
Y794997D01*
X3479998D01*
X3481664Y793331D01*
Y789998D01*
X3479998Y788332D01*
X3475000D01*
X3478332D02*
X3481664Y785000D01*
X3484997Y794997D02*
X3491661D01*
Y793331D01*
X3484997Y786666D01*
Y785000D01*
X3501658Y794997D02*
X3494994D01*
Y789998D01*
X3498326Y791665D01*
X3499992D01*
X3501658Y789998D01*
Y786666D01*
X3499992Y785000D01*
X3496660D01*
X3494994Y786666D01*
X3508728Y1070930D02*
Y1080927D01*
X3513727D01*
X3515392Y1079261D01*
Y1075928D01*
X3513727Y1074262D01*
X3508728D01*
X3512060D02*
X3515392Y1070930D01*
X3518725Y1080927D02*
X3525389D01*
Y1079261D01*
X3518725Y1072596D01*
Y1070930D01*
X3533720D02*
Y1080927D01*
X3528722Y1075928D01*
X3535386D01*
X3420844Y1069914D02*
Y1079911D01*
X3425842D01*
X3427509Y1078245D01*
Y1074912D01*
X3425842Y1073246D01*
X3420844D01*
X3424176D02*
X3427509Y1069914D01*
X3430841Y1079911D02*
X3437505D01*
Y1078245D01*
X3430841Y1071580D01*
Y1069914D01*
X3440837Y1078245D02*
X3442504Y1079911D01*
X3445836D01*
X3447502Y1078245D01*
Y1076579D01*
X3445836Y1074912D01*
X3444170D01*
X3445836D01*
X3447502Y1073246D01*
Y1071580D01*
X3445836Y1069914D01*
X3442504D01*
X3440837Y1071580D01*
X3335754Y1069914D02*
Y1079911D01*
X3340752D01*
X3342419Y1078245D01*
Y1074912D01*
X3340752Y1073246D01*
X3335754D01*
X3339086D02*
X3342419Y1069914D01*
X3345751Y1079911D02*
X3352415D01*
Y1078245D01*
X3345751Y1071580D01*
Y1069914D01*
X3362412D02*
X3355747D01*
X3362412Y1076579D01*
Y1078245D01*
X3360746Y1079911D01*
X3357414D01*
X3355747Y1078245D01*
X1365758Y974852D02*
Y984849D01*
X1370756D01*
X1372422Y983183D01*
Y979850D01*
X1370756Y978184D01*
X1365758D01*
X1369090D02*
X1372422Y974852D01*
X1375755Y984849D02*
X1382419D01*
Y983183D01*
X1375755Y976518D01*
Y974852D01*
X1385752D02*
X1389084D01*
X1387418D01*
Y984849D01*
X1385752Y983183D01*
X3508728Y1090742D02*
Y1100739D01*
X3513727D01*
X3515392Y1099073D01*
Y1095740D01*
X3513727Y1094074D01*
X3508728D01*
X3512060D02*
X3515392Y1090742D01*
X3518725Y1100739D02*
X3525389D01*
Y1099073D01*
X3518725Y1092408D01*
Y1090742D01*
X3528722Y1099073D02*
X3530388Y1100739D01*
X3533720D01*
X3535386Y1099073D01*
Y1092408D01*
X3533720Y1090742D01*
X3530388D01*
X3528722Y1092408D01*
Y1099073D01*
X3420844Y1089726D02*
Y1099723D01*
X3425842D01*
X3427509Y1098057D01*
Y1094724D01*
X3425842Y1093058D01*
X3420844D01*
X3424176D02*
X3427509Y1089726D01*
X3437505Y1099723D02*
X3434173Y1098057D01*
X3430841Y1094724D01*
Y1091392D01*
X3432507Y1089726D01*
X3435839D01*
X3437505Y1091392D01*
Y1093058D01*
X3435839Y1094724D01*
X3430841D01*
X3440837Y1091392D02*
X3442504Y1089726D01*
X3445836D01*
X3447502Y1091392D01*
Y1098057D01*
X3445836Y1099723D01*
X3442504D01*
X3440837Y1098057D01*
Y1096391D01*
X3442504Y1094724D01*
X3447502D01*
X3335754Y1089726D02*
Y1099723D01*
X3340752D01*
X3342419Y1098057D01*
Y1094724D01*
X3340752Y1093058D01*
X3335754D01*
X3339086D02*
X3342419Y1089726D01*
X3352415Y1099723D02*
X3349083Y1098057D01*
X3345751Y1094724D01*
Y1091392D01*
X3347417Y1089726D01*
X3350749D01*
X3352415Y1091392D01*
Y1093058D01*
X3350749Y1094724D01*
X3345751D01*
X3355747Y1098057D02*
X3357414Y1099723D01*
X3360746D01*
X3362412Y1098057D01*
Y1096391D01*
X3360746Y1094724D01*
X3362412Y1093058D01*
Y1091392D01*
X3360746Y1089726D01*
X3357414D01*
X3355747Y1091392D01*
Y1093058D01*
X3357414Y1094724D01*
X3355747Y1096391D01*
Y1098057D01*
X3357414Y1094724D02*
X3360746D01*
X1329182Y974852D02*
Y984849D01*
X1334180D01*
X1335847Y983183D01*
Y979850D01*
X1334180Y978184D01*
X1329182D01*
X1332514D02*
X1335847Y974852D01*
X1345843Y984849D02*
X1342511Y983183D01*
X1339179Y979850D01*
Y976518D01*
X1340845Y974852D01*
X1344177D01*
X1345843Y976518D01*
Y978184D01*
X1344177Y979850D01*
X1339179D01*
X1355840Y984849D02*
X1352508Y983183D01*
X1349176Y979850D01*
Y976518D01*
X1350842Y974852D01*
X1354174D01*
X1355840Y976518D01*
Y978184D01*
X1354174Y979850D01*
X1349176D01*
X1295654Y974852D02*
Y984849D01*
X1300652D01*
X1302319Y983183D01*
Y979850D01*
X1300652Y978184D01*
X1295654D01*
X1298986D02*
X1302319Y974852D01*
X1312315Y984849D02*
X1308983Y983183D01*
X1305651Y979850D01*
Y976518D01*
X1307317Y974852D01*
X1310649D01*
X1312315Y976518D01*
Y978184D01*
X1310649Y979850D01*
X1305651D01*
X1322312Y984849D02*
X1315648D01*
Y979850D01*
X1318980Y981516D01*
X1320646D01*
X1322312Y979850D01*
Y976518D01*
X1320646Y974852D01*
X1317314D01*
X1315648Y976518D01*
X2310000Y625000D02*
X2319997D01*
Y620002D01*
X2318331Y618335D01*
X2314998D01*
X2313332Y620002D01*
Y625000D01*
Y621668D02*
X2310000Y618335D01*
X2319997Y608339D02*
X2318331Y611671D01*
X2314998Y615003D01*
X2311666D01*
X2310000Y613337D01*
Y610005D01*
X2311666Y608339D01*
X2313332D01*
X2314998Y610005D01*
Y615003D01*
X2310000Y600008D02*
X2319997D01*
X2314998Y605006D01*
Y598342D01*
X1260856Y974852D02*
Y984849D01*
X1265854D01*
X1267521Y983183D01*
Y979850D01*
X1265854Y978184D01*
X1260856D01*
X1264188D02*
X1267521Y974852D01*
X1277517Y984849D02*
X1274185Y983183D01*
X1270853Y979850D01*
Y976518D01*
X1272519Y974852D01*
X1275851D01*
X1277517Y976518D01*
Y978184D01*
X1275851Y979850D01*
X1270853D01*
X1280850Y983183D02*
X1282516Y984849D01*
X1285848D01*
X1287514Y983183D01*
Y981516D01*
X1285848Y979850D01*
X1284182D01*
X1285848D01*
X1287514Y978184D01*
Y976518D01*
X1285848Y974852D01*
X1282516D01*
X1280850Y976518D01*
X1225804Y974852D02*
Y984849D01*
X1230802D01*
X1232468Y983183D01*
Y979850D01*
X1230802Y978184D01*
X1225804D01*
X1229136D02*
X1232468Y974852D01*
X1242465Y984849D02*
X1239133Y983183D01*
X1235801Y979850D01*
Y976518D01*
X1237467Y974852D01*
X1240799D01*
X1242465Y976518D01*
Y978184D01*
X1240799Y979850D01*
X1235801D01*
X1252462Y974852D02*
X1245798D01*
X1252462Y981516D01*
Y983183D01*
X1250796Y984849D01*
X1247464D01*
X1245798Y983183D01*
X1335000Y1100000D02*
X1344997D01*
Y1095002D01*
X1343331Y1093335D01*
X1339998D01*
X1338332Y1095002D01*
Y1100000D01*
Y1096668D02*
X1335000Y1093335D01*
X1344997Y1083339D02*
X1343331Y1086671D01*
X1339998Y1090003D01*
X1336666D01*
X1335000Y1088337D01*
Y1085005D01*
X1336666Y1083339D01*
X1338332D01*
X1339998Y1085005D01*
Y1090003D01*
X1335000Y1080006D02*
Y1076674D01*
Y1078340D01*
X1344997D01*
X1343331Y1080006D01*
X1295000Y1100000D02*
X1304997D01*
Y1095002D01*
X1303331Y1093335D01*
X1299998D01*
X1298332Y1095002D01*
Y1100000D01*
Y1096668D02*
X1295000Y1093335D01*
X1304997Y1083339D02*
X1303331Y1086671D01*
X1299998Y1090003D01*
X1296666D01*
X1295000Y1088337D01*
Y1085005D01*
X1296666Y1083339D01*
X1298332D01*
X1299998Y1085005D01*
Y1090003D01*
X1303331Y1080006D02*
X1304997Y1078340D01*
Y1075008D01*
X1303331Y1073342D01*
X1296666D01*
X1295000Y1075008D01*
Y1078340D01*
X1296666Y1080006D01*
X1303331D01*
X2160000Y570000D02*
X2169997D01*
Y565002D01*
X2168331Y563335D01*
X2164998D01*
X2163332Y565002D01*
Y570000D01*
Y566668D02*
X2160000Y563335D01*
X2169997Y553339D02*
Y560003D01*
X2164998D01*
X2166664Y556671D01*
Y555005D01*
X2164998Y553339D01*
X2161666D01*
X2160000Y555005D01*
Y558337D01*
X2161666Y560003D01*
Y550006D02*
X2160000Y548340D01*
Y545008D01*
X2161666Y543342D01*
X2168331D01*
X2169997Y545008D01*
Y548340D01*
X2168331Y550006D01*
X2166664D01*
X2164998Y548340D01*
Y543342D01*
X2210000Y700000D02*
X2219997D01*
Y695002D01*
X2218331Y693335D01*
X2214998D01*
X2213332Y695002D01*
Y700000D01*
Y696668D02*
X2210000Y693335D01*
X2219997Y683339D02*
Y690003D01*
X2214998D01*
X2216664Y686671D01*
Y685005D01*
X2214998Y683339D01*
X2211666D01*
X2210000Y685005D01*
Y688337D01*
X2211666Y690003D01*
X2218331Y680006D02*
X2219997Y678340D01*
Y675008D01*
X2218331Y673342D01*
X2216664D01*
X2214998Y675008D01*
X2213332Y673342D01*
X2211666D01*
X2210000Y675008D01*
Y678340D01*
X2211666Y680006D01*
X2213332D01*
X2214998Y678340D01*
X2216664Y680006D01*
X2218331D01*
X2214998Y678340D02*
Y675008D01*
X1408000Y1159000D02*
X1417997D01*
Y1154002D01*
X1416331Y1152336D01*
X1412998D01*
X1411332Y1154002D01*
Y1159000D01*
Y1155668D02*
X1408000Y1152336D01*
X1417997Y1142339D02*
Y1149003D01*
X1412998D01*
X1414664Y1145671D01*
Y1144005D01*
X1412998Y1142339D01*
X1409666D01*
X1408000Y1144005D01*
Y1147337D01*
X1409666Y1149003D01*
X1417997Y1139006D02*
Y1132342D01*
X1416331D01*
X1409666Y1139006D01*
X1408000D01*
X1175000Y1195000D02*
Y1204997D01*
X1179998D01*
X1181665Y1203331D01*
Y1199998D01*
X1179998Y1198332D01*
X1175000D01*
X1178332D02*
X1181665Y1195000D01*
X1191661Y1204997D02*
X1184997D01*
Y1199998D01*
X1188329Y1201665D01*
X1189995D01*
X1191661Y1199998D01*
Y1196666D01*
X1189995Y1195000D01*
X1186663D01*
X1184997Y1196666D01*
X1201658Y1204997D02*
X1198326Y1203331D01*
X1194994Y1199998D01*
Y1196666D01*
X1196660Y1195000D01*
X1199992D01*
X1201658Y1196666D01*
Y1198332D01*
X1199992Y1199998D01*
X1194994D01*
X2180000Y685000D02*
X2189997D01*
Y680002D01*
X2188331Y678335D01*
X2184998D01*
X2183332Y680002D01*
Y685000D01*
Y681668D02*
X2180000Y678335D01*
X2189997Y668339D02*
Y675003D01*
X2184998D01*
X2186664Y671671D01*
Y670005D01*
X2184998Y668339D01*
X2181666D01*
X2180000Y670005D01*
Y673337D01*
X2181666Y675003D01*
X2189997Y658342D02*
Y665006D01*
X2184998D01*
X2186664Y661674D01*
Y660008D01*
X2184998Y658342D01*
X2181666D01*
X2180000Y660008D01*
Y663340D01*
X2181666Y665006D01*
X1175000Y1170000D02*
Y1179997D01*
X1179998D01*
X1181665Y1178331D01*
Y1174998D01*
X1179998Y1173332D01*
X1175000D01*
X1178332D02*
X1181665Y1170000D01*
X1191661Y1179997D02*
X1184997D01*
Y1174998D01*
X1188329Y1176665D01*
X1189995D01*
X1191661Y1174998D01*
Y1171666D01*
X1189995Y1170000D01*
X1186663D01*
X1184997Y1171666D01*
X1199992Y1170000D02*
Y1179997D01*
X1194994Y1174998D01*
X1201658D01*
X1410000Y1265000D02*
X1419997D01*
Y1260002D01*
X1418331Y1258335D01*
X1414998D01*
X1413332Y1260002D01*
Y1265000D01*
Y1261668D02*
X1410000Y1258335D01*
X1419997Y1248339D02*
Y1255003D01*
X1414998D01*
X1416664Y1251671D01*
Y1250005D01*
X1414998Y1248339D01*
X1411666D01*
X1410000Y1250005D01*
Y1253337D01*
X1411666Y1255003D01*
X1418331Y1245006D02*
X1419997Y1243340D01*
Y1240008D01*
X1418331Y1238342D01*
X1416664D01*
X1414998Y1240008D01*
Y1241674D01*
Y1240008D01*
X1413332Y1238342D01*
X1411666D01*
X1410000Y1240008D01*
Y1243340D01*
X1411666Y1245006D01*
X1290000Y1265000D02*
X1299997D01*
Y1260002D01*
X1298331Y1258335D01*
X1294998D01*
X1293332Y1260002D01*
Y1265000D01*
Y1261668D02*
X1290000Y1258335D01*
X1299997Y1248339D02*
Y1255003D01*
X1294998D01*
X1296664Y1251671D01*
Y1250005D01*
X1294998Y1248339D01*
X1291666D01*
X1290000Y1250005D01*
Y1253337D01*
X1291666Y1255003D01*
X1290000Y1238342D02*
Y1245006D01*
X1296664Y1238342D01*
X1298331D01*
X1299997Y1240008D01*
Y1243340D01*
X1298331Y1245006D01*
X2160000Y670000D02*
X2169997D01*
Y665002D01*
X2168331Y663335D01*
X2164998D01*
X2163332Y665002D01*
Y670000D01*
Y666668D02*
X2160000Y663335D01*
X2169997Y653339D02*
Y660003D01*
X2164998D01*
X2166664Y656671D01*
Y655005D01*
X2164998Y653339D01*
X2161666D01*
X2160000Y655005D01*
Y658337D01*
X2161666Y660003D01*
X2160000Y650006D02*
Y646674D01*
Y648340D01*
X2169997D01*
X2168331Y650006D01*
X1335000Y1540000D02*
X1344997D01*
Y1535002D01*
X1343331Y1533336D01*
X1339998D01*
X1338332Y1535002D01*
Y1540000D01*
Y1536668D02*
X1335000Y1533336D01*
X1344997Y1523339D02*
Y1530003D01*
X1339998D01*
X1341664Y1526671D01*
Y1525005D01*
X1339998Y1523339D01*
X1336666D01*
X1335000Y1525005D01*
Y1528337D01*
X1336666Y1530003D01*
X1343331Y1520006D02*
X1344997Y1518340D01*
Y1515008D01*
X1343331Y1513342D01*
X1336666D01*
X1335000Y1515008D01*
Y1518340D01*
X1336666Y1520006D01*
X1343331D01*
X1295000Y1540000D02*
X1304997D01*
Y1535002D01*
X1303331Y1533336D01*
X1299998D01*
X1298332Y1535002D01*
Y1540000D01*
Y1536668D02*
X1295000Y1533336D01*
Y1525005D02*
X1304997D01*
X1299998Y1530003D01*
Y1523339D01*
X1296666Y1520006D02*
X1295000Y1518340D01*
Y1515008D01*
X1296666Y1513342D01*
X1303331D01*
X1304997Y1515008D01*
Y1518340D01*
X1303331Y1520006D01*
X1301664D01*
X1299998Y1518340D01*
Y1513342D01*
X2100000Y600000D02*
X2109997D01*
Y595002D01*
X2108331Y593335D01*
X2104998D01*
X2103332Y595002D01*
Y600000D01*
Y596668D02*
X2100000Y593335D01*
Y585005D02*
X2109997D01*
X2104998Y590003D01*
Y583339D01*
X2108331Y580006D02*
X2109997Y578340D01*
Y575008D01*
X2108331Y573342D01*
X2106664D01*
X2104998Y575008D01*
X2103332Y573342D01*
X2101666D01*
X2100000Y575008D01*
Y578340D01*
X2101666Y580006D01*
X2103332D01*
X2104998Y578340D01*
X2106664Y580006D01*
X2108331D01*
X2104998Y578340D02*
Y575008D01*
X2140000Y570000D02*
X2149997D01*
Y565002D01*
X2148331Y563335D01*
X2144998D01*
X2143332Y565002D01*
Y570000D01*
Y566668D02*
X2140000Y563335D01*
Y555005D02*
X2149997D01*
X2144998Y560003D01*
Y553339D01*
X2149997Y550006D02*
Y543342D01*
X2148331D01*
X2141666Y550006D01*
X2140000D01*
X1405000Y1600000D02*
X1414997D01*
Y1595002D01*
X1413331Y1593336D01*
X1409998D01*
X1408332Y1595002D01*
Y1600000D01*
Y1596668D02*
X1405000Y1593336D01*
Y1585005D02*
X1414997D01*
X1409998Y1590003D01*
Y1583339D01*
X1414997Y1573342D02*
X1413331Y1576674D01*
X1409998Y1580006D01*
X1406666D01*
X1405000Y1578340D01*
Y1575008D01*
X1406666Y1573342D01*
X1408332D01*
X1409998Y1575008D01*
Y1580006D01*
X1175000Y1635000D02*
Y1644997D01*
X1179998D01*
X1181665Y1643331D01*
Y1639998D01*
X1179998Y1638332D01*
X1175000D01*
X1178332D02*
X1181665Y1635000D01*
X1189995D02*
Y1644997D01*
X1184997Y1639998D01*
X1191661D01*
X1201658Y1644997D02*
X1194994D01*
Y1639998D01*
X1198326Y1641664D01*
X1199992D01*
X1201658Y1639998D01*
Y1636666D01*
X1199992Y1635000D01*
X1196660D01*
X1194994Y1636666D01*
X1175000Y1615000D02*
Y1624997D01*
X1179998D01*
X1181665Y1623331D01*
Y1619998D01*
X1179998Y1618332D01*
X1175000D01*
X1178332D02*
X1181665Y1615000D01*
X1189995D02*
Y1624997D01*
X1184997Y1619998D01*
X1191661D01*
X1199992Y1615000D02*
Y1624997D01*
X1194994Y1619998D01*
X1201658D01*
X1405000Y1710000D02*
X1414997D01*
Y1705002D01*
X1413331Y1703336D01*
X1409998D01*
X1408332Y1705002D01*
Y1710000D01*
Y1706668D02*
X1405000Y1703336D01*
Y1695005D02*
X1414997D01*
X1409998Y1700003D01*
Y1693339D01*
X1413331Y1690006D02*
X1414997Y1688340D01*
Y1685008D01*
X1413331Y1683342D01*
X1411664D01*
X1409998Y1685008D01*
Y1686674D01*
Y1685008D01*
X1408332Y1683342D01*
X1406666D01*
X1405000Y1685008D01*
Y1688340D01*
X1406666Y1690006D01*
X2455000Y785000D02*
Y794997D01*
X2459998D01*
X2461664Y793331D01*
Y789998D01*
X2459998Y788332D01*
X2455000D01*
X2458332D02*
X2461664Y785000D01*
X2469995D02*
Y794997D01*
X2464997Y789998D01*
X2471661D01*
X2481658Y785000D02*
X2474994D01*
X2481658Y791665D01*
Y793331D01*
X2479992Y794997D01*
X2476660D01*
X2474994Y793331D01*
X2455000Y865000D02*
Y874997D01*
X2459998D01*
X2461664Y873331D01*
Y869998D01*
X2459998Y868332D01*
X2455000D01*
X2458332D02*
X2461664Y865000D01*
X2469995D02*
Y874997D01*
X2464997Y869998D01*
X2471661D01*
X2474994Y865000D02*
X2478326D01*
X2476660D01*
Y874997D01*
X2474994Y873331D01*
X2447500Y957500D02*
X2457497D01*
Y952502D01*
X2455831Y950835D01*
X2452498D01*
X2450832Y952502D01*
Y957500D01*
Y954168D02*
X2447500Y950835D01*
Y942505D02*
X2457497D01*
X2452498Y947503D01*
Y940839D01*
X2455831Y937506D02*
X2457497Y935840D01*
Y932508D01*
X2455831Y930842D01*
X2449166D01*
X2447500Y932508D01*
Y935840D01*
X2449166Y937506D01*
X2455831D01*
X1290000Y1710000D02*
X1299997D01*
Y1705002D01*
X1298331Y1703336D01*
X1294998D01*
X1293332Y1705002D01*
Y1710000D01*
Y1706668D02*
X1290000Y1703336D01*
X1298331Y1700003D02*
X1299997Y1698337D01*
Y1695005D01*
X1298331Y1693339D01*
X1296664D01*
X1294998Y1695005D01*
Y1696671D01*
Y1695005D01*
X1293332Y1693339D01*
X1291666D01*
X1290000Y1695005D01*
Y1698337D01*
X1291666Y1700003D01*
Y1690006D02*
X1290000Y1688340D01*
Y1685008D01*
X1291666Y1683342D01*
X1298331D01*
X1299997Y1685008D01*
Y1688340D01*
X1298331Y1690006D01*
X1296664D01*
X1294998Y1688340D01*
Y1683342D01*
X2285000Y1390000D02*
Y1399997D01*
X2289998D01*
X2291664Y1398331D01*
Y1394998D01*
X2289998Y1393332D01*
X2285000D01*
X2288332D02*
X2291664Y1390000D01*
X2294997Y1398331D02*
X2296663Y1399997D01*
X2299995D01*
X2301661Y1398331D01*
Y1396664D01*
X2299995Y1394998D01*
X2298329D01*
X2299995D01*
X2301661Y1393332D01*
Y1391666D01*
X2299995Y1390000D01*
X2296663D01*
X2294997Y1391666D01*
X2304994Y1398331D02*
X2306660Y1399997D01*
X2309992D01*
X2311658Y1398331D01*
Y1396664D01*
X2309992Y1394998D01*
X2311658Y1393332D01*
Y1391666D01*
X2309992Y1390000D01*
X2306660D01*
X2304994Y1391666D01*
Y1393332D01*
X2306660Y1394998D01*
X2304994Y1396664D01*
Y1398331D01*
X2306660Y1394998D02*
X2309992D01*
X2285718Y1849948D02*
Y1859945D01*
X2290716D01*
X2292383Y1858279D01*
Y1854946D01*
X2290716Y1853280D01*
X2285718D01*
X2289050D02*
X2292383Y1849948D01*
X2295715Y1858279D02*
X2297381Y1859945D01*
X2300713D01*
X2302379Y1858279D01*
Y1856613D01*
X2300713Y1854946D01*
X2299047D01*
X2300713D01*
X2302379Y1853280D01*
Y1851614D01*
X2300713Y1849948D01*
X2297381D01*
X2295715Y1851614D01*
X2305712Y1859945D02*
X2312376D01*
Y1858279D01*
X2305712Y1851614D01*
Y1849948D01*
X2285718Y2319848D02*
Y2329845D01*
X2290716D01*
X2292383Y2328179D01*
Y2324846D01*
X2290716Y2323180D01*
X2285718D01*
X2289050D02*
X2292383Y2319848D01*
X2295715Y2328179D02*
X2297381Y2329845D01*
X2300713D01*
X2302379Y2328179D01*
Y2326512D01*
X2300713Y2324846D01*
X2299047D01*
X2300713D01*
X2302379Y2323180D01*
Y2321514D01*
X2300713Y2319848D01*
X2297381D01*
X2295715Y2321514D01*
X2312376Y2329845D02*
X2309044Y2328179D01*
X2305712Y2324846D01*
Y2321514D01*
X2307378Y2319848D01*
X2310710D01*
X2312376Y2321514D01*
Y2323180D01*
X2310710Y2324846D01*
X2305712D01*
X2185670Y357886D02*
Y367883D01*
X2190668D01*
X2192334Y366217D01*
Y362884D01*
X2190668Y361218D01*
X2185670D01*
X2189002D02*
X2192334Y357886D01*
X2195667Y366217D02*
X2197333Y367883D01*
X2200665D01*
X2202331Y366217D01*
Y364551D01*
X2200665Y362884D01*
X2198999D01*
X2200665D01*
X2202331Y361218D01*
Y359552D01*
X2200665Y357886D01*
X2197333D01*
X2195667Y359552D01*
X2212328Y367883D02*
X2205664D01*
Y362884D01*
X2208996Y364551D01*
X2210662D01*
X2212328Y362884D01*
Y359552D01*
X2210662Y357886D01*
X2207330D01*
X2205664Y359552D01*
X1335000Y2000000D02*
X1344997D01*
Y1995002D01*
X1343331Y1993336D01*
X1339998D01*
X1338332Y1995002D01*
Y2000000D01*
Y1996668D02*
X1335000Y1993336D01*
X1343331Y1990003D02*
X1344997Y1988337D01*
Y1985005D01*
X1343331Y1983339D01*
X1341664D01*
X1339998Y1985005D01*
Y1986671D01*
Y1985005D01*
X1338332Y1983339D01*
X1336666D01*
X1335000Y1985005D01*
Y1988337D01*
X1336666Y1990003D01*
X1335000Y1975008D02*
X1344997D01*
X1339998Y1980006D01*
Y1973342D01*
X2285718Y1369888D02*
Y1379885D01*
X2290716D01*
X2292383Y1378219D01*
Y1374886D01*
X2290716Y1373220D01*
X2285718D01*
X2289050D02*
X2292383Y1369888D01*
X2295715Y1378219D02*
X2297381Y1379885D01*
X2300713D01*
X2302379Y1378219D01*
Y1376552D01*
X2300713Y1374886D01*
X2299047D01*
X2300713D01*
X2302379Y1373220D01*
Y1371554D01*
X2300713Y1369888D01*
X2297381D01*
X2295715Y1371554D01*
X2305712Y1378219D02*
X2307378Y1379885D01*
X2310710D01*
X2312376Y1378219D01*
Y1376552D01*
X2310710Y1374886D01*
X2309044D01*
X2310710D01*
X2312376Y1373220D01*
Y1371554D01*
X2310710Y1369888D01*
X2307378D01*
X2305712Y1371554D01*
X2285718Y1829882D02*
Y1839879D01*
X2290716D01*
X2292383Y1838213D01*
Y1834880D01*
X2290716Y1833214D01*
X2285718D01*
X2289050D02*
X2292383Y1829882D01*
X2295715Y1838213D02*
X2297381Y1839879D01*
X2300713D01*
X2302379Y1838213D01*
Y1836546D01*
X2300713Y1834880D01*
X2299047D01*
X2300713D01*
X2302379Y1833214D01*
Y1831548D01*
X2300713Y1829882D01*
X2297381D01*
X2295715Y1831548D01*
X2312376Y1829882D02*
X2305712D01*
X2312376Y1836546D01*
Y1838213D01*
X2310710Y1839879D01*
X2307378D01*
X2305712Y1838213D01*
X2285718Y2299782D02*
Y2309779D01*
X2290716D01*
X2292383Y2308113D01*
Y2304780D01*
X2290716Y2303114D01*
X2285718D01*
X2289050D02*
X2292383Y2299782D01*
X2295715Y2308113D02*
X2297381Y2309779D01*
X2300713D01*
X2302379Y2308113D01*
Y2306447D01*
X2300713Y2304780D01*
X2299047D01*
X2300713D01*
X2302379Y2303114D01*
Y2301448D01*
X2300713Y2299782D01*
X2297381D01*
X2295715Y2301448D01*
X2305712Y2299782D02*
X2309044D01*
X2307378D01*
Y2309779D01*
X2305712Y2308113D01*
X1295000Y2000000D02*
X1304997D01*
Y1995002D01*
X1303331Y1993336D01*
X1299998D01*
X1298332Y1995002D01*
Y2000000D01*
Y1996668D02*
X1295000Y1993336D01*
X1303331Y1990003D02*
X1304997Y1988337D01*
Y1985005D01*
X1303331Y1983339D01*
X1301664D01*
X1299998Y1985005D01*
Y1986671D01*
Y1985005D01*
X1298332Y1983339D01*
X1296666D01*
X1295000Y1985005D01*
Y1988337D01*
X1296666Y1990003D01*
X1303331Y1980006D02*
X1304997Y1978340D01*
Y1975008D01*
X1303331Y1973342D01*
X1296666D01*
X1295000Y1975008D01*
Y1978340D01*
X1296666Y1980006D01*
X1303331D01*
X2285718Y1349822D02*
Y1359819D01*
X2290716D01*
X2292383Y1358153D01*
Y1354820D01*
X2290716Y1353154D01*
X2285718D01*
X2289050D02*
X2292383Y1349822D01*
X2302379D02*
X2295715D01*
X2302379Y1356487D01*
Y1358153D01*
X2300713Y1359819D01*
X2297381D01*
X2295715Y1358153D01*
X2305712Y1351488D02*
X2307378Y1349822D01*
X2310710D01*
X2312376Y1351488D01*
Y1358153D01*
X2310710Y1359819D01*
X2307378D01*
X2305712Y1358153D01*
Y1356487D01*
X2307378Y1354820D01*
X2312376D01*
X2285718Y1809816D02*
Y1819813D01*
X2290716D01*
X2292383Y1818147D01*
Y1814814D01*
X2290716Y1813148D01*
X2285718D01*
X2289050D02*
X2292383Y1809816D01*
X2302379D02*
X2295715D01*
X2302379Y1816481D01*
Y1818147D01*
X2300713Y1819813D01*
X2297381D01*
X2295715Y1818147D01*
X2305712D02*
X2307378Y1819813D01*
X2310710D01*
X2312376Y1818147D01*
Y1816481D01*
X2310710Y1814814D01*
X2312376Y1813148D01*
Y1811482D01*
X2310710Y1809816D01*
X2307378D01*
X2305712Y1811482D01*
Y1813148D01*
X2307378Y1814814D01*
X2305712Y1816481D01*
Y1818147D01*
X2307378Y1814814D02*
X2310710D01*
X2285718Y2279716D02*
Y2289713D01*
X2290716D01*
X2292383Y2288047D01*
Y2284714D01*
X2290716Y2283048D01*
X2285718D01*
X2289050D02*
X2292383Y2279716D01*
X2302379D02*
X2295715D01*
X2302379Y2286380D01*
Y2288047D01*
X2300713Y2289713D01*
X2297381D01*
X2295715Y2288047D01*
X2305712Y2289713D02*
X2312376D01*
Y2288047D01*
X2305712Y2281382D01*
Y2279716D01*
X1405000Y2060000D02*
X1414997D01*
Y2055002D01*
X1413331Y2053336D01*
X1409998D01*
X1408332Y2055002D01*
Y2060000D01*
Y2056668D02*
X1405000Y2053336D01*
Y2043339D02*
Y2050003D01*
X1411664Y2043339D01*
X1413331D01*
X1414997Y2045005D01*
Y2048337D01*
X1413331Y2050003D01*
X1414997Y2033342D02*
X1413331Y2036674D01*
X1409998Y2040006D01*
X1406666D01*
X1405000Y2038340D01*
Y2035008D01*
X1406666Y2033342D01*
X1408332D01*
X1409998Y2035008D01*
Y2040006D01*
X2285718Y1329756D02*
Y1339753D01*
X2290716D01*
X2292383Y1338087D01*
Y1334754D01*
X2290716Y1333088D01*
X2285718D01*
X2289050D02*
X2292383Y1329756D01*
X2302379D02*
X2295715D01*
X2302379Y1336420D01*
Y1338087D01*
X2300713Y1339753D01*
X2297381D01*
X2295715Y1338087D01*
X2312376Y1339753D02*
X2305712D01*
Y1334754D01*
X2309044Y1336420D01*
X2310710D01*
X2312376Y1334754D01*
Y1331422D01*
X2310710Y1329756D01*
X2307378D01*
X2305712Y1331422D01*
X2285718Y1789750D02*
Y1799747D01*
X2290716D01*
X2292383Y1798081D01*
Y1794748D01*
X2290716Y1793082D01*
X2285718D01*
X2289050D02*
X2292383Y1789750D01*
X2302379D02*
X2295715D01*
X2302379Y1796414D01*
Y1798081D01*
X2300713Y1799747D01*
X2297381D01*
X2295715Y1798081D01*
X2310710Y1789750D02*
Y1799747D01*
X2305712Y1794748D01*
X2312376D01*
X2285718Y2259904D02*
Y2269901D01*
X2290716D01*
X2292383Y2268235D01*
Y2264902D01*
X2290716Y2263236D01*
X2285718D01*
X2289050D02*
X2292383Y2259904D01*
X2302379D02*
X2295715D01*
X2302379Y2266568D01*
Y2268235D01*
X2300713Y2269901D01*
X2297381D01*
X2295715Y2268235D01*
X2305712D02*
X2307378Y2269901D01*
X2310710D01*
X2312376Y2268235D01*
Y2266568D01*
X2310710Y2264902D01*
X2309044D01*
X2310710D01*
X2312376Y2263236D01*
Y2261570D01*
X2310710Y2259904D01*
X2307378D01*
X2305712Y2261570D01*
X1180000Y2095000D02*
Y2104997D01*
X1184998D01*
X1186665Y2103331D01*
Y2099998D01*
X1184998Y2098332D01*
X1180000D01*
X1183332D02*
X1186665Y2095000D01*
X1196661D02*
X1189997D01*
X1196661Y2101664D01*
Y2103331D01*
X1194995Y2104997D01*
X1191663D01*
X1189997Y2103331D01*
X1206658Y2095000D02*
X1199994D01*
X1206658Y2101664D01*
Y2103331D01*
X1204992Y2104997D01*
X1201660D01*
X1199994Y2103331D01*
X1180000Y2075000D02*
Y2084997D01*
X1184998D01*
X1186665Y2083331D01*
Y2079998D01*
X1184998Y2078332D01*
X1180000D01*
X1183332D02*
X1186665Y2075000D01*
X1196661D02*
X1189997D01*
X1196661Y2081664D01*
Y2083331D01*
X1194995Y2084997D01*
X1191663D01*
X1189997Y2083331D01*
X1199994Y2075000D02*
X1203326D01*
X1201660D01*
Y2084997D01*
X1199994Y2083331D01*
X1405000Y2170000D02*
X1414997D01*
Y2165002D01*
X1413331Y2163336D01*
X1409998D01*
X1408332Y2165002D01*
Y2170000D01*
Y2166668D02*
X1405000Y2163336D01*
Y2153339D02*
Y2160003D01*
X1411664Y2153339D01*
X1413331D01*
X1414997Y2155005D01*
Y2158337D01*
X1413331Y2160003D01*
Y2150006D02*
X1414997Y2148340D01*
Y2145008D01*
X1413331Y2143342D01*
X1406666D01*
X1405000Y2145008D01*
Y2148340D01*
X1406666Y2150006D01*
X1413331D01*
X2285718Y1309944D02*
Y1319941D01*
X2290716D01*
X2292383Y1318275D01*
Y1314942D01*
X2290716Y1313276D01*
X2285718D01*
X2289050D02*
X2292383Y1309944D01*
X2295715D02*
X2299047D01*
X2297381D01*
Y1319941D01*
X2295715Y1318275D01*
X2304045Y1311610D02*
X2305712Y1309944D01*
X2309044D01*
X2310710Y1311610D01*
Y1318275D01*
X2309044Y1319941D01*
X2305712D01*
X2304045Y1318275D01*
Y1316608D01*
X2305712Y1314942D01*
X2310710D01*
X2285718Y1769938D02*
Y1779935D01*
X2290716D01*
X2292383Y1778269D01*
Y1774936D01*
X2290716Y1773270D01*
X2285718D01*
X2289050D02*
X2292383Y1769938D01*
X2295715D02*
X2299047D01*
X2297381D01*
Y1779935D01*
X2295715Y1778269D01*
X2304045D02*
X2305712Y1779935D01*
X2309044D01*
X2310710Y1778269D01*
Y1776602D01*
X2309044Y1774936D01*
X2310710Y1773270D01*
Y1771604D01*
X2309044Y1769938D01*
X2305712D01*
X2304045Y1771604D01*
Y1773270D01*
X2305712Y1774936D01*
X2304045Y1776602D01*
Y1778269D01*
X2305712Y1774936D02*
X2309044D01*
X2285718Y2239838D02*
Y2249835D01*
X2290716D01*
X2292383Y2248169D01*
Y2244836D01*
X2290716Y2243170D01*
X2285718D01*
X2289050D02*
X2292383Y2239838D01*
X2295715D02*
X2299047D01*
X2297381D01*
Y2249835D01*
X2295715Y2248169D01*
X2304045Y2249835D02*
X2310710D01*
Y2248169D01*
X2304045Y2241504D01*
Y2239838D01*
X2285718Y1289878D02*
Y1299875D01*
X2290716D01*
X2292383Y1298209D01*
Y1294876D01*
X2290716Y1293210D01*
X2285718D01*
X2289050D02*
X2292383Y1289878D01*
X2295715D02*
X2299047D01*
X2297381D01*
Y1299875D01*
X2295715Y1298209D01*
X2310710Y1299875D02*
X2307378Y1298209D01*
X2304045Y1294876D01*
Y1291544D01*
X2305712Y1289878D01*
X2309044D01*
X2310710Y1291544D01*
Y1293210D01*
X2309044Y1294876D01*
X2304045D01*
X2285718Y1749872D02*
Y1759869D01*
X2290716D01*
X2292383Y1758203D01*
Y1754870D01*
X2290716Y1753204D01*
X2285718D01*
X2289050D02*
X2292383Y1749872D01*
X2295715D02*
X2299047D01*
X2297381D01*
Y1759869D01*
X2295715Y1758203D01*
X2310710Y1759869D02*
X2304045D01*
Y1754870D01*
X2307378Y1756537D01*
X2309044D01*
X2310710Y1754870D01*
Y1751538D01*
X2309044Y1749872D01*
X2305712D01*
X2304045Y1751538D01*
X2285718Y2219772D02*
Y2229769D01*
X2290716D01*
X2292383Y2228103D01*
Y2224770D01*
X2290716Y2223104D01*
X2285718D01*
X2289050D02*
X2292383Y2219772D01*
X2295715D02*
X2299047D01*
X2297381D01*
Y2229769D01*
X2295715Y2228103D01*
X2309044Y2219772D02*
Y2229769D01*
X2304045Y2224770D01*
X2310710D01*
X1560000Y1050000D02*
X1569997D01*
Y1045002D01*
X1568331Y1043335D01*
X1564998D01*
X1563332Y1045002D01*
Y1050000D01*
Y1046668D02*
X1560000Y1043335D01*
Y1040003D02*
Y1036671D01*
Y1038337D01*
X1569997D01*
X1568331Y1040003D01*
Y1031673D02*
X1569997Y1030006D01*
Y1026674D01*
X1568331Y1025008D01*
X1566664D01*
X1564998Y1026674D01*
Y1028340D01*
Y1026674D01*
X1563332Y1025008D01*
X1561666D01*
X1560000Y1026674D01*
Y1030006D01*
X1561666Y1031673D01*
X1430000Y1050000D02*
X1439997D01*
Y1045002D01*
X1438331Y1043335D01*
X1434998D01*
X1433332Y1045002D01*
Y1050000D01*
Y1046668D02*
X1430000Y1043335D01*
Y1040003D02*
Y1036671D01*
Y1038337D01*
X1439997D01*
X1438331Y1040003D01*
X1430000Y1025008D02*
Y1031673D01*
X1436664Y1025008D01*
X1438331D01*
X1439997Y1026674D01*
Y1030006D01*
X1438331Y1031673D01*
X1560000Y1510000D02*
X1569997D01*
Y1505002D01*
X1568331Y1503336D01*
X1564998D01*
X1563332Y1505002D01*
Y1510000D01*
Y1506668D02*
X1560000Y1503336D01*
Y1500003D02*
Y1496671D01*
Y1498337D01*
X1569997D01*
X1568331Y1500003D01*
X1560000Y1491673D02*
Y1488340D01*
Y1490006D01*
X1569997D01*
X1568331Y1491673D01*
X1420000Y1510000D02*
X1429997D01*
Y1505002D01*
X1428331Y1503336D01*
X1424998D01*
X1423332Y1505002D01*
Y1510000D01*
Y1506668D02*
X1420000Y1503336D01*
Y1500003D02*
Y1496671D01*
Y1498337D01*
X1429997D01*
X1428331Y1500003D01*
Y1491673D02*
X1429997Y1490006D01*
Y1486674D01*
X1428331Y1485008D01*
X1421666D01*
X1420000Y1486674D01*
Y1490006D01*
X1421666Y1491673D01*
X1428331D01*
X1560000Y1970000D02*
X1569997D01*
Y1965002D01*
X1568331Y1963336D01*
X1564998D01*
X1563332Y1965002D01*
Y1970000D01*
Y1966668D02*
X1560000Y1963336D01*
X1561666Y1960003D02*
X1560000Y1958337D01*
Y1955005D01*
X1561666Y1953339D01*
X1568331D01*
X1569997Y1955005D01*
Y1958337D01*
X1568331Y1960003D01*
X1566664D01*
X1564998Y1958337D01*
Y1953339D01*
X1420000Y1970000D02*
X1429997D01*
Y1965002D01*
X1428331Y1963336D01*
X1424998D01*
X1423332Y1965002D01*
Y1970000D01*
Y1966668D02*
X1420000Y1963336D01*
X1428331Y1960003D02*
X1429997Y1958337D01*
Y1955005D01*
X1428331Y1953339D01*
X1426664D01*
X1424998Y1955005D01*
X1423332Y1953339D01*
X1421666D01*
X1420000Y1955005D01*
Y1958337D01*
X1421666Y1960003D01*
X1423332D01*
X1424998Y1958337D01*
X1426664Y1960003D01*
X1428331D01*
X1424998Y1958337D02*
Y1955005D01*
X1290000Y2160000D02*
X1299997D01*
Y2155002D01*
X1298331Y2153336D01*
X1294998D01*
X1293332Y2155002D01*
Y2160000D01*
Y2156668D02*
X1290000Y2153336D01*
X1299997Y2150003D02*
Y2143339D01*
X1298331D01*
X1291666Y2150003D01*
X1290000D01*
X1560000Y1280000D02*
X1569997D01*
Y1275002D01*
X1568331Y1273335D01*
X1564998D01*
X1563332Y1275002D01*
Y1280000D01*
Y1276668D02*
X1560000Y1273335D01*
X1569997Y1263339D02*
X1568331Y1266671D01*
X1564998Y1270003D01*
X1561666D01*
X1560000Y1268337D01*
Y1265005D01*
X1561666Y1263339D01*
X1563332D01*
X1564998Y1265005D01*
Y1270003D01*
X1435000Y1240000D02*
Y1249997D01*
X1439998D01*
X1441664Y1248331D01*
Y1244998D01*
X1439998Y1243332D01*
X1435000D01*
X1438332D02*
X1441664Y1240000D01*
X1451661Y1249997D02*
X1444997D01*
Y1244998D01*
X1448329Y1246665D01*
X1449995D01*
X1451661Y1244998D01*
Y1241666D01*
X1449995Y1240000D01*
X1446663D01*
X1444997Y1241666D01*
X1560000Y1735000D02*
X1569997D01*
Y1730002D01*
X1568331Y1728336D01*
X1564998D01*
X1563332Y1730002D01*
Y1735000D01*
Y1731668D02*
X1560000Y1728336D01*
Y1720005D02*
X1569997D01*
X1564998Y1725003D01*
Y1718339D01*
X1435000Y1700000D02*
Y1709997D01*
X1439998D01*
X1441664Y1708331D01*
Y1704998D01*
X1439998Y1703332D01*
X1435000D01*
X1438332D02*
X1441664Y1700000D01*
X1444997Y1708331D02*
X1446663Y1709997D01*
X1449995D01*
X1451661Y1708331D01*
Y1706664D01*
X1449995Y1704998D01*
X1448329D01*
X1449995D01*
X1451661Y1703332D01*
Y1701666D01*
X1449995Y1700000D01*
X1446663D01*
X1444997Y1701666D01*
X1435000Y2160000D02*
Y2169997D01*
X1439998D01*
X1441664Y2168331D01*
Y2164998D01*
X1439998Y2163332D01*
X1435000D01*
X1438332D02*
X1441664Y2160000D01*
X1444997D02*
X1448329D01*
X1446663D01*
Y2169997D01*
X1444997Y2168331D01*
X3520000Y864997D02*
Y855000D01*
X3524998D01*
X3526664Y856666D01*
Y863331D01*
X3524998Y864997D01*
X3520000D01*
X3529997Y855000D02*
X3533329D01*
X3531663D01*
Y864997D01*
X3529997Y863331D01*
X3543326Y855000D02*
Y864997D01*
X3538327Y859998D01*
X3544992D01*
X1324997Y1100000D02*
X1315000D01*
Y1095002D01*
X1316666Y1093335D01*
X1323331D01*
X1324997Y1095002D01*
Y1100000D01*
X1315000Y1090003D02*
Y1086671D01*
Y1088337D01*
X1324997D01*
X1323331Y1090003D01*
Y1081673D02*
X1324997Y1080006D01*
Y1076674D01*
X1323331Y1075008D01*
X1321664D01*
X1319998Y1076674D01*
Y1078340D01*
Y1076674D01*
X1318332Y1075008D01*
X1316666D01*
X1315000Y1076674D01*
Y1080006D01*
X1316666Y1081673D01*
X2085000Y624997D02*
Y615000D01*
X2089998D01*
X2091664Y616666D01*
Y623331D01*
X2089998Y624997D01*
X2085000D01*
X2094997Y615000D02*
X2098329D01*
X2096663D01*
Y624997D01*
X2094997Y623331D01*
X2109992Y615000D02*
X2103327D01*
X2109992Y621665D01*
Y623331D01*
X2108326Y624997D01*
X2104994D01*
X2103327Y623331D01*
X1254997Y1225000D02*
X1245000D01*
Y1220002D01*
X1246666Y1218335D01*
X1253331D01*
X1254997Y1220002D01*
Y1225000D01*
X1245000Y1215003D02*
Y1211671D01*
Y1213337D01*
X1254997D01*
X1253331Y1215003D01*
X1245000Y1206673D02*
Y1203340D01*
Y1205006D01*
X1254997D01*
X1253331Y1206673D01*
X1399997Y1264000D02*
X1390000D01*
Y1259002D01*
X1391666Y1257336D01*
X1398331D01*
X1399997Y1259002D01*
Y1264000D01*
X1390000Y1254003D02*
Y1250671D01*
Y1252337D01*
X1399997D01*
X1398331Y1254003D01*
Y1245673D02*
X1399997Y1244007D01*
Y1240674D01*
X1398331Y1239008D01*
X1391666D01*
X1390000Y1240674D01*
Y1244007D01*
X1391666Y1245673D01*
X1398331D01*
X1330000Y1249997D02*
Y1240000D01*
X1334998D01*
X1336664Y1241666D01*
Y1248331D01*
X1334998Y1249997D01*
X1330000D01*
X1339997Y1241666D02*
X1341663Y1240000D01*
X1344995D01*
X1346661Y1241666D01*
Y1248331D01*
X1344995Y1249997D01*
X1341663D01*
X1339997Y1248331D01*
Y1246665D01*
X1341663Y1244998D01*
X1346661D01*
X1324997Y1540000D02*
X1315000D01*
Y1535002D01*
X1316666Y1533336D01*
X1323331D01*
X1324997Y1535002D01*
Y1540000D01*
X1323331Y1530003D02*
X1324997Y1528337D01*
Y1525005D01*
X1323331Y1523339D01*
X1321664D01*
X1319998Y1525005D01*
X1318332Y1523339D01*
X1316666D01*
X1315000Y1525005D01*
Y1528337D01*
X1316666Y1530003D01*
X1318332D01*
X1319998Y1528337D01*
X1321664Y1530003D01*
X1323331D01*
X1319998Y1528337D02*
Y1525005D01*
X1254997Y1665000D02*
X1245000D01*
Y1660002D01*
X1246666Y1658336D01*
X1253331D01*
X1254997Y1660002D01*
Y1665000D01*
Y1655003D02*
Y1648339D01*
X1253331D01*
X1246666Y1655003D01*
X1245000D01*
X1394997Y1705000D02*
X1385000D01*
Y1700002D01*
X1386666Y1698336D01*
X1393331D01*
X1394997Y1700002D01*
Y1705000D01*
Y1688339D02*
X1393331Y1691671D01*
X1389998Y1695003D01*
X1386666D01*
X1385000Y1693337D01*
Y1690005D01*
X1386666Y1688339D01*
X1388332D01*
X1389998Y1690005D01*
Y1695003D01*
X1335000Y1694997D02*
Y1685000D01*
X1339998D01*
X1341664Y1686666D01*
Y1693331D01*
X1339998Y1694997D01*
X1335000D01*
X1351661D02*
X1344997D01*
Y1689998D01*
X1348329Y1691664D01*
X1349995D01*
X1351661Y1689998D01*
Y1686666D01*
X1349995Y1685000D01*
X1346663D01*
X1344997Y1686666D01*
X1324997Y2000000D02*
X1315000D01*
Y1995002D01*
X1316666Y1993336D01*
X1323331D01*
X1324997Y1995002D01*
Y2000000D01*
X1315000Y1985005D02*
X1324997D01*
X1319998Y1990003D01*
Y1983339D01*
X1254997Y2130000D02*
X1245000D01*
Y2125002D01*
X1246666Y2123336D01*
X1253331D01*
X1254997Y2125002D01*
Y2130000D01*
X1253331Y2120003D02*
X1254997Y2118337D01*
Y2115005D01*
X1253331Y2113339D01*
X1251665D01*
X1249998Y2115005D01*
Y2116671D01*
Y2115005D01*
X1248332Y2113339D01*
X1246666D01*
X1245000Y2115005D01*
Y2118337D01*
X1246666Y2120003D01*
X1394997Y2160000D02*
X1385000D01*
Y2155002D01*
X1386666Y2153336D01*
X1393331D01*
X1394997Y2155002D01*
Y2160000D01*
X1385000Y2143339D02*
Y2150003D01*
X1391664Y2143339D01*
X1393331D01*
X1394997Y2145005D01*
Y2148337D01*
X1393331Y2150003D01*
X1335000Y2154997D02*
Y2145000D01*
X1339998D01*
X1341664Y2146666D01*
Y2153331D01*
X1339998Y2154997D01*
X1335000D01*
X1344997Y2145000D02*
X1348329D01*
X1346663D01*
Y2154997D01*
X1344997Y2153331D01*
X3531664Y623331D02*
X3529998Y624997D01*
X3526666D01*
X3525000Y623331D01*
Y616666D01*
X3526666Y615000D01*
X3529998D01*
X3531664Y616666D01*
X3539995Y615000D02*
Y624997D01*
X3534997Y619998D01*
X3541661D01*
X3544994Y624997D02*
X3551658D01*
Y623331D01*
X3544994Y616666D01*
Y615000D01*
X3451664Y623331D02*
X3449998Y624997D01*
X3446666D01*
X3445000Y623331D01*
Y616666D01*
X3446666Y615000D01*
X3449998D01*
X3451664Y616666D01*
X3459995Y615000D02*
Y624997D01*
X3454997Y619998D01*
X3461661D01*
X3471658Y624997D02*
X3468326Y623331D01*
X3464994Y619998D01*
Y616666D01*
X3466660Y615000D01*
X3469992D01*
X3471658Y616666D01*
Y618332D01*
X3469992Y619998D01*
X3464994D01*
X3366664Y623331D02*
X3364998Y624997D01*
X3361666D01*
X3360000Y623331D01*
Y616666D01*
X3361666Y615000D01*
X3364998D01*
X3366664Y616666D01*
X3374995Y615000D02*
Y624997D01*
X3369997Y619998D01*
X3376661D01*
X3386658Y624997D02*
X3379994D01*
Y619998D01*
X3383326Y621665D01*
X3384992D01*
X3386658Y619998D01*
Y616666D01*
X3384992Y615000D01*
X3381660D01*
X3379994Y616666D01*
X2246664Y668331D02*
X2244998Y669997D01*
X2241666D01*
X2240000Y668331D01*
Y661666D01*
X2241666Y660000D01*
X2244998D01*
X2246664Y661666D01*
X2254995Y660000D02*
Y669997D01*
X2249997Y664998D01*
X2256661D01*
X2264992Y660000D02*
Y669997D01*
X2259993Y664998D01*
X2266658D01*
X2288331Y783335D02*
X2289997Y785002D01*
Y788334D01*
X2288331Y790000D01*
X2281666D01*
X2280000Y788334D01*
Y785002D01*
X2281666Y783335D01*
X2280000Y775005D02*
X2289997D01*
X2284998Y780003D01*
Y773339D01*
X2288331Y770006D02*
X2289997Y768340D01*
Y765008D01*
X2288331Y763342D01*
X2286664D01*
X2284998Y765008D01*
Y766674D01*
Y765008D01*
X2283332Y763342D01*
X2281666D01*
X2280000Y765008D01*
Y768340D01*
X2281666Y770006D01*
X2193331Y563335D02*
X2194997Y565002D01*
Y568334D01*
X2193331Y570000D01*
X2186666D01*
X2185000Y568334D01*
Y565002D01*
X2186666Y563335D01*
X2185000Y555005D02*
X2194997D01*
X2189998Y560003D01*
Y553339D01*
X2185000Y543342D02*
Y550006D01*
X2191664Y543342D01*
X2193331D01*
X2194997Y545008D01*
Y548340D01*
X2193331Y550006D01*
X1363331Y1093335D02*
X1364997Y1095002D01*
Y1098334D01*
X1363331Y1100000D01*
X1356666D01*
X1355000Y1098334D01*
Y1095002D01*
X1356666Y1093335D01*
X1355000Y1085005D02*
X1364997D01*
X1359998Y1090003D01*
Y1083339D01*
X1355000Y1080006D02*
Y1076674D01*
Y1078340D01*
X1364997D01*
X1363331Y1080006D01*
X1393331Y1093335D02*
X1394997Y1095002D01*
Y1098334D01*
X1393331Y1100000D01*
X1386666D01*
X1385000Y1098334D01*
Y1095002D01*
X1386666Y1093335D01*
X1385000Y1085005D02*
X1394997D01*
X1389998Y1090003D01*
Y1083339D01*
X1393331Y1080006D02*
X1394997Y1078340D01*
Y1075008D01*
X1393331Y1073342D01*
X1386666D01*
X1385000Y1075008D01*
Y1078340D01*
X1386666Y1080006D01*
X1393331D01*
X1363331Y1523336D02*
X1364997Y1525002D01*
Y1528334D01*
X1363331Y1530000D01*
X1356666D01*
X1355000Y1528334D01*
Y1525002D01*
X1356666Y1523336D01*
X1363331Y1520003D02*
X1364997Y1518337D01*
Y1515005D01*
X1363331Y1513339D01*
X1361664D01*
X1359998Y1515005D01*
Y1516671D01*
Y1515005D01*
X1358332Y1513339D01*
X1356666D01*
X1355000Y1515005D01*
Y1518337D01*
X1356666Y1520003D01*
X1363331Y1510006D02*
X1364997Y1508340D01*
Y1505008D01*
X1363331Y1503342D01*
X1361664D01*
X1359998Y1505008D01*
X1358332Y1503342D01*
X1356666D01*
X1355000Y1505008D01*
Y1508340D01*
X1356666Y1510006D01*
X1358332D01*
X1359998Y1508340D01*
X1361664Y1510006D01*
X1363331D01*
X1359998Y1508340D02*
Y1505008D01*
X1383331Y1523336D02*
X1384997Y1525002D01*
Y1528334D01*
X1383331Y1530000D01*
X1376666D01*
X1375000Y1528334D01*
Y1525002D01*
X1376666Y1523336D01*
X1383331Y1520003D02*
X1384997Y1518337D01*
Y1515005D01*
X1383331Y1513339D01*
X1381664D01*
X1379998Y1515005D01*
Y1516671D01*
Y1515005D01*
X1378332Y1513339D01*
X1376666D01*
X1375000Y1515005D01*
Y1518337D01*
X1376666Y1520003D01*
X1384997Y1510006D02*
Y1503342D01*
X1383331D01*
X1376666Y1510006D01*
X1375000D01*
X2343331Y993335D02*
X2344997Y995002D01*
Y998334D01*
X2343331Y1000000D01*
X2336666D01*
X2335000Y998334D01*
Y995002D01*
X2336666Y993335D01*
X2343331Y990003D02*
X2344997Y988337D01*
Y985005D01*
X2343331Y983339D01*
X2341664D01*
X2339998Y985005D01*
Y986671D01*
Y985005D01*
X2338332Y983339D01*
X2336666D01*
X2335000Y985005D01*
Y988337D01*
X2336666Y990003D01*
X2344997Y973342D02*
X2343331Y976674D01*
X2339998Y980006D01*
X2336666D01*
X2335000Y978340D01*
Y975008D01*
X2336666Y973342D01*
X2338332D01*
X2339998Y975008D01*
Y980006D01*
X2328331Y1433336D02*
X2329997Y1435002D01*
Y1438334D01*
X2328331Y1440000D01*
X2321666D01*
X2320000Y1438334D01*
Y1435002D01*
X2321666Y1433336D01*
X2328331Y1430003D02*
X2329997Y1428337D01*
Y1425005D01*
X2328331Y1423339D01*
X2326664D01*
X2324998Y1425005D01*
Y1426671D01*
Y1425005D01*
X2323332Y1423339D01*
X2321666D01*
X2320000Y1425005D01*
Y1428337D01*
X2321666Y1430003D01*
X2329997Y1413342D02*
Y1420006D01*
X2324998D01*
X2326664Y1416674D01*
Y1415008D01*
X2324998Y1413342D01*
X2321666D01*
X2320000Y1415008D01*
Y1418340D01*
X2321666Y1420006D01*
X2328331Y1893336D02*
X2329997Y1895002D01*
Y1898334D01*
X2328331Y1900000D01*
X2321666D01*
X2320000Y1898334D01*
Y1895002D01*
X2321666Y1893336D01*
X2328331Y1890003D02*
X2329997Y1888337D01*
Y1885005D01*
X2328331Y1883339D01*
X2326664D01*
X2324998Y1885005D01*
Y1886671D01*
Y1885005D01*
X2323332Y1883339D01*
X2321666D01*
X2320000Y1885005D01*
Y1888337D01*
X2321666Y1890003D01*
X2320000Y1875008D02*
X2329997D01*
X2324998Y1880007D01*
Y1873342D01*
X1393331Y1593336D02*
X1394997Y1595002D01*
Y1598334D01*
X1393331Y1600000D01*
X1386666D01*
X1385000Y1598334D01*
Y1595002D01*
X1386666Y1593336D01*
X1393331Y1590003D02*
X1394997Y1588337D01*
Y1585005D01*
X1393331Y1583339D01*
X1391664D01*
X1389998Y1585005D01*
Y1586671D01*
Y1585005D01*
X1388332Y1583339D01*
X1386666D01*
X1385000Y1585005D01*
Y1588337D01*
X1386666Y1590003D01*
X1393331Y1580006D02*
X1394997Y1578340D01*
Y1575008D01*
X1393331Y1573342D01*
X1391664D01*
X1389998Y1575008D01*
Y1576674D01*
Y1575008D01*
X1388332Y1573342D01*
X1386666D01*
X1385000Y1575008D01*
Y1578340D01*
X1386666Y1580006D01*
X2461664Y818331D02*
X2459998Y819997D01*
X2456666D01*
X2455000Y818331D01*
Y811666D01*
X2456666Y810000D01*
X2459998D01*
X2461664Y811666D01*
X2464997Y818331D02*
X2466663Y819997D01*
X2469995D01*
X2471661Y818331D01*
Y816665D01*
X2469995Y814998D01*
X2468329D01*
X2469995D01*
X2471661Y813332D01*
Y811666D01*
X2469995Y810000D01*
X2466663D01*
X2464997Y811666D01*
X2481658Y810000D02*
X2474994D01*
X2481658Y816665D01*
Y818331D01*
X2479992Y819997D01*
X2476660D01*
X2474994Y818331D01*
X2461664Y898331D02*
X2459998Y899997D01*
X2456666D01*
X2455000Y898331D01*
Y891666D01*
X2456666Y890000D01*
X2459998D01*
X2461664Y891666D01*
X2464997Y898331D02*
X2466663Y899997D01*
X2469995D01*
X2471661Y898331D01*
Y896665D01*
X2469995Y894998D01*
X2468329D01*
X2469995D01*
X2471661Y893332D01*
Y891666D01*
X2469995Y890000D01*
X2466663D01*
X2464997Y891666D01*
X2474994Y890000D02*
X2478326D01*
X2476660D01*
Y899997D01*
X2474994Y898331D01*
X2421664Y983331D02*
X2419998Y984997D01*
X2416666D01*
X2415000Y983331D01*
Y976666D01*
X2416666Y975000D01*
X2419998D01*
X2421664Y976666D01*
X2424997Y983331D02*
X2426663Y984997D01*
X2429995D01*
X2431661Y983331D01*
Y981665D01*
X2429995Y979998D01*
X2428329D01*
X2429995D01*
X2431661Y978332D01*
Y976666D01*
X2429995Y975000D01*
X2426663D01*
X2424997Y976666D01*
X2434994Y983331D02*
X2436660Y984997D01*
X2439992D01*
X2441658Y983331D01*
Y976666D01*
X2439992Y975000D01*
X2436660D01*
X2434994Y976666D01*
Y983331D01*
X2266664Y1028331D02*
X2264998Y1029997D01*
X2261666D01*
X2260000Y1028331D01*
Y1021666D01*
X2261666Y1020000D01*
X2264998D01*
X2266664Y1021666D01*
X2276661Y1020000D02*
X2269997D01*
X2276661Y1026665D01*
Y1028331D01*
X2274995Y1029997D01*
X2271663D01*
X2269997Y1028331D01*
X2279994Y1021666D02*
X2281660Y1020000D01*
X2284992D01*
X2286658Y1021666D01*
Y1028331D01*
X2284992Y1029997D01*
X2281660D01*
X2279994Y1028331D01*
Y1026665D01*
X2281660Y1024998D01*
X2286658D01*
X2303331Y1433336D02*
X2304997Y1435002D01*
Y1438334D01*
X2303331Y1440000D01*
X2296666D01*
X2295000Y1438334D01*
Y1435002D01*
X2296666Y1433336D01*
X2295000Y1423339D02*
Y1430003D01*
X2301664Y1423339D01*
X2303331D01*
X2304997Y1425005D01*
Y1428337D01*
X2303331Y1430003D01*
Y1420006D02*
X2304997Y1418340D01*
Y1415008D01*
X2303331Y1413342D01*
X2301664D01*
X2299998Y1415008D01*
X2298332Y1413342D01*
X2296666D01*
X2295000Y1415008D01*
Y1418340D01*
X2296666Y1420006D01*
X2298332D01*
X2299998Y1418340D01*
X2301664Y1420006D01*
X2303331D01*
X2299998Y1418340D02*
Y1415008D01*
X2303331Y1893336D02*
X2304997Y1895002D01*
Y1898334D01*
X2303331Y1900000D01*
X2296666D01*
X2295000Y1898334D01*
Y1895002D01*
X2296666Y1893336D01*
X2295000Y1883339D02*
Y1890003D01*
X2301664Y1883339D01*
X2303331D01*
X2304997Y1885005D01*
Y1888337D01*
X2303331Y1890003D01*
X2304997Y1880007D02*
Y1873342D01*
X2303331D01*
X2296666Y1880007D01*
X2295000D01*
X2393331Y1028335D02*
X2394997Y1030002D01*
Y1033334D01*
X2393331Y1035000D01*
X2386666D01*
X2385000Y1033334D01*
Y1030002D01*
X2386666Y1028335D01*
X2385000Y1018339D02*
Y1025003D01*
X2391664Y1018339D01*
X2393331D01*
X2394997Y1020005D01*
Y1023337D01*
X2393331Y1025003D01*
X2394997Y1008342D02*
X2393331Y1011674D01*
X2389998Y1015006D01*
X2386666D01*
X2385000Y1013340D01*
Y1010008D01*
X2386666Y1008342D01*
X2388332D01*
X2389998Y1010008D01*
Y1015006D01*
X2358331Y993335D02*
X2359997Y995002D01*
Y998334D01*
X2358331Y1000000D01*
X2351666D01*
X2350000Y998334D01*
Y995002D01*
X2351666Y993335D01*
X2350000Y983339D02*
Y990003D01*
X2356664Y983339D01*
X2358331D01*
X2359997Y985005D01*
Y988337D01*
X2358331Y990003D01*
X2359997Y973342D02*
Y980006D01*
X2354998D01*
X2356664Y976674D01*
Y975008D01*
X2354998Y973342D01*
X2351666D01*
X2350000Y975008D01*
Y978340D01*
X2351666Y980006D01*
X2353331Y1433336D02*
X2354997Y1435002D01*
Y1438334D01*
X2353331Y1440000D01*
X2346666D01*
X2345000Y1438334D01*
Y1435002D01*
X2346666Y1433336D01*
X2345000Y1423339D02*
Y1430003D01*
X2351664Y1423339D01*
X2353331D01*
X2354997Y1425005D01*
Y1428337D01*
X2353331Y1430003D01*
X2345000Y1415008D02*
X2354997D01*
X2349998Y1420006D01*
Y1413342D01*
X2353331Y1893336D02*
X2354997Y1895002D01*
Y1898334D01*
X2353331Y1900000D01*
X2346666D01*
X2345000Y1898334D01*
Y1895002D01*
X2346666Y1893336D01*
X2345000Y1883339D02*
Y1890003D01*
X2351664Y1883339D01*
X2353331D01*
X2354997Y1885005D01*
Y1888337D01*
X2353331Y1890003D01*
Y1880007D02*
X2354997Y1878340D01*
Y1875008D01*
X2353331Y1873342D01*
X2351664D01*
X2349998Y1875008D01*
Y1876674D01*
Y1875008D01*
X2348332Y1873342D01*
X2346666D01*
X2345000Y1875008D01*
Y1878340D01*
X2346666Y1880007D01*
X1363331Y1983336D02*
X1364997Y1985002D01*
Y1988334D01*
X1363331Y1990000D01*
X1356666D01*
X1355000Y1988334D01*
Y1985002D01*
X1356666Y1983336D01*
X1355000Y1973339D02*
Y1980003D01*
X1361664Y1973339D01*
X1363331D01*
X1364997Y1975005D01*
Y1978337D01*
X1363331Y1980003D01*
X1355000Y1963342D02*
Y1970006D01*
X1361664Y1963342D01*
X1363331D01*
X1364997Y1965008D01*
Y1968340D01*
X1363331Y1970006D01*
X1388331Y1978336D02*
X1389997Y1980002D01*
Y1983334D01*
X1388331Y1985000D01*
X1381666D01*
X1380000Y1983334D01*
Y1980002D01*
X1381666Y1978336D01*
X1380000Y1968339D02*
Y1975003D01*
X1386664Y1968339D01*
X1388331D01*
X1389997Y1970005D01*
Y1973337D01*
X1388331Y1975003D01*
X1380000Y1965006D02*
Y1961674D01*
Y1963340D01*
X1389997D01*
X1388331Y1965006D01*
X1393331Y2058336D02*
X1394997Y2060002D01*
Y2063334D01*
X1393331Y2065000D01*
X1386666D01*
X1385000Y2063334D01*
Y2060002D01*
X1386666Y2058336D01*
X1385000Y2048339D02*
Y2055003D01*
X1391664Y2048339D01*
X1393331D01*
X1394997Y2050005D01*
Y2053337D01*
X1393331Y2055003D01*
Y2045007D02*
X1394997Y2043340D01*
Y2040008D01*
X1393331Y2038342D01*
X1386666D01*
X1385000Y2040008D01*
Y2043340D01*
X1386666Y2045007D01*
X1393331D01*
X961665Y1278331D02*
X959998Y1279997D01*
X956666D01*
X955000Y1278331D01*
Y1271666D01*
X956666Y1270000D01*
X959998D01*
X961665Y1271666D01*
X964997Y1279997D02*
X971661D01*
Y1278331D01*
X964997Y1271666D01*
Y1270000D01*
X1161665Y1458331D02*
X1159998Y1459997D01*
X1156666D01*
X1155000Y1458331D01*
Y1451666D01*
X1156666Y1450000D01*
X1159998D01*
X1161665Y1451666D01*
X1171661Y1459997D02*
X1168329Y1458331D01*
X1164997Y1454998D01*
Y1451666D01*
X1166663Y1450000D01*
X1169995D01*
X1171661Y1451666D01*
Y1453332D01*
X1169995Y1454998D01*
X1164997D01*
X961665Y1683331D02*
X959998Y1684997D01*
X956666D01*
X955000Y1683331D01*
Y1676666D01*
X956666Y1675000D01*
X959998D01*
X961665Y1676666D01*
X971661Y1684997D02*
X964997D01*
Y1679998D01*
X968329Y1681664D01*
X969995D01*
X971661Y1679998D01*
Y1676666D01*
X969995Y1675000D01*
X966663D01*
X964997Y1676666D01*
X1161665Y1918331D02*
X1159998Y1919997D01*
X1156666D01*
X1155000Y1918331D01*
Y1911666D01*
X1156666Y1910000D01*
X1159998D01*
X1161665Y1911666D01*
X1169995Y1910000D02*
Y1919997D01*
X1164997Y1914998D01*
X1171661D01*
X961665Y2088331D02*
X959998Y2089997D01*
X956666D01*
X955000Y2088331D01*
Y2081666D01*
X956666Y2080000D01*
X959998D01*
X961665Y2081666D01*
X964997Y2088331D02*
X966663Y2089997D01*
X969995D01*
X971661Y2088331D01*
Y2086664D01*
X969995Y2084998D01*
X968329D01*
X969995D01*
X971661Y2083332D01*
Y2081666D01*
X969995Y2080000D01*
X966663D01*
X964997Y2081666D01*
X1161665Y2373331D02*
X1159998Y2374997D01*
X1156666D01*
X1155000Y2373331D01*
Y2366666D01*
X1156666Y2365000D01*
X1159998D01*
X1161665Y2366666D01*
X1171661Y2365000D02*
X1164997D01*
X1171661Y2371664D01*
Y2373331D01*
X1169995Y2374997D01*
X1166663D01*
X1164997Y2373331D01*
X2355000Y969997D02*
Y961666D01*
X2356666Y960000D01*
X2359998D01*
X2361664Y961666D01*
Y969997D01*
X2364997Y968331D02*
X2366663Y969997D01*
X2369995D01*
X2371661Y968331D01*
Y966665D01*
X2369995Y964998D01*
X2371661Y963332D01*
Y961666D01*
X2369995Y960000D01*
X2366663D01*
X2364997Y961666D01*
Y963332D01*
X2366663Y964998D01*
X2364997Y966665D01*
Y968331D01*
X2366663Y964998D02*
X2369995D01*
X1350000Y1199997D02*
Y1191666D01*
X1351666Y1190000D01*
X1354998D01*
X1356664Y1191666D01*
Y1199997D01*
X1359997D02*
X1366661D01*
Y1198331D01*
X1359997Y1191666D01*
Y1190000D01*
X2235000Y569997D02*
Y561666D01*
X2236666Y560000D01*
X2239998D01*
X2241664Y561666D01*
Y569997D01*
X2251661D02*
X2248329Y568331D01*
X2244997Y564998D01*
Y561666D01*
X2246663Y560000D01*
X2249995D01*
X2251661Y561666D01*
Y563332D01*
X2249995Y564998D01*
X2244997D01*
X1350000Y1644997D02*
Y1636666D01*
X1351666Y1635000D01*
X1354998D01*
X1356664Y1636666D01*
Y1644997D01*
X1366661D02*
X1359997D01*
Y1639998D01*
X1363329Y1641664D01*
X1364995D01*
X1366661Y1639998D01*
Y1636666D01*
X1364995Y1635000D01*
X1361663D01*
X1359997Y1636666D01*
X1350000Y2104997D02*
Y2096666D01*
X1351666Y2095000D01*
X1354998D01*
X1356664Y2096666D01*
Y2104997D01*
X1364995Y2095000D02*
Y2104997D01*
X1359997Y2099998D01*
X1366661D01*
X2269997Y1120000D02*
X2261666D01*
X2260000Y1118334D01*
Y1115002D01*
X2261666Y1113335D01*
X2269997D01*
X2268331Y1110003D02*
X2269997Y1108337D01*
Y1105005D01*
X2268331Y1103339D01*
X2266664D01*
X2264998Y1105005D01*
Y1106671D01*
Y1105005D01*
X2263332Y1103339D01*
X2261666D01*
X2260000Y1105005D01*
Y1108337D01*
X2261666Y1110003D01*
X2269997Y1555000D02*
X2261666D01*
X2260000Y1553334D01*
Y1550002D01*
X2261666Y1548336D01*
X2269997D01*
X2260000Y1538339D02*
Y1545003D01*
X2266664Y1538339D01*
X2268331D01*
X2269997Y1540005D01*
Y1543337D01*
X2268331Y1545003D01*
X2269997Y2015000D02*
X2261666D01*
X2260000Y2013334D01*
Y2010002D01*
X2261666Y2008336D01*
X2269997D01*
X2260000Y2005003D02*
Y2001671D01*
Y2003337D01*
X2269997D01*
X2268331Y2005003D01*
X3321050Y1514348D02*
Y1524345D01*
X3326048D01*
X3327715Y1522679D01*
Y1519346D01*
X3326048Y1517680D01*
X3321050D01*
X3324382D02*
X3327715Y1514348D01*
X3331047Y1524345D02*
Y1514348D01*
X3337711D01*
X3341044Y1524345D02*
X3347708D01*
Y1522679D01*
X3341044Y1516014D01*
Y1514348D01*
X3321050Y1874266D02*
Y1884263D01*
X3326048D01*
X3327715Y1882597D01*
Y1879264D01*
X3326048Y1877598D01*
X3321050D01*
X3324382D02*
X3327715Y1874266D01*
X3331047Y1884263D02*
Y1874266D01*
X3337711D01*
X3347708Y1884263D02*
X3344376Y1882597D01*
X3341044Y1879264D01*
Y1875932D01*
X3342710Y1874266D01*
X3346042D01*
X3347708Y1875932D01*
Y1877598D01*
X3346042Y1879264D01*
X3341044D01*
X3321050Y2234184D02*
Y2244181D01*
X3326048D01*
X3327715Y2242515D01*
Y2239182D01*
X3326048Y2237516D01*
X3321050D01*
X3324382D02*
X3327715Y2234184D01*
X3331047Y2244181D02*
Y2234184D01*
X3337711D01*
X3347708Y2244181D02*
X3341044D01*
Y2239182D01*
X3344376Y2240849D01*
X3346042D01*
X3347708Y2239182D01*
Y2235850D01*
X3346042Y2234184D01*
X3342710D01*
X3341044Y2235850D01*
X3021076Y1514348D02*
Y1524345D01*
X3026075D01*
X3027740Y1522679D01*
Y1519346D01*
X3026075Y1517680D01*
X3021076D01*
X3024408D02*
X3027740Y1514348D01*
X3031073Y1524345D02*
Y1514348D01*
X3037737D01*
X3046068D02*
Y1524345D01*
X3041070Y1519346D01*
X3047734D01*
X3021076Y1874266D02*
Y1884263D01*
X3026075D01*
X3027740Y1882597D01*
Y1879264D01*
X3026075Y1877598D01*
X3021076D01*
X3024408D02*
X3027740Y1874266D01*
X3031073Y1884263D02*
Y1874266D01*
X3037737D01*
X3041070Y1882597D02*
X3042736Y1884263D01*
X3046068D01*
X3047734Y1882597D01*
Y1880930D01*
X3046068Y1879264D01*
X3044402D01*
X3046068D01*
X3047734Y1877598D01*
Y1875932D01*
X3046068Y1874266D01*
X3042736D01*
X3041070Y1875932D01*
X3021076Y2234184D02*
Y2244181D01*
X3026075D01*
X3027740Y2242515D01*
Y2239182D01*
X3026075Y2237516D01*
X3021076D01*
X3024408D02*
X3027740Y2234184D01*
X3031073Y2244181D02*
Y2234184D01*
X3037737D01*
X3047734D02*
X3041070D01*
X3047734Y2240849D01*
Y2242515D01*
X3046068Y2244181D01*
X3042736D01*
X3041070Y2242515D01*
X2310000Y585000D02*
X2319997D01*
Y580002D01*
X2318331Y578335D01*
X2314998D01*
X2313332Y580002D01*
Y585000D01*
Y581668D02*
X2310000Y578335D01*
X2319997Y568339D02*
X2318331Y571671D01*
X2314998Y575003D01*
X2311666D01*
X2310000Y573337D01*
Y570005D01*
X2311666Y568339D01*
X2313332D01*
X2314998Y570005D01*
Y575003D01*
X2319997Y565006D02*
Y558342D01*
X2318331D01*
X2311666Y565006D01*
X2310000D01*
X3551664Y831666D02*
Y838331D01*
X3549998Y839997D01*
X3546666D01*
X3545000Y838331D01*
Y831666D01*
X3546666Y830000D01*
X3549998D01*
X3548332Y833332D02*
X3551664Y830000D01*
X3549998D02*
X3551664Y831666D01*
X3554997Y830000D02*
X3558329D01*
X3556663D01*
Y839997D01*
X3554997Y838331D01*
X3568326Y830000D02*
Y839997D01*
X3563327Y834998D01*
X3569992D01*
X3481664Y831666D02*
Y838331D01*
X3479998Y839997D01*
X3476666D01*
X3475000Y838331D01*
Y831666D01*
X3476666Y830000D01*
X3479998D01*
X3478332Y833332D02*
X3481664Y830000D01*
X3479998D02*
X3481664Y831666D01*
X3484997Y830000D02*
X3488329D01*
X3486663D01*
Y839997D01*
X3484997Y838331D01*
X3493327D02*
X3494994Y839997D01*
X3498326D01*
X3499992Y838331D01*
Y836665D01*
X3498326Y834998D01*
X3496660D01*
X3498326D01*
X3499992Y833332D01*
Y831666D01*
X3498326Y830000D01*
X3494994D01*
X3493327Y831666D01*
X1571666Y1083335D02*
X1578331D01*
X1579997Y1085002D01*
Y1088334D01*
X1578331Y1090000D01*
X1571666D01*
X1570000Y1088334D01*
Y1085002D01*
X1573332Y1086668D02*
X1570000Y1083335D01*
Y1085002D02*
X1571666Y1083335D01*
X1570000Y1080003D02*
Y1076671D01*
Y1078337D01*
X1579997D01*
X1578331Y1080003D01*
X1570000Y1065008D02*
Y1071673D01*
X1576664Y1065008D01*
X1578331D01*
X1579997Y1066674D01*
Y1070006D01*
X1578331Y1071673D01*
X1431666Y1083335D02*
X1438331D01*
X1439997Y1085002D01*
Y1088334D01*
X1438331Y1090000D01*
X1431666D01*
X1430000Y1088334D01*
Y1085002D01*
X1433332Y1086668D02*
X1430000Y1083335D01*
Y1085002D02*
X1431666Y1083335D01*
X1430000Y1080003D02*
Y1076671D01*
Y1078337D01*
X1439997D01*
X1438331Y1080003D01*
X1430000Y1071673D02*
Y1068340D01*
Y1070006D01*
X1439997D01*
X1438331Y1071673D01*
X1571666Y1543336D02*
X1578331D01*
X1579997Y1545002D01*
Y1548334D01*
X1578331Y1550000D01*
X1571666D01*
X1570000Y1548334D01*
Y1545002D01*
X1573332Y1546668D02*
X1570000Y1543336D01*
Y1545002D02*
X1571666Y1543336D01*
X1570000Y1540003D02*
Y1536671D01*
Y1538337D01*
X1579997D01*
X1578331Y1540003D01*
Y1531673D02*
X1579997Y1530006D01*
Y1526674D01*
X1578331Y1525008D01*
X1571666D01*
X1570000Y1526674D01*
Y1530006D01*
X1571666Y1531673D01*
X1578331D01*
X1431666Y1543336D02*
X1438331D01*
X1439997Y1545002D01*
Y1548334D01*
X1438331Y1550000D01*
X1431666D01*
X1430000Y1548334D01*
Y1545002D01*
X1433332Y1546668D02*
X1430000Y1543336D01*
Y1545002D02*
X1431666Y1543336D01*
Y1540003D02*
X1430000Y1538337D01*
Y1535005D01*
X1431666Y1533339D01*
X1438331D01*
X1439997Y1535005D01*
Y1538337D01*
X1438331Y1540003D01*
X1436664D01*
X1434998Y1538337D01*
Y1533339D01*
X1571666Y1998336D02*
X1578331D01*
X1579997Y2000002D01*
Y2003334D01*
X1578331Y2005000D01*
X1571666D01*
X1570000Y2003334D01*
Y2000002D01*
X1573332Y2001668D02*
X1570000Y1998336D01*
Y2000002D02*
X1571666Y1998336D01*
X1578331Y1995003D02*
X1579997Y1993337D01*
Y1990005D01*
X1578331Y1988339D01*
X1576664D01*
X1574998Y1990005D01*
X1573332Y1988339D01*
X1571666D01*
X1570000Y1990005D01*
Y1993337D01*
X1571666Y1995003D01*
X1573332D01*
X1574998Y1993337D01*
X1576664Y1995003D01*
X1578331D01*
X1574998Y1993337D02*
Y1990005D01*
X1431666Y1998336D02*
X1438331D01*
X1439997Y2000002D01*
Y2003334D01*
X1438331Y2005000D01*
X1431666D01*
X1430000Y2003334D01*
Y2000002D01*
X1433332Y2001668D02*
X1430000Y1998336D01*
Y2000002D02*
X1431666Y1998336D01*
X1439997Y1995003D02*
Y1988339D01*
X1438331D01*
X1431666Y1995003D01*
X1430000D01*
X1571666Y1303336D02*
X1578331D01*
X1579997Y1305002D01*
Y1308334D01*
X1578331Y1310000D01*
X1571666D01*
X1570000Y1308334D01*
Y1305002D01*
X1573332Y1306668D02*
X1570000Y1303336D01*
Y1305002D02*
X1571666Y1303336D01*
X1579997Y1293339D02*
X1578331Y1296671D01*
X1574998Y1300003D01*
X1571666D01*
X1570000Y1298337D01*
Y1295005D01*
X1571666Y1293339D01*
X1573332D01*
X1574998Y1295005D01*
Y1300003D01*
X1431666Y1303336D02*
X1438331D01*
X1439997Y1305002D01*
Y1308334D01*
X1438331Y1310000D01*
X1431666D01*
X1430000Y1308334D01*
Y1305002D01*
X1433332Y1306668D02*
X1430000Y1303336D01*
Y1305002D02*
X1431666Y1303336D01*
X1439997Y1293339D02*
Y1300003D01*
X1434998D01*
X1436664Y1296671D01*
Y1295005D01*
X1434998Y1293339D01*
X1431666D01*
X1430000Y1295005D01*
Y1298337D01*
X1431666Y1300003D01*
X1571666Y1763336D02*
X1578331D01*
X1579997Y1765002D01*
Y1768334D01*
X1578331Y1770000D01*
X1571666D01*
X1570000Y1768334D01*
Y1765002D01*
X1573332Y1766668D02*
X1570000Y1763336D01*
Y1765002D02*
X1571666Y1763336D01*
X1570000Y1755005D02*
X1579997D01*
X1574998Y1760003D01*
Y1753339D01*
X1431666Y1763336D02*
X1438331D01*
X1439997Y1765002D01*
Y1768334D01*
X1438331Y1770000D01*
X1431666D01*
X1430000Y1768334D01*
Y1765002D01*
X1433332Y1766668D02*
X1430000Y1763336D01*
Y1765002D02*
X1431666Y1763336D01*
X1438331Y1760003D02*
X1439997Y1758337D01*
Y1755005D01*
X1438331Y1753339D01*
X1436664D01*
X1434998Y1755005D01*
Y1756671D01*
Y1755005D01*
X1433332Y1753339D01*
X1431666D01*
X1430000Y1755005D01*
Y1758337D01*
X1431666Y1760003D01*
X1571666Y2223336D02*
X1578331D01*
X1579997Y2225002D01*
Y2228334D01*
X1578331Y2230000D01*
X1571666D01*
X1570000Y2228334D01*
Y2225002D01*
X1573332Y2226668D02*
X1570000Y2223336D01*
Y2225002D02*
X1571666Y2223336D01*
X1570000Y2213339D02*
Y2220003D01*
X1576664Y2213339D01*
X1578331D01*
X1579997Y2215005D01*
Y2218337D01*
X1578331Y2220003D01*
X1431666Y2218336D02*
X1438331D01*
X1439997Y2220002D01*
Y2223334D01*
X1438331Y2225000D01*
X1431666D01*
X1430000Y2223334D01*
Y2220002D01*
X1433332Y2221668D02*
X1430000Y2218336D01*
Y2220002D02*
X1431666Y2218336D01*
X1430000Y2215003D02*
Y2211671D01*
Y2213337D01*
X1439997D01*
X1438331Y2215003D01*
X3619500Y1270762D02*
Y1280759D01*
X3624498D01*
X3626165Y1279093D01*
Y1275760D01*
X3624498Y1274094D01*
X3619500D01*
X3629497Y1279093D02*
X3631163Y1280759D01*
X3634495D01*
X3636161Y1279093D01*
Y1277427D01*
X3634495Y1275760D01*
X3636161Y1274094D01*
Y1272428D01*
X3634495Y1270762D01*
X3631163D01*
X3629497Y1272428D01*
Y1274094D01*
X3631163Y1275760D01*
X3629497Y1277427D01*
Y1279093D01*
X3631163Y1275760D02*
X3634495D01*
X3619500Y1670812D02*
Y1680809D01*
X3624498D01*
X3626165Y1679143D01*
Y1675810D01*
X3624498Y1674144D01*
X3619500D01*
X3629497Y1680809D02*
X3636161D01*
Y1679143D01*
X3629497Y1672478D01*
Y1670812D01*
X3619500Y2070862D02*
Y2080859D01*
X3624498D01*
X3626165Y2079193D01*
Y2075860D01*
X3624498Y2074194D01*
X3619500D01*
X3636161Y2080859D02*
X3632829Y2079193D01*
X3629497Y2075860D01*
Y2072528D01*
X3631163Y2070862D01*
X3634495D01*
X3636161Y2072528D01*
Y2074194D01*
X3634495Y2075860D01*
X3629497D01*
X949706Y740918D02*
Y750915D01*
X954704D01*
X956370Y749249D01*
Y745916D01*
X954704Y744250D01*
X949706D01*
X966367Y750915D02*
X959703D01*
Y745916D01*
X963035Y747582D01*
X964701D01*
X966367Y745916D01*
Y742584D01*
X964701Y740918D01*
X961369D01*
X959703Y742584D01*
X3619500Y1470914D02*
Y1480911D01*
X3624498D01*
X3626165Y1479245D01*
Y1475912D01*
X3624498Y1474246D01*
X3619500D01*
X3634495Y1470914D02*
Y1480911D01*
X3629497Y1475912D01*
X3636161D01*
X3619500Y1870964D02*
Y1880961D01*
X3624498D01*
X3626165Y1879295D01*
Y1875962D01*
X3624498Y1874296D01*
X3619500D01*
X3629497Y1879295D02*
X3631163Y1880961D01*
X3634495D01*
X3636161Y1879295D01*
Y1877628D01*
X3634495Y1875962D01*
X3632829D01*
X3634495D01*
X3636161Y1874296D01*
Y1872630D01*
X3634495Y1870964D01*
X3631163D01*
X3629497Y1872630D01*
X3619500Y2270760D02*
Y2280757D01*
X3624498D01*
X3626165Y2279091D01*
Y2275758D01*
X3624498Y2274092D01*
X3619500D01*
X3636161Y2270760D02*
X3629497D01*
X3636161Y2277424D01*
Y2279091D01*
X3634495Y2280757D01*
X3631163D01*
X3629497Y2279091D01*
X949706Y950976D02*
Y960973D01*
X954704D01*
X956370Y959307D01*
Y955974D01*
X954704Y954308D01*
X949706D01*
X959703Y950976D02*
X963035D01*
X961369D01*
Y960973D01*
X959703Y959307D01*
X1800860Y1427825D02*
Y1417828D01*
X1807525D01*
X1810857Y1426159D02*
X1812523Y1427825D01*
X1815855D01*
X1817521Y1426159D01*
Y1424492D01*
X1815855Y1422826D01*
X1814189D01*
X1815855D01*
X1817521Y1421160D01*
Y1419494D01*
X1815855Y1417828D01*
X1812523D01*
X1810857Y1419494D01*
X1800860Y1887819D02*
Y1877822D01*
X1807525D01*
X1817521D02*
X1810857D01*
X1817521Y1884487D01*
Y1886153D01*
X1815855Y1887819D01*
X1812523D01*
X1810857Y1886153D01*
X1800860Y2347813D02*
Y2337816D01*
X1807525D01*
X1810857D02*
X1814189D01*
X1812523D01*
Y2347813D01*
X1810857Y2346147D01*
X2713034Y1480769D02*
X2711368Y1482435D01*
X2708036D01*
X2706370Y1480769D01*
Y1474104D01*
X2708036Y1472438D01*
X2711368D01*
X2713034Y1474104D01*
X2716367Y1472438D02*
X2719699D01*
X2718033D01*
Y1482435D01*
X2716367Y1480769D01*
X2724697Y1482435D02*
X2731362D01*
Y1480769D01*
X2724697Y1474104D01*
Y1472438D01*
X2402901Y1480769D02*
X2401234Y1482435D01*
X2397902D01*
X2396236Y1480769D01*
Y1474104D01*
X2397902Y1472438D01*
X2401234D01*
X2402901Y1474104D01*
X2406233Y1472438D02*
X2409565D01*
X2407899D01*
Y1482435D01*
X2406233Y1480769D01*
X2421228Y1482435D02*
X2417896Y1480769D01*
X2414563Y1477436D01*
Y1474104D01*
X2416230Y1472438D01*
X2419562D01*
X2421228Y1474104D01*
Y1475770D01*
X2419562Y1477436D01*
X2414563D01*
X2713034Y1930603D02*
X2711368Y1932269D01*
X2708036D01*
X2706370Y1930603D01*
Y1923938D01*
X2708036Y1922272D01*
X2711368D01*
X2713034Y1923938D01*
X2716367Y1922272D02*
X2719699D01*
X2718033D01*
Y1932269D01*
X2716367Y1930603D01*
X2724697Y1922272D02*
X2728030D01*
X2726364D01*
Y1932269D01*
X2724697Y1930603D01*
X2402901D02*
X2401234Y1932269D01*
X2397902D01*
X2396236Y1930603D01*
Y1923938D01*
X2397902Y1922272D01*
X2401234D01*
X2402901Y1923938D01*
X2406233Y1922272D02*
X2409565D01*
X2407899D01*
Y1932269D01*
X2406233Y1930603D01*
X2414563D02*
X2416230Y1932269D01*
X2419562D01*
X2421228Y1930603D01*
Y1923938D01*
X2419562Y1922272D01*
X2416230D01*
X2414563Y1923938D01*
Y1930603D01*
X2713034Y2380691D02*
X2711368Y2382357D01*
X2708036D01*
X2706370Y2380691D01*
Y2374026D01*
X2708036Y2372360D01*
X2711368D01*
X2713034Y2374026D01*
X2716367D02*
X2718033Y2372360D01*
X2721365D01*
X2723031Y2374026D01*
Y2380691D01*
X2721365Y2382357D01*
X2718033D01*
X2716367Y2380691D01*
Y2379025D01*
X2718033Y2377358D01*
X2723031D01*
X2402901Y2380691D02*
X2401234Y2382357D01*
X2397902D01*
X2396236Y2380691D01*
Y2374026D01*
X2397902Y2372360D01*
X2401234D01*
X2402901Y2374026D01*
X2406233Y2380691D02*
X2407899Y2382357D01*
X2411231D01*
X2412897Y2380691D01*
Y2379025D01*
X2411231Y2377358D01*
X2412897Y2375692D01*
Y2374026D01*
X2411231Y2372360D01*
X2407899D01*
X2406233Y2374026D01*
Y2375692D01*
X2407899Y2377358D01*
X2406233Y2379025D01*
Y2380691D01*
X2407899Y2377358D02*
X2411231D01*
D18*
X1533000Y935332D02*
Y951326D01*
X1540997D01*
X1543663Y948661D01*
Y943329D01*
X1540997Y940663D01*
X1533000D01*
X1538332D02*
X1543663Y935332D01*
X1556992D02*
X1551661D01*
X1548995Y937997D01*
Y943329D01*
X1551661Y945995D01*
X1556992D01*
X1559658Y943329D01*
Y940663D01*
X1548995D01*
X1564990Y945995D02*
X1570321Y935332D01*
X1575653Y945995D01*
X1596979Y935332D02*
X1602311D01*
X1599645D01*
Y951326D01*
X1596979Y948661D01*
X1636966D02*
X1634301Y951326D01*
X1628969D01*
X1626303Y948661D01*
Y945995D01*
X1628969Y943329D01*
X1634301D01*
X1636966Y940663D01*
Y937997D01*
X1634301Y935332D01*
X1628969D01*
X1626303Y937997D01*
X1650295Y935332D02*
X1644964D01*
X1642298Y937997D01*
Y943329D01*
X1644964Y945995D01*
X1650295D01*
X1652961Y943329D01*
Y940663D01*
X1642298D01*
X1658293Y930000D02*
Y945995D01*
X1666290D01*
X1668956Y943329D01*
Y937997D01*
X1666290Y935332D01*
X1658293D01*
X1676953Y948661D02*
Y945995D01*
X1674288D01*
X1679619D01*
X1676953D01*
Y937997D01*
X1679619Y935332D01*
X1714274D02*
X1703611D01*
X1714274Y945995D01*
Y948661D01*
X1711609Y951326D01*
X1706277D01*
X1703611Y948661D01*
X1719606D02*
X1722272Y951326D01*
X1727603D01*
X1730269Y948661D01*
Y937997D01*
X1727603Y935332D01*
X1722272D01*
X1719606Y937997D01*
Y948661D01*
X1746264Y935332D02*
X1735601D01*
X1746264Y945995D01*
Y948661D01*
X1743598Y951326D01*
X1738267D01*
X1735601Y948661D01*
X1751596Y935332D02*
X1756927D01*
X1754261D01*
Y951326D01*
X1751596Y948661D01*
X1533000Y985326D02*
Y969332D01*
X1540997D01*
X1543663Y971997D01*
Y974663D01*
X1540997Y977329D01*
X1533000D01*
X1540997D01*
X1543663Y979995D01*
Y982661D01*
X1540997Y985326D01*
X1533000D01*
X1551661Y979995D02*
X1556992D01*
X1559658Y977329D01*
Y969332D01*
X1551661D01*
X1548995Y971997D01*
X1551661Y974663D01*
X1559658D01*
X1575653Y985326D02*
Y969332D01*
X1567655D01*
X1564990Y971997D01*
Y977329D01*
X1567655Y979995D01*
X1575653D01*
X1591648Y985326D02*
X1580984D01*
Y977329D01*
X1586316D01*
X1580984D01*
Y969332D01*
X1599645D02*
X1604977D01*
X1607643Y971997D01*
Y977329D01*
X1604977Y979995D01*
X1599645D01*
X1596979Y977329D01*
Y971997D01*
X1599645Y969332D01*
X1612974Y979995D02*
X1623637Y969332D01*
X1618306Y974663D01*
X1623637Y979995D01*
X1612974Y969332D01*
X1644964Y985326D02*
X1650295D01*
X1647630D01*
Y969332D01*
X1644964D01*
X1650295D01*
X1658293D02*
Y979995D01*
X1666290D01*
X1668956Y977329D01*
Y969332D01*
X1674288Y979995D02*
X1679619Y969332D01*
X1684951Y979995D01*
X1698280Y969332D02*
X1692948D01*
X1690282Y971997D01*
Y977329D01*
X1692948Y979995D01*
X1698280D01*
X1700945Y977329D01*
Y974663D01*
X1690282D01*
X1706277Y979995D02*
Y969332D01*
Y974663D01*
X1708943Y977329D01*
X1711609Y979995D01*
X1714274D01*
X1724938Y982661D02*
Y979995D01*
X1722272D01*
X1727603D01*
X1724938D01*
Y971997D01*
X1727603Y969332D01*
X1743598D02*
X1738267D01*
X1735601Y971997D01*
Y977329D01*
X1738267Y979995D01*
X1743598D01*
X1746264Y977329D01*
Y974663D01*
X1735601D01*
X1751596Y979995D02*
Y969332D01*
Y974663D01*
X1754261Y977329D01*
X1756927Y979995D01*
X1759593D01*
X1767590Y977329D02*
X1778254D01*
X1794249Y982661D02*
X1791583Y985326D01*
X1786251D01*
X1783585Y982661D01*
Y971997D01*
X1786251Y969332D01*
X1791583D01*
X1794249Y971997D01*
X1799580Y985326D02*
Y969332D01*
Y977329D01*
X1802246Y979995D01*
X1807578D01*
X1810243Y977329D01*
Y969332D01*
X1818241Y979995D02*
X1823572D01*
X1826238Y977329D01*
Y969332D01*
X1818241D01*
X1815575Y971997D01*
X1818241Y974663D01*
X1826238D01*
X1831570Y979995D02*
Y969332D01*
Y974663D01*
X1834236Y977329D01*
X1836901Y979995D01*
X1839567D01*
X1852896Y964000D02*
X1855562D01*
X1858228Y966666D01*
Y979995D01*
X1850230D01*
X1847565Y977329D01*
Y971997D01*
X1850230Y969332D01*
X1858228D01*
X1871557D02*
X1866225D01*
X1863559Y971997D01*
Y977329D01*
X1866225Y979995D01*
X1871557D01*
X1874223Y977329D01*
Y974663D01*
X1863559D01*
X1879554Y979995D02*
Y969332D01*
Y974663D01*
X1882220Y977329D01*
X1884886Y979995D01*
X1887552D01*
X1911544Y985326D02*
X1922207D01*
X1916875D01*
Y969332D01*
X1935536D02*
X1930204D01*
X1927539Y971997D01*
Y977329D01*
X1930204Y979995D01*
X1935536D01*
X1938202Y977329D01*
Y974663D01*
X1927539D01*
X1943533Y969332D02*
X1951531D01*
X1954197Y971997D01*
X1951531Y974663D01*
X1946199D01*
X1943533Y977329D01*
X1946199Y979995D01*
X1954197D01*
X1962194Y982661D02*
Y979995D01*
X1959528D01*
X1964860D01*
X1962194D01*
Y971997D01*
X1964860Y969332D01*
X1972857Y985326D02*
Y969332D01*
X1980855D01*
X1983521Y971997D01*
Y974663D01*
Y977329D01*
X1980855Y979995D01*
X1972857D01*
X1996850Y969332D02*
X1991518D01*
X1988852Y971997D01*
Y977329D01*
X1991518Y979995D01*
X1996850D01*
X1999515Y977329D01*
Y974663D01*
X1988852Y974663D01*
X2015510Y985326D02*
Y969332D01*
X2007513D01*
X2004847Y971997D01*
Y977329D01*
X2007513Y979995D01*
X2015510D01*
X1120997Y877000D02*
Y866337D01*
X1126329Y871668D02*
X1115666D01*
X1128995Y813021D02*
X1113000D01*
Y805023D01*
X1115666Y802357D01*
X1126329D01*
X1128995Y805023D01*
Y813021D01*
X1126329Y786363D02*
X1128995Y789028D01*
Y794360D01*
X1126329Y797026D01*
X1115666D01*
X1113000Y794360D01*
Y789028D01*
X1115666Y786363D01*
X1128995Y765036D02*
X1113000D01*
Y757039D01*
X1115666Y754373D01*
X1118332D01*
X1120997Y757039D01*
Y765036D01*
Y757039D01*
X1123663Y754373D01*
X1126329D01*
X1128995Y757039D01*
Y765036D01*
X1123663Y749042D02*
X1115666D01*
X1113000Y746376D01*
Y738378D01*
X1123663D01*
X1113000Y733047D02*
Y725049D01*
X1115666Y722383D01*
X1118332Y725049D01*
Y730381D01*
X1120997Y733047D01*
X1123663Y730381D01*
Y722383D01*
X1120997Y653073D02*
Y642409D01*
D19*
X1393000Y1128250D02*
D03*
D20*
X1382340Y1557750D02*
D03*
D21*
X1383000Y2017250D02*
D03*
M02*
